<svg xmlns="http://www.w3.org/2000/svg" width="102.963" height="85.209" viewBox="0 0 102.963 85.209">
  <g id="Group_22" data-name="Group 22" transform="translate(-1520.437 -10869.33)">
    <g id="Note_taking_Flatline" data-name="Note taking_Flatline" transform="translate(1520.437 10869.33)">
      <path id="Path_795" data-name="Path 795" d="M106.413,157.357S109,141.9,109.9,138.691c2.893-10.36-2.029-41.159-2.029-41.468s-15.213,14.515-15.814,20.419c-.288,2.841-.268,14.02-.02,18.07.158,2.532-4.216,19.648-4.216,19.648Z" transform="translate(-84.99 -76.036)" fill="#fff"/>
      <path id="Path_796" data-name="Path 796" d="M106.114,157.252h-.024l-18.593-2a.191.191,0,0,1-.142-.085.2.2,0,0,1-.032-.166c.045-.17,4.366-17.116,4.212-19.587-.239-3.932-.268-15.229.02-18.1.317-3.125,4.561-8.522,8.067-12.535,3.125-3.563,7.568-8.079,7.945-8.079h0a.211.211,0,0,1,.195.211c0,.041.053.406.126.893,2.918,20.147,3.6,34.573,1.9,40.623-.885,3.173-3.457,18.5-3.482,18.666a.2.2,0,0,1-.195.158Zm-18.342-2.374,18.171,1.948c.3-1.777,2.621-15.509,3.461-18.508,1.676-6,.994-20.362-1.915-40.457-.037-.264-.065-.45-.085-.588-2,1.745-14.9,14.734-15.444,20.082-.292,2.841-.26,14.117-.02,18.037C92.09,137.806,88.312,152.756,87.772,154.878Z" transform="translate(-84.69 -75.728)" fill="#231f20"/>
      <path id="Path_797" data-name="Path 797" d="M112.8,80.261l1.027-1.911,62.5,30.43L175.3,110.7l-51.58,12.973Z" transform="translate(-99.833 -64.825)" fill="#fff"/>
      <path id="Path_798" data-name="Path 798" d="M123.415,123.55a.2.2,0,0,1-.2-.154L112.3,79.976a.2.2,0,0,1,0-.146l1.023-1.915a.2.2,0,0,1,.268-.085l62.491,30.434a.2.2,0,0,1,.106.122.215.215,0,0,1,0,.158l-1.023,1.911a.2.2,0,0,1-.13.1l-51.584,12.985Zm-10.7-43.582L123.561,123.1l51.3-12.9.881-1.652L113.607,78.292Z" transform="translate(-99.528 -64.503)" fill="#231f20"/>
      <rect id="Rectangle_219" data-name="Rectangle 219" width="53.191" height="44.758" transform="matrix(0.97, -0.244, 0.244, 0.97, 13.991, 13.519)" fill="#fff"/>
      <path id="Path_799" data-name="Path 799" d="M125.946,102.618a.2.2,0,0,1-.105-.028.227.227,0,0,1-.093-.126L114.832,59.045a.207.207,0,0,1,.146-.248l51.584-12.985a.207.207,0,0,1,.154.024.2.2,0,0,1,.093.122l10.916,43.419a.2.2,0,0,1-.146.248L125.995,102.61Zm-10.672-43.46,10.818,43.014L177.282,89.3,166.464,46.291Z" transform="translate(-101.037 -45.487)" fill="#231f20"/>
      <circle id="Ellipse_64" data-name="Ellipse 64" cx="1.461" cy="1.461" r="1.461" transform="translate(22.799 13.262)" fill="#231f20"/>
      <path id="Path_800" data-name="Path 800" d="M138.208,80.527a1.664,1.664,0,1,1,1.623-2.07h0a1.664,1.664,0,0,1-1.217,2.029A1.57,1.57,0,0,1,138.208,80.527Zm0-2.922a1.152,1.152,0,0,0-.308.041,1.246,1.246,0,1,0,.308-.041Z" transform="translate(-113.948 -64.141)" fill="#231f20"/>
      <rect id="Rectangle_220" data-name="Rectangle 220" width="1.753" height="6.813" rx="0.877" transform="matrix(0.97, -0.244, 0.244, 0.97, 21.862, 8.696)" fill="#fff"/>
      <path id="Path_801" data-name="Path 801" d="M136.986,72.434a1.083,1.083,0,0,1-1.047-.812l-1.238-4.91a1.08,1.08,0,1,1,2.094-.528l1.217,4.91a1.079,1.079,0,0,1-.775,1.307h0A1.136,1.136,0,0,1,136.986,72.434Zm.211-.231Zm-1.449-6.432a.742.742,0,0,0-.162,0,.674.674,0,0,0-.491.812l1.238,4.91a.674.674,0,0,0,.812.491h0a.678.678,0,0,0,.406-.308.666.666,0,0,0,.073-.511l-1.217-4.906A.674.674,0,0,0,135.749,65.771Z" transform="translate(-112.828 -57.111)" fill="#231f20"/>
      <circle id="Ellipse_65" data-name="Ellipse 65" cx="1.461" cy="1.461" r="1.461" transform="translate(31.008 11.196)" fill="#231f20"/>
      <path id="Path_802" data-name="Path 802" d="M158.446,75.461a1.656,1.656,0,1,1,.406-.049,1.761,1.761,0,0,1-.406.049Zm0-2.918a1.335,1.335,0,0,0-.308.037,1.262,1.262,0,1,0,.308-.037Z" transform="translate(-125.977 -61.14)" fill="#231f20"/>
      <rect id="Rectangle_221" data-name="Rectangle 221" width="1.753" height="6.813" rx="0.877" transform="matrix(0.97, -0.244, 0.244, 0.97, 30.071, 6.634)" fill="#fff"/>
      <path id="Path_803" data-name="Path 803" d="M157.228,67.338a1.083,1.083,0,0,1-1.047-.812l-1.23-4.914a1.08,1.08,0,1,1,2.094-.528l1.217,4.91a1.083,1.083,0,0,1-.783,1.311h0A1.135,1.135,0,0,1,157.228,67.338Zm.211-.231Zm-1.449-6.432a.742.742,0,0,0-.162,0,.678.678,0,0,0-.491.812l1.238,4.934a.674.674,0,1,0,1.3-.329l-1.217-4.906a.678.678,0,0,0-.67-.511Z" transform="translate(-124.861 -54.08)" fill="#231f20"/>
      <circle id="Ellipse_66" data-name="Ellipse 66" cx="1.461" cy="1.461" r="1.461" transform="translate(39.217 9.131)" fill="#231f20"/>
      <path id="Path_804" data-name="Path 804" d="M178.676,70.371a1.656,1.656,0,1,1,.406-.049A1.762,1.762,0,0,1,178.676,70.371Zm0-2.918a1.335,1.335,0,0,0-.308.037,1.311,1.311,0,1,0,1.522.913h0a1.238,1.238,0,0,0-.572-.771,1.258,1.258,0,0,0-.641-.191Z" transform="translate(-137.998 -58.116)" fill="#231f20"/>
      <rect id="Rectangle_222" data-name="Rectangle 222" width="1.753" height="6.813" rx="0.877" transform="matrix(0.97, -0.244, 0.244, 0.97, 38.279, 4.568)" fill="#fff"/>
      <path id="Path_805" data-name="Path 805" d="M177.473,62.251a1.08,1.08,0,0,1-.552-.154,1.055,1.055,0,0,1-.491-.661l-1.217-4.91A1.079,1.079,0,1,1,177.306,56l1.217,4.906a1.071,1.071,0,0,1-.783,1.311,1.145,1.145,0,0,1-.268.032Zm-1.217-6.663a.568.568,0,0,0-.166.024.674.674,0,0,0-.491.812l1.217,4.91a.637.637,0,0,0,.3.406.665.665,0,0,0,.511.077h0a.678.678,0,0,0,.406-.308A.653.653,0,0,0,178.11,61l-1.217-4.91a.678.678,0,0,0-.308-.406.649.649,0,0,0-.341-.1Z" transform="translate(-136.9 -51.059)" fill="#231f20"/>
      <circle id="Ellipse_67" data-name="Ellipse 67" cx="1.461" cy="1.461" r="1.461" transform="translate(47.426 7.069)" fill="#231f20"/>
      <path id="Path_806" data-name="Path 806" d="M198.9,65.257a1.664,1.664,0,1,1,1.623-2.065h0a1.664,1.664,0,0,1-1.217,2.029A1.761,1.761,0,0,1,198.9,65.257Zm0-2.918a1.335,1.335,0,0,0-.308.037,1.248,1.248,0,1,0,1.526.9h0A1.258,1.258,0,0,0,198.9,62.34Z" transform="translate(-150.009 -55.067)" fill="#231f20"/>
      <rect id="Rectangle_223" data-name="Rectangle 223" width="1.753" height="6.813" rx="0.877" transform="matrix(0.97, -0.244, 0.244, 0.97, 46.487, 2.502)" fill="#fff"/>
      <path id="Path_807" data-name="Path 807" d="M197.676,57.172a1.071,1.071,0,0,1-.552-.154,1.055,1.055,0,0,1-.491-.661l-1.238-4.91a1.087,1.087,0,0,1,.122-.812,1.067,1.067,0,0,1,.661-.491,1.092,1.092,0,0,1,.812.118,1.076,1.076,0,0,1,.491.665l1.217,4.91a1.071,1.071,0,0,1-.783,1.307h0A.957.957,0,0,1,197.676,57.172Zm-1.242-6.659a.556.556,0,0,0-.162,0,.669.669,0,0,0-.406.3.686.686,0,0,0-.077.511l1.238,4.91a.657.657,0,0,0,.3.406.682.682,0,0,0,.511.073h0a.67.67,0,0,0,.487-.812L197.112,51a.674.674,0,0,0-.678-.483Z" transform="translate(-148.894 -48.045)" fill="#231f20"/>
      <circle id="Ellipse_68" data-name="Ellipse 68" cx="1.461" cy="1.461" r="1.461" transform="translate(55.635 5.004)" fill="#231f20"/>
      <path id="Path_808" data-name="Path 808" d="M219.126,60.127a1.664,1.664,0,1,1,1.623-2.065h0a1.664,1.664,0,0,1-1.217,2.029A1.762,1.762,0,0,1,219.126,60.127Zm0-2.918a1.152,1.152,0,0,0-.308.041,1.254,1.254,0,1,0,1.526.909h0a1.258,1.258,0,0,0-1.217-.933Z" transform="translate(-162.03 -52.019)" fill="#231f20"/>
      <rect id="Rectangle_224" data-name="Rectangle 224" width="1.753" height="6.813" rx="0.877" transform="matrix(0.97, -0.244, 0.244, 0.97, 54.695, 0.437)" fill="#fff"/>
      <path id="Path_809" data-name="Path 809" d="M217.9,52.08a1.075,1.075,0,0,1-1.043-.812l-1.238-4.906a1.08,1.08,0,0,1,2.094-.528l1.217,4.91a1.075,1.075,0,0,1-.783,1.307h0A.958.958,0,0,1,217.9,52.08Zm.215-.227Zm-1.449-6.436a.742.742,0,0,0-.162.02.674.674,0,0,0-.491.812l1.238,4.91a.674.674,0,0,0,1.3-.329l-1.217-4.91A.674.674,0,0,0,216.669,45.417Z" transform="translate(-160.912 -45.019)" fill="#231f20"/>
      <line id="Line_11" data-name="Line 11" x1="1.023" y2="1.915" transform="translate(23.887 56.929)" fill="#fff"/>
      <path id="Path_810" data-name="Path 810" d="M139.412,187.132a.215.215,0,0,1-.1-.024.2.2,0,0,1-.081-.276l1.023-1.911a.2.2,0,0,1,.272-.085.2.2,0,0,1,.085.276l-1.023,1.915A.211.211,0,0,1,139.412,187.132Z" transform="translate(-115.525 -128.085)" fill="#231f20"/>
      <circle id="Ellipse_69" data-name="Ellipse 69" cx="0.755" cy="0.755" r="0.755" transform="translate(22.856 22.14)" fill="#d1d3d4"/>
      <path id="Path_811" data-name="Path 811" d="M182.7,77.559a1.469,1.469,0,0,1-.921-.053,1.217,1.217,0,0,0-.779-.049,1.193,1.193,0,0,0-.661.406,1.473,1.473,0,0,1-.787.483,1.457,1.457,0,0,1-.917-.053,1.217,1.217,0,0,0-.779-.049,1.193,1.193,0,0,0-.661.406,1.477,1.477,0,0,1-.783.483,1.5,1.5,0,0,1-.921-.053,1.169,1.169,0,0,0-.775-.049,1.217,1.217,0,0,0-.665.406,1.461,1.461,0,0,1-.783.483,1.5,1.5,0,0,1-.921-.053,1.278,1.278,0,0,0-1.436.361,1.449,1.449,0,0,1-.787.5,1.432,1.432,0,0,1-.917-.053,1.278,1.278,0,0,0-1.437.361,1.538,1.538,0,0,1-1.7.43,1.217,1.217,0,0,0-.779-.049,1.193,1.193,0,0,0-.661.406,1.534,1.534,0,0,1-1.7.43,1.278,1.278,0,0,0-1.437.361,1.538,1.538,0,0,1-1.7.43,1.185,1.185,0,0,0-.779-.049,1.173,1.173,0,0,0-.661.406,1.526,1.526,0,0,1-1.7.406,1.29,1.29,0,0,0-1.436.365,1.449,1.449,0,0,1-.787.479,1.432,1.432,0,0,1-.917-.053,1.278,1.278,0,0,0-1.437.361,1.465,1.465,0,0,1-.767.5,1.424,1.424,0,0,1-.917-.053,1.217,1.217,0,0,0-.779-.049.127.127,0,0,1-.061-.248,1.424,1.424,0,0,1,.917.053,1.282,1.282,0,0,0,1.441-.361,1.477,1.477,0,0,1,.783-.483,1.5,1.5,0,0,1,.921.053,1.278,1.278,0,0,0,1.436-.361,1.477,1.477,0,0,1,.783-.483,1.5,1.5,0,0,1,.921.053,1.278,1.278,0,0,0,1.436-.361,1.465,1.465,0,0,1,.767-.463,1.428,1.428,0,0,1,.917.053,1.29,1.29,0,0,0,1.441-.357,1.534,1.534,0,0,1,1.7-.43,1.278,1.278,0,0,0,1.436-.361,1.489,1.489,0,0,1,.787-.483,1.453,1.453,0,0,1,.917.053,1.217,1.217,0,0,0,.779.049,1.193,1.193,0,0,0,.661-.406,1.477,1.477,0,0,1,.783-.483,1.5,1.5,0,0,1,.921.053,1.278,1.278,0,0,0,1.436-.361,1.473,1.473,0,0,1,.787-.483,1.453,1.453,0,0,1,.917.057,1.294,1.294,0,0,0,1.441-.365,1.542,1.542,0,0,1,1.7-.426A1.286,1.286,0,0,0,177,78.512a1.441,1.441,0,0,1,.787-.483,1.424,1.424,0,0,1,.917.053,1.217,1.217,0,0,0,.779.049,1.193,1.193,0,0,0,.661-.406,1.542,1.542,0,0,1,1.708-.43,1.295,1.295,0,0,0,1.441-.357,1.428,1.428,0,0,1,.783-.483.134.134,0,0,1,.158.093.126.126,0,0,1-.085.126,1.218,1.218,0,0,0-.665.406,1.461,1.461,0,0,1-.791.479Z" transform="translate(-121.6 -63.697)" fill="#d1d3d4"/>
      <path id="Path_812" data-name="Path 812" d="M184.678,85.512a1.44,1.44,0,0,1-.921-.053,1.189,1.189,0,0,0-.779-.045,1.173,1.173,0,0,0-.661.406,1.448,1.448,0,0,1-.787.479,1.432,1.432,0,0,1-.917-.045,1.274,1.274,0,0,0-1.441.365,1.542,1.542,0,0,1-1.7.406,1.295,1.295,0,0,0-1.441.357,1.53,1.53,0,0,1-1.7.43,1.217,1.217,0,0,0-.779-.049,1.193,1.193,0,0,0-.661.406,1.477,1.477,0,0,1-.783.519,1.5,1.5,0,0,1-.921-.053,1.278,1.278,0,0,0-1.437.361,1.538,1.538,0,0,1-1.7.43,1.185,1.185,0,0,0-.779-.049,1.173,1.173,0,0,0-.661.406,1.542,1.542,0,0,1-1.7.406,1.29,1.29,0,0,0-1.436.365,1.465,1.465,0,0,1-.787.479,1.429,1.429,0,0,1-.917-.053,1.218,1.218,0,0,0-.779-.049,1.193,1.193,0,0,0-.661.406,1.534,1.534,0,0,1-1.7.43,1.278,1.278,0,0,0-1.436.361,1.538,1.538,0,0,1-1.7.43,1.173,1.173,0,0,0-.775-.049,1.193,1.193,0,0,0-.661.406,1.489,1.489,0,0,1-.787.483,1.453,1.453,0,0,1-.917-.057,1.189,1.189,0,0,0-.779-.045.13.13,0,0,1-.154-.093.134.134,0,0,1,.093-.158,1.481,1.481,0,0,1,.917.053,1.185,1.185,0,0,0,.779.049,1.173,1.173,0,0,0,.661-.406,1.542,1.542,0,0,1,1.7-.406,1.278,1.278,0,0,0,1.436-.361,1.534,1.534,0,0,1,1.7-.43,1.295,1.295,0,0,0,1.441-.357,1.461,1.461,0,0,1,.783-.483,1.481,1.481,0,0,1,.917.053,1.217,1.217,0,0,0,.779.049,1.193,1.193,0,0,0,.661-.406,1.477,1.477,0,0,1,.783-.5,1.5,1.5,0,0,1,.921.053,1.278,1.278,0,0,0,1.436-.361,1.465,1.465,0,0,1,.787-.479,1.424,1.424,0,0,1,.917.053,1.189,1.189,0,0,0,.779.045,1.172,1.172,0,0,0,.661-.406,1.542,1.542,0,0,1,1.7-.426,1.278,1.278,0,0,0,1.436-.361,1.473,1.473,0,0,1,.787-.483,1.457,1.457,0,0,1,.917.053,1.282,1.282,0,0,0,1.441-.361,1.477,1.477,0,0,1,.783-.483,1.5,1.5,0,0,1,.921.053,1.295,1.295,0,0,0,1.441-.357,1.461,1.461,0,0,1,.783-.483,1.5,1.5,0,0,1,.921.053,1.278,1.278,0,0,0,1.436-.361,1.473,1.473,0,0,1,.787-.483,1.5,1.5,0,0,1,.921.053,1.169,1.169,0,0,0,.775.049,1.217,1.217,0,0,0,.666-.406,1.477,1.477,0,0,1,.783-.483.13.13,0,0,1,.158.093.134.134,0,0,1-.089.154,1.217,1.217,0,0,0-.665.406A1.432,1.432,0,0,1,184.678,85.512Z" transform="translate(-122.765 -68.408)" fill="#d1d3d4"/>
      <path id="Path_813" data-name="Path 813" d="M172.772,101.9a1.323,1.323,0,0,0-.471.381,1,1,0,0,1-1.246.317,1.189,1.189,0,0,0-.84-.077,1.217,1.217,0,0,0-.7.463.962.962,0,0,1-.568.381.95.95,0,0,1-.682-.069,1.264,1.264,0,0,0-1.538.39.962.962,0,0,1-.568.381.95.95,0,0,1-.682-.069,1.264,1.264,0,0,0-1.538.39.962.962,0,0,1-.568.381.974.974,0,0,1-.682-.069,1.27,1.27,0,0,0-1.538.406.946.946,0,0,1-.568.381.958.958,0,0,1-.682-.065,1.193,1.193,0,0,0-.836-.081,1.246,1.246,0,0,0-.7.467.978.978,0,0,1-.568.381.949.949,0,0,1-.682-.069,1.264,1.264,0,0,0-1.538.39.962.962,0,0,1-.568.381.978.978,0,0,1-.682-.069,1.217,1.217,0,0,0-.836-.077.126.126,0,0,0-.093.154.13.13,0,0,0,.158.093.962.962,0,0,1,.678.069,1.266,1.266,0,0,0,1.538-.385.95.95,0,0,1,.568-.406.974.974,0,0,1,.682.069,1.27,1.27,0,0,0,1.538-.406.962.962,0,0,1,.568-.381.978.978,0,0,1,.682.065,1.193,1.193,0,0,0,.836.081,1.217,1.217,0,0,0,.7-.467.978.978,0,0,1,.568-.381.95.95,0,0,1,.682.069,1.264,1.264,0,0,0,1.538-.39.962.962,0,0,1,.568-.381.974.974,0,0,1,.682.069,1.27,1.27,0,0,0,1.538-.406,1,1,0,0,1,1.25-.317,1.27,1.27,0,0,0,1.538-.406.962.962,0,0,1,.568-.337.978.978,0,0,1,.682.065,1.193,1.193,0,0,0,.836.081,1.217,1.217,0,0,0,.7-.467,1.144,1.144,0,0,1,.337-.3Z" transform="translate(-123.958 -78.818)" fill="#d1d3d4"/>
      <circle id="Ellipse_70" data-name="Ellipse 70" cx="0.755" cy="0.755" r="0.755" transform="translate(25.692 33.413)" fill="#d1d3d4"/>
      <path id="Path_814" data-name="Path 814" d="M181.331,110.23a1.5,1.5,0,0,0-.507.406,1.295,1.295,0,0,1-1.441.357,1.534,1.534,0,0,0-1.7.43,1.286,1.286,0,0,1-1.436.357,1.542,1.542,0,0,0-1.7.406,1.282,1.282,0,0,1-1.441.361,1.538,1.538,0,0,0-1.7.43,1.278,1.278,0,0,1-1.436.361,1.5,1.5,0,0,0-.921-.053,1.461,1.461,0,0,0-.783.483,1.29,1.29,0,0,1-1.441.357,1.433,1.433,0,0,0-.917-.053,1.449,1.449,0,0,0-.787.483,1.278,1.278,0,0,1-1.436.361,1.542,1.542,0,0,0-1.7.426,1.173,1.173,0,0,1-.661.406,1.189,1.189,0,0,1-.779-.045,1.522,1.522,0,0,0-1.7.406,1.218,1.218,0,0,1-.661.406,1.185,1.185,0,0,1-.779-.049,1.485,1.485,0,0,0-.917-.053.13.13,0,0,0-.093.154.126.126,0,0,0,.154.093,1.218,1.218,0,0,1,.775.049,1.542,1.542,0,0,0,1.7-.406,1.282,1.282,0,0,1,1.441-.361,1.538,1.538,0,0,0,1.7-.43,1.278,1.278,0,0,1,1.437-.361,1.538,1.538,0,0,0,1.7-.43,1.278,1.278,0,0,1,1.436-.361,1.441,1.441,0,0,0,.921.053,1.412,1.412,0,0,0,.783-.483,1.282,1.282,0,0,1,1.441-.361,1.432,1.432,0,0,0,.917.053,1.449,1.449,0,0,0,.787-.479,1.29,1.29,0,0,1,1.436-.365,1.44,1.44,0,0,0,.921.053,1.465,1.465,0,0,0,.787-.479,1.278,1.278,0,0,1,1.436-.361,1.538,1.538,0,0,0,1.7-.43,1.278,1.278,0,0,1,1.436-.361,1.534,1.534,0,0,0,1.7-.43,1.3,1.3,0,0,1,.406-.308Z" transform="translate(-125.724 -83.768)" fill="#d1d3d4"/>
      <path id="Path_815" data-name="Path 815" d="M176.613,122.91l-.065.069a1.193,1.193,0,0,1-.661.406,1.217,1.217,0,0,1-.779-.049,1.538,1.538,0,0,0-1.7.43,1.286,1.286,0,0,1-1.437.357,1.542,1.542,0,0,0-1.7.406,1.3,1.3,0,0,1-1.441.365,1.453,1.453,0,0,0-.917-.057,1.473,1.473,0,0,0-.787.483,1.193,1.193,0,0,1-.661.406,1.169,1.169,0,0,1-.775-.049,1.5,1.5,0,0,0-.921-.053,1.477,1.477,0,0,0-.783.483,1.278,1.278,0,0,1-1.436.361,1.534,1.534,0,0,0-1.7.43,1.282,1.282,0,0,1-1.441.361,1.428,1.428,0,0,0-.917-.053.127.127,0,0,0,.061.248,1.185,1.185,0,0,1,.779.049,1.481,1.481,0,0,0,.917.053,1.461,1.461,0,0,0,.783-.483,1.282,1.282,0,0,1,1.441-.361,1.538,1.538,0,0,0,1.7-.43,1.278,1.278,0,0,1,1.436-.361,1.542,1.542,0,0,0,1.7-.406,1.173,1.173,0,0,1,.661-.406,1.189,1.189,0,0,1,.779.045,1.522,1.522,0,0,0,1.7-.426,1.218,1.218,0,0,1,.661-.406,1.185,1.185,0,0,1,.779.049,1.5,1.5,0,0,0,.921.053,1.477,1.477,0,0,0,.783-.483,1.193,1.193,0,0,1,.661-.406,1.217,1.217,0,0,1,.779.049,1.453,1.453,0,0,0,.917.053,1.416,1.416,0,0,0,.739-.434Z" transform="translate(-126.918 -91.303)" fill="#d1d3d4"/>
      <circle id="Ellipse_71" data-name="Ellipse 71" cx="0.755" cy="0.755" r="0.755" transform="translate(27.806 41.825)" fill="#d1d3d4"/>
      <path id="Path_816" data-name="Path 816" d="M161.774,139.586a1.148,1.148,0,0,1,.775.049,1.538,1.538,0,0,0,1.7-.43,1.278,1.278,0,0,1,1.436-.361,1.5,1.5,0,0,0,.921.053,1.477,1.477,0,0,0,.783-.483,1.278,1.278,0,0,1,1.436-.361,1.44,1.44,0,0,0,.921.053,1.412,1.412,0,0,0,.783-.483,1.282,1.282,0,0,1,1.441-.361,1.432,1.432,0,0,0,.917.053,1.449,1.449,0,0,0,.787-.479,1.29,1.29,0,0,1,1.436-.365,1.526,1.526,0,0,0,1.7-.426,1.282,1.282,0,0,1,1.441-.361,1.538,1.538,0,0,0,1.7-.43,1.193,1.193,0,0,1,.661-.406.249.249,0,0,0,.122-.02v-.256a1.553,1.553,0,0,0-.174.028,1.449,1.449,0,0,0-.787.479,1.27,1.27,0,0,1-1.436.365,1.542,1.542,0,0,0-1.7.406,1.217,1.217,0,0,1-.661.406,1.185,1.185,0,0,1-.779-.049,1.5,1.5,0,0,0-.921-.053,1.477,1.477,0,0,0-.783.483,1.193,1.193,0,0,1-.661.406,1.169,1.169,0,0,1-.775-.049,1.5,1.5,0,0,0-.921-.053,1.461,1.461,0,0,0-.783.483,1.29,1.29,0,0,1-1.441.357,1.432,1.432,0,0,0-.917-.053,1.449,1.449,0,0,0-.787.483,1.278,1.278,0,0,1-1.436.361,1.542,1.542,0,0,0-1.7.426,1.29,1.29,0,0,1-1.436.365,1.465,1.465,0,0,0-.921-.057.13.13,0,1,0,.065.252Z" transform="translate(-128.843 -98.231)" fill="#d1d3d4"/>
      <path id="Path_817" data-name="Path 817" d="M105.83,122.661a58.4,58.4,0,0,1,10.912-10.522,6.878,6.878,0,0,1,3.315-1.66,2.551,2.551,0,0,1,2.84,1.907,3.718,3.718,0,0,1-1.193,2.625l-8.294,9.905a12.23,12.23,0,0,1-.174,13.391" transform="translate(-95.692 -83.908)" fill="#fff"/>
      <path id="Path_818" data-name="Path 818" d="M112.844,138.249a.211.211,0,0,1-.118-.037.207.207,0,0,1-.049-.284,12.1,12.1,0,0,0,.17-13.176.207.207,0,0,1,0-.243l8.294-9.905a3.555,3.555,0,0,0,1.144-2.471,2.321,2.321,0,0,0-2.6-1.729,6.805,6.805,0,0,0-3.214,1.623A57.193,57.193,0,0,0,105.6,122.509a.2.2,0,1,1-.321-.248,57.3,57.3,0,0,1,10.956-10.55,7.069,7.069,0,0,1,3.421-1.7A2.756,2.756,0,0,1,122.7,112.1a3.857,3.857,0,0,1-1.242,2.776l-8.2,9.792a12.36,12.36,0,0,1-.26,13.509A.2.2,0,0,1,112.844,138.249Z" transform="translate(-95.333 -83.629)" fill="#231f20"/>
      <path id="Path_819" data-name="Path 819" d="M248.255,142.882l-12.4,9.487s-6.773-11.873-11.524-15.375a57.147,57.147,0,0,0-10.457-5.876c-.572-1.473-7.3-8.335-4.727-8.2s14.324,5.969,15.765,5.726a4,4,0,0,0,2.2-5.766c-1.676-2.759-2.95-5.6-5.92-4.614-4.512,1.493-8.7,4.184-10.725,4.236s-4.387-1.668-2.26-4.533c2.435-3.275,8.883-7.369,14.71-9.061s14.681,7.783,18.467,15.826C245.013,129.378,247.229,138.91,248.255,142.882Z" transform="translate(-156.026 -82.866)" fill="#fff"/>
      <path id="Path_820" data-name="Path 820" d="M235.544,152.275H235.5a.207.207,0,0,1-.134-.1c-.069-.118-6.805-11.877-11.472-15.314a57.479,57.479,0,0,0-10.413-5.851.2.2,0,0,1-.11-.114,18.464,18.464,0,0,0-2.029-2.747c-2.22-2.767-3.652-4.638-3.246-5.413a.694.694,0,0,1,.726-.312c1.351.073,5.056,1.623,8.639,3.133,3.165,1.327,6.44,2.7,7.081,2.593a3.8,3.8,0,0,0,2.26-2.1,3.461,3.461,0,0,0-.195-3.36c-.17-.284-.341-.564-.5-.844-1.432-2.435-2.67-4.512-5.182-3.685a54.884,54.884,0,0,0-5.754,2.41c-2.167,1.01-3.883,1.81-5.016,1.838a3.368,3.368,0,0,1-3.047-1.574c-.345-.657-.515-1.761.613-3.283,2.52-3.4,9.167-7.491,14.819-9.134,2.723-.812,6.342.743,10.193,4.309a39.715,39.715,0,0,1,8.518,11.626c3.36,4.3,5.486,12.657,6.631,17.149.093.377.183.722.264,1.035a.2.2,0,0,1-.073.211l-12.4,9.483A.2.2,0,0,1,235.544,152.275Zm-21.827-21.608a57.65,57.65,0,0,1,10.425,5.864c4.464,3.279,10.522,13.606,11.464,15.237l12.117-9.268c-.073-.28-.15-.58-.231-.9-1.136-4.464-3.246-12.79-6.57-17.019l-.024-.041c-3.543-7.544-12.4-17.42-18.224-15.732-5.58,1.623-12.129,5.653-14.608,8.988a2.63,2.63,0,0,0-.584,2.841,3.025,3.025,0,0,0,2.678,1.355c1.051-.028,2.816-.848,4.869-1.8a54.3,54.3,0,0,1,5.8-2.435c2.82-.933,4.2,1.4,5.657,3.863.162.276.329.56.5.84a3.9,3.9,0,0,1,.219,3.741,4.068,4.068,0,0,1-2.561,2.329c-.706.122-3.246-.909-7.3-2.621-3.384-1.42-7.219-3.035-8.5-3.1-.134,0-.3,0-.345.093-.308.6,1.806,3.246,3.2,4.975A20.631,20.631,0,0,1,213.717,130.667Z" transform="translate(-155.72 -82.568)" fill="#231f20"/>
      <path id="Path_821" data-name="Path 821" d="M187.459,138.4l-.268,4.261-4.245-1.668-2.256-.885,2.354-.592Z" transform="translate(-140.174 -100.507)" fill="#fff"/>
      <path id="Path_822" data-name="Path 822" d="M186.9,142.581h-.073l-6.493-2.556a.2.2,0,0,1-.126-.2.2.2,0,0,1,.15-.187l6.769-1.708a.2.2,0,0,1,.252.211l-.272,4.265a.207.207,0,0,1-.093.158A.2.2,0,0,1,186.9,142.581Zm-5.831-2.715,5.649,2.224.235-3.709Z" transform="translate(-139.888 -100.225)" fill="#231f20"/>
      <path id="Path_823" data-name="Path 823" d="M229.37,144.771l-33.088-2.11a6.38,6.38,0,0,1-.28-2.155,6.494,6.494,0,0,1,.552-2.106l33.088,2.11Z" transform="translate(-149.269 -100.507)" fill="#68e1fd"/>
      <path id="Path_824" data-name="Path 824" d="M229.081,144.676h0l-33.088-2.11a.2.2,0,0,1-.179-.138,5.864,5.864,0,0,1,.28-4.415.211.211,0,0,1,.2-.114l33.084,2.11a.2.2,0,0,1,.191.215l-.272,4.261a.2.2,0,0,1-.069.138A.207.207,0,0,1,229.081,144.676Zm-32.934-2.5,32.743,2.086.247-3.859-32.743-2.086a5.433,5.433,0,0,0-.248,3.859Z" transform="translate(-148.981 -100.209)" fill="#231f20"/>
      <path id="Path_825" data-name="Path 825" d="M1.185,0h5.3V4.269h-5.3A1.185,1.185,0,0,1,0,3.084v-1.9A1.185,1.185,0,0,1,1.185,0Z" transform="translate(86.576 44.669) rotate(-176.35)" fill="#fff"/>
      <path id="Path_826" data-name="Path 826" d="M283.335,148.112h-.089l-5.275-.337a.2.2,0,0,1-.191-.215l.272-4.265a.195.195,0,0,1,.215-.187l5.275.337a1.38,1.38,0,0,1,1.294,1.473l-.118,1.9a1.4,1.4,0,0,1-1.384,1.3Zm-5.154-.734,5.089.325a.97.97,0,0,0,.71-.243.958.958,0,0,0,.333-.674l.122-1.9a.978.978,0,0,0-.917-1.039l-5.089-.325Z" transform="translate(-197.866 -103.304)" fill="#231f20"/>
      <rect id="Rectangle_225" data-name="Rectangle 225" width="0.609" height="4.269" transform="translate(81.494 40.08) rotate(3.65)" fill="#231f20"/>
      <rect id="Rectangle_226" data-name="Rectangle 226" width="0.609" height="4.269" transform="translate(82.704 40.157) rotate(3.65)" fill="#231f20"/>
      <path id="Path_827" data-name="Path 827" d="M183.044,141.15l-.1,1.477-2.256-.885Z" transform="translate(-140.174 -102.141)" fill="#68e1fd"/>
      <path id="Path_828" data-name="Path 828" d="M182.654,142.547a.231.231,0,0,1-.073,0l-2.256-.889a.2.2,0,0,1-.126-.2.2.2,0,0,1,.15-.187l2.35-.592a.2.2,0,0,1,.252.211l-.093,1.481a.195.195,0,0,1-.2.187Zm-1.591-1.047,1.408.556.057-.925Z" transform="translate(-139.882 -101.858)" fill="#231f20"/>
      <path id="Path_829" data-name="Path 829" d="M211.4,151.857a78.628,78.628,0,0,1-7.767-3.652c-2.354-1.652.353-5.089,2.029-4.675,1.181.288,7.552,2.492,8.858,2.995" transform="translate(-153.26 -103.535)" fill="#fff"/>
      <path id="Path_830" data-name="Path 830" d="M211.1,151.775a.256.256,0,0,1-.077,0,77.389,77.389,0,0,1-7.807-3.676,2.315,2.315,0,0,1-.726-3.047c.552-1.2,1.834-2.26,2.914-1.992,1.169.288,7.56,2.5,8.883,3.007a.2.2,0,0,1,.118.26.207.207,0,0,1-.264.118c-1.319-.511-7.678-2.7-8.834-2.991-.771-.191-1.94.649-2.435,1.765a1.948,1.948,0,0,0,.592,2.552,81.289,81.289,0,0,0,7.71,3.628.2.2,0,0,1,.11.268A.2.2,0,0,1,211.1,151.775Z" transform="translate(-152.962 -103.25)" fill="#231f20"/>
      <path id="Path_831" data-name="Path 831" d="M292.753,215.3l-8.42-26.762-19.8,5.47L269.4,215.3Z" transform="translate(-189.993 -130.301)" fill="#231f20"/>
      <path id="Path_832" data-name="Path 832" d="M292.455,215.219H269.1a.2.2,0,0,1-.2-.158l-4.869-21.292a.2.2,0,0,1,.146-.239l19.8-5.47a.2.2,0,0,1,.248.134l8.424,26.782a.211.211,0,0,1-.032.183A.2.2,0,0,1,292.455,215.219Zm-23.191-.406h22.915L283.9,188.5l-19.425,5.369Z" transform="translate(-189.695 -130.011)" fill="#231f20"/>
      <path id="Path_833" data-name="Path 833" d="M104.5,221.03l2.617-20.622L87.13,198.18l-5.75,22.85Z" transform="translate(-81.163 -136.029)" fill="#231f20"/>
      <path id="Path_834" data-name="Path 834" d="M104.18,220.944H81.05a.2.2,0,0,1-.2-.252l5.75-22.854a.2.2,0,0,1,.219-.15l19.989,2.228a.2.2,0,0,1,.179.227l-2.617,20.622A.207.207,0,0,1,104.18,220.944Zm-22.866-.406h22.68l2.569-20.241-19.6-2.187Z" transform="translate(-80.846 -135.736)" fill="#231f20"/>
      <rect id="Rectangle_227" data-name="Rectangle 227" width="23.682" height="5.45" rx="2.725" transform="matrix(0.974, -0.228, 0.228, 0.974, 74.582, 69.992)" fill="#fff"/>
      <path id="Path_835" data-name="Path 835" d="M266.786,214.907a1.351,1.351,0,0,1-1.319-1.047l-.718-3.06a1.363,1.363,0,0,1,.17-1.027,1.339,1.339,0,0,1,.844-.6l20.813-4.869a1.355,1.355,0,0,1,1.623,1.014l.718,3.06a1.359,1.359,0,0,1-1.01,1.623l-.049-.2.049.2-20.817,4.869a1.336,1.336,0,0,1-.3.041Zm20.1-10.234a.971.971,0,0,0-.215.024l-20.817,4.869a.966.966,0,0,0-.588.426.929.929,0,0,0-.118.718l.714,3.06a.954.954,0,0,0,1.14.71l20.817-4.869a.95.95,0,0,0,.706-1.14l-.714-3.064a.954.954,0,0,0-.925-.734Z" transform="translate(-190.102 -139.645)" fill="#231f20"/>
      <circle id="Ellipse_72" data-name="Ellipse 72" cx="5.369" cy="5.369" r="5.369" transform="translate(82.279 64.066)" fill="#fff"/>
      <path id="Path_836" data-name="Path 836" d="M288.676,213.533a5.571,5.571,0,1,1,5.567-5.569A5.571,5.571,0,0,1,288.676,213.533Zm0-10.733a5.166,5.166,0,1,0,5.162,5.166A5.166,5.166,0,0,0,288.676,202.8Z" transform="translate(-201.028 -138.531)" fill="#231f20"/>
      <path id="Path_837" data-name="Path 837" d="M296.1,213.471a.194.194,0,0,1-.1-.024.211.211,0,0,1-.106-.154c-.053-.406-.3-2.435-.3-2.63a.207.207,0,0,1,.2-.2.2.2,0,0,1,.2.2h0c0,.118.15,1.372.268,2.293l3.437-1.716a.2.2,0,0,1,.272.089.2.2,0,0,1-.089.272l-3.7,1.85A.239.239,0,0,1,296.1,213.471Zm-.1-2.808Z" transform="translate(-208.449 -143.326)" fill="#d1d3d4"/>
    </g>
  </g>
</svg>
