<svg xmlns="http://www.w3.org/2000/svg" width="99.176" height="88.501" viewBox="0 0 99.176 88.501">
  <g id="_333_bicycle_flatline" data-name="#333_bicycle_flatline" transform="translate(-82.05 -43.556)">
    <rect id="Rectangle_204" data-name="Rectangle 204" width="4.165" height="11.342" transform="translate(153.019 77.898) rotate(-11.91)" fill="#68e1fd"/>
    <path id="Path_614" data-name="Path 614" d="M257.263,137.105a.184.184,0,0,1-.18-.152l-2.341-11.1a.168.168,0,0,1,.025-.139.189.189,0,0,1,.119-.082l4.074-.861a.184.184,0,0,1,.139.029.18.18,0,0,1,.082.115l2.341,11.1a.189.189,0,0,1-.143.221l-4.074.861Zm-2.119-11.141L257.41,136.7l3.689-.783-2.263-10.731Z" transform="translate(-101.901 -47.925)" fill="#231f20"/>
    <path id="Path_615" data-name="Path 615" d="M257.815,121.2l-2.234.471a2.05,2.05,0,0,0-.562,1.894l-.07.168,4.074-.861.07-.164A2.078,2.078,0,0,0,257.815,121.2Z" transform="translate(-102.027 -45.817)" fill="#fff"/>
    <path id="Path_616" data-name="Path 616" d="M254.73,123.645a.189.189,0,0,1-.148-.07.193.193,0,0,1-.025-.193l.045-.115a2.271,2.271,0,0,1,.623-2.009.233.233,0,0,1,.094-.049l2.234-.471a.189.189,0,0,1,.107,0,2.263,2.263,0,0,1,1.4,1.64.222.222,0,0,1,0,.115l-.07.164a.184.184,0,0,1-.135.111l-4.074.861Zm.726-2.082a1.9,1.9,0,0,0-.48,1.64l3.689-.82a1.881,1.881,0,0,0-1.1-1.3Z" transform="translate(-101.787 -45.541)" fill="#231f20"/>
    <rect id="Rectangle_205" data-name="Rectangle 205" width="2.357" height="1.513" transform="translate(153.165 74.392) rotate(-11.91)" fill="#fff"/>
    <path id="Path_617" data-name="Path 617" d="M255.591,119.471a.193.193,0,0,1-.184-.148l-.311-1.48a.184.184,0,0,1,.029-.139.16.16,0,0,1,.115-.082l2.308-.488a.189.189,0,0,1,.221.143l.311,1.48a.18.18,0,0,1-.143.221l-2.308.488Zm-.09-1.521.234,1.111,1.943-.41-.238-1.111Z" transform="translate(-102.111 -43.416)" fill="#231f20"/>
    <path id="Path_618" data-name="Path 618" d="M205.33,230.012s1.385,2.587,1.582,2.906,7.378-4.177,7.112-4.833-5.37.168-5.37.168Z" transform="translate(-72.747 -108.74)" fill="#fff"/>
    <path id="Path_619" data-name="Path 619" d="M206.689,232.851a.2.2,0,0,1-.193-.1c-.2-.32-1.529-2.812-1.586-2.919a.193.193,0,0,1,0-.143.209.209,0,0,1,.094-.111l3.324-1.754a.14.14,0,0,1,.057-.021c1.959-.316,5.288-.742,5.571-.053.353.853-5.612,4.365-6.448,4.8A2.235,2.235,0,0,1,206.689,232.851Zm-1.361-3.033c.287.537,1.176,2.193,1.435,2.648.889-.246,6.558-3.87,6.821-4.587-.32-.279-2.869-.074-5.124.287Z" transform="translate(-72.491 -108.472)" fill="#231f20"/>
    <path id="Path_620" data-name="Path 620" d="M177.16,168.67l10.711,24.672-3.324,1.758L170.11,169.055Z" transform="translate(-51.964 -73.829)" fill="#fff"/>
    <path id="Path_621" data-name="Path 621" d="M184.28,195.014a.184.184,0,0,1-.164-.094l-14.437-26.045a.2.2,0,0,1,0-.18.193.193,0,0,1,.156-.1l7.05-.385a.189.189,0,0,1,.18.115L187.777,193a.18.18,0,0,1-.086.238l-3.324,1.758A.156.156,0,0,1,184.28,195.014Zm-14.125-26.07,14.2,25.623,3.009-1.59-10.6-24.385Z" transform="translate(-51.697 -73.557)" fill="#231f20"/>
    <path id="Path_622" data-name="Path 622" d="M149,138.482c-.193.68,12.8,19.315,12.8,19.315l6.214-3.812s-5.558-16.458-8.649-18.073S149.575,136.433,149,138.482Z" transform="translate(-39.504 -54.164)" fill="#231f20"/>
    <path id="Path_623" data-name="Path 623" d="M161.509,157.743a.2.2,0,0,1-.168-.09c-3.923-5.624-13.023-18.786-12.826-19.483h0c.3-1.041,1.812-1.832,2.689-2.214,2.423-1.041,5.935-1.545,7.964-.484,3.128,1.64,8.522,17.515,8.747,18.187a.2.2,0,0,1-.086.242l-6.214,3.808A.205.205,0,0,1,161.509,157.743Zm-12.592-19.491c.213.935,7.616,11.789,12.65,19.007l5.911-3.619c-.578-1.677-5.673-16.327-8.5-17.806-1.914-1-5.28-.5-7.612.5A4.334,4.334,0,0,0,148.917,138.252Zm-.2-.041Z" transform="translate(-39.219 -53.892)" fill="#231f20"/>
    <path id="Path_624" data-name="Path 624" d="M101.84,202.48a19.79,19.79,0,1,1,19.79-19.79A19.79,19.79,0,0,1,101.84,202.48Zm0-36.711a16.921,16.921,0,1,0,16.921,16.921A16.921,16.921,0,0,0,101.84,165.769Z" transform="translate(0 -70.424)" fill="#231f20"/>
    <path id="Path_625" data-name="Path 625" d="M122.4,176.463a.82.82,0,0,1-.791-.615A19.532,19.532,0,0,0,85.08,172.3a.82.82,0,1,1-1.476-.709,21.168,21.168,0,0,1,39.589,3.849.82.82,0,0,1-.59,1A.878.878,0,0,1,122.4,176.463Z" transform="translate(-0.857 -68.456)" fill="#68e1fd"/>
    <circle id="Ellipse_53" data-name="Ellipse 53" cx="2.656" cy="2.656" r="2.656" transform="translate(99.184 109.61)" fill="#231f20"/>
    <path id="Path_626" data-name="Path 626" d="M247.21,202.48a19.79,19.79,0,1,1,19.811-19.79A19.79,19.79,0,0,1,247.21,202.48Zm0-36.711a16.921,16.921,0,1,0,16.941,16.921A16.921,16.921,0,0,0,247.21,165.769Z" transform="translate(-85.794 -70.424)" fill="#231f20"/>
    <path id="Path_627" data-name="Path 627" d="M226.06,182.241a.82.82,0,0,1-.82-.82,20.692,20.692,0,0,1,20.672-20.672.82.82,0,0,1,0,1.64,19.052,19.052,0,0,0-19.032,19.032A.82.82,0,0,1,226.06,182.241Z" transform="translate(-84.496 -69.156)" fill="#68e1fd"/>
    <circle id="Ellipse_54" data-name="Ellipse 54" cx="2.656" cy="2.656" r="2.656" transform="translate(158.76 109.61)" fill="#231f20"/>
    <path id="Path_628" data-name="Path 628" d="M225.147,164.076a.82.82,0,0,1-.537-.2,28.55,28.55,0,0,1-5.841-7.378c-1.767-3.345-6.149-17.126-7.928-22.918-1.976,5.817-7.882,19.733-20.561,25.324a.82.82,0,1,1-.664-1.5c15.142-6.677,20.376-26.619,20.426-26.82a.82.82,0,0,1,1.578-.037c.066.213,6.468,21.147,8.608,25.185a27.32,27.32,0,0,0,5.464,6.919.82.82,0,0,1-.537,1.439Z" transform="translate(-63.186 -50.99)" fill="#68e1fd"/>
    <path id="Path_629" data-name="Path 629" d="M183.231,180.871a1.057,1.057,0,0,1-.156,0,.82.82,0,0,1-.619-.541l-8.026-23.775a.82.82,0,0,1,1.549-.525l7.575,22.405,21.094-24.184a.82.82,0,1,1,1.23,1.078L183.85,180.6A.82.82,0,0,1,183.231,180.871Z" transform="translate(-54.497 -65.129)" fill="#68e1fd"/>
    <path id="Path_630" data-name="Path 630" d="M155.766,191.268h-.082l-27.123-2.656a.82.82,0,0,1-.41-1.476l21.008-15.445a.82.82,0,0,1,.971,1.32l-19.266,14.179,25,2.459a.821.821,0,1,1-.078,1.64Z" transform="translate(-27.007 -75.526)" fill="#68e1fd"/>
    <path id="Path_631" data-name="Path 631" d="M232.625,124.767a.82.82,0,0,1-.758-.508l-1.549-3.775-3.562-.443a.826.826,0,0,1,.2-1.64l4.038.5a.82.82,0,0,1,.66.5l1.742,4.23a.82.82,0,0,1-.758,1.131Z" transform="translate(-84.962 -44.162)" fill="#231f20"/>
    <path id="Path_632" data-name="Path 632" d="M168.559,151.5S158,150.73,158,151.5s1.385,3.386,3.234,3.537,6.308-.881,7.309-1.939S168.559,151.5,168.559,151.5Z" transform="translate(-44.818 -63.497)" fill="#d1d3d4"/>
    <path id="Path_633" data-name="Path 633" d="M161.362,154.984h-.41c-1.992-.168-3.4-2.894-3.4-3.726a.279.279,0,0,1,.1-.213c.713-.664,8.989-.094,10.658.025a.246.246,0,0,1,.078.025,1.09,1.09,0,0,1,.529.73,1.39,1.39,0,0,1-.484,1.16C167.425,154.037,163.362,154.984,161.362,154.984Zm-3.419-3.689C158,152,159.28,154.459,161,154.6c1.849.152,6.218-.894,7.157-1.886a1.053,1.053,0,0,0,.385-.82.693.693,0,0,0-.307-.443c-4.689-.369-9.752-.508-10.293-.164Z" transform="translate(-44.552 -63.242)" fill="#231f20"/>
    <path id="Path_634" data-name="Path 634" d="M178.832,204.447a.41.41,0,0,1-.25-.09l-11.477-9.051a.41.41,0,1,1,.508-.644l11.477,9.051a.41.41,0,0,1-.254.734Z" transform="translate(-50.098 -89.115)" fill="#231f20"/>
    <path id="Path_635" data-name="Path 635" d="M204.174,224.765a.41.41,0,0,1-.262-.094l-8.846-7.309a.41.41,0,1,1,.521-.631l8.85,7.309a.41.41,0,0,1-.262.726Z" transform="translate(-66.59 -102.124)" fill="#231f20"/>
    <rect id="Rectangle_206" data-name="Rectangle 206" width="7.497" height="1.242" rx="0.621" transform="matrix(0.822, 0.57, -0.57, 0.822, 116.426, 103.333)" fill="#d1d3d4"/>
    <path id="Path_636" data-name="Path 636" d="M170.28,194.712a.82.82,0,0,1-.459-.143h0l-5.14-3.562a.82.82,0,0,1-.332-.521.779.779,0,0,1,.131-.607.805.805,0,0,1,1.123-.2l5.152,3.562a.82.82,0,0,1-.463,1.476Zm-.246-.451a.436.436,0,0,0,.5-.717l-5.14-3.562a.435.435,0,0,0-.6.111.41.41,0,0,0-.074.324.43.43,0,0,0,.18.279Z" transform="translate(-48.555 -86.139)" fill="#231f20"/>
    <rect id="Rectangle_207" data-name="Rectangle 207" width="7.989" height="1.242" rx="0.621" transform="matrix(0.85, -0.527, 0.527, 0.85, 133.661, 124.494)" fill="#d1d3d4"/>
    <path id="Path_637" data-name="Path 637" d="M208.892,236.08a.939.939,0,0,1-.184-.02.81.81,0,0,1-.242-1.476l5.739-3.562a.82.82,0,0,1,.857,1.377h0l-5.739,3.558a.791.791,0,0,1-.43.123Zm5.739-4.8a.41.41,0,0,0-.225.066l-5.739,3.558a.43.43,0,0,0-.193.271.427.427,0,0,0,.652.467l5.739-3.558a.434.434,0,0,0-.23-.82Zm.328.963Z" transform="translate(-74.374 -110.583)" fill="#231f20"/>
    <path id="Path_638" data-name="Path 638" d="M251.025,152.84h-1.336a.189.189,0,1,1,0-.373h1.357a.189.189,0,1,1,0,.373Z" transform="translate(-98.795 -64.267)" fill="#d1d3d4"/>
    <path id="Path_639" data-name="Path 639" d="M259.441,140.922h0l-9.149-.557a.184.184,0,0,1-.168-.148L248,130.694a.213.213,0,0,1,.037-.156.189.189,0,0,1,.143-.07L262.3,130.2a.156.156,0,0,1,.152.074.193.193,0,0,1,.029.164l-2.869,10.35A.189.189,0,0,1,259.441,140.922Zm-8.985-.906,8.846.525,2.759-9.961-13.638.258Z" transform="translate(-97.923 -51.127)" fill="#d1d3d4"/>
    <path id="Path_640" data-name="Path 640" d="M257.888,140.806a.188.188,0,0,1-.189-.172l-.771-9.743a.184.184,0,0,1,.172-.2.189.189,0,0,1,.2.172l.771,9.743a.189.189,0,0,1-.172.2Z" transform="translate(-103.195 -51.417)" fill="#d1d3d4"/>
    <path id="Path_641" data-name="Path 641" d="M264.056,140.872h0a.184.184,0,0,1-.176-.2l.566-9.866a.189.189,0,1,1,.373,0l-.566,9.866a.184.184,0,0,1-.2.2Z" transform="translate(-107.296 -51.36)" fill="#d1d3d4"/>
    <path id="Path_642" data-name="Path 642" d="M269.539,140.873H269.5a.189.189,0,0,1-.148-.221l2.074-10.137a.186.186,0,1,1,.365.074l-2.074,10.137A.184.184,0,0,1,269.539,140.873Z" transform="translate(-110.526 -51.226)" fill="#d1d3d4"/>
    <path id="Path_643" data-name="Path 643" d="M262.271,138.2h0c-12.707-.184-12.732-.266-12.777-.459a.193.193,0,0,1,.143-.225.18.18,0,0,1,.115,0c.529.09,7.747.225,12.523.3a.193.193,0,0,1,.184.193.189.189,0,0,1-.189.2Z" transform="translate(-98.806 -55.44)" fill="#d1d3d4"/>
    <path id="Path_644" data-name="Path 644" d="M262.385,144.059h0l-11.4-.336a.18.18,0,0,1-.18-.193.184.184,0,0,1,.184-.18h0l11.4.332a.189.189,0,1,1,0,.377Z" transform="translate(-99.584 -58.888)" fill="#d1d3d4"/>
    <path id="Path_645" data-name="Path 645" d="M262.454,149.625h0l-10.248-.443a.184.184,0,0,1-.176-.193.18.18,0,0,1,.193-.18l10.248.439a.189.189,0,1,1,0,.377Z" transform="translate(-100.304 -62.109)" fill="#d1d3d4"/>
    <path id="Path_646" data-name="Path 646" d="M150.542,119.58s-3.55,5.493-3.783,9.141c-.5,7.7,21.987,6.743,21.987,6.743l2.308-6.743-9.252-3.792Z" transform="translate(-38.179 -44.861)" fill="#231f20"/>
    <path id="Path_647" data-name="Path 647" d="M166.039,135.415c-4.775,0-15.084-.43-18.569-3.992a3.824,3.824,0,0,1-1.172-3.013c.238-3.656,3.669-9.018,3.816-9.235a.2.2,0,0,1,.258-.074l11.264,5.349,9.239,3.783a.2.2,0,0,1,.115.258l-2.308,6.743a.2.2,0,0,1-.184.139C168.347,135.382,167.429,135.415,166.039,135.415ZM150.36,119.547c-.566.906-3.447,5.673-3.652,8.891a3.427,3.427,0,0,0,1.053,2.7c4.152,4.247,18.979,3.886,20.581,3.833l2.2-6.427-9.071-3.718Z" transform="translate(-37.908 -44.566)" fill="#231f20"/>
    <path id="Path_648" data-name="Path 648" d="M185.893,141.88s10.01,1.972,8.395,4.919-19.745,14.392-19.745,14.392l-2.673-2.045,12.35-12.334Z" transform="translate(-53.002 -58.02)" fill="#fff"/>
    <path id="Path_649" data-name="Path 649" d="M174.277,161.086a.189.189,0,0,1-.111-.037l-2.673-2.013a.18.18,0,0,1-.074-.135.2.2,0,0,1,.053-.148l12.3-12.318,1.676-4.89a.18.18,0,0,1,.213-.123c.307.062,7.5,1.5,8.579,3.829a1.414,1.414,0,0,1-.057,1.344c-1.64,2.931-19.065,13.99-19.807,14.461A.226.226,0,0,1,174.277,161.086Zm-2.386-2.213,2.4,1.8c1.508-.963,18.06-11.527,19.569-14.261a1.045,1.045,0,0,0,.045-1c-.931-1.976-7.079-3.345-8.153-3.587l-1.64,4.775a.41.41,0,0,1-.045.07Zm12.063-12.334Z" transform="translate(-52.736 -57.748)" fill="#231f20"/>
    <path id="Path_650" data-name="Path 650" d="M168.995,184s-2.213,1.205-1.98,2.013,6.923,5.657,7,4.808-2.349-4.808-2.349-4.808Z" transform="translate(-50.127 -82.875)" fill="#fff"/>
    <path id="Path_651" data-name="Path 651" d="M173.616,190.86c-1.168,0-6.833-4.279-7.05-5.042-.258-.91,1.681-2.017,2.074-2.23a.189.189,0,0,1,.2,0l2.673,2.013a.176.176,0,0,1,.045.049c.254.41,2.459,4.042,2.373,4.919a.291.291,0,0,1-.279.271Zm-4.919-6.882c-.853.48-1.914,1.3-1.787,1.738.209.734,5.739,4.689,6.632,4.771a21.388,21.388,0,0,0-2.3-4.6Z" transform="translate(-49.859 -82.615)" fill="#231f20"/>
    <circle id="Ellipse_55" data-name="Ellipse 55" cx="2.078" cy="2.078" r="2.078" transform="translate(126.426 113.098)" fill="#231f20"/>
    <path id="Path_652" data-name="Path 652" d="M192.093,217.276a2.283,2.283,0,1,1,2.283-2.283A2.283,2.283,0,0,1,192.093,217.276Zm0-4.156a1.873,1.873,0,1,0,1.873,1.873,1.873,1.873,0,0,0-1.873-1.873Z" transform="translate(-63.589 -99.817)" fill="#231f20"/>
    <path id="Path_653" data-name="Path 653" d="M188.429,216.109a4.825,4.825,0,1,1,4.82-4.82,4.825,4.825,0,0,1-4.82,4.82Zm0-9.268a4.439,4.439,0,1,1,0,.016Z" transform="translate(-59.924 -96.129)" fill="#231f20"/>
    <path id="Path_654" data-name="Path 654" d="M230.01,168.06a.82.82,0,0,1-.611-.275l-2.7-3.013a.824.824,0,0,1,1.23-1.1l2.709,3.017a.822.822,0,0,1-.627,1.369Z" transform="translate(-85.233 -70.718)" fill="#68e1fd"/>
    <path id="Path_655" data-name="Path 655" d="M150.079,44.921a7.067,7.067,0,0,0-2.746-.82,8.631,8.631,0,0,0-4.882.75c-1.484.939-1.668,3.021-2.935,4.193a5.462,5.462,0,0,1-5.206.82,7.214,7.214,0,0,0,10.94.435c1.283-1.381,1.849-2.636,3.841-2.308.877.148,2.968,1.435,3.4,0C152.825,46.844,150.891,45.389,150.079,44.921Z" transform="translate(-30.838 -0.286)" fill="#fff"/>
    <path id="Path_656" data-name="Path 656" d="M139.661,52.518h-.283a7.5,7.5,0,0,1-5.521-2.808.2.2,0,0,1,.217-.324,5.174,5.174,0,0,0,5.009-.767,6.382,6.382,0,0,0,1.23-1.894,5.267,5.267,0,0,1,1.738-2.324,8.774,8.774,0,0,1,5.017-.783,7.231,7.231,0,0,1,2.808.84h0c.82.475,2.89,2,2.5,3.3a1.078,1.078,0,0,1-.545.693,3.141,3.141,0,0,1-2.287-.291,5.083,5.083,0,0,0-.8-.25c-1.521-.254-2.111.447-3.013,1.508-.2.234-.41.484-.648.734A7.526,7.526,0,0,1,139.661,52.518ZM134.6,49.928a7,7,0,0,0,10.207-.053c.23-.246.439-.492.635-.721.918-1.082,1.64-1.935,3.39-1.64a4.919,4.919,0,0,1,.869.271c.672.242,1.5.545,1.963.312a.68.68,0,0,0,.336-.447c.283-.955-1.472-2.341-2.316-2.828h0a6.874,6.874,0,0,0-2.677-.8,8.508,8.508,0,0,0-4.751.721,4.9,4.9,0,0,0-1.586,2.16,6.559,6.559,0,0,1-1.316,2.013A5.292,5.292,0,0,1,134.6,49.928Z" transform="translate(-30.545)" fill="#231f20"/>
    <path id="Path_657" data-name="Path 657" d="M172.588,48.008a2.824,2.824,0,0,0-1.262,1.357,2.152,2.152,0,0,0-.242,1.23,1.64,1.64,0,0,0,.873,1.193.918.918,0,0,0,.66.115,1.1,1.1,0,0,0,.467-.32C174.023,50.6,175.343,46.7,172.588,48.008Z" transform="translate(-52.532 -2.47)" fill="#231f20"/>
    <path id="Path_658" data-name="Path 658" d="M172.154,51.8a1.279,1.279,0,0,1-.586-.168,1.857,1.857,0,0,1-.984-1.344,2.373,2.373,0,0,1,.262-1.336A3.033,3.033,0,0,1,172.2,47.5c.844-.41,1.426-.381,1.742.053.619.861-.3,3.1-1.008,3.837a1.291,1.291,0,0,1-.562.373A.779.779,0,0,1,172.154,51.8Zm1.074-4.169a2.152,2.152,0,0,0-.848.25h0a2.582,2.582,0,0,0-1.16,1.258,1.947,1.947,0,0,0-.23,1.1,1.463,1.463,0,0,0,.771,1.041.762.762,0,0,0,.508.1.889.889,0,0,0,.373-.266c.652-.672,1.406-2.7.967-3.312a.443.443,0,0,0-.381-.168Zm-.935.061Z" transform="translate(-52.237 -2.157)" fill="#231f20"/>
    <path id="Path_659" data-name="Path 659" d="M175.5,57.9a2.072,2.072,0,0,1-1.976-.521,4.919,4.919,0,0,1-1.41-1.951,8.448,8.448,0,0,1,1.406-8.788c2.119-2.382,6.436-3.361,8.653-.549a4.144,4.144,0,0,1,.783,3.419,1.23,1.23,0,0,1,.93.988,2.275,2.275,0,0,1-1.2,2.6c-1.566,1.045-3.234,1.927-4.751,3.041A10.42,10.42,0,0,1,175.5,57.9Z" transform="translate(-52.763 -0.485)" fill="#fff"/>
    <path id="Path_660" data-name="Path 660" d="M174.679,57.879a2.611,2.611,0,0,1-1.59-.644,5.128,5.128,0,0,1-1.472-2.029,8.608,8.608,0,0,1,1.439-9.018,7.173,7.173,0,0,1,5.329-2.328,4.689,4.689,0,0,1,3.644,1.8,4.349,4.349,0,0,1,.857,3.394,1.517,1.517,0,0,1,.894,1.09,2.511,2.511,0,0,1-1.287,2.824c-.644.41-1.316.82-1.963,1.23-.93.566-1.89,1.148-2.775,1.8-.287.213-.562.447-.82.672a4.993,4.993,0,0,1-1.677,1.115A1.844,1.844,0,0,1,174.679,57.879Zm3.517-13.6a6.727,6.727,0,0,0-4.833,2.193,8.3,8.3,0,0,0-1.369,8.571,4.673,4.673,0,0,0,1.349,1.869,1.89,1.89,0,0,0,1.787.488h0a4.882,4.882,0,0,0,1.533-1.033c.266-.234.545-.475.849-.693.9-.664,1.865-1.254,2.8-1.82.644-.41,1.312-.8,1.951-1.23a2.071,2.071,0,0,0,1.115-2.39,1.057,1.057,0,0,0-.762-.82.209.209,0,0,1-.139-.086.2.2,0,0,1-.033-.16,3.927,3.927,0,0,0-.742-3.246,4.3,4.3,0,0,0-3.349-1.64Z" transform="translate(-52.45 -0.179)" fill="#231f20"/>
    <path id="Path_661" data-name="Path 661" d="M194.585,65.64s.82,2.558.381,2.923-1.316-.217-1.316-.217" transform="translate(-65.855 -13.032)" fill="#fff"/>
    <path id="Path_662" data-name="Path 662" d="M194.323,68.589a2.258,2.258,0,0,1-1.062-.369.2.2,0,1,1,.221-.344c.25.16.84.43,1.074.234a6.084,6.084,0,0,0-.447-2.705.209.209,0,0,1,.135-.258.2.2,0,0,1,.258.135c.254.82.791,2.734.32,3.14A.754.754,0,0,1,194.323,68.589Z" transform="translate(-65.564 -12.734)" fill="#231f20"/>
    <path id="Path_663" data-name="Path 663" d="M182.848,58.48c.693,1,0,2.488-.32,3.5q-.627,2.14-1.361,4.251c-.307.894-2.66.238-3-.152-.328,1.672-.332,5.87-2.308,6.505a1.676,1.676,0,0,1-1.2-.143c-2.533-1.152-1.758-3.456-1.258-5.472.377-1.525.705-3.07,1.058-4.6a3.071,3.071,0,0,0,3-1.123C178.913,59.661,180.724,60.423,182.848,58.48Z" transform="translate(-53.605 -8.807)" fill="#fff"/>
    <path id="Path_664" data-name="Path 664" d="M175.172,72.586a2.226,2.226,0,0,1-.91-.217c-2.537-1.152-1.972-3.374-1.472-5.329l.094-.381c.254-1.017.488-2.05.713-3.066l.344-1.533a.209.209,0,0,1,.1-.131.217.217,0,0,1,.16,0,2.864,2.864,0,0,0,2.787-1.066,4.486,4.486,0,0,1,2.459-1.279,6.353,6.353,0,0,0,2.951-1.5.217.217,0,0,1,.164-.049.193.193,0,0,1,.143.086c.635.914.221,2.144-.115,3.132-.061.193-.123.373-.176.545-.41,1.418-.877,2.869-1.365,4.255a.869.869,0,0,1-.738.549,4.173,4.173,0,0,1-2.3-.41c-.045.283-.082.611-.127.976-.238,2.05-.57,4.829-2.263,5.378A1.431,1.431,0,0,1,175.172,72.586Zm-.865-10.248c-.1.447-.2.889-.3,1.336-.225,1.008-.459,2.05-.713,3.074l-.094.381c-.484,1.89-.98,3.845,1.23,4.857a1.533,1.533,0,0,0,1.049.135c1.443-.467,1.771-3.218,1.984-5.038.062-.516.115-.963.184-1.316a.2.2,0,0,1,.148-.16.225.225,0,0,1,.209.066,3.6,3.6,0,0,0,2.218.5c.238-.045.381-.139.43-.279.484-1.4.939-2.824,1.361-4.243.049-.172.115-.361.18-.557a3.817,3.817,0,0,0,.279-2.566,6.858,6.858,0,0,1-2.931,1.418,4.26,4.26,0,0,0-2.254,1.16,3.323,3.323,0,0,1-2.976,1.238Z" transform="translate(-53.292 -8.545)" fill="#231f20"/>
    <path id="Path_665" data-name="Path 665" d="M191.486,73.4a1.213,1.213,0,0,1-1.566-.955" transform="translate(-63.654 -17.044)" fill="#fff"/>
    <path id="Path_666" data-name="Path 666" d="M190.8,73.35a1.468,1.468,0,0,1-.762-.2,1.394,1.394,0,0,1-.615-.963.209.209,0,0,1,.164-.242.2.2,0,0,1,.242.16,1,1,0,0,0,.41.7,1.262,1.262,0,0,0,.889.1.212.212,0,1,1,.111.41A1.816,1.816,0,0,1,190.8,73.35Z" transform="translate(-63.36 -16.749)" fill="#231f20"/>
    <path id="Path_667" data-name="Path 667" d="M183.54,74.982a2.618,2.618,0,0,1-1.517-1.4,2.592,2.592,0,0,0,1.324,2.623Z" transform="translate(-58.975 -17.717)" fill="#231f20"/>
    <path id="Path_668" data-name="Path 668" d="M183.052,76.133a.213.213,0,0,1-.119-.037,2.769,2.769,0,0,1-1.4-2.841.2.2,0,0,1,.189-.156.2.2,0,0,1,.2.143,2.37,2.37,0,0,0,1.385,1.267.2.2,0,0,1,.135.225l-.193,1.23a.2.2,0,0,1-.119.156A.2.2,0,0,1,183.052,76.133Zm-1.111-2.05a2.615,2.615,0,0,0,.959,1.488l.115-.726a3.12,3.12,0,0,1-1.074-.775Z" transform="translate(-58.68 -17.433)" fill="#231f20"/>
    <ellipse id="Ellipse_56" data-name="Ellipse 56" cx="0.533" cy="0.209" rx="0.533" ry="0.209" transform="matrix(0.34, -0.94, 0.94, 0.34, 127.865, 52.092)" fill="#231f20"/>
    <path id="Path_669" data-name="Path 669" d="M184.852,61.992a2.049,2.049,0,0,0-.123-1.1,3.024,3.024,0,0,0-.332-.8.984.984,0,0,0-.705-.459.918.918,0,0,0-.689.283,1.775,1.775,0,0,0-.381.66,3.189,3.189,0,0,0,.635,3.128L183.2,63.6" transform="translate(-59.249 -9.491)" fill="#fff"/>
    <path id="Path_670" data-name="Path 670" d="M182.987,63.636a.2.2,0,0,1-.152-.07,3.415,3.415,0,0,1-.676-3.333,1.923,1.923,0,0,1,.43-.726,1.086,1.086,0,0,1,.848-.34,1.16,1.16,0,0,1,.857.545,3.046,3.046,0,0,1,.357.853,2.2,2.2,0,0,1,.123,1.23.209.209,0,0,1-.254.143.2.2,0,0,1-.143-.25,1.881,1.881,0,0,0-.115-.984,2.648,2.648,0,0,0-.307-.742.771.771,0,0,0-.545-.369.693.693,0,0,0-.529.225,1.517,1.517,0,0,0-.336.578A3.021,3.021,0,0,0,183,63.16a.193.193,0,0,1,.115.1l.053.107a.2.2,0,0,1-.18.3Z" transform="translate(-58.971 -9.211)" fill="#231f20"/>
    <path id="Path_671" data-name="Path 671" d="M167.444,84.5c0-2-7.6-14.437-12.621-8.243-2.049,2.55-2.521,10.658-5.583,21.29l14.047.82S167.444,91.341,167.444,84.5Z" transform="translate(-39.649 -18.283)" fill="#68e1fd"/>
    <path id="Path_672" data-name="Path 672" d="M166.171,81.356c-2.513-2.152-3.689,2.263-3.833,3.915a16.511,16.511,0,0,0,1.5,8.051,2.291,2.291,0,0,0,.709.984,1.64,1.64,0,0,0,1.9-.2,3.648,3.648,0,0,0,1.053-1.754,16.4,16.4,0,0,0,.512-5.78C167.925,84.623,167.61,82.594,166.171,81.356Z" transform="translate(-47.357 -21.963)" fill="#231f20"/>
    <path id="Path_673" data-name="Path 673" d="M165,94.434a1.5,1.5,0,0,1-.861-.258,2.48,2.48,0,0,1-.783-1.066,16.642,16.642,0,0,1-1.521-8.149c.094-1.23.754-3.98,2.185-4.575A1.874,1.874,0,0,1,166,80.9h0c1.5,1.291,1.8,3.435,1.9,5.362a16.894,16.894,0,0,1-.521,5.853,3.882,3.882,0,0,1-1.1,1.84A2.078,2.078,0,0,1,165,94.434Zm-.41-13.748a1.069,1.069,0,0,0-.41.082c-1.172.484-1.836,2.988-1.931,4.222a16.208,16.208,0,0,0,1.484,7.948,2.164,2.164,0,0,0,.639.9,1.443,1.443,0,0,0,1.64-.193A3.443,3.443,0,0,0,166.98,92a16.422,16.422,0,0,0,.5-5.71c-.09-1.84-.373-3.882-1.758-5.071h0a1.836,1.836,0,0,0-1.144-.537Z" transform="translate(-47.059 -21.666)" fill="#231f20"/>
    <path id="Path_674" data-name="Path 674" d="M173.874,90.919c-1.439-1.271-6.419-10.551-8.706-10.129s-3.578,4.128-1.713,6.415,6.526,7.608,9.194,8.71,15.376,2.05,15.376,2.05h2.1s-.193.984.475.889,2.869-2.05,2.222-3.365-2.541-1.64-2.951-1.717S187,95.235,187,95.235,175.317,92.189,173.874,90.919Z" transform="translate(-47.509 -21.963)" fill="#fff"/>
    <path id="Path_675" data-name="Path 675" d="M190.228,98.762a.537.537,0,0,1-.41-.164.992.992,0,0,1-.2-.73h-1.886c-.533-.041-12.781-.947-15.449-2.05-3.111-1.283-8.645-8-9.264-8.764a4.472,4.472,0,0,1-.639-4.365,3.449,3.449,0,0,1,2.459-2.353c1.668-.307,4.4,3.775,6.6,7.054a23.089,23.089,0,0,0,2.271,3.115h0c1.328,1.176,11.949,3.972,12.973,4.238.791-.5,2.509-1.541,2.935-1.443l.107.025c.582.123,2.345.5,2.972,1.791a1.758,1.758,0,0,1-.156,1.64,4.411,4.411,0,0,1-2.209,2.017A.52.52,0,0,1,190.228,98.762Zm-.389-1.271a.184.184,0,0,1,.18.225.906.906,0,0,0,.074.623c.025.029.074.061.193.045a4.2,4.2,0,0,0,1.931-1.824,1.381,1.381,0,0,0,.152-1.275c-.549-1.127-2.177-1.476-2.714-1.59l-.115-.025a11.292,11.292,0,0,0-2.714,1.435.189.189,0,0,1-.148.025c-.48-.127-11.752-3.054-13.211-4.341h0a21.466,21.466,0,0,1-2.332-3.189c-1.906-2.869-4.784-7.157-6.218-6.895a3.069,3.069,0,0,0-2.177,2.111,4.128,4.128,0,0,0,.574,4c.615.754,6.1,7.407,9.12,8.657,2.611,1.078,15.191,2.009,15.318,2.021Z" transform="translate(-47.225 -21.694)" fill="#231f20"/>
    <circle id="Ellipse_57" data-name="Ellipse 57" cx="1.082" cy="1.082" r="1.082" transform="translate(140.482 74.719)" fill="#231f20"/>
    <path id="Path_676" data-name="Path 676" d="M201.707,153.09a.2.2,0,0,1-.193-.148.2.2,0,0,1,.135-.254,9.53,9.53,0,0,1,4.009-.41.2.2,0,0,1,.143.25.2.2,0,0,1-.25.148,9.383,9.383,0,0,0-3.783.41Z" transform="translate(-70.489 -64.094)" fill="#231f20"/>
    <path id="Path_677" data-name="Path 677" d="M109.534,194.3a.2.2,0,0,1-.123-.041l-8.751-6.772a.2.2,0,0,1,.25-.324l8.751,6.784a.2.2,0,0,1-.127.365Z" transform="translate(-10.94 -84.719)" fill="#d1d3d4"/>
    <path id="Path_678" data-name="Path 678" d="M125.113,231.191h-.045a.2.2,0,0,1-.156-.246l2.017-9.182a.21.21,0,0,1,.41.09l-2.017,9.153a.209.209,0,0,1-.209.184Z" transform="translate(-25.29 -105.062)" fill="#d1d3d4"/>
    <path id="Path_679" data-name="Path 679" d="M144.387,203.639a.208.208,0,1,1-.074-.41l7.427-2.869a.2.2,0,0,1,.266.119.2.2,0,0,1-.119.262l-7.427,2.869a.233.233,0,0,1-.074.029Z" transform="translate(-36.64 -92.521)" fill="#d1d3d4"/>
    <path id="Path_680" data-name="Path 680" d="M260.934,231.041a.18.18,0,0,1-.09-.02.2.2,0,0,1-.094-.275l4.554-9.157a.2.2,0,0,1,.275-.09.2.2,0,0,1,.09.275l-4.55,9.157A.209.209,0,0,1,260.934,231.041Z" transform="translate(-105.438 -104.99)" fill="#d1d3d4"/>
    <path id="Path_681" data-name="Path 681" d="M251.089,199.018a.184.184,0,0,1-.1-.029l-8.608-4.943a.2.2,0,0,1,.2-.353l8.608,4.943a.2.2,0,0,1-.1.381Z" transform="translate(-94.559 -88.585)" fill="#d1d3d4"/>
    <path id="Path_682" data-name="Path 682" d="M284.943,198.714a.209.209,0,0,1-.168-.082.205.205,0,0,1,.049-.287l8.772-6.317a.2.2,0,0,1,.238.332l-8.772,6.317A.213.213,0,0,1,284.943,198.714Z" transform="translate(-119.605 -87.596)" fill="#d1d3d4"/>
    <path id="Path_683" data-name="Path 683" d="M170.471,145.352h-.057l-19.762-5.46a.2.2,0,0,1-.143-.25.2.2,0,0,1,.254-.143l19.762,5.456a.209.209,0,0,1,.143.254.2.2,0,0,1-.2.143Z" transform="translate(-40.393 -56.611)" fill="#fff"/>
  </g>
</svg>
