<svg xmlns="http://www.w3.org/2000/svg" width="500" height="500" viewBox="0 0 82.215 78.143">
  <g id="Group_36" data-name="Group 36" transform="translate(-7.111 -17.616)">
    <g id="_378_fitness_flatline" data-name="#378_fitness_flatline" transform="translate(7.111 17.616)">
      <rect id="Rectangle_134" data-name="Rectangle 134" width="2.877" height="20.36" transform="translate(34.027 56.022)" fill="#231f20"/>
      <path id="Path_357" data-name="Path 357" d="M22.42,40.843H19.544a.181.181,0,0,1-.156-.2V20.516a.181.181,0,0,1,.156-.2H22.42a.181.181,0,0,1,.156.2V40.652A.179.179,0,0,1,22.42,40.843Zm-2.721-.4h2.565V20.714H19.7Z" transform="translate(14.483 35.54)" fill="#231f20"/>
      <rect id="Rectangle_135" data-name="Rectangle 135" width="14.781" height="1.599" transform="translate(28.305 76.382)" fill="#fff"/>
      <path id="Path_358" data-name="Path 358" d="M32.433,27.332H17.651a.161.161,0,0,1-.156-.165V25.574a.161.161,0,0,1,.156-.165H32.433a.161.161,0,0,1,.156.165v1.6a.16.16,0,0,1-.156.159ZM17.8,27H32.268V25.733H17.807Z" transform="translate(10.498 50.811)" fill="#231f20"/>
      <rect id="Rectangle_136" data-name="Rectangle 136" width="17.664" height="4.533" rx="0.688" transform="translate(26.633 52.731)" fill="#fff"/>
      <path id="Path_359" data-name="Path 359" d="M32.7,24.183H19.295a2.436,2.436,0,0,1,0-4.864H32.681a2.436,2.436,0,0,1,0,4.864ZM19.314,19.649a2.105,2.105,0,0,0,0,4.2H32.7a2.105,2.105,0,0,0,0-4.2Z" transform="translate(9.462 33.247)" fill="#231f20"/>
      <path id="Path_360" data-name="Path 360" d="M40.686,32.674C40,37.679,39.273,42.688,39.273,42.688H32.966l-.819-10.015-.311-3.72-7.014-1.632,2.954-9.856s13.9,3.806,14.04,5.287C41.891,23.478,41.309,28.078,40.686,32.674Z" transform="translate(25.926 28.989)" fill="#fff"/>
      <path id="Path_361" data-name="Path 361" d="M39.374,42.97H33.067a.163.163,0,0,1-.156-.152L31.8,29.2,24.9,27.6a.16.16,0,0,1-.1-.08.178.178,0,0,1-.015-.132l2.954-9.856a.158.158,0,0,1,.19-.112c2.338.641,14.009,3.915,14.155,5.445.059.611-.311,3.866-1.136,9.949h0c-.676,4.956-1.407,9.965-1.416,10.015A.156.156,0,0,1,39.374,42.97Zm-6.164-.33h6.03c.125-.846.781-5.389,1.395-9.873h0c1.006-7.438,1.174-9.473,1.133-9.869-.093-.991-8.44-3.635-13.782-5.118l-2.858,9.536,6.849,1.593a.165.165,0,0,1,.121.145Zm7.577-9.85Z" transform="translate(25.824 28.872)" fill="#231f20"/>
      <path id="Path_362" data-name="Path 362" d="M28.237,27.382l-9,.912-.6,6.337L17.8,43.747H12.177s-.679-4.16-1.332-9.116C10.06,28.684,9.309,21.62,9.82,19.373c.934-4.091,14.451-2.937,14.451-2.937Z" transform="translate(-6.018 26.281)" fill="#fff"/>
      <path id="Path_363" data-name="Path 363" d="M17.909,44.035H12.284a.159.159,0,0,1-.153-.139c0-.04-.688-4.233-1.332-9.119-.756-5.719-1.557-13.022-1.024-15.321.95-4.18,14.059-3.112,14.632-3.063a.157.157,0,0,1,.134.106l3.954,10.94a.181.181,0,0,1,0,.145.174.174,0,0,1-.118.079l-8.872.9L18.071,43.886A.162.162,0,0,1,17.909,44.035Zm-5.495-.33H17.76l1.407-15.311a.161.161,0,0,1,.14-.149l8.8-.892L24.26,16.713a53.558,53.558,0,0,0-6.762-.056c-4.5.287-7.067,1.282-7.428,2.878-.4,1.778-.05,7.034,1.027,15.2C11.686,39.118,12.293,42.941,12.414,43.7Z" transform="translate(-6.125 26.165)" fill="#231f20"/>
      <path id="Path_364" data-name="Path 364" d="M24.084,15.993l-10.37,1.12,1.827,13.131L33.42,28.149l17.754,4.18,4.094-11.036-12.8-4.18Z" transform="translate(2.534 25.61)" fill="#231f20"/>
      <path id="Path_365" data-name="Path 365" d="M51.279,32.614h-.047L33.488,28.437,15.634,30.529a.158.158,0,0,1-.171-.139l-1.8-13.141a.159.159,0,0,1,.031-.126.141.141,0,0,1,.106-.063l10.37-1.12H24.2l18.367,1.117H42.6l12.8,4.18a.155.155,0,0,1,.1.085.171.171,0,0,1,0,.133L51.41,32.495A.156.156,0,0,1,51.279,32.614ZM33.534,28.1h.034l17.623,4.15,3.982-10.738L42.55,17.395,24.2,16.278l-10.2,1.1,1.781,12.8L33.531,28.1Z" transform="translate(2.429 25.49)" fill="#231f20"/>
      <path id="Path_366" data-name="Path 366" d="M31.545,14.974a14.3,14.3,0,0,0,1.037-3.218,9.745,9.745,0,0,0,.483-2.161c0-.139-.271-1.745-.669-1.384a2.886,2.886,0,0,0,.909-1.8,2.817,2.817,0,0,0-1.6.069,6.134,6.134,0,0,0,1.245-.661c.311-.211.623-.565.495-.928s-.623-.413-1.024-.4c-2.235.076-4.389-.962-6.625-1.047a3.791,3.791,0,0,0-2.048.4,3.913,3.913,0,0,0-.934.816c-.458.512-.725,1.239-1.18,1.725-.311.33-.763.449-1.052.866a4.707,4.707,0,0,0-.507,2.8c.016,1.6.358,3.218.336,4.784,1.7.33,3.424.681,5.149.862C26.916,15.833,30.627,16.606,31.545,14.974Z" transform="translate(15.909 -3.247)" fill="#fff"/>
      <path id="Path_367" data-name="Path 367" d="M28.889,16.289a19.721,19.721,0,0,1-2.587-.225c-.255-.033-.479-.066-.666-.083-1.407-.149-2.82-.42-4.187-.681l-.971-.185a.166.166,0,0,1-.131-.165,20.787,20.787,0,0,0-.165-2.475q-.143-1.151-.171-2.313v-.126a4.722,4.722,0,0,1,.542-2.775,2.147,2.147,0,0,1,.623-.555,2.231,2.231,0,0,0,.433-.33,4.774,4.774,0,0,0,.579-.843,5.7,5.7,0,0,1,.595-.879,4.031,4.031,0,0,1,.99-.836,3.917,3.917,0,0,1,2.142-.433A16.167,16.167,0,0,1,29,3.915a13.344,13.344,0,0,0,3.524.519c.311,0,.99-.033,1.174.512.125.367-.084.783-.557,1.12-.109.076-.218.149-.333.218a3.032,3.032,0,0,1,.641.089.165.165,0,0,1,.118.182,3.084,3.084,0,0,1-.722,1.652,3.312,3.312,0,0,1,.486,1.507A6.44,6.44,0,0,1,33,11.382c-.053.178-.106.357-.153.532s-.1.387-.149.588a11.065,11.065,0,0,1-.9,2.673h0C31.305,16.045,30.128,16.289,28.889,16.289Zm-8.228-1.474.844.162c1.36.258,2.764.529,4.162.661.187.02.414.05.672.086,1.557.208,4.446.6,5.186-.724h0a10.8,10.8,0,0,0,.872-2.584q.075-.307.149-.595c.047-.178.1-.36.153-.542A6.223,6.223,0,0,0,33.011,9.7a2.889,2.889,0,0,0-.4-1.265h0a.152.152,0,0,1-.212-.023.162.162,0,0,1,0-.225h0a2.716,2.716,0,0,0,.831-1.546,2.682,2.682,0,0,0-1.379.1.154.154,0,0,1-.2-.1.172.172,0,0,1,.093-.208,5.692,5.692,0,0,0,1.214-.661c.268-.188.523-.479.436-.73s-.514-.3-.872-.294a13.735,13.735,0,0,1-3.6-.525,15.867,15.867,0,0,0-3.038-.522A3.124,3.124,0,0,0,23.009,4.87a5.194,5.194,0,0,0-.557.826,5.284,5.284,0,0,1-.623.9,2.649,2.649,0,0,1-.492.38,1.777,1.777,0,0,0-.548.469,4.333,4.333,0,0,0-.479,2.574v.126q.03,1.139.168,2.27a22.44,22.44,0,0,1,.184,2.4Zm11,.284Z" transform="translate(15.794 -3.373)" fill="#231f20"/>
      <path id="Path_368" data-name="Path 368" d="M22.992,8.082c-.022-2.025-3.045-3-3.219-.644a3.662,3.662,0,0,0,.517,2.313,1.891,1.891,0,0,0,2,.843" transform="translate(15.248 2.805)" fill="#fff"/>
      <path id="Path_369" data-name="Path 369" d="M21.983,10.94a2.147,2.147,0,0,1-1.712-.971,3.831,3.831,0,0,1-.548-2.429c.084-1.16.813-1.546,1.469-1.527A2.229,2.229,0,0,1,23.266,8.2a.161.161,0,0,1-.153.165A.148.148,0,0,1,23,8.318a.167.167,0,0,1-.047-.117A1.926,1.926,0,0,0,21.18,6.347c-.666-.02-1.086.423-1.146,1.223a3.465,3.465,0,0,0,.489,2.207,1.717,1.717,0,0,0,1.834.783.16.16,0,0,1,.2.121.172.172,0,0,1-.114.21,1.647,1.647,0,0,1-.458.05Z" transform="translate(15.142 2.69)" fill="#231f20"/>
      <path id="Path_370" data-name="Path 370" d="M22.962,8c.448-1.966,3.6-2.2,3.275.139a3.556,3.556,0,0,1-1,2.138,1.847,1.847,0,0,1-2.129.33" transform="translate(22.008 3.7)" fill="#fff"/>
      <path id="Path_371" data-name="Path 371" d="M24.009,11.115a1.719,1.719,0,0,1-.856-.221.171.171,0,0,1-.062-.225A.151.151,0,0,1,23.3,10.6a1.694,1.694,0,0,0,1.955-.33,3.386,3.386,0,0,0,.934-2.035c.112-.8-.2-1.322-.859-1.464a1.865,1.865,0,0,0-2.111,1.388.16.16,0,0,1-.191.127.17.17,0,0,1-.12-.2,2.16,2.16,0,0,1,2.472-1.652A1.472,1.472,0,0,1,26.49,8.27a3.742,3.742,0,0,1-1.046,2.237A2.158,2.158,0,0,1,24.009,11.115Z" transform="translate(21.891 3.569)" fill="#231f20"/>
      <path id="Path_372" data-name="Path 372" d="M49.221,15.411c-.128-.707-1.36-1.1-2.768-1.322l.1-1.546.2-3.04-5.576-.882-.529,2.438-.168.79-.24,1.11c-4.981-2.313-20.369-6.988-25.767-4.593-6.643,2.951-1.522,26.222-.785,27.788,0,0,3.711-.479,4.131.529s.336,1.523.971,1.748a.517.517,0,0,0,.483-.048.584.584,0,0,0,.255-.437.651.651,0,0,0,.455.389.616.616,0,0,0,.563-.164s.563.6.934-.112c0,0,.492.634.772.036s.495-3.469-.526-4.1S18.454,32.5,18.1,31.9c0,0,3.586-8.237,2.039-14.307,0,0,2.743,2.974,10.9,5.2a44.2,44.2,0,0,0,2.6,4.553c.28.073,11.615,1.2,11.615,1.2L48.333,22.8S49.529,17.126,49.221,15.411Z" transform="translate(-2.959 6.569)" fill="#fff"/>
      <path id="Path_373" data-name="Path 373" d="M19.134,38.754a.8.8,0,0,1-.28-.053c-.514-.182-.623-.548-.788-1.061-.072-.221-.149-.476-.274-.773-.274-.661-2.581-.611-3.972-.433a.154.154,0,0,1-.159-.089c-.52-1.107-4.318-17.29-1.7-24.781a5.143,5.143,0,0,1,2.565-3.238c3.01-1.322,8.8-.459,13.128.515a72.628,72.628,0,0,1,12.586,4l.9-4.133a.159.159,0,0,1,.174-.126l5.572.879a.163.163,0,0,1,.134.175l-.286,4.434c1.734.281,2.634.747,2.755,1.421h0c.311,1.731-.822,7.223-.872,7.454a.2.2,0,0,1,0,.046l-3.088,5.749a.163.163,0,0,1-.149.083c-1.161-.112-11.354-1.123-11.637-1.2-.227-.063-1.127-1.6-2.668-4.573-6.5-1.791-9.535-4.015-10.525-4.87a21.515,21.515,0,0,1-.557,9,36,36,0,0,1-1.557,4.814A8.681,8.681,0,0,0,20.5,33.2c.554.271,1.08.525,1.454.76,1.143.71.881,3.7.588,4.322a.523.523,0,0,1-.4.33.664.664,0,0,1-.489-.2.653.653,0,0,1-.411.254.773.773,0,0,1-.57-.192.707.707,0,0,1-.962-.093.717.717,0,0,1-.237.264A.564.564,0,0,1,19.134,38.754Zm-3.527-2.766c1.058,0,2.217.145,2.469.743a7.782,7.782,0,0,1,.283.806c.156.5.227.72.591.852a.384.384,0,0,0,.339,0,.562.562,0,0,0,.2-.347.164.164,0,0,1,.131-.135.154.154,0,0,1,.162.089.634.634,0,0,0,.342.307.521.521,0,0,0,.445-.142.146.146,0,0,1,.2,0,.584.584,0,0,0,.411.182.437.437,0,0,0,.3-.261A.161.161,0,0,1,21.6,38a.173.173,0,0,1,.134.059c.062.083.237.248.355.235.056,0,.109-.063.159-.165.283-.6.426-3.331-.467-3.889-.361-.225-.881-.476-1.429-.743A6.78,6.78,0,0,1,18.1,32.1a.164.164,0,0,1,0-.155c.034-.083,3.543-8.26,2.03-14.208a.166.166,0,0,1,.072-.185.155.155,0,0,1,.19.026c.025.03,2.817,2.974,10.824,5.158a.157.157,0,0,1,.1.079,43.883,43.883,0,0,0,2.522,4.477c.517.086,8.324.866,11.472,1.176l3.02-5.617c.084-.4,1.155-5.69.865-7.3h0c-.093-.515-1.027-.932-2.637-1.18a.166.166,0,0,1-.134-.175l.286-4.431-5.292-.836-.909,4.176a.164.164,0,0,1-.081.112.159.159,0,0,1-.134,0C35.2,10.844,19.91,6.281,14.652,8.627a4.835,4.835,0,0,0-2.391,3.05c-2.469,7.058,1.012,22.67,1.644,24.408A15.963,15.963,0,0,1,15.607,35.989ZM48.466,22.911Z" transform="translate(-3.076 6.453)" fill="#231f20"/>
      <path id="Path_374" data-name="Path 374" d="M20.677,8.908a5.216,5.216,0,0,0,1.591,1.982,7.775,7.775,0,0,0,4.274,1.982l.212-3.255a13.065,13.065,0,0,1-3.219-.482,9.051,9.051,0,0,1-2.69-.991Z" transform="translate(17.198 7.587)" fill="#231f20"/>
      <path id="Path_375" data-name="Path 375" d="M26.634,13.155c-1.65,0-3.424-1.252-4.358-1.982a5.32,5.32,0,0,1-1.641-2.058.192.192,0,0,1,0-.1l.168-.786a.153.153,0,0,1,.09-.116.148.148,0,0,1,.143,0,8.888,8.888,0,0,0,2.646.991,12.739,12.739,0,0,0,3.182.479.146.146,0,0,1,.112.053.168.168,0,0,1,.044.126l-.212,3.251a.164.164,0,0,1-.174.145Zm-5.691-4.14a5.085,5.085,0,0,0,1.525,1.88A7.9,7.9,0,0,0,26.5,12.821L26.69,9.9A13.436,13.436,0,0,1,23.6,9.412,9.8,9.8,0,0,1,21.052,8.5Z" transform="translate(17.094 7.463)" fill="#231f20"/>
      <path id="Path_376" data-name="Path 376" d="M30.485,6.336,29.48,13.5a4.735,4.735,0,0,1-.212.9,4.3,4.3,0,0,1-4.691,2.974l-.5-.079a4.47,4.47,0,0,1-3.645-3.905,4.931,4.931,0,0,1,0-1.3l1.015-7.18s.9,1.606,3.941,1.946A11.092,11.092,0,0,0,30.485,6.336Z" transform="translate(16.592 0.161)" fill="#fff"/>
      <path id="Path_377" data-name="Path 377" d="M25.308,17.7a4.021,4.021,0,0,1-.654-.053l-.5-.079A4.714,4.714,0,0,1,20.39,12.18L21.4,5a.161.161,0,0,1,.125-.135.149.149,0,0,1,.165.076s.912,1.543,3.823,1.867A11.181,11.181,0,0,0,30.532,6.3a.154.154,0,0,1,.156.023.184.184,0,0,1,.056.155l-1.006,7.177a5.088,5.088,0,0,1-.221.935A4.516,4.516,0,0,1,25.308,17.7ZM21.65,5.427l-.953,6.8a4.621,4.621,0,0,0,.77,3.285A4.125,4.125,0,0,0,24.2,17.252l.5.079a3.963,3.963,0,0,0,3.093-.812,4.452,4.452,0,0,0,1.636-2.9L30.4,6.705a11.678,11.678,0,0,1-4.922.439A5.73,5.73,0,0,1,21.65,5.427Z" transform="translate(16.489 0.045)" fill="#231f20"/>
      <path id="Path_378" data-name="Path 378" d="M22.683,6.4s1.055,3.469.426,3.456a3.392,3.392,0,0,1-1.463-.618" transform="translate(19.239 3.572)" fill="#fff"/>
      <path id="Path_379" data-name="Path 379" d="M23.221,10.154h0a3.433,3.433,0,0,1-1.557-.661.175.175,0,0,1-.044-.231.156.156,0,0,1,.218-.043,3.324,3.324,0,0,0,1.379.588,8.4,8.4,0,0,0-.579-3.241.173.173,0,0,1,.026-.171.15.15,0,0,1,.156-.052.161.161,0,0,1,.114.124c.215.7.884,3.03.529,3.539A.308.308,0,0,1,23.221,10.154Z" transform="translate(19.131 3.436)" fill="#231f20"/>
      <path id="Path_380" data-name="Path 380" d="M24.081,8.9A5.241,5.241,0,0,1,21.4,8.033a.171.171,0,0,1-.059-.225.157.157,0,0,1,.215-.063c1.977,1.2,3.15.75,3.163.743a.147.147,0,0,1,.12,0,.162.162,0,0,1,.082.093.171.171,0,0,1,0,.126.157.157,0,0,1-.087.085,2.062,2.062,0,0,1-.753.109Z" transform="translate(18.56 6.622)" fill="#231f20"/>
      <path id="Path_381" data-name="Path 381" d="M.712,0c.392,0,.709.128.708.291s-.32.3-.712.3S0,.464,0,.3.32,0,.712,0Z" transform="translate(39.772 9.92) rotate(-83.53)" fill="#231f20"/>
      <path id="Path_382" data-name="Path 382" d="M.712,0c.392,0,.709.128.708.291s-.32.3-.712.3S0,.464,0,.3.32,0,.712,0Z" transform="translate(43.709 10.393) rotate(-83.53)" fill="#231f20"/>
      <path id="Path_383" data-name="Path 383" d="M22.939,8.526s.224,6.939-1.532,9.1A10.249,10.249,0,0,1,16.962,20.6,80.3,80.3,0,0,0,17.4,33.152l19.392,1.127L38.856,25.1S37.094,18.19,38,12.266H35.662s-1.127,9.232-5.769,8.287S26.118,9.167,26.118,9.167Z" transform="translate(9.22 8.461)" fill="#68e1fd"/>
      <path id="Path_384" data-name="Path 384" d="M14.54,24.618s-6.889,5.6-5.915,6.2,12.764-.747,12.764-.747l-1.22-5.449Z" transform="translate(-8.381 45.416)" fill="#fff"/>
      <path id="Path_385" data-name="Path 385" d="M10.264,31.243a4.319,4.319,0,0,1-1.606-.172.366.366,0,0,1-.174-.294c-.072-1.13,5.037-5.339,6.064-6.172a.138.138,0,0,1,.093-.036h5.625a.155.155,0,0,1,.149.129l1.22,5.452a.163.163,0,0,1-.025.135.154.154,0,0,1-.109.069C20.534,30.456,13.539,31.243,10.264,31.243Zm4.43-6.344c-2.322,1.893-5.946,5.125-5.915,5.855,0,.02,0,.023.019.03.682.416,7.783-.211,12.48-.747L20.126,24.9Z" transform="translate(-8.483 45.301)" fill="#231f20"/>
      <path id="Path_386" data-name="Path 386" d="M27.754,25.117,27.3,29.822H38.445a.606.606,0,0,0,.569-.445.66.66,0,0,0-.223-.712l-4.729-3.549Z" transform="translate(31.137 46.56)" fill="#fff"/>
      <path id="Path_387" data-name="Path 387" d="M38.551,30.1H27.4a.155.155,0,0,1-.115-.053.179.179,0,0,1-.04-.129l.458-4.705a.163.163,0,0,1,.156-.149h6.307a.155.155,0,0,1,.09.03l4.729,3.552a.827.827,0,0,1,.285.9.759.759,0,0,1-.721.557Zm-10.977-.33H38.551a.433.433,0,0,0,.423-.33.478.478,0,0,0-.168-.529L34.118,25.4H28Z" transform="translate(31.031 46.445)" fill="#231f20"/>
      <path id="Path_388" data-name="Path 388" d="M33.261,14.229a1.693,1.693,0,0,1,.243-.905v-.35h4.081c.439,0,.794.562.794,1.256s-.355,1.256-.794,1.256H33.5v-.34A1.676,1.676,0,0,1,33.261,14.229Z" transform="translate(43.696 18.674)" fill="#231f20"/>
      <path id="Path_389" data-name="Path 389" d="M37.69,15.765H33.609a.164.164,0,0,1-.156-.165v-.3a2,2,0,0,1,0-1.91v-.3a.164.164,0,0,1,.156-.165H37.69c.532,0,.934.624.934,1.421S38.223,15.765,37.69,15.765Zm-3.926-.33H37.69c.346,0,.623-.5.623-1.09s-.293-1.09-.623-1.09H33.765v.185a.165.165,0,0,1-.028.1,1.631,1.631,0,0,0,0,1.619.179.179,0,0,1,.028.1Z" transform="translate(43.591 18.559)" fill="#231f20"/>
      <ellipse id="Ellipse_23" data-name="Ellipse 23" cx="0.791" cy="1.256" rx="0.791" ry="1.256" transform="translate(76.409 31.648)" fill="#fff"/>
      <path id="Path_390" data-name="Path 390" d="M33.972,15.765c-.529,0-.934-.624-.934-1.421s.417-1.421.934-1.421.95.624.95,1.421S34.5,15.765,33.972,15.765Zm0-2.511c-.346,0-.623.5-.623,1.09s.29,1.09.623,1.09.638-.5.638-1.09S34.318,13.254,33.972,13.254Z" transform="translate(43.228 18.559)" fill="#231f20"/>
      <path id="Path_391" data-name="Path 391" d="M30.738,18.931a10.651,10.651,0,0,1,1.557-5.782V10.925h3.5c2.8,0,5.062,3.592,5.062,8.022S38.593,26.97,35.8,26.97H32.3V24.733A10.662,10.662,0,0,1,30.738,18.931Z" transform="translate(38.38 13.972)" fill="#fff"/>
      <path id="Path_392" data-name="Path 392" d="M35.9,27.231H32.4a.161.161,0,0,1-.156-.165V24.878a11.7,11.7,0,0,1,0-11.67V11.041a.161.161,0,0,1,.156-.165h3.5c2.877,0,5.218,3.674,5.218,8.188S38.781,27.231,35.9,27.231Zm-3.347-.33H35.9c2.705,0,4.906-3.526,4.906-7.857s-2.2-7.857-4.906-7.857H32.558v2.075a.162.162,0,0,1-.028.093A10.447,10.447,0,0,0,31,19.043a10.447,10.447,0,0,0,1.532,5.69.172.172,0,0,1,.028.1Z" transform="translate(38.276 13.857)" fill="#231f20"/>
      <ellipse id="Ellipse_24" data-name="Ellipse 24" cx="5.062" cy="8.022" rx="5.062" ry="8.022" transform="translate(65.616 24.881)" fill="#231f20"/>
      <path id="Path_393" data-name="Path 393" d="M34.776,27.245c-2.877,0-5.218-3.674-5.218-8.188s2.341-8.188,5.218-8.188,5.218,3.674,5.218,8.188S37.653,27.245,34.776,27.245Zm0-16.045c-2.705,0-4.906,3.526-4.906,7.857s2.21,7.857,4.906,7.857,4.906-3.526,4.906-7.857-2.2-7.854-4.906-7.854Z" transform="translate(35.901 13.843)" fill="#231f20"/>
      <path id="Path_394" data-name="Path 394" d="M24.089,9.749s6.675-.961,8.047,2.25c.934,2.207,3.113,14.6,3.113,14.6L39.3,23.2l5.722.925S37.41,38.793,32.152,36.559s-7.714-16.5-7.714-16.5a24.669,24.669,0,0,1-.934-5.178A18,18,0,0,1,24.089,9.749Z" transform="translate(23.132 10.961)" fill="#fff"/>
      <path id="Path_395" data-name="Path 395" d="M33.409,37.079a3.083,3.083,0,0,1-1.22-.248c-2.223-.942-4.215-4.034-5.915-9.182a58.673,58.673,0,0,1-1.893-7.438,25.234,25.234,0,0,1-.934-5.2A18.28,18.28,0,0,1,24.07,9.82.152.152,0,0,1,24.2,9.7c.277-.04,6.805-.938,8.209,2.346.875,2.045,2.746,12.5,3.076,14.373l3.832-3.235a.149.149,0,0,1,.121-.036l5.719.925a.16.16,0,0,1,.115.093.164.164,0,0,1,0,.152A56.947,56.947,0,0,1,40.8,31.4C37.923,35.176,35.451,37.079,33.409,37.079ZM24.322,10.018a17.754,17.754,0,0,0-.567,4.976,24.8,24.8,0,0,0,.934,5.135c.031.165,2.506,14.224,7.624,16.4a2.8,2.8,0,0,0,1.093.218c4.639,0,10.585-10.738,11.472-12.377l-5.432-.876-3.982,3.364a.151.151,0,0,1-.149.023.156.156,0,0,1-.1-.126c-.022-.122-2.179-12.4-3.113-14.565C30.888,9.337,25.153,9.919,24.322,10.018Z" transform="translate(23.02 10.842)" fill="#231f20"/>
      <path id="Path_396" data-name="Path 396" d="M26.788,14.229a1.693,1.693,0,0,1,.243-.905v-.35H41.093c.439,0,.791.562.791,1.256s-.352,1.256-.791,1.256H27.022v-.34A1.677,1.677,0,0,1,26.788,14.229Z" transform="translate(30.064 18.674)" fill="#fff"/>
      <path id="Path_397" data-name="Path 397" d="M41.2,15.765H27.133a.161.161,0,0,1-.156-.165v-.3a2,2,0,0,1,0-1.91v-.3a.161.161,0,0,1,.156-.165H41.2c.532,0,.934.624.934,1.421S41.737,15.765,41.2,15.765ZM27.3,15.434H41.2c.346,0,.623-.5.623-1.09s-.29-1.09-.623-1.09H27.3v.185a.165.165,0,0,1-.028.1,1.631,1.631,0,0,0,0,1.619.179.179,0,0,1,.028.1Z" transform="translate(29.953 18.559)" fill="#231f20"/>
      <path id="Path_398" data-name="Path 398" d="M28.924,13.491a1.011,1.011,0,0,1-.1-.33c-.016-.433.539-.661.912-.506a1.953,1.953,0,0,1,.788.968,1.736,1.736,0,0,1-.311-.707.578.578,0,0,1,.33-.628.676.676,0,0,1,.623.245,2.778,2.778,0,0,1,.716,1.137,1.52,1.52,0,0,1,.034-1.018.752.752,0,0,1,.8-.469c.439.1.623.661.728,1.11a1.032,1.032,0,0,1,.233-.819c.327-.274.8.023,1.077.354,1.043,1.252,1.6,4.229.165,5.439a4.6,4.6,0,0,1-5.308.036c-.856-.6-.763-1.2-.492-2.141a3.882,3.882,0,0,0-.174-2.584C28.958,13.541,28.936,13.514,28.924,13.491Z" transform="translate(34.354 16.841)" fill="#fff"/>
      <path id="Path_399" data-name="Path 399" d="M32.486,19.4a5.066,5.066,0,0,1-2.842-.849c-.934-.661-.825-1.384-.554-2.313a3.7,3.7,0,0,0-.165-2.465L28.89,13.7a1.088,1.088,0,0,1-.115-.406.672.672,0,0,1,.286-.568.864.864,0,0,1,.844-.093,1.1,1.1,0,0,1,.28.182.672.672,0,0,1,.436-.558.789.789,0,0,1,.772.281,2.833,2.833,0,0,1,.408.486,1.327,1.327,0,0,1,.1-.33.924.924,0,0,1,.968-.558.973.973,0,0,1,.638.591.673.673,0,0,1,.2-.268c.4-.33.934-.04,1.292.373a5.576,5.576,0,0,1,1.052,3.674,2.84,2.84,0,0,1-.909,2,4.058,4.058,0,0,1-2.649.9Zm-2.911-6.526a.6.6,0,0,0-.336.109.335.335,0,0,0-.153.281.768.768,0,0,0,.087.281h0l.031.073a4.036,4.036,0,0,1,.181,2.7c-.274.955-.311,1.431.433,1.956a4.45,4.45,0,0,0,5.124-.03,2.572,2.572,0,0,0,.794-1.771,5.214,5.214,0,0,0-.978-3.43c-.2-.241-.623-.545-.869-.33a.922.922,0,0,0-.171.691.165.165,0,0,1-.137.185.159.159,0,0,1-.174-.145c-.087-.383-.246-.905-.623-.991a.617.617,0,0,0-.623.377,1.366,1.366,0,0,0-.025.9.171.171,0,0,1-.1.2.157.157,0,0,1-.2-.1,2.659,2.659,0,0,0-.672-1.071c-.128-.122-.311-.261-.479-.208a.423.423,0,0,0-.218.453.856.856,0,0,0,.062.245c.078.129.149.264.218.4a.171.171,0,0,1-.059.221.153.153,0,0,1-.209-.053,3.072,3.072,0,0,1-.224-.413,1.219,1.219,0,0,0-.495-.5.523.523,0,0,0-.193-.056Z" transform="translate(34.251 16.728)" fill="#231f20"/>
      <path id="Path_400" data-name="Path 400" d="M25.777,18.931a10.651,10.651,0,0,1,1.557-5.782V10.925h3.5c2.8,0,5.062,3.592,5.062,8.022s-2.266,8.022-5.062,8.022h-3.5V24.733a10.662,10.662,0,0,1-1.56-5.8Z" transform="translate(27.932 13.972)" fill="#231f20"/>
      <path id="Path_401" data-name="Path 401" d="M30.943,27.231h-3.5a.161.161,0,0,1-.156-.165V24.878a11.7,11.7,0,0,1,0-11.67V11.041a.161.161,0,0,1,.156-.165h3.5c2.877,0,5.218,3.674,5.218,8.188S33.819,27.231,30.943,27.231ZM27.6,26.9h3.347c2.705,0,4.906-3.526,4.906-7.857s-2.2-7.857-4.906-7.857H27.6v2.075a.162.162,0,0,1-.028.093,10.447,10.447,0,0,0-1.532,5.69,10.447,10.447,0,0,0,1.532,5.69.172.172,0,0,1,.028.1Z" transform="translate(27.828 13.857)" fill="#231f20"/>
      <ellipse id="Ellipse_25" data-name="Ellipse 25" cx="5.062" cy="8.022" rx="5.062" ry="8.022" transform="translate(50.206 24.881)" fill="#fff"/>
      <path id="Path_402" data-name="Path 402" d="M29.815,27.245c-2.877,0-5.218-3.674-5.218-8.188s2.341-8.188,5.218-8.188,5.218,3.674,5.218,8.188S32.691,27.245,29.815,27.245Zm0-16.045c-2.705,0-4.906,3.526-4.906,7.857s2.2,7.857,4.906,7.857,4.906-3.526,4.906-7.857S32.52,11.2,29.815,11.2Z" transform="translate(25.453 13.843)" fill="#231f20"/>
      <path id="Path_403" data-name="Path 403" d="M28.757,23.05c-2.017,0-3.658-2.564-3.658-5.716s1.641-5.713,3.658-5.713,3.658,2.561,3.658,5.713S30.775,23.05,28.757,23.05Zm0-11.1c-1.846,0-3.347,2.415-3.347,5.382s1.5,5.386,3.347,5.386S32.1,20.3,32.1,17.334,30.6,11.952,28.757,11.952Z" transform="translate(26.51 15.569)" fill="#d1d3d4"/>
      <path id="Path_404" data-name="Path 404" d="M24.49,14.229a1.693,1.693,0,0,1,.243-.905v-.35h5.015c.439,0,.794.562.794,1.256s-.355,1.256-.794,1.256H24.733v-.34A1.676,1.676,0,0,1,24.49,14.229Z" transform="translate(25.227 18.674)" fill="#231f20"/>
      <path id="Path_405" data-name="Path 405" d="M29.854,15.765H24.839a.164.164,0,0,1-.156-.165v-.3a2,2,0,0,1,0-1.91v-.3a.164.164,0,0,1,.156-.165h5.015c.532,0,.934.624.934,1.421S30.386,15.765,29.854,15.765Zm-4.86-.33h4.86c.346,0,.623-.5.623-1.09s-.293-1.09-.623-1.09h-4.86v.185a.165.165,0,0,1-.028.1,1.631,1.631,0,0,0,0,1.619.179.179,0,0,1,.028.1Z" transform="translate(25.121 18.559)" fill="#231f20"/>
      <ellipse id="Ellipse_26" data-name="Ellipse 26" cx="0.791" cy="1.256" rx="0.791" ry="1.256" transform="translate(49.169 31.648)" fill="#fff"/>
      <path id="Path_406" data-name="Path 406" d="M25.2,15.765c-.529,0-.934-.624-.934-1.421s.417-1.421.934-1.421.934.624.934,1.421S25.734,15.765,25.2,15.765Zm0-2.511c-.346,0-.623.5-.623,1.09s.29,1.09.623,1.09.623-.5.623-1.09S25.547,13.254,25.2,13.254Z" transform="translate(24.759 18.559)" fill="#231f20"/>
      <path id="Path_407" data-name="Path 407" d="M17.832,21.851l-.837,9.116H11.369s-.679-4.16-1.332-9.116Z" transform="translate(-5.21 39.061)" fill="#d1d3d4"/>
      <path id="Path_408" data-name="Path 408" d="M17.1,31.249H11.474a.159.159,0,0,1-.153-.139c0-.04-.688-4.233-1.332-9.119a.169.169,0,0,1,.035-.132.149.149,0,0,1,.118-.056h7.783a.155.155,0,0,1,.115.053.179.179,0,0,1,.04.129L17.261,31.1A.162.162,0,0,1,17.1,31.249Zm-5.495-.33H16.95l.806-8.786H10.322C10.895,26.442,11.486,30.169,11.6,30.919Z" transform="translate(-5.315 38.951)" fill="#231f20"/>
      <path id="Path_409" data-name="Path 409" d="M35.72,22.078c-.682,5.006-1.413,10.015-1.413,10.015H28L27.18,22.078Z" transform="translate(30.892 39.584)" fill="#d1d3d4"/>
      <path id="Path_410" data-name="Path 410" d="M34.412,32.374H28.1a.163.163,0,0,1-.156-.152l-.819-10.015a.171.171,0,0,1,.041-.125.152.152,0,0,1,.115-.053h8.539a.152.152,0,0,1,.118.056.183.183,0,0,1,.037.132c-.676,4.956-1.407,9.965-1.416,10.015a.156.156,0,0,1-.153.142Zm-6.164-.33h6.03c.121-.836.763-5.26,1.367-9.684H27.457Z" transform="translate(30.787 39.469)" fill="#231f20"/>
    </g>
  </g>
</svg>
