<svg xmlns="http://www.w3.org/2000/svg" width="414" height="254" fill="none" viewBox="0 0 414 254">
  <path fill="#FEDEA6" d="m66.798 220.83-75.737 32.355h430.874l-73.651-32.355H66.798Z"/>
  <path fill="#3F4553" d="m180.926 160.671-14.309 22.746 27.446 31.894h27.676l25.802-32.433-15.972-22.207h-50.643Z"/>
  <path fill="#3F4553" d="M166.617 183.417s-61.555 4.657-76.996 20.432c-15.442 15.776-8.177 32.904 6.864 32.904 27.686 0 86.265 1.657 113.981 0l1.653-36.933-45.502-16.403Z"/>
  <path fill="#3F4553" d="M245.948 182.633s64.46 5.441 79.902 21.216c15.441 15.776 6.543 26.227-6.864 32.904-18.868 9.402-86.876 7.843-122.148-3.579l6.523-33.354 42.587-17.187Z"/>
  <path fill="#FEBBA0" d="m248.784 213.615-4.359-11.02 5.431-2.363s-.752-6.52 5.892-7.775c6.643-1.255 14.559 2.941 22.275-.441 7.114-3.118 15.822-5.991 23.949-1.677a2.787 2.787 0 0 1 1.352 3.314l-.03.098c-.411 1.284-1.693 2.079-3.066 1.941-2.866-.284-7.976-.225-13.026 2.765-8.708 5.177-38.418 15.158-38.418 15.158Z"/>
  <path fill="#3F4553" d="M299.496 214.242s-43.017-7.481-133.631-8.638l-8.747 11.609s22.545 12.608 43.708 17.167c21.163 4.559 94.221 18.913 126.848-3.196l-28.178-16.942Z"/>
  <path stroke="#6E758F" stroke-linecap="round" stroke-miterlimit="10" stroke-width="1.593" d="M200.827 234.39c-21.694-4.902-44.39-17.471-44.39-17.471l1.352-2.246m8.076-9.069s99.552-2.225 126.116 12.854m-174.985-6.54s18.177-8.333 30.602-2.872"/>
  <path fill="#FEBBA0" d="m159.212 215.291 6.644-9.902-6.644-3.52s-2.325-5.696-8.838-7.461c-6.523-1.755-11.162 1.078-18.588-2.883-6.843-3.657-15.301-7.176-23.738-3.5a2.792 2.792 0 0 0-1.613 3.196l.02.098c.311 1.314 1.523 2.197 2.896 2.167 2.876-.068 7.976.383 12.766 3.755 8.267 5.824 37.095 18.05 37.095 18.05Z"/>
  <path stroke="#6E758F" stroke-linecap="round" stroke-miterlimit="10" stroke-width="1.593" d="m216.408 205.957 27.215-2.617m-61.825-8.922 15.18 10.755"/>
  <path fill="#3F4553" d="M177.88 48.049c.641 6.137 6.102 10.608 12.195 10 6.092-.608 10.511-6.079 9.87-12.206-.642-6.138-6.103-10.609-12.195-10-6.083.597-10.501 6.068-9.87 12.206Z"/>
  <path fill="#3F4553" d="M200.636 52.51s-19.359-2.863-22.405-20.737c-2.686-15.794 8.146-28.452 20.02-30.638.01 0 28.538 43.021 2.385 51.375Z"/>
  <path fill="#FDBCA0" d="M201.077 2.83a15.748 15.748 0 0 0-4.008 2.756c-11.032 10.383-4.048 30.54 5.832 39.639 5.471 5.03 13.467 7.373 20.452 4.804 10.21-3.755 13.407-15.07 11.333-25.148-1.544-7.51-5.802-14.599-12.085-19.01-6.283-4.403-14.77-6.266-21.524-3.04Z"/>
  <path fill="#FDBCA0" d="M199.243 39.146c-1.934 1.873-5.3 2.638-7.886 1.745-2.585-.892-4.709-3.274-5.38-6.04-.602-2.48.05-5.303 1.913-6.823 1.864-1.52 5.221-1.421 6.814.55l4.539 10.568Z"/>
  <path fill="#FDBCA0" d="m196.418 32.558 2.034 35.629c.27 6.588 5.731 11.824 12.465 11.951 7.776.157 13.878-6.49 12.886-14.04l-4.108-33.08-23.277-.46Z"/>
  <path fill="#DF8370" d="m222.461 55.353-.511-4.883s-10.021 3.01-19.049-5.255c0 .01 5.2 9.295 19.56 10.138Z"/>
  <path fill="#3F4553" d="M192.44 27.175c13.046-.657 24.95-9.226 31.524-20.265 0 0-12.005-11.148-29.55-4.628-14.54 5.392-1.974 24.893-1.974 24.893Z"/>
  <path stroke="#444359" stroke-linecap="round" stroke-miterlimit="10" stroke-width="1.114" d="M193.872 35.371c-1.503.148-2.815-.647-2.935-1.774-.091-.853.521-1.647 1.462-2.059"/>
  <path fill="#444359" d="M225.216 32.587c.301-.892.822-1.598 1.403-2.265l.281.863c-.662-.245-1.022-.618-1.393-.98a10.264 10.264 0 0 1-.942-1.177 11.954 11.954 0 0 1-1.373-2.588c.702.696 1.343 1.412 2.014 2.098.341.333.662.676 1.012.97.331.285.722.579.992.648l.812.186-.531.676c-.541.697-1.142 1.344-1.974 1.814a.212.212 0 0 1-.281-.068.285.285 0 0 1-.02-.177Zm2.936 3.118a4.24 4.24 0 0 1-1.964 1.922c-.872.44-1.954.529-2.916.254-.982-.264-1.743-.892-2.395-1.539a12 12 0 0 1-.821-1.088c-.211-.402-.431-.794-.591-1.206.37.274.691.569 1.012.863l.992.804c.701.45 1.362.94 2.124 1.117.731.226 1.513.216 2.285.01.761-.215 1.523-.637 2.274-1.137ZM217.661 22.89c.391 1.138.611 2.314.531 3.58-.05.617-.2 1.293-.671 1.891-.481.608-1.293.873-2.004.853a3.061 3.061 0 0 1-1.944-.764 5.516 5.516 0 0 1-1.213-1.49 10.37 10.37 0 0 1-1.172-3.422.36.36 0 0 1 .291-.402c.18-.03.34.078.39.235l.01.02c.341 1.059.792 2.127 1.373 3.049.581.892 1.373 1.715 2.305 1.686.461.02.892-.098 1.152-.422.291-.313.431-.823.511-1.343.15-1.049.05-2.206-.13-3.314v-.02a.29.29 0 0 1 .25-.332.313.313 0 0 1 .321.196Zm14.549-2.225a8.55 8.55 0 0 1 .491 2.99c-.01.52-.11 1.089-.45 1.628-.331.569-1.073.921-1.714.892-.671-.01-1.283-.353-1.673-.755a5.103 5.103 0 0 1-.942-1.324 9.755 9.755 0 0 1-.872-2.911c-.03-.187.11-.363.311-.392.17-.02.33.078.38.235l.01.02c.291.882.642 1.784 1.093 2.568.451.765 1.062 1.5 1.733 1.461.341.01.611-.088.792-.363.2-.274.3-.696.36-1.137.101-.883.02-1.853-.09-2.775v-.02c-.02-.156.1-.303.261-.333.13 0 .27.088.31.216Z"/>
  <path fill="#FEE6C6" d="M243.032 71.422c-.09-5.98-19.91-10.765-19.91-10.765-1.243 1.343-3.377 3.608-12.365 3.608-8.598 0-12.035-2.177-13.377-3.608h-8.508c-1.894 0-3.627 1.059-4.419 2.745-17.044 36.482-7.465 77.229-3.537 97.259.361 1.843 35.933.598 51.976 1.843 3.467.285 10.481-69.346 10.14-91.082Z"/>
  <path fill="#FEBBA0" d="M201.638 123.013c1.764-13.942 3.918-22.305 5.571-19.56 1.463 2.431.652 14.628-1.543 26.393.01 0-4.779-.863-4.028-6.833Z"/>
  <path fill="#FEBBA0" d="M213.282 123.013c-1.764-13.942-3.918-22.305-5.571-19.56-1.463 2.431-.652 14.628 1.543 26.393-.01 0 4.779-.863 4.028-6.833Z"/>
  <path fill="#FEBBA0" d="M272.021 119.552h-22.395l3.557 22.256-40.643-19.403a223.55 223.55 0 0 0-.561-5.285c-1.533 0-3.076 0-4.609-.019.01 1.696.04 2.843.04 2.843s-.792 10.236 1.022 13.648c3.447 6.49 38.709 27.393 48.498 29.873.612.157 1.223.275 1.834.353 9.449 1.304 15.712-3.882 15.642-13.216l-2.385-31.05Z"/>
  <path fill="#FEBBA0" d="M202.54 117.022a386.699 386.699 0 0 0-.902 5.991l-39.47 17.883 1.663-21.335h-22.395l-2.375 31.07c-.06 9.334 6.203 14.511 15.642 13.217a20.493 20.493 0 0 0 1.834-.353c9.79-2.481 42.586-19.825 49.59-29.943 2.074-2.99 1.092-13.059 1.092-13.059s0-1.392-.04-3.373a733.316 733.316 0 0 1-4.639-.098Z"/>
  <path fill="#FEE6C6" d="M169.563 131.729c8.758-25.344 8.688-25.364 19.44-71.062-7.195.48-7.936-.667-13.608 2.216-17.014 8.647-33.037 37.05-37.757 68.846h31.925Zm77.978-2.5c-5.15-17.952-24.419-68.562-24.419-68.562 19.269-.638 45.562 23.942 51.855 65.277l-27.436 3.285Z"/>
  <path stroke="#EED2AD" stroke-linecap="round" stroke-miterlimit="10" stroke-width="1.593" d="m243.042 89.59-4.058 32.628M173.25 94.943l3.227 34.903"/>
</svg>
