<svg xmlns="http://www.w3.org/2000/svg" width="110.088" height="89.672" viewBox="0 0 110.088 89.672">
  <g id="_241_reminder_note_flatline" data-name="#241_reminder_note_flatline" transform="translate(-63.364 -45.253)">
    <rect id="Rectangle_228" data-name="Rectangle 228" width="66.12" height="63.89" transform="translate(167.683 118.743) rotate(180)" fill="#fff"/>
    <path id="Path_841" data-name="Path 841" d="M218.594,131.547h-66.12a.214.214,0,0,1-.214-.214V67.444a.214.214,0,0,1,.214-.214h66.12a.214.214,0,0,1,.214.214v63.89A.214.214,0,0,1,218.594,131.547Zm-65.907-.427H218.38V67.657H152.687Z" transform="translate(-50.911 -12.586)" fill="#231f20"/>
    <path id="Path_842" data-name="Path 842" d="M221.331,96.647H167.774a.214.214,0,0,1,0-.427h53.558a.214.214,0,1,1,0,.427Z" transform="translate(-59.673 -29.189)" fill="#d1d3d4"/>
    <path id="Path_843" data-name="Path 843" d="M191.506,128.867H167.774a.214.214,0,0,1,0-.427h23.732a.214.214,0,0,1,0,.427Z" transform="translate(-59.673 -47.641)" fill="#d1d3d4"/>
    <path id="Path_844" data-name="Path 844" d="M229.147,74.679l-.389,2.487a1.611,1.611,0,0,1-1.872-.068L226.6,74.44Z" transform="translate(-93.485 -16.716)" fill="#fff"/>
    <path id="Path_845" data-name="Path 845" d="M227.517,77.4a1.547,1.547,0,0,1-1.06-.4.209.209,0,0,1-.068-.137L226.1,74.2a.209.209,0,0,1,.06-.171.2.2,0,0,1,.171-.064l2.564.239a.235.235,0,0,1,.15.085.214.214,0,0,1,.043.162l-.389,2.483a.231.231,0,0,1-.094.145A2.047,2.047,0,0,1,227.517,77.4Zm-.714-.671a1.35,1.35,0,0,0,1.474.043l.338-2.136-2.064-.226Z" transform="translate(-93.197 -16.445)" fill="#231f20"/>
    <ellipse id="Ellipse_76" data-name="Ellipse 76" cx="6.469" cy="3.953" rx="6.469" ry="3.953" transform="translate(128.154 50.905)" fill="#fff"/>
    <path id="Path_846" data-name="Path 846" d="M221.173,66.312c-3.683,0-6.683-1.872-6.683-4.166s2.991-4.166,6.683-4.166,6.683,1.867,6.683,4.166S224.856,66.312,221.173,66.312Zm0-7.905c-3.448,0-6.256,1.675-6.256,3.739s2.807,3.739,6.256,3.739,6.256-1.679,6.256-3.739-2.807-3.73-6.256-3.73Z" transform="translate(-86.55 -7.289)" fill="#231f20"/>
    <path id="Path_847" data-name="Path 847" d="M229.174,53.812c0,.085-.179,4.427-.179,4.427a3.539,3.539,0,0,1-3.179,1.008c-2.2-.239-2.466-1.453-2.466-1.453l-.15-5.234Z" transform="translate(-91.538 -4.185)" fill="#231f20"/>
    <path id="Path_848" data-name="Path 848" d="M226.08,59.212a5.4,5.4,0,0,1-.573-.034c-2.329-.252-2.641-1.568-2.654-1.624l-.154-5.269a.209.209,0,0,1,.077-.171.2.2,0,0,1,.179-.043l5.982,1.248a.209.209,0,0,1,.171.209c0,.09-.162,3.991-.179,4.435a.2.2,0,0,1-.047.124A3.576,3.576,0,0,1,226.08,59.212Zm-2.944-6.67.141,4.961s.278,1.034,2.273,1.252a3.407,3.407,0,0,0,2.948-.885c.051-1.282.145-3.529.171-4.17Z" transform="translate(-91.252 -3.902)" fill="#231f20"/>
    <ellipse id="Ellipse_77" data-name="Ellipse 77" cx="2.854" cy="4.538" rx="2.854" ry="4.538" transform="translate(130.086 50.941) rotate(-85.2)" fill="#fff"/>
    <path id="Path_849" data-name="Path 849" d="M224.657,51.736q-.312,0-.628-.026c-2.611-.218-4.619-1.769-4.478-3.453h0c.141-1.688,2.38-2.88,4.991-2.662a6.341,6.341,0,0,1,3.239,1.145,2.7,2.7,0,0,1,1.239,2.312,2.654,2.654,0,0,1-1.607,2.068,6.059,6.059,0,0,1-2.756.615Zm-4.679-3.418c-.124,1.449,1.709,2.79,4.085,2.991a5.91,5.91,0,0,0,3.153-.538,2.261,2.261,0,0,0,1.376-1.709,2.284,2.284,0,0,0-1.068-1.931,5.888,5.888,0,0,0-3.017-1.06c-2.376-.2-4.41.82-4.529,2.269Z" transform="translate(-89.444 -0.182)" fill="#231f20"/>
    <path id="Path_850" data-name="Path 850" d="M195.594,104.44l9.619,7.614.261.453,1.278,2.218-2.453-.735-.5-.15-9.619-7.619Z" transform="translate(-74.919 -33.897)" fill="#fff"/>
    <path id="Path_851" data-name="Path 851" d="M206.466,114.646a.154.154,0,0,1-.06,0l-2.953-.885a.239.239,0,0,1-.073-.038l-9.619-7.623a.214.214,0,0,1-.034-.3l1.414-1.782a.214.214,0,0,1,.3-.038l9.619,7.619a.227.227,0,0,1,.051.06l1.543,2.671a.222.222,0,0,1,0,.239A.226.226,0,0,1,206.466,114.646Zm-2.85-1.282,2.4.718-1.252-2.171-9.4-7.456-1.145,1.449Z" transform="translate(-74.634 -33.608)" fill="#231f20"/>
    <path id="Path_852" data-name="Path 852" d="M.564,0H2.235A.564.564,0,0,1,2.8.564V6.392H0V.564A.564.564,0,0,1,.564,0Z" transform="translate(116.728 70.66) rotate(-51.62)" fill="#231f20"/>
    <path id="Path_853" data-name="Path 853" d="M193.3,105.951a.214.214,0,0,1-.132-.043l-4.568-3.619a.752.752,0,0,1-.291-.521.765.765,0,0,1,.162-.573l1.034-1.312a.786.786,0,0,1,.521-.291.769.769,0,0,1,.573.167l4.572,3.619a.205.205,0,0,1,.077.141.214.214,0,0,1-.043.158l-1.739,2.192A.205.205,0,0,1,193.3,105.951Zm-3.183-5.935h-.038a.333.333,0,0,0-.235.128l-1.047,1.329h0a.35.35,0,0,0,.06.491l4.4,3.487,1.47-1.859-4.418-3.5a.333.333,0,0,0-.2-.077Zm-1.478,1.312Z" transform="translate(-71.555 -31.118)" fill="#231f20"/>
    <path id="Path_854" data-name="Path 854" d="M192.327,109.629a.218.218,0,0,1-.132-.047c-.1-.077-2.389-1.872-2.692-2.137a6.539,6.539,0,0,1-.722-2.089.222.222,0,0,1,.427-.09,6.645,6.645,0,0,0,.594,1.859c.231.214,1.837,1.483,2.658,2.136a.214.214,0,0,1,.038.308.218.218,0,0,1-.171.06Z" transform="translate(-71.826 -34.292)" fill="#231f20"/>
    <path id="Path_855" data-name="Path 855" d="M150.88,142.062s7.021,3.692,11.182,3.042c4.273-.671,11.482-17.13,13.913-20.805,2.231-3.367,3.846-6.807,3.145-10.969a3.782,3.782,0,0,0-1.568-2.611c-.427-.256-.91-.457-1.06-.906-.056-.167-.056-.346-.12-.5a.855.855,0,0,0-.974-.427,2.137,2.137,0,0,0-.953.611,14.33,14.33,0,0,0-3.218,4.384,8.325,8.325,0,0,0-.4,1.743c-.312,2.025-.329,4.021-1.5,5.713s-9.469,10.947-9.469,10.947l-4.35-2.051" transform="translate(-50.121 -36.424)" fill="#fff"/>
    <path id="Path_856" data-name="Path 856" d="M160.7,145.163c-4.179,0-9.943-2.991-10.208-3.141a.214.214,0,1,1,.2-.38c.073.038,7.008,3.653,11.05,3.021,3.051-.479,7.815-9.589,10.965-15.614,1.158-2.209,2.136-4.119,2.807-5.1,2.034-3.077,3.846-6.512,3.111-10.811a3.551,3.551,0,0,0-1.474-2.47l-.244-.145a1.743,1.743,0,0,1-.906-.855,2.492,2.492,0,0,1-.06-.256,1.086,1.086,0,0,0-.051-.231.645.645,0,0,0-.731-.282,1.936,1.936,0,0,0-.855.555,14.313,14.313,0,0,0-3.162,4.307,8.185,8.185,0,0,0-.389,1.709c-.06.393-.107.786-.158,1.175a9.738,9.738,0,0,1-1.376,4.623c-1.154,1.671-9.148,10.593-9.486,10.969a.218.218,0,0,1-.252.051l-4.346-2.051a.214.214,0,1,1,.179-.385l4.2,1.983c.974-1.09,8.281-9.264,9.349-10.811a9.221,9.221,0,0,0,1.282-4.431c.047-.393.1-.791.158-1.188a8.925,8.925,0,0,1,.427-1.795A14.846,14.846,0,0,1,174,109.154a2.35,2.35,0,0,1,1.055-.667,1.047,1.047,0,0,1,1.218.538,1.36,1.36,0,0,1,.081.32,1.617,1.617,0,0,0,.043.2c.094.282.393.457.714.641.085.051.175.1.256.154a3.957,3.957,0,0,1,1.671,2.756c.735,4.457-1.192,8.119-3.179,11.11-.637.966-1.632,2.867-2.782,5.064-3.384,6.469-8.012,15.327-11.281,15.836A7.042,7.042,0,0,1,160.7,145.163Z" transform="translate(-49.834 -36.193)" fill="#231f20"/>
    <path id="Path_857" data-name="Path 857" d="M94.3,90.375c-2.777-.829-4.226-4.038-4.952-6.6-.825-2.923-1.795-5.307-.624-8.349A2.47,2.47,0,0,1,90.147,73.8a1.423,1.423,0,0,0,.521-.192,1.043,1.043,0,0,0,.269-.427c1.679-3.953,6.41-4.064,9.977-3.5,2.064.325,4.739,1.282,5.375,3.384a14.087,14.087,0,0,1-1.978,11.516C102.256,87.734,98.428,91.618,94.3,90.375Z" transform="translate(-14.213 -13.845)" fill="#fff"/>
    <path id="Path_858" data-name="Path 858" d="M95.581,90.526a5.589,5.589,0,0,1-1.637-.244c-2.871-.855-4.354-4.158-5.093-6.768-.094-.333-.192-.658-.286-.983-.752-2.542-1.4-4.739-.325-7.5a2.6,2.6,0,0,1,1.56-1.756l.141-.034a.731.731,0,0,0,.286-.107.82.82,0,0,0,.188-.308v-.043c1.709-4.055,6.5-4.209,10.208-3.628,1.414.222,4.786,1.013,5.555,3.53a14.2,14.2,0,0,1-2,11.7C102.166,87.518,98.974,90.526,95.581,90.526Zm-1.513-.641c3.756,1.128,7.5-2.218,9.751-5.726a13.768,13.768,0,0,0,1.94-11.366c-.692-2.286-3.871-3.021-5.209-3.23C97,69,92.432,69.135,90.8,72.934a1.2,1.2,0,0,1-.333.521,1.12,1.12,0,0,1-.457.184l-.12.03c-.517.145-.949.649-1.282,1.5-1.013,2.624-.385,4.756.342,7.226.094.325.192.654.286.987.709,2.508,2.137,5.67,4.807,6.478Z" transform="translate(-13.922 -13.547)" fill="#231f20"/>
    <path id="Path_859" data-name="Path 859" d="M68.283,172.041s-5.44,15.913-4.243,20.421,16.109.744,16.109.744L76.406,170.58Z" transform="translate(-0.289 -71.775)" fill="#fff"/>
    <path id="Path_860" data-name="Path 860" d="M69.421,194.635c-2.906,0-5.4-.56-5.88-2.376-1.2-4.517,4.025-19.887,4.247-20.54a.218.218,0,0,1,.167-.141l8.119-1.461a.209.209,0,0,1,.158.038.2.2,0,0,1,.09.137l3.747,22.626a.214.214,0,0,1-.158.244A50.867,50.867,0,0,1,69.421,194.635Zm-1.282-22.647c-.5,1.47-5.311,15.985-4.2,20.177,1.055,3.987,13.93,1.055,15.661.641l-3.679-22.22Z" transform="translate(0 -71.508)" fill="#231f20"/>
    <path id="Path_861" data-name="Path 861" d="M117.415,236.64l-3.03-13.78L84.15,230.979s.06,2.26.145,5.662Z" transform="translate(-11.904 -101.716)" fill="#231f20"/>
    <path id="Path_862" data-name="Path 862" d="M131.82,100s2.957,3.7,2.5,4.564-2.3.487-2.3.487" transform="translate(-39.205 -31.354)" fill="#fff"/>
    <path id="Path_863" data-name="Path 863" d="M132.588,105.015a5.215,5.215,0,0,1-.906-.085.218.218,0,0,1,.085-.427c.466.094,1.752.214,2.072-.38.244-.457-1.094-2.6-2.474-4.329a.218.218,0,0,1,.03-.3.222.222,0,0,1,.3.034c.508.637,3.021,3.846,2.517,4.8A1.759,1.759,0,0,1,132.588,105.015Z" transform="translate(-38.917 -31.036)" fill="#231f20"/>
    <path id="Path_864" data-name="Path 864" d="M114.285,86.82c1.782,1.2,1.56,4.1,1.709,5.982q.329,3.927.47,7.862c.064,1.662-4.226,2.09-5.029,1.662l1.282,6.486-9.328-2.641L103,98.567s2.837-.235,4.2-3.765.829-8.713.829-8.713S112.55,85.645,114.285,86.82Z" transform="translate(-22.7 -23.34)" fill="#fff"/>
    <path id="Path_865" data-name="Path 865" d="M112.393,108.742h-.06l-9.328-2.641a.209.209,0,0,1-.154-.192l-.4-7.585a.218.218,0,0,1,.192-.226c.111,0,2.726-.273,4.029-3.628,1.333-3.418.82-8.546.812-8.614a.222.222,0,0,1,.047-.154.226.226,0,0,1,.145-.081c.188,0,4.636-.427,6.41.769h0c1.568,1.055,1.671,3.3,1.748,5.128,0,.355.034.7.06,1.008.214,2.611.372,5.256.47,7.871a1.4,1.4,0,0,1-.795,1.243,7.3,7.3,0,0,1-4.17.735l1.2,6.136a.222.222,0,0,1-.068.2A.218.218,0,0,1,112.393,108.742Zm-9.123-3.017,8.845,2.5-1.2-6.145a.218.218,0,0,1,.312-.231,6.413,6.413,0,0,0,4.119-.6,1.021,1.021,0,0,0,.594-.855c-.094-2.607-.252-5.252-.47-7.85-.026-.32-.043-.667-.06-1.03-.073-1.709-.171-3.846-1.56-4.777s-5.012-.778-5.918-.709c.085,1.034.367,5.427-.855,8.593a5.728,5.728,0,0,1-4.183,3.871Z" transform="translate(-22.384 -23.076)" fill="#231f20"/>
    <path id="Path_866" data-name="Path 866" d="M112.323,141.374s-11.887-6.41-16.566-10.024c-4.341-3.35-15.968-5.4-20.331.769,0,0-6.837,12.751-7.576,19.737l5.273,2.359a226.221,226.221,0,0,0,1.248,24.467c10.657,1.872,32.731-6.649,32.543-6.734l-2.252-16.6,1.953,1.508Z" transform="translate(-2.569 -47.474)" fill="#68e1fd"/>
    <path id="Path_867" data-name="Path 867" d="M129.733,111.065s-2.564,0-3.183-3.465" transform="translate(-36.187 -35.706)" fill="#fff"/>
    <path id="Path_868" data-name="Path 868" d="M129.448,110.988c-.026,0-2.756-.043-3.393-3.641a.217.217,0,0,1,.427-.077c.577,3.239,2.876,3.29,2.991,3.29a.214.214,0,1,1-.026.427Z" transform="translate(-35.902 -35.415)" fill="#231f20"/>
    <path id="Path_869" data-name="Path 869" d="M114.321,100.763a3.577,3.577,0,0,0-.893-1.709,5.175,5.175,0,0,0-1.055-1.1,1.709,1.709,0,0,0-1.449-.3,1.611,1.611,0,0,0-.953.9,3.115,3.115,0,0,0-.209,1.329,5.64,5.64,0,0,0,3.042,4.739l-.158-.141" transform="translate(-26.569 -29.98)" fill="#fff"/>
    <path id="Path_870" data-name="Path 870" d="M112.517,104.486a.252.252,0,0,1-.1,0,5.9,5.9,0,0,1-3.158-4.927,3.2,3.2,0,0,1,.231-1.419,1.786,1.786,0,0,1,1.081-1.021,1.91,1.91,0,0,1,1.632.329,5.255,5.255,0,0,1,1.1,1.145,3.76,3.76,0,0,1,.94,1.837.215.215,0,0,1-.427.043,3.418,3.418,0,0,0-.855-1.615,4.952,4.952,0,0,0-1.008-1.06,1.521,1.521,0,0,0-1.282-.273,1.4,1.4,0,0,0-.82.791,2.782,2.782,0,0,0-.192,1.231,5.465,5.465,0,0,0,2.628,4.4.222.222,0,0,1,.184.047l.158.145a.209.209,0,0,1,.034.278A.214.214,0,0,1,112.517,104.486Z" transform="translate(-26.281 -29.669)" fill="#231f20"/>
    <path id="Path_871" data-name="Path 871" d="M118.111,121.579a6.994,6.994,0,0,1-3.461-1.919,5.282,5.282,0,0,0,3.927,4.307Z" transform="translate(-29.372 -42.613)" fill="#231f20"/>
    <path id="Path_872" data-name="Path 872" d="M118.294,123.906h-.047a5.5,5.5,0,0,1-4.089-4.487.214.214,0,0,1,.376-.162,6.826,6.826,0,0,0,3.341,1.846.209.209,0,0,1,.162.171l.466,2.384a.209.209,0,0,1-.06.2A.214.214,0,0,1,118.294,123.906Zm-3.551-3.846a4.863,4.863,0,0,0,3.277,3.316l-.376-1.914a7.691,7.691,0,0,1-2.9-1.4Z" transform="translate(-29.089 -42.339)" fill="#231f20"/>
    <path id="Path_873" data-name="Path 873" d="M141.528,181.62a.2.2,0,0,1-.124-.043c-.09-.064-9.007-6.585-12.516-10.2a.215.215,0,0,1,.308-.3c3.482,3.585,12.37,10.084,12.46,10.148a.218.218,0,0,1,.047.3.209.209,0,0,1-.175.09Z" transform="translate(-37.491 -72.026)" fill="#231f20"/>
    <ellipse id="Ellipse_78" data-name="Ellipse 78" cx="0.943" cy="0.369" rx="0.943" ry="0.369" transform="translate(90.803 67.828) rotate(-85.426)" fill="#231f20"/>
    <path id="Path_874" data-name="Path 874" d="M78.949,160.865h0a.214.214,0,0,1-.209-.222c0-.517.427-12.7,2.081-16.964a.214.214,0,0,1,.4.158c-1.641,4.188-2.047,16.695-2.051,16.819A.218.218,0,0,1,78.949,160.865Z" transform="translate(-8.806 -56.292)" fill="#231f20"/>
    <path id="Path_875" data-name="Path 875" d="M261.8,161.34H234.786l-4.529-5.76-.047,5.841a4.734,4.734,0,0,0-3.88,4.658v20.348a4.739,4.739,0,0,0,4.739,4.743H261.8a4.743,4.743,0,0,0,4.743-4.743V166.079A4.743,4.743,0,0,0,261.8,161.34Z" transform="translate(-93.331 -63.184)" fill="#fff"/>
    <path id="Path_876" data-name="Path 876" d="M261.518,191.1H230.782a4.961,4.961,0,0,1-4.952-4.957V165.794a4.944,4.944,0,0,1,3.884-4.833l.043-5.67a.214.214,0,0,1,.38-.128l4.47,5.679h26.92a4.961,4.961,0,0,1,4.969,4.952v20.348a4.961,4.961,0,0,1-4.978,4.957Zm-31.342-35.2-.043,5.23a.209.209,0,0,1-.175.209,4.521,4.521,0,0,0-3.7,4.448v20.348a4.529,4.529,0,0,0,4.525,4.529h30.736a4.534,4.534,0,0,0,4.529-4.529V165.794a4.529,4.529,0,0,0-4.529-4.525H234.5a.218.218,0,0,1-.167-.081Z" transform="translate(-93.044 -62.9)" fill="#231f20"/>
    <path id="Path_877" data-name="Path 877" d="M270.081,198.383H250.63l.214-.171c.188-.158.372-.32.568-.466a5.944,5.944,0,0,0,2.4-4.457c.115-1.282.137-2.53.214-3.794a7.773,7.773,0,0,1,.786-3.119,5.5,5.5,0,0,1,4.235-2.991h.068c.239-.893.645-1.248,1.355-1.2a1.205,1.205,0,0,1,1.137,1.175c.4.107.8.188,1.188.32a5.505,5.505,0,0,1,3.653,4.141,11.538,11.538,0,0,1,.3,2.889,16.575,16.575,0,0,0,.363,3.675,5.508,5.508,0,0,0,1.825,3.055Z" transform="translate(-107.247 -78.419)" fill="#68e1fd"/>
    <path id="Path_878" data-name="Path 878" d="M272.57,222.63a2.632,2.632,0,0,1-2.837,2.166,2.553,2.553,0,0,1-2.363-2.166Z" transform="translate(-116.834 -101.584)" fill="#68e1fd"/>
  </g>
</svg>
