<svg xmlns="http://www.w3.org/2000/svg" width="116.003" height="93.75" viewBox="0 0 116.003 93.75">
  <g id="_447_reading_a_book_flatline" data-name="#447_reading_a_book_flatline" transform="translate(-68.319 -43.58)">
    <path id="Path_741" data-name="Path 741" d="M307.14,44.08V123.5l10.589,11.021V44.08Z" transform="translate(-133.627 -0.28)" fill="#fff"/>
    <path id="Path_742" data-name="Path 742" d="M317.471,134.462a.225.225,0,0,1-.159-.066l-10.571-11.012a.229.229,0,0,1-.062-.154V43.8a.216.216,0,0,1,.216-.22h10.571a.22.22,0,0,1,.22.22v90.446a.22.22,0,0,1-.137.2A.256.256,0,0,1,317.471,134.462ZM307.1,123.133,317.256,133.7V44.02H307.1Z" transform="translate(-133.37)" fill="#231f20"/>
    <rect id="Rectangle_217" data-name="Rectangle 217" width="94.389" height="79.421" transform="translate(79.129 43.8)" fill="#fff"/>
    <path id="Path_743" data-name="Path 743" d="M186.964,123.442H92.58a.22.22,0,0,1-.22-.22V43.8a.22.22,0,0,1,.22-.22h94.384a.22.22,0,0,1,.22.22v79.421A.22.22,0,0,1,186.964,123.442ZM92.8,123h93.952V44.02H92.8Z" transform="translate(-13.452)" fill="#231f20"/>
    <path id="Path_744" data-name="Path 744" d="M144.307,126.126H104.62a.225.225,0,0,1-.22-.22V52.84a.22.22,0,0,1,.22-.22h39.686a.22.22,0,0,1,.22.22v73.065A.225.225,0,0,1,144.307,126.126Zm-39.466-.44h39.246V53.06H104.84Z" transform="translate(-20.188 -5.058)" fill="#d1d3d4"/>
    <path id="Path_745" data-name="Path 745" d="M244.42,126.126h-39.7a.225.225,0,0,1-.22-.22V52.84a.22.22,0,0,1,.22-.22h39.686a.22.22,0,0,1,.22.22v73.065A.225.225,0,0,1,244.42,126.126Zm-39.466-.44H244.2V53.06H204.954Z" transform="translate(-76.197 -5.058)" fill="#d1d3d4"/>
    <path id="Path_746" data-name="Path 746" d="M184.382,235.411H68.82L79.409,224.39h94.384Z" transform="translate(-0.28 -101.168)" fill="#fff"/>
    <path id="Path_747" data-name="Path 747" d="M184.1,235.362H68.54a.225.225,0,0,1-.2-.132.216.216,0,0,1,.044-.238L78.952,223.98a.211.211,0,0,1,.159-.07h94.4a.211.211,0,0,1,.159.07l10.571,11.012a.216.216,0,0,1,.044.238A.225.225,0,0,1,184.1,235.362Zm-115.042-.436H183.582l-10.166-10.571H79.221Z" transform="translate(0 -100.9)" fill="#231f20"/>
    <path id="Path_748" data-name="Path 748" d="M68.82,44.08v90.442L79.409,123.5V44.08Z" transform="translate(-0.28 -0.28)" fill="#fff"/>
    <path id="Path_749" data-name="Path 749" d="M68.54,134.462a.255.255,0,0,1-.084,0,.22.22,0,0,1-.137-.2V43.8a.22.22,0,0,1,.22-.22H79.112a.216.216,0,0,1,.216.22v79.421a.229.229,0,0,1-.062.154L68.694,134.388a.225.225,0,0,1-.154.075Zm.216-90.442V133.7l10.131-10.571V44.02Z" transform="translate(-0.001)" fill="#231f20"/>
    <path id="Path_750" data-name="Path 750" d="M83.863,174.29c-.929.167-7.567.057-7.435,1.379s3.365,14.536,4.281,18.081a13.348,13.348,0,0,0,5.761,7.928c2.357,1.321,9.514-4.431,11.109-4.845S83.863,174.29,83.863,174.29Z" transform="translate(-4.536 -73.136)" fill="#231f20"/>
    <path id="Path_751" data-name="Path 751" d="M87.044,201.81a1.938,1.938,0,0,1-.965-.22,13.649,13.649,0,0,1-5.867-8.065c-.929-3.59-4.154-16.764-4.286-18.112a.625.625,0,0,1,.159-.476c.647-.749,3.348-.929,6.052-1.048.647-.031,1.2-.057,1.41-.092a.22.22,0,0,1,.216.092c2.418,3.524,14.452,21.05,13.84,22.671a.366.366,0,0,1-.251.225,16.362,16.362,0,0,0-2.793,1.564C92.158,199.846,89.009,201.81,87.044,201.81Zm-3.563-27.56c-.273.031-.731.053-1.321.075-1.8.084-5.158.233-5.726.881a.189.189,0,0,0-.057.145c.132,1.3,3.374,14.571,4.277,18.059a13.013,13.013,0,0,0,5.656,7.792c1.5.841,5.427-1.608,8.03-3.233a16.818,16.818,0,0,1,2.872-1.6c.211-1.308-8.241-14.161-13.729-22.116Z" transform="translate(-4.255 -72.858)" fill="#231f20"/>
    <path id="Path_752" data-name="Path 752" d="M110.34,155.4s-30.9-1.255-31.031.947S94.58,191.014,96.831,191.49s2.484-1.665,3.348-1.449,9.576-2.467,12.333-4.845-4.643-20.359-4.321-22.587S112.877,155.715,110.34,155.4Z" transform="translate(-6.149 -62.366)" fill="#fff"/>
    <path id="Path_753" data-name="Path 753" d="M97.163,191.5a3,3,0,0,1-.656-.075c-1.52-.317-7.365-12.016-9.809-17.033-3.876-7.959-7.959-17.095-7.889-18.332.031-.48.092-1.6,15.786-1.52,7.655.035,15.416.352,15.474.357h0a1.039,1.039,0,0,1,.881.529c.4.806-.467,2.29-1.383,3.863a11.163,11.163,0,0,0-1.462,3.083c-.11.727.74,3.493,1.722,6.691,1.969,6.418,4.4,14.4,2.519,16.029-2.775,2.379-11.571,5.109-12.518,4.867-.194-.044-.366.132-.656.44a2.581,2.581,0,0,1-2.009,1.1ZM93.64,154.945c-9.166,0-14.333.462-14.373,1.123-.062.991,3.462,9.122,7.845,18.121C92.64,185.576,95.864,190.861,96.6,191a2.063,2.063,0,0,0,2.268-.881c.326-.361.63-.7,1.092-.581.74.181,9.369-2.418,12.122-4.779,1.678-1.436-.929-9.937-2.643-15.562-1.04-3.387-1.859-6.061-1.74-6.889a11.7,11.7,0,0,1,1.52-3.259c.78-1.321,1.665-2.85,1.37-3.444a.634.634,0,0,0-.533-.286c-6.369-.242-11.888-.357-16.43-.357Z" transform="translate(-5.869 -62.085)" fill="#231f20"/>
    <path id="Path_754" data-name="Path 754" d="M275.625,209.879a36.811,36.811,0,0,0,5.325-.44c.612-.308,4.145-4.889,4.973-5.982s1.048-2.357,1.617-2.616.916-.7,1.132,0-.96,5.726-1.762,8.466-1.7,6.418-2.357,6.854-2.4-.132-2.881-.612a9.742,9.742,0,0,0-1.762-1.136s-5.634.044-5.726-.084S275.625,209.879,275.625,209.879Z" transform="translate(-115.186 -87.781)" fill="#fff"/>
    <path id="Path_755" data-name="Path 755" d="M283.683,216.3a4.079,4.079,0,0,1-2.365-.832,9.149,9.149,0,0,0-1.643-1.07c-5.7.044-5.766-.062-5.849-.185s-.145-.22,1.374-4.643a.211.211,0,0,1,.2-.15,33.02,33.02,0,0,0,5.233-.414,59.7,59.7,0,0,0,4.9-5.916,7.357,7.357,0,0,0,.824-1.458c.277-.586.5-1.053.881-1.229a2.512,2.512,0,0,0,.326-.176c.255-.145.493-.282.736-.189a.735.735,0,0,1,.374.5c.264.846-1.123,6.413-1.762,8.594-.128.44-.26.921-.392,1.4-.881,3.123-1.48,5.193-2.053,5.576a1.441,1.441,0,0,1-.78.194Zm-3.964-2.339a.238.238,0,0,1,.1,0,9.725,9.725,0,0,1,1.8,1.176c.44.44,2.07.938,2.6.581s1.286-3.215,1.876-5.33c.132-.476.264-.951.392-1.4.916-3.207,1.925-7.779,1.762-8.343-.062-.194-.115-.22-.115-.22a3.365,3.365,0,0,0-.357.163,3.918,3.918,0,0,1-.361.194c-.238.106-.44.529-.661,1.017a8.242,8.242,0,0,1-.881,1.533c-.176.233-4.321,5.678-5.052,6.043a29.138,29.138,0,0,1-5.286.44c-.471,1.379-1.154,3.436-1.321,4.057.753.057,3.638.062,5.466.048Z" transform="translate(-114.967 -87.528)" fill="#231f20"/>
    <path id="Path_756" data-name="Path 756" d="M161.56,220.036s23.979-3.044,25.688-3.189,26.041,1.7,26.922,1.568,1.114-5.629,1.114-5.629-23.552-6.343-30.23-6.021c-3.863.185-16.386,0-16.386,0Z" transform="translate(-52.171 -91.3)" fill="#231f20"/>
    <path id="Path_757" data-name="Path 757" d="M161.279,219.977a.216.216,0,0,1-.194-.322l7.1-13.276a.22.22,0,0,1,.2-.115c.123,0,12.558.181,16.368,0,6.638-.317,29.335,5.77,30.3,6.03a.216.216,0,0,1,.163.22c-.079,1.709-.37,5.7-1.3,5.841-.405.062-4.792-.229-11.919-.7-6.607-.44-14.1-.938-15.007-.881-1.674.128-25.437,3.158-25.679,3.189Zm7.241-13.271-6.832,12.774c3.317-.44,23.693-3.017,25.279-3.136.921-.07,8.113.405,15.069.881,5.62.374,11.43.762,11.822.7s.771-2.489.916-5.246c-2.15-.573-23.724-6.272-29.992-5.968C181.161,206.877,169.872,206.723,168.52,206.705Z" transform="translate(-51.89 -91.02)" fill="#231f20"/>
    <path id="Path_758" data-name="Path 758" d="M236.57,213.141s2.357,3.8,2.616,4.585.264,2.947.784,3.929,15.386.788,15.324.2-6.418-3.215-8.087-4.4S241.164,210,241.164,210Z" transform="translate(-94.141 -93.117)" fill="#fff"/>
    <path id="Path_759" data-name="Path 759" d="M247.259,222.27c-3.722,0-7.448-.2-7.761-.788a8.8,8.8,0,0,1-.577-2.608,8.484,8.484,0,0,0-.225-1.361,51.22,51.22,0,0,0-2.6-4.537.216.216,0,0,1,.062-.3l4.585-3.141a.22.22,0,0,1,.3.053c.044.062,4.383,6.268,6,7.413a38.8,38.8,0,0,0,4.048,2.123c3.158,1.533,4.083,2.035,4.127,2.423q.026.238-.317.344A53.355,53.355,0,0,1,247.259,222.27Zm-10.677-9.347a48.5,48.5,0,0,1,2.528,4.453,8.731,8.731,0,0,1,.247,1.445,8.167,8.167,0,0,0,.524,2.453c.238.26,2.674.559,7.444.573a49.215,49.215,0,0,0,7.369-.344,36.928,36.928,0,0,0-3.784-1.978,39.206,39.206,0,0,1-4.114-2.163c-1.542-1.088-5.242-6.286-5.982-7.338Z" transform="translate(-93.858 -92.838)" fill="#231f20"/>
    <path id="Path_760" data-name="Path 760" d="M139.85,187.1c.4.264,2.127,2.8,9.563,3.061s19.68-22.244,19.68-22.244l12.923,15.17,5.933-3.753s-8.118-22.561-11.783-24.878-9.69-.612-12.333,1.088-15.32,19.116-15.32,19.116Z" transform="translate(-40.024 -61.409)" fill="#231f20"/>
    <path id="Path_761" data-name="Path 761" d="M149.263,190.067h-.137c-6.669-.233-8.809-2.277-9.51-2.947-.075-.07-.128-.123-.163-.15a.216.216,0,0,1-.1-.141.242.242,0,0,1,.035-.167l8.686-12.439c.524-.718,12.774-17.473,15.381-19.178,2.453-1.594,8.651-3.55,12.545-1.088,3.691,2.33,11.545,24.063,11.893,24.988a.22.22,0,0,1-.088.26l-5.938,3.753a.225.225,0,0,1-.286-.044l-12.712-14.923a126.09,126.09,0,0,1-6.911,10.963C156.676,186.327,152.412,190.067,149.263,190.067Zm-9.4-3.321.053.048c.674.643,2.718,2.6,9.219,2.828h.128c7.228,0,19.235-21.909,19.359-22.134a.207.207,0,0,1,.167-.11.216.216,0,0,1,.194.075l12.774,15.02,5.625-3.555c-.749-2.061-8.237-22.464-11.633-24.6-1.837-1.163-7.268-2.039-12.069,1.084-2.555,1.661-15.135,18.887-15.262,19.064Z" transform="translate(-39.746 -61.106)" fill="#231f20"/>
    <path id="Path_762" data-name="Path 762" d="M148.633,180.352c0-.26,3.229-4.515,4.035-4.911a24.718,24.718,0,0,0,2.251-1.374l-1.207-2.74s-.956.383-.758-.467-1.511-2.039-1.511-2.039-2.229,1.982-2.282,4.264c-.044,1.837-4.982,4.779-4.982,4.779Z" transform="translate(-42.446 -70.075)" fill="#fff"/>
    <path id="Path_763" data-name="Path 763" d="M148.357,180.288a.238.238,0,0,1-.11-.026l-4.449-2.489a.22.22,0,0,1,0-.383c1.321-.8,4.845-3.189,4.872-4.594.057-2.348,2.264-4.343,2.357-4.4a.225.225,0,0,1,.273,0c.185.128,1.819,1.3,1.594,2.268a.473.473,0,0,0,0,.26,1.305,1.305,0,0,0,.44-.044.22.22,0,0,1,.282.115l1.207,2.74a.22.22,0,0,1-.075.269,24.4,24.4,0,0,1-2.277,1.392c-.727.357-3.753,4.343-3.916,4.748a.216.216,0,0,1-.106.154A.207.207,0,0,1,148.357,180.288Zm-4.017-2.718,3.929,2.2c.625-1.088,3.312-4.458,4.03-4.806a22.9,22.9,0,0,0,2.066-1.26l-1.053-2.392a.811.811,0,0,1-.7-.093.665.665,0,0,1-.145-.692c.11-.476-.674-1.255-1.277-1.709a6.577,6.577,0,0,0-2.079,3.986c-.04,1.678-3.594,4.035-4.766,4.761Z" transform="translate(-42.17 -69.81)" fill="#231f20"/>
    <path id="Path_764" data-name="Path 764" d="M113.9,115.338c-4.352-5.352-11.58-2.643-13.694,3.149A20.5,20.5,0,0,1,97,124.8c-1.392,1.722-3.568,3.242-3.652,5.664a4.841,4.841,0,0,0,2.524,4.118,10.572,10.572,0,0,0,4.845,1.229,26.979,26.979,0,0,0,11.06-1.718,7.131,7.131,0,0,0,3.872-2.845c.929-1.74-.088-3.061-.476-4.845a10.741,10.741,0,0,1,.48-4.458A7.638,7.638,0,0,0,113.9,115.338Z" transform="translate(-14.003 -38.538)" fill="#fff"/>
    <path id="Path_765" data-name="Path 765" d="M101.871,135.787c-.489,0-.982,0-1.471-.04a10.9,10.9,0,0,1-4.969-1.26,5.148,5.148,0,0,1-2.643-4.317c.092-1.907,1.352-3.229,2.586-4.55.405-.44.788-.828,1.128-1.251a20.448,20.448,0,0,0,3.167-6.255,9.333,9.333,0,0,1,6.968-6.074,7.371,7.371,0,0,1,7.1,2.859h0a7.816,7.816,0,0,1,1.828,6.81c-.053.242-.11.489-.167.731a8.458,8.458,0,0,0-.313,3.629,12.336,12.336,0,0,0,.4,1.348,4.158,4.158,0,0,1,.053,3.638A7.17,7.17,0,0,1,111.552,134,27.388,27.388,0,0,1,101.871,135.787Zm6.012-23.407a7.15,7.15,0,0,0-1.176.1,8.824,8.824,0,0,0-6.607,5.792,20.707,20.707,0,0,1-3.237,6.382,16.769,16.769,0,0,1-1.154,1.277c-1.176,1.238-2.392,2.515-2.449,4.255a4.585,4.585,0,0,0,2.414,3.925,10.46,10.46,0,0,0,4.77,1.194,26.944,26.944,0,0,0,10.937-1.7,6.768,6.768,0,0,0,3.753-2.744,3.751,3.751,0,0,0-.084-3.29,12.1,12.1,0,0,1-.41-1.4,8.71,8.71,0,0,1,.313-3.819c.057-.242.115-.485.167-.727a7.434,7.434,0,0,0-1.74-6.444h0a6.984,6.984,0,0,0-5.5-2.806Z" transform="translate(-13.691 -38.249)" fill="#231f20"/>
    <path id="Path_766" data-name="Path 766" d="M102.007,153.418c-1.762,2.273-1.44,12.831,2.749,18.328s6.374,12.659,15.888,16.324l7.528-15.364s-6.219-5.5-6.471-7.246.956-4.4.088-6.722C118.111,149.03,103.756,151.149,102.007,153.418Z" transform="translate(-18.284 -60.386)" fill="#68e1fd"/>
    <path id="Path_767" data-name="Path 767" d="M122,135.329l-.022,4.268s.348,1.762-2.5,1.092-4.118-4.18-4.118-4.18l.255-6.237s4.458-2.387,3.823-6.973a5.841,5.841,0,0,0,5.973,3.048,50.461,50.461,0,0,1-.269,6.3C124.8,134.858,122,135.329,122,135.329Z" transform="translate(-26.321 -44.606)" fill="#fff"/>
    <path id="Path_768" data-name="Path 768" d="M120.352,140.786a5.061,5.061,0,0,1-1.189-.163c-2.934-.7-4.224-4.167-4.277-4.317a.255.255,0,0,1,0-.084l.255-6.237a.216.216,0,0,1,.119-.185c.04-.022,4.312-2.374,3.7-6.748a.22.22,0,0,1,.154-.238.216.216,0,0,1,.264.11,5.572,5.572,0,0,0,5.726,2.929.22.22,0,0,1,.172.053.225.225,0,0,1,.079.163,50.838,50.838,0,0,1-.269,6.334c-.308,2.026-2.489,2.678-3.141,2.828l-.022,4.088h0a1.247,1.247,0,0,1-.348,1.066,1.7,1.7,0,0,1-1.229.4Zm-5.039-4.59c.15.379,1.405,3.4,3.964,4,.987.233,1.687.189,2.017-.132a.855.855,0,0,0,.216-.709v-4.308a.225.225,0,0,1,.185-.216c.026,0,2.643-.476,2.96-2.5a48.169,48.169,0,0,0,.269-6.021,5.982,5.982,0,0,1-5.479-2.453c.026,3.731-3.237,5.871-3.885,6.259Z" transform="translate(-26.053 -44.328)" fill="#231f20"/>
    <path id="Path_769" data-name="Path 769" d="M114.72,136.63a2.2,2.2,0,0,0-2.3-1.542c-1.238.194-1.22,1.594-.832,2.5a2.26,2.26,0,0,0,2.991,1.167" transform="translate(-24.077 -51.196)" fill="#fff"/>
    <path id="Path_770" data-name="Path 770" d="M113.381,138.889a2.467,2.467,0,0,1-2.273-1.5,2.564,2.564,0,0,1-.04-2.1,1.383,1.383,0,0,1,1.044-.7,2.409,2.409,0,0,1,2.546,1.7.226.226,0,1,1-.44.106,2.013,2.013,0,0,0-2.057-1.379.934.934,0,0,0-.722.476,2.11,2.11,0,0,0,.057,1.718,2.031,2.031,0,0,0,2.7,1.053.225.225,0,0,1,.291.11.22.22,0,0,1-.115.291A2.5,2.5,0,0,1,113.381,138.889Z" transform="translate(-23.804 -50.919)" fill="#231f20"/>
    <path id="Path_771" data-name="Path 771" d="M131.894,135.23s1.577,2.167,1.238,2.568-1.321.185-1.321.185" transform="translate(-35.525 -51.281)" fill="#fff"/>
    <path id="Path_772" data-name="Path 772" d="M132.039,137.974a3.522,3.522,0,0,1-.617-.062.225.225,0,0,1,.092-.44c.286.062.938.115,1.128-.11a6.483,6.483,0,0,0-1.247-2.3.211.211,0,0,1,.048-.3.22.22,0,0,1,.3.048c.766,1.053,1.6,2.4,1.229,2.837A1.207,1.207,0,0,1,132.039,137.974Z" transform="translate(-35.208 -50.994)" fill="#231f20"/>
    <ellipse id="Ellipse_62" data-name="Ellipse 62" cx="0.348" cy="0.806" rx="0.348" ry="0.806" transform="translate(94.726 82.003) rotate(-1.68)" fill="#231f20"/>
    <ellipse id="Ellipse_63" data-name="Ellipse 63" cx="0.348" cy="0.806" rx="0.348" ry="0.806" transform="translate(97.69 82.348) rotate(-1.68)" fill="#231f20"/>
    <path id="Path_773" data-name="Path 773" d="M125.93,149.379a5.274,5.274,0,0,1-3.55-.969s.714,3,3.524,3.277Z" transform="translate(-30.249 -58.655)" fill="#231f20"/>
    <path id="Path_774" data-name="Path 774" d="M125.662,151.63h0c-2.951-.291-3.722-3.418-3.731-3.449a.211.211,0,0,1,.088-.229.22.22,0,0,1,.247,0,5.074,5.074,0,0,0,3.387.938.238.238,0,0,1,.181.048.22.22,0,0,1,.079.172v2.308a.212.212,0,0,1-.07.159.225.225,0,0,1-.181.053Zm-3.141-3.008a3.917,3.917,0,0,0,2.925,2.542v-1.815A5.554,5.554,0,0,1,122.522,148.622Z" transform="translate(-29.994 -58.378)" fill="#231f20"/>
    <path id="Path_775" data-name="Path 775" d="M126.41,138.6s0,4.33,3.8,2.934" transform="translate(-32.504 -53.166)" fill="#fff"/>
    <path id="Path_776" data-name="Path 776" d="M128.529,141.751a2.286,2.286,0,0,1-1.348-.4c-1.282-.881-1.321-2.942-1.321-3.03a.225.225,0,0,1,.22-.22h0a.22.22,0,0,1,.22.22s0,1.907,1.11,2.669a2.5,2.5,0,0,0,2.4.057.22.22,0,0,1,.15.414A4.233,4.233,0,0,1,128.529,141.751Z" transform="translate(-32.196 -52.887)" fill="#231f20"/>
    <path id="Path_777" data-name="Path 777" d="M179.311,166.1c-.194-.066-5.171-1.321-5.171-1.321s8.316-13.157,8.51-13.214,7.136-1.454,7.136-1.454Z" transform="translate(-59.21 -59.607)" fill="#fff"/>
    <path id="Path_778" data-name="Path 778" d="M179.033,166.04h-.07c-.15-.053-3.167-.81-5.154-1.321a.22.22,0,0,1-.132-.33c8.369-13.214,8.532-13.28,8.624-13.315.2-.066,6-1.225,7.166-1.458a.22.22,0,0,1,.225.339l-10.474,15.989a.229.229,0,0,1-.185.1Zm-4.823-1.669c1.013.255,3.964,1,4.726,1.2l10.1-15.416c-2.6.52-6.065,1.22-6.55,1.321C181.993,152.117,177.368,159.376,174.21,164.371Z" transform="translate(-58.932 -59.327)" fill="#231f20"/>
    <path id="Path_779" data-name="Path 779" d="M166.6,164.562l-5.933-3.224L168.7,149.7l6.413,1.639Z" transform="translate(-51.673 -59.377)" fill="#fff"/>
    <path id="Path_780" data-name="Path 780" d="M166.325,164.5a.234.234,0,0,1-.106-.026l-5.933-3.224a.216.216,0,0,1-.106-.141.207.207,0,0,1,.031-.176l8.03-11.637a.216.216,0,0,1,.233-.088l6.413,1.634a.22.22,0,0,1,.154.132.238.238,0,0,1-.022.2l-8.51,13.214A.225.225,0,0,1,166.325,164.5Zm-5.612-3.524,5.55,3.013,8.237-12.8-5.973-1.524Z" transform="translate(-51.395 -59.1)" fill="#231f20"/>
    <path id="Path_781" data-name="Path 781" d="M119,178.762s5.867,9.69,10.5,11.452S147.3,178.445,147.3,178.445s1.612.74,3.273-1.44a16.891,16.891,0,0,0,2.392-4.431,5.081,5.081,0,0,0,.533-2.823c-.277-.921-1.154.881-1.154.881s-1.476,2.295-2.352,2.079-.128-2.555-.392-3.242-1.559,1.762-1.863,2.806a11.452,11.452,0,0,1-2.621,3.577c-.7.608-11.144,7.757-12.025,7.691s-7.228-7.788-7.228-7.788Z" transform="translate(-28.357 -70.371)" fill="#fff"/>
    <path id="Path_782" data-name="Path 782" d="M130.147,190.331a2.78,2.78,0,0,1-1-.167c-4.643-1.762-10.364-11.126-10.607-11.527a.216.216,0,0,1,0-.181.22.22,0,0,1,.119-.132l6.845-3.013a.225.225,0,0,1,.26.062c3.039,3.722,6.519,7.625,7.074,7.713.881,0,10.977-6.814,11.893-7.607A11.425,11.425,0,0,0,147.29,172c.211-.736,1.264-3.057,1.925-3.083a.352.352,0,0,1,.357.264,3.674,3.674,0,0,1,.022,1.365c-.062.7-.145,1.647.22,1.74.489.115,1.533-1.088,2.11-1.987.225-.467.692-1.295,1.141-1.26.132,0,.308.093.405.414a5.149,5.149,0,0,1-.546,2.986,16.649,16.649,0,0,1-2.414,4.466c-1.471,1.938-2.925,1.7-3.387,1.564C145.867,179.715,135.248,190.331,130.147,190.331Zm-11.091-11.686c.881,1.427,6.127,9.571,10.25,11.131,1.815.683,5.418-1.106,10.422-5.18,3.819-3.11,7.118-6.475,7.153-6.51a.216.216,0,0,1,.247-.044c.062.026,1.484.63,3.008-1.374A16.883,16.883,0,0,0,152.5,172.3a5.12,5.12,0,0,0,.529-2.691.251.251,0,0,0-.053-.115,3.554,3.554,0,0,0-.692,1.048c-.273.44-1.625,2.436-2.6,2.2-.727-.181-.63-1.255-.546-2.2a4.885,4.885,0,0,0,.022-1.119,8.3,8.3,0,0,0-1.471,2.731A11.618,11.618,0,0,1,145,175.835c-.577.507-11.012,7.713-12.188,7.713h0c-.921-.066-5.669-5.775-7.277-7.739Z" transform="translate(-28.092 -70.131)" fill="#231f20"/>
    <path id="Path_783" data-name="Path 783" d="M129.919,174.818a.22.22,0,0,1-.2-.123L126.3,167.6a.218.218,0,1,1,.392-.189l3.422,7.092a.216.216,0,0,1-.1.291A.194.194,0,0,1,129.919,174.818Z" transform="translate(-32.431 -69.22)" fill="#231f20"/>
    <path id="Path_784" data-name="Path 784" d="M112.2,178.1a.22.22,0,0,1-.2-.123c-.04-.088-4.255-8.774-5.105-9.849a.22.22,0,0,1,.035-.308.216.216,0,0,1,.308.035c.881,1.114,4.982,9.571,5.158,9.933a.22.22,0,0,1-.1.291A.194.194,0,0,1,112.2,178.1Z" transform="translate(-21.561 -69.487)" fill="#231f20"/>
    <path id="Path_785" data-name="Path 785" d="M163.775,219.907a.223.223,0,0,1-.066-.44c5.136-1.678,12.827-12.809,12.906-12.923a.22.22,0,0,1,.3-.053.216.216,0,0,1,.057.3c-.317.462-7.854,11.364-13.13,13.091Z" transform="translate(-53.267 -91.131)" fill="#fff"/>
    <path id="Path_786" data-name="Path 786" d="M160.021,166.988a8.812,8.812,0,0,1,1.762-1c1.44-.634,3.361-.48,2.881.141s-3.735,1.973-3.735,1.973a1.969,1.969,0,0,1-1.418,2.141" transform="translate(-51.024 -68.261)" fill="#fff"/>
    <path id="Path_787" data-name="Path 787" d="M159.135,170.166a.224.224,0,1,1-.079-.44,1.741,1.741,0,0,0,1.282-1.894.225.225,0,0,1,.132-.242,16.03,16.03,0,0,0,3.643-1.9.177.177,0,0,0,.031-.053,3.6,3.6,0,0,0-2.643.242,9.272,9.272,0,0,0-1.678.96.225.225,0,0,1-.308,0,.216.216,0,0,1,0-.3,8.7,8.7,0,0,1,1.81-1.053c1.194-.524,2.8-.573,3.171-.1a.44.44,0,0,1-.031.573c-.44.595-2.978,1.687-3.674,1.982a2.2,2.2,0,0,1-1.572,2.2.255.255,0,0,1-.084.026Z" transform="translate(-50.667 -67.968)" fill="#231f20"/>
    <path id="Path_788" data-name="Path 788" d="M100.392,190.995a.225.225,0,0,1-.211-.154c-2.471-7.774-14.364-29.181-14.492-29.4a.22.22,0,0,1,.383-.211c.123.216,12.038,21.662,14.536,29.476a.22.22,0,0,1-.145.273.176.176,0,0,1-.07.013Z" transform="translate(-9.71 -65.778)" fill="#d1d3d4"/>
    <rect id="Rectangle_218" data-name="Rectangle 218" width="115.566" height="2.867" transform="translate(68.54 134.247)" fill="#fff"/>
    <path id="Path_789" data-name="Path 789" d="M184.1,252.224H68.54a.22.22,0,0,1-.22-.22V249.14a.22.22,0,0,1,.22-.22H184.1a.22.22,0,0,1,.22.22V252A.22.22,0,0,1,184.1,252.224Zm-115.346-.44h115.13v-2.427H68.756Z" transform="translate(-0.001 -114.894)" fill="#231f20"/>
    <path id="Path_790" data-name="Path 790" d="M146.879,78.474a.225.225,0,0,1-.172-.079.22.22,0,0,1,.031-.308l9.893-8.166a.208.208,0,1,1,.277.308l-9.889,8.2A.22.22,0,0,1,146.879,78.474Z" transform="translate(-43.833 -14.703)" fill="#d1d3d4"/>
    <path id="Path_791" data-name="Path 791" d="M229.823,87.434a.22.22,0,0,1-.141-.388L242.3,76.475a.222.222,0,1,1,.286.339L229.964,87.385A.229.229,0,0,1,229.823,87.434Z" transform="translate(-90.244 -18.377)" fill="#d1d3d4"/>
    <path id="Path_792" data-name="Path 792" d="M158.112,107.437a.216.216,0,0,1-.167-.079.225.225,0,0,1,.026-.313l7.8-6.572a.222.222,0,1,1,.286.339l-7.805,6.572A.216.216,0,0,1,158.112,107.437Z" transform="translate(-50.12 -31.804)" fill="#d1d3d4"/>
    <path id="Path_793" data-name="Path 793" d="M273.31,179.327a.229.229,0,0,1-.167-.075.225.225,0,0,1,.022-.313l4.986-4.347a.22.22,0,1,1,.291.33l-4.986,4.352a.229.229,0,0,1-.145.053Z" transform="translate(-114.575 -73.271)" fill="#d1d3d4"/>
    <path id="Path_794" data-name="Path 794" d="M236.516,135.664a.22.22,0,0,1-.141-.392l14.192-11.809a.216.216,0,0,1,.308.026.225.225,0,0,1-.026.313l-14.192,11.809A.225.225,0,0,1,236.516,135.664Z" transform="translate(-93.986 -44.667)" fill="#d1d3d4"/>
  </g>
</svg>
