<svg xmlns="http://www.w3.org/2000/svg" width="217.192" height="181.641" viewBox="0 0 217.192 181.641">
  <g id="_75_job_interview" data-name="#75_job_interview" transform="translate(-67.416 -39.103)">
    <path id="Path_4" data-name="Path 4" d="M82.529,193.722H70.646a.418.418,0,0,1-.41-.369A15.11,15.11,0,0,1,87.73,177.072a8.845,8.845,0,0,1,12-10.368,41.653,41.653,0,0,1,5.594-21.114c2.948-5.094,8.255-10.2,14.308-9.255,3.415.532,6.265,2.932,8.558,4.857a.4.4,0,0,1,.049.573.418.418,0,0,1-.581.049c-2.211-1.859-4.963-4.169-8.19-4.668-5.643-.884-10.647,4-13.472,8.853a40.794,40.794,0,0,0-5.479,21.343.409.409,0,0,1-.6.369,8.034,8.034,0,0,0-11.261,9.754.418.418,0,0,1-.082.41.41.41,0,0,1-.393.123,14.275,14.275,0,0,0-17.2,14.906H82.529a.409.409,0,1,1,0,.819Z" transform="translate(-0.499 -17.58)" fill="#d1d3d4"/>
    <path id="Path_5" data-name="Path 5" d="M117.84,131.116a.377.377,0,0,1-.3-.139,28.943,28.943,0,0,0-15.675-9.107,19.034,19.034,0,0,0-6.314-.328.413.413,0,1,1-.106-.819,20.213,20.213,0,0,1,6.552.344,29.729,29.729,0,0,1,16.126,9.369.418.418,0,0,1,0,.581A.41.41,0,0,1,117.84,131.116Z" transform="translate(-5.008 -14.752)" fill="#d1d3d4"/>
    <path id="Path_6" data-name="Path 6" d="M95.924,128.415a18.6,18.6,0,0,1-3.44-.336c-4.095-.819-7.756-2.752-11.318-4.644a1.4,1.4,0,0,1-.647-.573c-.254-.516,0-1.106.68-1.638,3.071-2.351,7.191-5.143,11.867-5.938,4.095-.7,9.418.385,12.187,4.365a.409.409,0,0,1-.106.573.4.4,0,0,1-.565-.106c-2.563-3.685-7.559-4.676-11.384-4.029-4.463.762-8.321,3.35-11.466,5.782-.311.238-.491.5-.434.614s.188.156.295.213c3.505,1.859,7.133,3.792,11.089,4.554,4.357.819,8.436,0,11.179-2.269a.409.409,0,0,1,.524.622,12.956,12.956,0,0,1-8.46,2.809Z" transform="translate(-2.354 -13.754)" fill="#d1d3d4"/>
    <path id="Path_7" data-name="Path 7" d="M270.438,250.995H67.91L89.982,208.53H248.366Z" transform="translate(-0.089 -30.668)" fill="#fff"/>
    <path id="Path_8" data-name="Path 8" d="M270.348,251.312H67.821a.4.4,0,0,1-.352-.6l22.113-42.473a.426.426,0,0,1,.369-.221H248.277a.4.4,0,0,1,.36.221l22.072,42.473a.4.4,0,0,1-.36.6Zm-201.856-.819H269.677l-21.6-41.67H90.138Z" transform="translate(0 -30.576)" fill="#d1d3d4"/>
    <path id="Path_9" data-name="Path 9" d="M95.309,251.32a.534.534,0,0,1-.156,0,.4.4,0,0,1-.221-.532l17.2-42.465a.41.41,0,1,1,.762.3l-17.2,42.465A.4.4,0,0,1,95.309,251.32Z" transform="translate(-4.975 -30.584)" fill="#d1d3d4"/>
    <path id="Path_10" data-name="Path 10" d="M122.78,251.306h-.115a.418.418,0,0,1-.278-.508l12.285-42.465a.4.4,0,1,1,.778.172l-12.285,42.473A.41.41,0,0,1,122.78,251.306Z" transform="translate(-9.948 -30.57)" fill="#d1d3d4"/>
    <path id="Path_11" data-name="Path 11" d="M150.25,251.313h-.066a.418.418,0,0,1-.336-.475l7.371-42.465a.415.415,0,1,1,.819.139l-7.371,42.465a.418.418,0,0,1-.418.336Z" transform="translate(-14.92 -30.577)" fill="#d1d3d4"/>
    <path id="Path_12" data-name="Path 12" d="M177.735,251.313h0a.409.409,0,0,1-.385-.434l2.457-42.465a.41.41,0,0,1,.434-.385.4.4,0,0,1,.385.426l-2.457,42.473A.418.418,0,0,1,177.735,251.313Z" transform="translate(-19.899 -30.577)" fill="#d1d3d4"/>
    <path id="Path_13" data-name="Path 13" d="M204.656,251.314a.418.418,0,0,1-.41-.385l-2.457-42.473a.4.4,0,0,1,.385-.426h0a.409.409,0,0,1,.4.393l2.457,42.465a.426.426,0,0,1-.385.434Z" transform="translate(-24.323 -30.578)" fill="#d1d3d4"/>
    <path id="Path_14" data-name="Path 14" d="M231.041,251.311a.4.4,0,0,1-.4-.344L223.269,208.5a.415.415,0,1,1,.819-.139l7.371,42.465a.409.409,0,0,1-.328.475Z" transform="translate(-28.21 -30.575)" fill="#d1d3d4"/>
    <path id="Path_15" data-name="Path 15" d="M257.424,251.312a.426.426,0,0,1-.393-.295l-12.285-42.473a.409.409,0,0,1,.278-.508.418.418,0,0,1,.508.287l12.285,42.465a.41.41,0,0,1-.279.508Z" transform="translate(-32.096 -30.576)" fill="#d1d3d4"/>
    <path id="Path_16" data-name="Path 16" d="M283.4,250.259a.418.418,0,0,1-.377-.254l-17.027-42.129a.41.41,0,1,1,.762-.3l17.019,42.1a.41.41,0,0,1-.229.532A.336.336,0,0,1,283.4,250.259Z" transform="translate(-35.939 -30.448)" fill="#d1d3d4"/>
    <path id="Path_17" data-name="Path 17" d="M204.412,66.618c-.074-2.555-.344-5.217-1.72-7.371-2.047-3.219-6-4.554-9.639-5.667-4.095-1.269-8.632-2.531-12.7-1.056a13.922,13.922,0,0,0-3.661,2.1,14.218,14.218,0,0,0-4.914,6.126,8.19,8.19,0,0,0,.737,7.592c3.161,4.382,10.721,4,13.259,8.771.819,1.564.975,3.481,2.047,4.914a7.084,7.084,0,0,0,2.694,1.99c2.154,1.024,4.693,1.638,6.929.77C204.609,82.113,204.609,72.8,204.412,66.618Z" transform="translate(-18.78 -2.309)" fill="#231f20"/>
    <path id="Path_18" data-name="Path 18" d="M195.054,85.468a11.343,11.343,0,0,1-4.783-1.2,7.592,7.592,0,0,1-2.85-2.072,9.213,9.213,0,0,1-1.294-2.9,12.28,12.28,0,0,0-.819-2.056c-1.261-2.359-3.833-3.391-6.552-4.48-2.514-1.007-5.111-2.056-6.683-4.242a8.632,8.632,0,0,1-.819-7.969,14.594,14.594,0,0,1,5.029-6.314,14.366,14.366,0,0,1,3.767-2.154c4.365-1.589,9.336-.074,12.965,1.04,4.021,1.228,7.8,2.6,9.828,5.839,1.45,2.277,1.712,5.119,1.785,7.592.147,5.487.418,15.708-7.215,18.534A6.994,6.994,0,0,1,195.054,85.468Zm-10.77-33.3a11.245,11.245,0,0,0-3.89.647,13.876,13.876,0,0,0-3.554,2.039,13.734,13.734,0,0,0-4.75,5.954,7.764,7.764,0,0,0,.688,7.207c1.433,2,3.89,2.989,6.347,3.956,2.735,1.1,5.561,2.236,6.961,4.857a12.453,12.453,0,0,1,.819,2.2,8.344,8.344,0,0,0,1.171,2.645,6.47,6.47,0,0,0,2.539,1.867c1.728.819,4.275,1.638,6.617.753,7.084-2.629,6.814-12.465,6.675-17.748h0c-.065-2.367-.311-5.07-1.638-7.174-1.908-3.006-5.545-4.316-9.418-5.5a30.073,30.073,0,0,0-8.567-1.7Z" transform="translate(-18.684 -2.224)" fill="#231f20"/>
    <path id="Path_19" data-name="Path 19" d="M156.631,194.611l-.893,3.276s-38.738-3.563-42.2,2.572,14.308,26.208,50.048,27.575,83.463-11.974,86.207-23.964-45.421-7.617-45.421-7.617l-.925-4.144S162.864,195.332,156.631,194.611Z" transform="translate(-8.271 -27.732)" fill="#231f20"/>
    <path id="Path_20" data-name="Path 20" d="M168.786,228.467q-2.686,0-5.307-.1c-12.383-.483-23.914-3.276-33.357-8.133-7.559-3.874-13.44-8.87-16.134-13.7-1.441-2.572-1.753-4.824-.893-6.355,3.407-6.044,38.157-3.161,42.252-2.8l.819-2.965a.409.409,0,0,1,.442-.295c6.118.68,46.355-2.277,46.756-2.31a.4.4,0,0,1,.434.319l.819,3.8c4.095-.352,38.132-3.038,44.545,4.316a4.1,4.1,0,0,1,.958,3.825C247.426,215.765,204.027,228.467,168.786,228.467Zm-35-31.261c-9.59,0-18.509.762-19.975,3.374-.721,1.269-.4,3.276.893,5.561,4.472,8.018,21.171,20.335,48.812,21.408,34.979,1.359,83.111-11.916,85.822-23.669a3.276,3.276,0,0,0-.778-3.1c-6.413-7.371-43.84-4.046-44.225-4.013a.4.4,0,0,1-.434-.319l-.819-3.808c-4.177.311-39.311,2.85-46.216,2.318l-.819,2.957a.409.409,0,0,1-.426.3C150.678,197.764,141.989,197.207,133.783,197.207Z" transform="translate(-8.182 -27.641)" fill="#231f20"/>
    <path id="Path_21" data-name="Path 21" d="M113.341,201.8c.991-1.753,8.763-3.833,21.908,0s55.315,22.792,58.148,24.111,14.431,3.505,13.612,6.92-25.79-2.883-27.9-3.915-27.534,3.538-49.8-4.848C109.484,216.6,111.056,205.831,113.341,201.8Z" transform="translate(-8.077 -29.059)" fill="#fff"/>
    <path id="Path_22" data-name="Path 22" d="M203.64,234.162c-7.183,0-22.932-4.095-24.791-4.979a30.538,30.538,0,0,0-5.61,0c-8.935.459-27.543,1.392-44.16-4.865-9.205-3.464-14.865-7.977-16.838-13.423a11.417,11.417,0,0,1,.655-9.418c1.1-1.941,9.009-4.095,22.375-.188s55.593,22.932,58.148,24.136a31.779,31.779,0,0,0,3.677,1.228c4.84,1.441,10.876,3.276,10.229,6.151a1.36,1.36,0,0,1-.819.909,7.207,7.207,0,0,1-2.866.45Zm-26.208-5.913a4.512,4.512,0,0,1,1.753.2c2.088,1.016,23.325,6.3,26.953,4.545.221-.1.344-.221.368-.352.483-2.162-5.872-4.054-9.664-5.184a32.755,32.755,0,0,1-3.792-1.269c-2.572-1.22-44.766-20.229-58.05-24.095-12.989-3.784-20.6-1.638-21.433-.2a10.565,10.565,0,0,0-.581,8.755c1.859,5.135,7.518,9.607,16.38,12.932,16.462,6.2,34.946,5.266,43.832,4.824,1.933-.1,3.309-.164,4.275-.164Zm-64.225-26.543Z" transform="translate(-7.984 -28.962)" fill="#231f20"/>
    <path id="Path_23" data-name="Path 23" d="M137.545,131.093l-7.3,27.518-11.785-13.866s-2.031-3.382-3.325-3.866c-1.54-.573-6.028-1.6-8.19-3.333s-5.143-1.482-5.34-.131c-.254,1.8,4.341,3.9,5.5,4.8a9.269,9.269,0,0,1-4.758.09,2.989,2.989,0,0,1-1.5-.606c-1.2-1.089.581-2.785.262-4.046a2.039,2.039,0,0,0-2.932-1.2c-1.016.68-1.179,2.072-1.638,3.194-1.016,2.408-3.6,3.718-4.627,6.1-1.147,2.678,1.024,4.75,3.792,4.578a59.74,59.74,0,0,0,13.284-2.875s12.408,35.389,30.409,40.016c2.015.516,8.264-22.023,10.647-37.059,9.459-6.609,9.271-10.647,9.615-14.242a16.411,16.411,0,0,0-7.936-15.659S140.886,118.489,137.545,131.093Z" transform="translate(-4.377 -14.713)" fill="#fff"/>
    <path id="Path_24" data-name="Path 24" d="M139.334,187.77a.964.964,0,0,1-.172,0c-7.576-1.949-15.045-9.328-22.2-21.933a129.2,129.2,0,0,1-8.337-18.018,58.529,58.529,0,0,1-13,2.768,4.431,4.431,0,0,1-3.948-1.638,3.481,3.481,0,0,1-.254-3.472,10.72,10.72,0,0,1,2.383-3.161,9.828,9.828,0,0,0,2.244-2.948c.123-.287.221-.6.328-.909A4.251,4.251,0,0,1,97.86,136a2.244,2.244,0,0,1,2.08-.188,2.506,2.506,0,0,1,1.3,1.114,1.687,1.687,0,0,1,1.007-.885,5.291,5.291,0,0,1,4.914,1.1c1.548,1.261,4.5,2.162,6.454,2.76.655.2,1.2.36,1.581.5,1.384.524,3.276,3.677,3.522,4.038l11.237,13.21,7.1-26.756c1.769-6.683,5.643-9.3,8.575-10.311a12.834,12.834,0,0,1,5.987-.606.36.36,0,0,1,.123,0c.09.049,9.189,5.094,8.141,16.06l-.049.614c-.311,3.538-.655,7.535-9.582,13.825-2.211,13.98-7.969,35.438-10.467,37.084A.819.819,0,0,1,139.334,187.77Zm-30.475-40.843a.418.418,0,0,1,.393.278c.123.352,12.531,35.217,30.114,39.746,1.712-.541,7.674-21.146,10.115-36.723a.426.426,0,0,1,.172-.27c8.755-6.126,9.091-9.951,9.377-13.317l.057-.631a16.094,16.094,0,0,0-7.666-15.225c-.966-.164-10.491-1.392-13.6,10.319l-7.289,27.51a.418.418,0,0,1-.311.295.393.393,0,0,1-.4-.131L118.04,144.912c-.819-1.31-2.3-3.423-3.145-3.743-.369-.139-.9-.295-1.532-.491-2.015-.614-5.061-1.54-6.732-2.907a4.5,4.5,0,0,0-4.095-.966c-.246.1-.541.27-.581.573-.156,1.089,2.408,2.613,3.931,3.53a16.084,16.084,0,0,1,1.409.893.4.4,0,0,1-.09.7,9.141,9.141,0,0,1-4.988.115,3.276,3.276,0,0,1-1.7-.7c-.917-.819-.5-1.908-.172-2.785a2.744,2.744,0,0,0,.311-1.458,1.638,1.638,0,0,0-1.016-1.089,1.466,1.466,0,0,0-1.335.106,3.612,3.612,0,0,0-1.155,2.031c-.115.336-.221.663-.352.975a10.647,10.647,0,0,1-2.4,3.219,9.828,9.828,0,0,0-2.219,2.907,2.67,2.67,0,0,0,.172,2.678,3.636,3.636,0,0,0,3.219,1.327,58.318,58.318,0,0,0,13.194-2.858Zm-7.436-8.493a7.631,7.631,0,0,1-.319.983c-.344.885-.524,1.458-.049,1.884a2.678,2.678,0,0,0,1.294.508,11.253,11.253,0,0,0,3.718.164c-.18-.115-.385-.237-.606-.36-1.441-.868-3.3-1.982-4.021-3.178ZM137.459,131Z" transform="translate(-4.283 -14.617)" fill="#231f20"/>
    <path id="Path_25" data-name="Path 25" d="M236.468,131.09l7.3,27.518,11.793-13.865s2.023-3.382,3.317-3.866c1.54-.573,6.028-1.6,8.149-3.333s5.151-1.482,5.34-.131c.262,1.8-4.332,3.9-5.5,4.8a9.27,9.27,0,0,0,4.758.09,2.932,2.932,0,0,0,1.5-.606c1.2-1.089-.581-2.785-.262-4.046a2.039,2.039,0,0,1,2.973-1.22c1.024.68,1.179,2.072,1.638,3.194,1.024,2.408,3.612,3.718,4.627,6.1,1.147,2.678-1.024,4.75-3.792,4.578a59.838,59.838,0,0,1-13.284-2.875s-12.4,35.388-30.4,40.016c-2.023.516-8.272-22.023-10.647-37.059-9.451-6.609-9.263-10.647-9.607-14.242a16.412,16.412,0,0,1,7.928-15.659S233.127,118.486,236.468,131.09Z" transform="translate(-26.586 -14.71)" fill="#fff"/>
    <path id="Path_26" data-name="Path 26" d="M234.486,187.786a.868.868,0,0,1-.467-.156c-2.457-1.638-8.255-23.1-10.458-37.084-8.935-6.29-9.279-10.295-9.582-13.825l-.057-.614c-1.04-10.966,8.051-16.011,8.149-16.06a.278.278,0,0,1,.115,0c.115,0,11.2-1.916,14.6,10.9l7.092,26.715L255.166,144.4c.172-.3,2.1-3.456,3.481-3.98.385-.139.934-.3,1.581-.5,1.957-.6,4.914-1.5,6.454-2.76a5.3,5.3,0,0,1,4.914-1.1,1.7,1.7,0,0,1,1,.884,2.571,2.571,0,0,1,1.3-1.114,2.26,2.26,0,0,1,2.088.188,4.267,4.267,0,0,1,1.482,2.457c.1.311.2.622.328.909a9.827,9.827,0,0,0,2.236,2.948,10.58,10.58,0,0,1,2.383,3.161,3.456,3.456,0,0,1-.246,3.473,4.439,4.439,0,0,1-3.948,1.638,58.5,58.5,0,0,1-13.006-2.768,128.771,128.771,0,0,1-8.346,18.018c-7.158,12.6-14.635,19.983-22.211,21.932A.97.97,0,0,1,234.486,187.786ZM222.4,120.809a16.108,16.108,0,0,0-7.658,15.225l.049.631c.295,3.366.622,7.191,9.386,13.317a.409.409,0,0,1,.164.27c2.457,15.561,8.4,36.183,10.172,36.723,17.526-4.513,29.942-39.393,30.065-39.746a.418.418,0,0,1,.508-.262,58.156,58.156,0,0,0,13.186,2.858A3.62,3.62,0,0,0,281.5,148.5a2.67,2.67,0,0,0,.164-2.678,9.724,9.724,0,0,0-2.22-2.907,10.647,10.647,0,0,1-2.408-3.2c-.131-.311-.238-.639-.344-.975a3.661,3.661,0,0,0-1.155-2.031,1.483,1.483,0,0,0-1.343-.106,1.638,1.638,0,0,0-1.007,1.089,2.727,2.727,0,0,0,.3,1.458c.336.876.745,1.957-.164,2.785a3.333,3.333,0,0,1-1.7.7,9.131,9.131,0,0,1-4.988-.115.41.41,0,0,1-.1-.7c.311-.237.819-.541,1.409-.893,1.531-.917,4.095-2.457,3.939-3.53,0-.3-.344-.475-.59-.573a4.529,4.529,0,0,0-4.095.966c-1.638,1.368-4.726,2.293-6.74,2.907-.631.2-1.163.352-1.523.491-.819.319-2.359,2.457-3.112,3.685L243.987,158.8a.393.393,0,0,1-.4.131.409.409,0,0,1-.3-.295l-7.3-27.51C232.89,119.417,223.373,120.645,222.4,120.809ZM267.754,142a11.245,11.245,0,0,0,3.718-.164,2.744,2.744,0,0,0,1.3-.508c.475-.426.287-1-.049-1.884a7.68,7.68,0,0,1-.328-.983c-.721,1.2-2.58,2.31-4.038,3.178Z" transform="translate(-26.504 -14.633)" fill="#231f20"/>
    <path id="Path_27" data-name="Path 27" d="M174.112,117.474s-9.386.541-11.466,1.925c0,0,5.078,18.018-1.147,31.122,0,0,3.661,22.825,3.89,30.434,0,0,25.536,8.075,46.838-2.3.393,3.669-.36-23.579,2.236-28.9,0,0-1.466-23.136,1.532-30.671C215.963,119.087,185.578,115.558,174.112,117.474Z" transform="translate(-17.03 -14.083)" fill="#68e1fd"/>
    <path id="Path_28" data-name="Path 28" d="M184.133,99.1l-.188,8.919c0,.311-6.675.68-7.24.721a.525.525,0,0,0-.229.057.483.483,0,0,0-.156.344c-1.065,7.109.5,14.242,3.456,20.729,2.015,4.423,5.168,8.837,9.828,10.1,15.618,4.185,21.81-30.221,21.638-30.368a54.929,54.929,0,0,0-6.994-.934c-2.5,0-1.188-16.077-.95-22.219a3.637,3.637,0,0,0-.221-1.7,4.382,4.382,0,0,0-1.286-1.319,12.284,12.284,0,0,1-3.939-6.814,32.021,32.021,0,0,1-.565-7.969c0,1.081-7.568,3.038-8.591,3.276a39.1,39.1,0,0,1-9.451,1.22c-2.17,0-2.088,0-2.457,2.2-.254,1.728-.508,3.456-.7,5.2a51.747,51.747,0,0,0-.237,10.442,9.827,9.827,0,0,0,1.54,4.963C178.933,98,181.6,98.779,184.133,99.1Z" transform="translate(-19.598 -5.347)" fill="#fff"/>
    <path id="Path_29" data-name="Path 29" d="M192.17,140.647a10.736,10.736,0,0,1-2.744-.377c-4.095-1.1-7.51-4.578-10.139-10.327-3.276-7.248-4.48-14.3-3.489-20.95a.876.876,0,0,1,.336-.622.819.819,0,0,1,.434-.131h.549c4.226-.262,5.8-.442,6.306-.549l.18-8.288c-3.153-.459-5.315-1.523-6.593-3.276a10.156,10.156,0,0,1-1.638-5.176,50.454,50.454,0,0,1,.237-10.524c.2-1.761.45-3.546.7-5.217v-.221c.319-2.154.508-2.31,2.776-2.326a38.974,38.974,0,0,0,9.369-1.2c4.423-1.13,7.961-2.391,8.28-2.948a.41.41,0,0,1,.409-.36h0a.409.409,0,0,1,.4.418h0a31.253,31.253,0,0,0,.557,7.862,12.023,12.023,0,0,0,3.792,6.552l.221.172a3.055,3.055,0,0,1,1.441,3.178c0,.966-.106,2.187-.172,3.546-.311,5.823-.876,16.65.549,18.149.09.1.147.1.164.1.819,0,6.847.688,7.256,1.032.631.532-2.35,12.924-6.388,20.679C201.31,137.035,196.994,140.647,192.17,140.647Zm-15.561-31.613v.082c-.966,6.486.188,13.382,3.423,20.475,2.514,5.52,5.733,8.837,9.607,9.869a9.263,9.263,0,0,0,8.264-1.72c8.526-6.364,12.473-25.176,12.834-27.944a64.4,64.4,0,0,0-6.552-.819,1.057,1.057,0,0,1-.762-.352c-1.531-1.638-1.245-9.828-.77-18.755.066-1.359.131-2.572.172-3.538a3.211,3.211,0,0,0-.18-1.507,3.276,3.276,0,0,0-.958-1l-.221-.18a12.817,12.817,0,0,1-4.095-7.043,29.408,29.408,0,0,1-.59-7.092c-1.007.606-3.2,1.482-8.059,2.727a39.827,39.827,0,0,1-9.558,1.228c-1.744,0-1.744,0-1.982,1.638v.221c-.254,1.638-.508,3.44-.7,5.184a50.013,50.013,0,0,0-.237,10.36,9.525,9.525,0,0,0,1.458,4.767c1.179,1.638,3.276,2.572,6.4,2.973a.4.4,0,0,1,.36.409l-.188,8.919c0,.491,0,.647-7.076,1.089h-.541Z" transform="translate(-19.511 -5.258)" fill="#231f20"/>
    <path id="Path_30" data-name="Path 30" d="M204.07,92.2a6.314,6.314,0,0,0,4.791-.287,7.019,7.019,0,0,0,3.571-6.871,4.324,4.324,0,0,0-.639-2.031,2.9,2.9,0,0,0-3.2-1.032c-1.818.336-2.457,1.245-3.661,2.457" transform="translate(-24.736 -7.744)" fill="#fff"/>
    <path id="Path_31" data-name="Path 31" d="M206.028,92.863a6.619,6.619,0,0,1-2.179-.369.418.418,0,0,1-.253-.524.4.4,0,0,1,.524-.246,5.848,5.848,0,0,0,4.472-.27,6.552,6.552,0,0,0,3.341-6.462,3.8,3.8,0,0,0-.573-1.843,2.482,2.482,0,0,0-2.785-.86,4.914,4.914,0,0,0-2.973,1.867l-.467.491a.41.41,0,1,1-.582-.573l.459-.483a5.659,5.659,0,0,1,3.415-2.1,3.256,3.256,0,0,1,3.612,1.2,4.594,4.594,0,0,1,.713,2.219,7.371,7.371,0,0,1-3.8,7.281A6.708,6.708,0,0,1,206.028,92.863Z" transform="translate(-24.646 -7.654)" fill="#231f20"/>
    <path id="Path_32" data-name="Path 32" d="M186.278,111.868s3.153.3,6.331-3.276,2.686-6.372,2.686-6.372-1.925,3.219-9.3,2.948Z" transform="translate(-21.465 -11.425)" fill="#231f20"/>
    <path id="Path_33" data-name="Path 33" d="M186.392,112.218h-.229a.41.41,0,0,1-.369-.393l-.254-6.724a.418.418,0,0,1,.426-.426c6.97.262,8.878-2.727,8.9-2.76a.4.4,0,0,1,.745.139c0,.123.491,3.006-2.785,6.716C190.012,111.964,187.211,112.218,186.392,112.218Zm0-6.724.213,5.9a8.357,8.357,0,0,0,5.635-3.161,9.632,9.632,0,0,0,2.563-5.037c-1.13.966-3.6,2.4-8.427,2.3Z" transform="translate(-21.382 -11.333)" fill="#231f20"/>
    <path id="Path_34" data-name="Path 34" d="M188.5,82.61s-3.833,6.331-2.809,7.371,3.726.188,3.726.188" transform="translate(-21.378 -7.875)" fill="#fff"/>
    <path id="Path_35" data-name="Path 35" d="M187.285,90.8a2.719,2.719,0,0,1-1.966-.639c-1.138-1.13,1.54-5.864,2.744-7.854a.412.412,0,1,1,.7.426c-1.957,3.227-3.276,6.429-2.875,6.847.7.7,2.637.3,3.325.1a.393.393,0,0,1,.508.27.409.409,0,0,1-.27.508A7.9,7.9,0,0,1,187.285,90.8Z" transform="translate(-21.292 -7.784)" fill="#231f20"/>
    <path id="Path_36" data-name="Path 36" d="M185.714,98.154a22.711,22.711,0,0,1-5.839-.737.409.409,0,0,1-.278-.508.418.418,0,0,1,.508-.278c.074,0,7.9,2.211,13.882-1.343a.418.418,0,0,1,.565.147.41.41,0,0,1-.147.557A16.969,16.969,0,0,1,185.714,98.154Z" transform="translate(-20.303 -10.16)" fill="#231f20"/>
    <path id="Path_37" data-name="Path 37" d="M182.989,82.81a3.366,3.366,0,0,1-2.146-.745.409.409,0,0,1,0-.581.4.4,0,0,1,.573,0,2.9,2.9,0,0,0,3.473-.049.41.41,0,0,1,.565.139.418.418,0,0,1-.139.565A4.431,4.431,0,0,1,182.989,82.81Z" transform="translate(-20.51 -7.65)" fill="#231f20"/>
    <path id="Path_38" data-name="Path 38" d="M194.929,82.422a3.276,3.276,0,0,1-2.146-.745.4.4,0,0,1,0-.573.409.409,0,0,1,.581,0,2.889,2.889,0,0,0,3.473-.049.409.409,0,1,1,.418.7,4.406,4.406,0,0,1-2.326.663Z" transform="translate(-22.671 -7.581)" fill="#231f20"/>
    <path id="Path_39" data-name="Path 39" d="M260.488,205.624c-1.3-5.79-6.069-5.291-17.444-3.6s-41.662,15.119-61.8,20.352c-5.536,3.382-11.679,19.369-7.838,18.6s14.087-7.936,14.087-7.936,42.792-7.436,55.093-9.746S261.823,211.415,260.488,205.624Z" transform="translate(-18.968 -29.286)" fill="#fff"/>
    <path id="Path_40" data-name="Path 40" d="M173.089,241.323a1.228,1.228,0,0,1-1.179-.819c-1.269-3.276,4.292-15.634,9.058-18.542a.286.286,0,0,1,.115-.049c9.7-2.514,21.523-6.855,32.956-11.048,11.8-4.341,22.932-8.427,28.886-9.312,10.966-1.638,16.47-2.457,17.9,3.915.532,2.342-.229,5.3-2.08,8.116-3.276,5.02-9.336,8.771-16.151,10.049-11.892,2.236-52.8,9.345-55,9.73-1.016.7-10.418,7.2-14.168,7.952A1.637,1.637,0,0,1,173.089,241.323Zm8.255-18.657c-4.627,2.891-9.68,14.938-8.673,17.51a.442.442,0,0,0,.59.311c3.718-.745,13.833-7.8,13.923-7.871a.547.547,0,0,1,.172-.074c.426-.074,42.931-7.461,55.077-9.738,6.6-1.237,12.44-4.865,15.618-9.7,1.728-2.629,2.457-5.364,1.974-7.486h0c-1.212-5.348-5.307-5.02-16.994-3.276-5.839.868-16.953,4.914-28.722,9.263C202.892,215.8,191.074,220.135,181.344,222.666Z" transform="translate(-18.881 -29.194)" fill="#231f20"/>
    <path id="Path_41" data-name="Path 41" d="M114.814,159.151h-.246a3.178,3.178,0,0,1-2.457-1.286,2.269,2.269,0,0,1,.18-2.809.418.418,0,0,1,.581,0,.41.41,0,0,1,0,.582,1.441,1.441,0,0,0-.082,1.769,2.35,2.35,0,0,0,1.818.925,5.1,5.1,0,0,0,2.228-.467c3.088-1.261,5.471-3.825,7.576-6.077.287-.311.565-.631.549-.95s-.557-.68-1.016-.68a5.254,5.254,0,0,0-1.073.164,6.509,6.509,0,0,1-.819.164.4.4,0,0,1-.459-.352.409.409,0,0,1,.352-.459,3.154,3.154,0,0,0,.713-.147,5.274,5.274,0,0,1,1.269-.188,1.744,1.744,0,0,1,1.826,1.458,2.22,2.22,0,0,1-.7,1.54c-2.047,2.2-4.611,4.914-7.862,6.273A6.191,6.191,0,0,1,114.814,159.151Z" transform="translate(-8.017 -19.953)" fill="#231f20"/>
    <path id="Path_42" data-name="Path 42" d="M321.841,201.541H292.414a.409.409,0,1,1,0-.819h28.9c-1.818-6.65-8.313-11.466-15.012-11.015a.4.4,0,0,1-.369-.18.426.426,0,0,1,0-.418c1.99-3.784.3-9.205-3.62-11.589-3.645-2.219-8.886-1.9-12.76.778a.434.434,0,0,1-.426,0,.4.4,0,0,1-.213-.369,9.508,9.508,0,0,0-12.9-9.009.41.41,0,0,1-.524-.237.4.4,0,0,1,.238-.524,10.311,10.311,0,0,1,13.98,9.009,12.685,12.685,0,0,1,13.03-.393,10.14,10.14,0,0,1,4.21,12.039h.229a15.938,15.938,0,0,1,15.078,12.178.41.41,0,0,1-.082.344A.4.4,0,0,1,321.841,201.541Z" transform="translate(-37.659 -23.237)" fill="#d1d3d4"/>
    <path id="Path_43" data-name="Path 43" d="M131.419,120.488a.41.41,0,0,1-.393-.319A64.864,64.864,0,0,0,101.87,80.039a.409.409,0,1,1,.426-.7A65.667,65.667,0,0,1,131.845,120a.4.4,0,0,1-.3.491Z" transform="translate(-6.196 -7.269)" fill="#d1d3d4"/>
    <path id="Path_44" data-name="Path 44" d="M120.813,108.617a.377.377,0,0,1-.188-.049A66.486,66.486,0,0,1,87.578,64.891a.426.426,0,0,1,.09-.352A.36.36,0,0,1,88,64.4c3.956.156,7.707,1.916,11.007,3.464,5.6,2.621,11.392,5.34,16.257,9.394,7.223,6.052,12.285,15.061,14.144,25.389a.416.416,0,1,1-.819.147C126.734,92.655,121.8,83.81,114.72,77.888,109.945,73.9,104.2,71.205,98.651,68.6,95.572,67.159,92.1,65.53,88.5,65.243A65.626,65.626,0,0,0,121,107.831a.4.4,0,0,1,.164.549A.41.41,0,0,1,120.813,108.617Z" transform="translate(-3.648 -4.579)" fill="#d1d3d4"/>
    <path id="Path_45" data-name="Path 45" d="M256.59,129.994a.516.516,0,0,1-.18-.041.418.418,0,0,1-.188-.549,124.552,124.552,0,0,1,43.136-49.139.413.413,0,0,1,.459.688,123.667,123.667,0,0,0-42.858,48.836A.393.393,0,0,1,256.59,129.994Z" transform="translate(-34.169 -7.438)" fill="#d1d3d4"/>
    <path id="Path_46" data-name="Path 46" d="M270.936,116.682a.418.418,0,1,1-.172-.819,75.888,75.888,0,0,0,39.442-43.914,1.753,1.753,0,0,0,.131-1.179c-.254-.573-1.245-.565-1.81-.516-9.787.9-19.656,5.733-30.172,14.906S262.3,103.087,261.2,112.251a.412.412,0,0,1-.819-.1c1.114-9.369,6.822-18.4,17.428-27.616s20.671-14.185,30.63-15.1c1.753-.156,2.4.459,2.637,1.007a2.4,2.4,0,0,1-.1,1.769,76.731,76.731,0,0,1-39.877,44.4A.441.441,0,0,1,270.936,116.682Z" transform="translate(-34.928 -5.486)" fill="#d1d3d4"/>
    <path id="Path_47" data-name="Path 47" d="M247.271,121.7h-.147a.409.409,0,0,1-.238-.532,28.769,28.769,0,0,0,1.54-9.918,105.322,105.322,0,0,0-15.929-57.7.41.41,0,0,1,.7-.434,106.19,106.19,0,0,1,16.052,58.148,29.752,29.752,0,0,1-1.589,10.2A.418.418,0,0,1,247.271,121.7Z" transform="translate(-29.87 -2.502)" fill="#d1d3d4"/>
    <path id="Path_48" data-name="Path 48" d="M241.978,103.367a.426.426,0,0,1-.287-.115c-16.814-15.921-22.866-42.186-14.742-63.881a.4.4,0,0,1,.254-.246.393.393,0,0,1,.344.041c19.107,11.949,29.484,35.749,25.241,57.878a.413.413,0,0,1-.811-.156c4.16-21.638-5.88-44.905-24.439-56.756-7.772,21.294-1.769,46.92,14.693,62.513a.4.4,0,0,1,0,.573.393.393,0,0,1-.254.147Z" transform="translate(-28.23)" fill="#d1d3d4"/>
    <path id="Path_49" data-name="Path 49" d="M148.908,110.034h-.074a.418.418,0,0,1-.336-.475,76.247,76.247,0,0,1,7.158-21.7,14.119,14.119,0,0,1,1.6-2.6.418.418,0,0,1,.581-.049.4.4,0,0,1,.049.573,12.966,12.966,0,0,0-1.491,2.457,75.112,75.112,0,0,0-7.084,21.458A.4.4,0,0,1,148.908,110.034Z" transform="translate(-14.676 -8.33)" fill="#d1d3d4"/>
    <path id="Path_50" data-name="Path 50" d="M154.9,101.073a.4.4,0,0,1-.295-.123.41.41,0,0,1,0-.581,24.111,24.111,0,0,0,5.463-25.987c-.082-.213-.131-.246-.139-.254s-.066,0-.311.131a16.451,16.451,0,0,0-2.654,2.179c-3.776,3.628-6.183,6.9-7.584,10.27a14.962,14.962,0,0,0-.065,12.285.409.409,0,1,1-.729.36,15.8,15.8,0,0,1,.041-12.973c1.441-3.489,3.915-6.839,7.772-10.549a16.911,16.911,0,0,1,2.793-2.293,1.179,1.179,0,0,1,1.048-.18,1.13,1.13,0,0,1,.581.688,24.955,24.955,0,0,1-5.659,26.9.393.393,0,0,1-.262.123Z" transform="translate(-14.445 -6.191)" fill="#d1d3d4"/>
  </g>
</svg>
