<svg xmlns="http://www.w3.org/2000/svg" width="414" height="434" fill="none" viewBox="0 0 414 434">
  <path fill="#F5C371" d="M61.922 90.081c20.82 5.579 27.794 31.604 12.552 46.845l-61.548 61.548c-15.241 15.241-41.266 8.268-46.845-12.552l-22.528-84.076c-5.578-20.82 13.473-39.872 34.293-34.293l84.076 22.528Z"/>
  <path fill="#FFCF86" d="M7.85 421.239c-21.07-5.773-17.997 11.546-13.607 11.546 1.803 0 5.542.428 10.096.428h13.828c17.558 0 22.607-1.14 22.826-1.497 1.537-11.332-7.755-10.263-12.73-8.98.805-4.205-.044-12.701-9.877-13.043-9.833-.342-11.12 7.555-10.535 11.546Z"/>
  <ellipse cx="39.158" cy="398.898" fill="#FFCF86" rx="6.012" ry="5.883"/>
  <ellipse fill="#FFCF86" rx="3.006" ry="2.941" transform="matrix(1 0 0 -1 30.14 385.172)"/>
  <circle cx="395" cy="39" r="77" fill="#F5C371"/>
</svg>
