<svg xmlns="http://www.w3.org/2000/svg" width="251.002" height="169.954" viewBox="0 0 251.002 169.954">
  <g id="_321_travel_plans_flatline" data-name="#321_travel_plans_flatline" transform="translate(0 0)">
    <path id="Path_105" data-name="Path 105" d="M297.233,246.378H47.049a.409.409,0,0,1,0-.818H297.233a.409.409,0,1,1,0,.818Z" transform="translate(-46.64 -82.382)" fill="#d1d3d4"/>
    <rect id="Rectangle_46" data-name="Rectangle 46" width="203.898" height="133.521" transform="translate(33.372 0.409)" fill="#fff"/>
    <path id="Path_106" data-name="Path 106" d="M291.228,180.5H87.329a.409.409,0,0,1-.409-.409V46.569a.417.417,0,0,1,.409-.409h203.9a.417.417,0,0,1,.409.409V180.09A.409.409,0,0,1,291.228,180.5Zm-203.489-.818h203.08V46.978H87.738Z" transform="translate(-53.957 -46.16)" fill="#231f20"/>
    <path id="Path_107" data-name="Path 107" d="M285.663,174.419H96.069a.409.409,0,0,1-.409-.409V56.119a.417.417,0,0,1,.409-.409H285.663a.417.417,0,0,1,.409.409V174.01A.409.409,0,0,1,285.663,174.419ZM96.478,173.6H285.254V56.528H96.478Z" transform="translate(-55.545 -47.895)" fill="#d1d3d4"/>
    <path id="Path_108" data-name="Path 108" d="M212.409,97.094a1.342,1.342,0,0,1-.254,1.481.561.561,0,0,0,.131.54,1.309,1.309,0,0,0,.818.376c.442,0,.917-.417,1.178.254.818-.065,1.489-.925,2.455-.458.229.106.687-.262,1.064-.426a4.379,4.379,0,0,1,0-.818c.213-1.162.417-1.236,1.334-.491.36-.319.5-.606.057-1.015s-.27-.638.213-.745a7.676,7.676,0,0,1,1.072-.123l1.358-.131v-.311a2.334,2.334,0,0,0-.753-.156,8.427,8.427,0,0,1-1.547.327,3.756,3.756,0,0,1-1.637-.532c-.278-.164.074-1.6.376-1.841l1.784-1.408c-.36-.123-.7-.352-.941-.286a3.5,3.5,0,0,0-1.187.671c-.3.237-.483.63-.769.892s-.728.434-1.007.736c-.516.556-.45.949.155,1.391a.606.606,0,0,1-.074,1.121,1.236,1.236,0,0,0-.7,1.056c-.049.442-.049,1.08-.818.917-.974,1.26-.941,0-1.195-.483a3.149,3.149,0,0,0-.147-.286c-.27-.442-.458-1.072-.859-1.252-.262-.123-.818.4-1.252.622A1.015,1.015,0,0,1,210,96.152a5.922,5.922,0,0,1-.385-1.358,1.194,1.194,0,0,1,.3-.884,5.123,5.123,0,0,1,2-1.146c.54-.147.99-.745,1.416-1.211.606-.671,1.146-1.408,1.637-2.029l-1.121.27a5.548,5.548,0,0,1,.818-.647,4.517,4.517,0,0,1,.99-.221c.311-.2.867-.818,1.277-.737.728.147,1.268-.4,1.98-.245.319.074.745-.311,1.277-.565l-.278.606a2.626,2.626,0,0,1,.933-.3,10.844,10.844,0,0,1,1.6.336l-.188.286c1.154.27,2.291.483,3.4.818a11.194,11.194,0,0,1,1.833.818c.491.246.516.606,0,.818a4.264,4.264,0,0,1-2.954,0,2.193,2.193,0,0,0-.941-.115l.892.475c0,1.064.655,1.637,1.7,1.3l-.679-.466.065-.164,1.825.295-.336-.679a11.091,11.091,0,0,1,1.1-.466,10.567,10.567,0,0,1,1.195-.18,2.02,2.02,0,0,1-.278-.581,4.828,4.828,0,0,1,.065-.974l1.367.295v.27l-.679.229c.516.818.72.728,1.383.2a8.08,8.08,0,0,1,1.915-.9,5.34,5.34,0,0,1,.753-.164c.548.876,1.334,0,2.054.074.319,0,.671-.458.941.123a5.724,5.724,0,0,0,.818-.262l-1.457-1.048a27.824,27.824,0,0,1,2.938.548,6.752,6.752,0,0,0,2.455.753,1.915,1.915,0,0,1-.99-1.7,5.849,5.849,0,0,1,1.007-1.138,2.455,2.455,0,0,1,1.2-.254,3.657,3.657,0,0,1,.925.213l-.458.663.352,2.291.327.106-1.448,1.318a1.637,1.637,0,0,0,2.029-1.637c.467,0,1.064-.237,1.1.6.54-.466.426-.884-.246-.917h-1.317l-.164-1.768.933-.614V87.3l.818.115-.622-.532.974.139.082-.164-.483-.336.057-.172c.622.188,1.244.385,1.866.565a5.423,5.423,0,0,0,.728.131.582.582,0,0,0,.049-.2c-.213-.106-.434-.188-.769-.327l-.229-.712,3.192-.27-.475-.507a9.059,9.059,0,0,1,4.714-.867,7.07,7.07,0,0,0,1.686-.254c.057,0,.1-.074.147-.074a2.667,2.667,0,0,0,1.391-.573c.589-.426,1.318-.933,1.972.049.123.18.524.172.769.245a16.934,16.934,0,0,1,2.578,0c.311.049.548.6.818.941l-3.584,1.277v.147h.72c.237,0,.6.074.769-.057.818-.589,1.637-.237,2.455-.147.327,0,.7-.188,1.007-.131a3,3,0,0,1,1.072.507,1.637,1.637,0,0,0,2.128-.409.818.818,0,0,1,.589-.139c.818.1,1.579.245,2.414.376-.1.925-.057,1.71,1.154,1.727l.319-.532h3.83l-.393-.655a8.764,8.764,0,0,1,2.782-.147c.917.254,1.923.049,2.823.737a4.639,4.639,0,0,0,2.512.417c.876.025,1.743-.147,2.357.769.139.2.663.172,1.015.2a15.126,15.126,0,0,0,1.637,0,8.846,8.846,0,0,0,1.179-.2,5.406,5.406,0,0,1,.728,0l.156.254-.483.139.049.164,1.309.393-.254-1.015a19.29,19.29,0,0,1,4.092.573c1.2.442,2.684.622,3.445,1.931.409-.573.818-.516,2.275.409-.483.409-1.277.434-1.432,1.178-.524-.155-1.047-.3-1.563-.475-.27-.082-.524-.2-.818-.295a3.785,3.785,0,0,1-.6-.237,1.333,1.333,0,0,1-.311-.36c-.049.155-.09.311-.131.475s0,.147-.057.254l-1.424.491a1.637,1.637,0,0,1,.737,1.53c-1.939-.352-3.224.737-4.64,1.637a1.154,1.154,0,0,0-1.637-.155,1.121,1.121,0,0,1-.663.09c-1.039-.082-1.195.9-1.874,1.448l.638.131.147,1.195c-.712.057-.941.385-.516,1.015-.368.385-1.383.09-1.023,1.121-1.187-.172-.818,1.309-1.727,1.555-.286-1.637-1.211-3.273.049-4.689,1.506-1.031,2.962-1.9,3.871-3.4l-.131-.188c-.164.049-.466.115-.466.155.041.548-.393.63-.745.761s-.867.982-1.08-.18a4.043,4.043,0,0,0-1.449.123,2.505,2.505,0,0,0-.917.818c-.123.156-.09.434-.147.769l-1.825.254.36-.556a10.425,10.425,0,0,1-2.561.147c-1.792-.376-2.807.818-3.953,1.735-.556.466-1.113.949-1.588,1.358a5.171,5.171,0,0,0,.753.769.908.908,0,0,0,.647,0c.262-.065.6-.376.737-.295.295.164.728.573.679.818-.286,1.252-.082,2.619-.867,3.756s-1.407,2.054-2.111,3.069a1.236,1.236,0,0,1-1.678.295c-.344.524-1.056.712-1.113,1.571,0,.36-.72.671-.818,1.015a20.049,20.049,0,0,1,.777,2.234c.262,1.195-.884,1.129-1.637,1.6.057-.769.131-1.457.147-2.152,0-.18-.2-.524-.278-.516-.949.106-.483-.45-.4-.818a1.409,1.409,0,0,1,.139-.311,1.17,1.17,0,0,0-1.768.368l-.237-.164.344-1.187c-.728-.155-.941.573-1.391.876-.123.082-.188.237-.311.311a2.823,2.823,0,0,1-.466.147c.106.18.221.36.336.532s.286.4.327.458h1.972l-1.784,1.538,1.236,3.028-.581.54.949.245c-.385.761-.769,1.522-1.162,2.275a8.076,8.076,0,0,1-.933,1.694c-.475.556-.818,1.285-1.759,1.375a4.91,4.91,0,0,0-1.727.712,3.744,3.744,0,0,0-.712.753l-.106-.72a1.768,1.768,0,0,0-1.923,1.318c-.246,1.211.7,1.923,1.367,2.651l1.088-.27.131.18c-.213.27-.442.532-.638.818a.924.924,0,0,0-.229.5c.074,1.1.147,2.136-1.178,2.684-.368.147-.54.818-.974,1.162v-.818l-2.226-2.619a1.574,1.574,0,0,0-.254.385,4.749,4.749,0,0,1-.147.925c-.532,1.1.2,2.038.4,3.028.082.409.728.671.974,1.08a5.2,5.2,0,0,1,.475,1.424,6.446,6.446,0,0,1,.237,1.841,5.943,5.943,0,0,1-1.268-1.2,7.142,7.142,0,0,1-.466-1.727,2.454,2.454,0,0,0-.385-1.015,3.02,3.02,0,0,1-.54-2.766c.262-1.563-.466-2.946-.679-4.509-.524.442-.671,1.228-1.539.761.548-1.236-.155-2.169-.818-3.142a4.4,4.4,0,0,1-.426-1.26c-.6.131-1.187.229-1.759.376-.2.057-.524.2-.548.344-.213,1.146-1.326,1.637-1.882,2.455-.368.565-.982.966-1.367,1.522a2.013,2.013,0,0,0-.139,1.138,6.056,6.056,0,0,1-1.424,4.329,25.749,25.749,0,0,1-1.637-4.959c-.426-1.637-.663-3.4-.933-4.91l-.606.745-1.187-1.023.516-.213-1.792-2.046c-.982,0-2.079.057-3.167,0s-1.146-.188-1.522-1.121a2,2,0,0,1-2.815-1.138,4.093,4.093,0,0,0-.188-.434c-.507-.982-.663-1-1.383-.188l1.358,2.889.3-.728c.09.4.139.581.172.761s.1.556.139.818c.45-.082,1,.327,1.334-.344a7.311,7.311,0,0,1,.892-1.154,4.438,4.438,0,0,0,.115,1.039,1.154,1.154,0,0,0,.5.638c1.178.581,1.358,1.44.475,2.414a3.944,3.944,0,0,0-.368.589c-.123.2-.221.409-.352.589a5.679,5.679,0,0,1-1.849,1.5c-.761.45-1.4,1.121-2.144,1.637a21.765,21.765,0,0,1-2.2,1.17c-.417.213-.614.041-.7-.409-.221-1.285-.2-2.635-.99-3.773a12.156,12.156,0,0,1-.761-1.187,11.925,11.925,0,0,1-.376-1.154c-.2-.524-.409-1.039-.63-1.555s-.573-1.26-.884-1.89c-.18-.36-.4-.712-.556-.99l-1.146.344-.082-.229.589-.45-1.195-1.26c.147-.082.434-.409.728-.409.769,0,1-.483,1.138-1.088.221-.949.434-1.89.7-3.085l-1.3.6h-.074c-.516-.123-1.268-.524-1.489-.327-.72.638-1.072-.09-1.481-.278s-.516-.687-.753-1.031l.115-1.465c-.524-.3-.5-.286-1.1.254-.123.106-.442,0-.818,0a9.163,9.163,0,0,1,.622,1.007,1.08,1.08,0,0,1,.074.728,7.589,7.589,0,0,1-.622,1.1c-.54-1.228-1.637-2.169-1.637-3.723,0-.336-.483-.769-.818-.99-.589-.352-1.244-.581-1.44-1.35,0-.082-.286-.074-.376-.164a2.454,2.454,0,0,1-.262-.491c-.761.2-.867.565-.311,1.244.229.278.368.622.589.908s.319.409.516.458c.737.164,1.072.818,1.637,1.195.041,0,0,.139.057.295l-.949-.409.27.966-.581.818c.36-1.35-.63-1.792-1.465-2.4a8.783,8.783,0,0,1-1.268-1.367c-.237-.278-.45-.573-.671-.818a6.947,6.947,0,0,0-.9.614.974.974,0,0,1-1.187.213c-.45-.188-.949-.229-.9.6,0,.262-.36.557-.581.818-.336.385-.728.712-1.023,1.121-.115.164,0,.475,0,.908-.385,1.1-1.637,1.285-2.905,1.588l-.5-.663-.818.1c-.818-1.4.336-2.881-.368-4.313,1.236-.745,2.512-.156,3.8-.254.09-.712.589-1.457,0-2.152A14.943,14.943,0,0,1,205,103.346l1.522.065-.09-.72a1.252,1.252,0,0,0,1.71-.663c.09-.164.295-.245.442-.385l1.334-1.326,1.719-.687a3.828,3.828,0,0,0-.049-.737C211.255,97.732,211.247,97.732,212.409,97.094Z" transform="translate(-74.976 -52.805)" fill="#d1d3d4"/>
    <path id="Path_109" data-name="Path 109" d="M128.259,108.777h.892a2.709,2.709,0,0,0-1.571-1.432,4.46,4.46,0,0,1-2.193-2.545c-.115-.27-.54-.417-.818-.6l-.2.556c-.311-.7-1.2-1-.524-1.858,0-.049-.442-.712-.606-.679a2.684,2.684,0,0,1-1.874-.589,4.557,4.557,0,0,0-1.138-.368c-.949-.2-1.907-.352-2.913-.532l.09.442-2.029.524.147-1.072-1.187,1.007c.237.458-1.694,2.095-2.913,2.455l.417.385v.245c-.933-.818-1.7,0-2.611,0l1.285-.7a8.878,8.878,0,0,0,1.383-.728,9.167,9.167,0,0,0,1.064-1.211h-2.34l-.172-.949c-1.268.908-1.187-.606-1.833-.818.336-1.285,1.514-1.1,2.455-1.408l-.147-.7c-1.367.123-1.686.548-3.167-.6.319-.106.614-.18.892-.3a8.468,8.468,0,0,0,.818-.409c.5.622.9.638,1.637.147l-2.962-1.178c.442-.172.712-.262.974-.385s.655-.368,1.007-.507c.663-.27,1.342-.532,2.021-.753a6.367,6.367,0,0,1,3.347.131,22.8,22.8,0,0,0,2.692.319,15.68,15.68,0,0,1,4.092.777,4.342,4.342,0,0,0,.925.131c0-1.064.818-.213,1.178-.507a2.66,2.66,0,0,1,1.539-.327l-1.637.671.106.229,2.39-1.244.818.761.6-.483.319.532c.385-.655.925-.434,1.489-.295.769.188,1.563.286,2.34.434.245.049.483.131.818.229l-.5.385.041.2a11.694,11.694,0,0,1,1.849-.115,9.312,9.312,0,0,1,1.637.417l-.09-.6h1.637c1,.065,1.989.5,3-.131.2-.123.728.278,1.187.475l.908-.72-1.318-1.015a.806.806,0,0,1,.818-1.031c.565-.049,1.277.818,1.2,1.391l.859.156-.1.876.745-.876.818,1.694,1.3-1.849,1.375.254v1.334l.18.2-1.309.286.434.679-1.5-.818c.164.72-.188.876-.646.818a5.809,5.809,0,0,0-1.318-.18l1.768.524c-.54.254-.925.426-1.309.622a1.587,1.587,0,0,0-.516.327c-.663.818-2.029,1.154-1.956,2.545a.715.715,0,0,0,.336.573c.655.147.712.6.671,1.187.859-.475,1.489,0,2.21.4a21.64,21.64,0,0,0,2.627,1c.065.548-.041,1.416.769,1.923.164.1.442.295.483.254.2-.2.507-.466.5-.7a6.3,6.3,0,0,0-.344-1.367c.458-.4,1.195-.728,1.3-1.211s-.434-1.064-.728-1.686c.745-.532,0-1.342.09-2.16,1.457-.4,2.709.335,3.994,1.007a1.047,1.047,0,0,0,.818,1.481c.966.246,1.072-.753,1.473-1.318.409.581.818,1.1,1.178,1.637.2.344.115.908.368,1.146a9.912,9.912,0,0,0,1.7,1.056l-.458.295a3.731,3.731,0,0,1,1.031.254,1.055,1.055,0,0,1,.417.72.728.728,0,0,1-.4.565c-1.178.573-2.275,1.318-3.748.982-.949-.221-1.579.638-2.234,1.26a12.35,12.35,0,0,1,1.178-.491,2.512,2.512,0,0,1,.925-.065c.074,0,.213.409.164.458-.589.565-.393,1.015.164,1.416.745.532,1.007.475,1.506-.27a.385.385,0,0,1,.295-.172l-.188.646.344-.2.123.213-2.758,1.473-.2-.049.565-1.219a23.3,23.3,0,0,0-2.6,1.35c-.2.139-.106.745-.147,1.129l.221.106a4.264,4.264,0,0,1-.818.172c-.663,0-1.056.188-1.129.974,0,.45-.45.859-.737,1.358l-.3-1.154a6.681,6.681,0,0,0,0,1.358c.3,1.391.237,1.6-.966,2.291-.72.409-1.547,1.637-1.424,2.193.188.745.442,1.473.581,2.226a4.615,4.615,0,0,1-.066,1.2l-.393.049-1.236-3.175-.671.295c-.581-1.015-1.457-.376-2.226-.409l.336.736c-.7-.139-1.252-.229-1.792-.376-.417-.106-.737-.115-.99.319-.123.213-.409.327-.606.507s-.458.344-.458.524c-.041,1.334-.065,2.668,0,4a2.234,2.234,0,0,0,.483,1.236c.262.327.753.753,1.072.7.6-.106,1.44.057,1.637-.949s.54-1.195,1.735-1.031l-.818,3.617a7.734,7.734,0,0,0,1.17-.057c1.007-.131,1.424.336,1.285,1.326-.18,1.236-.376,2.512,1.039,3.273,1.154-.565,1.146-.556,2.079.409a4.279,4.279,0,0,0,.818.524c.278-1.6,1.637-2,2.791-2.725-.1.655-.5,1.268-.1,1.9l.589-1.637c.63.295,1.154.556,1.694.818a2.7,2.7,0,0,0,1.759,0c.556-.115.859.5,1.277.818a2.677,2.677,0,0,1,.385.417,5.941,5.941,0,0,0,.818.818,2.79,2.79,0,0,0,1.227.589c1.506.082,2.218.491,2.586,1.931a2.962,2.962,0,0,0,2.521,2.21c.524.115.777.278.671.777,1.2,0,2.455-.237,3.273.917a.541.541,0,0,0,.311.237,1.35,1.35,0,0,1,1.277,1.514,4.305,4.305,0,0,1-.941,1.841c-.336.524-.777.974-1.154,1.473a.712.712,0,0,0-.065.3,23.848,23.848,0,0,1-.327,2.881,8.668,8.668,0,0,1-.9,1.939.818.818,0,0,1-.45.278c-.745.286-1.514.507-2.234.818a1.637,1.637,0,0,0-.917,1.53,6.671,6.671,0,0,1-.818,1.972c-.106.237-.237.466-.4.818l-.139-.761c-.818,1.547-1.408,3.273-3.592,1.792.278.5.491.818.655,1.162a.949.949,0,0,1-.663,1.424c-.581.156-1.187.229-1.792.344.074,1.1-.18,1.309-1.473.925.589,1.432-.172,2.283-1.334,2.938a3.909,3.909,0,0,0,.524.458c.638.336.63.434.065.925-.4.344-.957.712-1.048,1.146a2.512,2.512,0,0,0,.409,1.637c.237.376.818.54,1.326.818a7.711,7.711,0,0,1-2.455.188,4.656,4.656,0,0,1-2.16-1.285,3.585,3.585,0,0,1-.532-1.784c-.1-.6-.2-1.252.589-1.637l-.581-.074.687-1.727h.155l.131.712h.1l.311-1.8c-.745-.082-.745-.516-.483-1.056.049-.09.188-.2.164-.262-.524-1.137.5-1.915.655-2.889s.2-1.89.319-2.84c.164-1.219.385-2.455.532-3.666a5.974,5.974,0,0,0,.049-2.12,2.029,2.029,0,0,0-1.1-1.236c-1.579-.548-2-1.964-2.61-3.216a7.906,7.906,0,0,0-1.637-2.872.876.876,0,0,1,.057-1.293,3.013,3.013,0,0,0,.442-.581c-.565-.188-.72-.581-.45-1.056a13.574,13.574,0,0,1,1.211-1.874,1.374,1.374,0,0,0-.131-2.226,4,4,0,0,1-.671-1.121c-.106-.188-.2-.376-.295-.573h-.237l-.458,1.113c-.065-.049-.245-.188-.434-.311a1.637,1.637,0,0,0-.475-.295c-.344-.074-.7-.082-.671-.565a.082.082,0,0,0-.049-.066c-.818-.213-.867-.925-1.129-1.538a2.185,2.185,0,0,0-1.637-1.309A2.864,2.864,0,0,1,142.99,130c-.336-.4-.663-.663-1.219-.278a.892.892,0,0,1-.818-.041c-1.17-.663-2.316-1.358-3.437-2.1a.982.982,0,0,1-.4-.818,2.57,2.57,0,0,0-.63-2.12c-.573-.818-1.178-1.637-1.71-2.455s-.818-1.522-1.228-2.25c-.155-.254-.507-.385-.769-.573l-.237.164c.254.516.5,1.039.761,1.547l1.375,2.684c.1.188.229.368.319.565s.188.5.278.753l-.327.139a17.189,17.189,0,0,0-1.072-2.079,4.592,4.592,0,0,0-1.039-.884c0-.475.156-.818.041-.949-.818-.737-.949-1.809-1.4-2.717-.115-.221-.295-.524-.5-.573-1.211-.3-1.383-1.432-1.9-2.291a5.384,5.384,0,0,1-.6-1.162,7.667,7.667,0,0,1-.237-3.2A16.5,16.5,0,0,0,128.259,108.777Z" transform="translate(-57.743 -54.75)" fill="#d1d3d4"/>
    <path id="Path_110" data-name="Path 110" d="M216.214,164.731a1.326,1.326,0,0,1-.745-1.44,2.635,2.635,0,0,0-.818-1.768,4.092,4.092,0,0,1-1.007-2.782,5.589,5.589,0,0,0-1.031-2.676c-.818-1.375-.262-2.57.311-3.732.254-.532.491-.908.106-1.432a.72.72,0,0,1-.123-.45,4.222,4.222,0,0,0-1.121-3.216,2.8,2.8,0,0,1-.6-3.126,1.637,1.637,0,0,0-.213-1.137,1.023,1.023,0,0,0-.818-.295c-.573.049-.982.082-1.2-.638s-.974-.466-1.5-.352a16.029,16.029,0,0,0-1.555.556,3.421,3.421,0,0,1-.761.115,10.635,10.635,0,0,0-2,.2,1.129,1.129,0,0,1-1.227-.18,19.506,19.506,0,0,1-1.833-1.53,20.035,20.035,0,0,1-1.375-2c-.1-.147-.278-.229-.393-.368a1.163,1.163,0,0,1-.311-.5,6.161,6.161,0,0,1,.2-2.455,2.455,2.455,0,0,0-.057-1.841c-.5-.818,0-1.26.27-1.8a23.83,23.83,0,0,1,1.293-2.25.9.9,0,0,1,.483-.336c.769-.237,1.293-.573,1.285-1.547a1.637,1.637,0,0,1,.9-1.465,6.088,6.088,0,0,0,1.236-1.268c.867.687,1.792.336,2.75-.057a8.3,8.3,0,0,1,1.882-.5c.9-.115,1.817-.147,2.725-.18a5.19,5.19,0,0,1,1.047.147l-.556,1.637c.417.818,1.44.385,2.193.712h.278c.172.933,1.121.7,1.637,1.1s.72.082.761-.434a.9.9,0,0,1,1.35-.761,21.163,21.163,0,0,0,2.455.818,2.529,2.529,0,0,0,1.252-.09c.548-.147.941-.213,1.17.483a25.887,25.887,0,0,0,1.113,2.758c.327.728,1.007,1.383,1.08,2.111.123,1.187.908,2.021,1.244,3.069a2.4,2.4,0,0,0,.556.818c.426.434.925.818,1.3,1.252.2.254.18.679.352.966a.7.7,0,0,0,.581.278c1.031-.229,2.054-.507,3.208-.818a5.409,5.409,0,0,1-.3,1.522A12.323,12.323,0,0,1,228.6,144.3a17.685,17.685,0,0,0-2.758,3.609c-.082.106-.115.393,0,.45.548.45.2,1.048.295,1.563s.4.9.475,1.375a5.877,5.877,0,0,1,.106,2.095c-.1.458-.6.859-.982,1.219-.589.556-1.236,1.039-1.833,1.588-.09.082-.065.336,0,.491.065.278.2.548.278.818a1.179,1.179,0,0,1-.72,1.588c-.262.123-.5.278-.606.335a2.74,2.74,0,0,1-.09,1.219c-.908,1.44-1.792,2.979-3.576,3.494a14.424,14.424,0,0,1-2.16.229A3.78,3.78,0,0,0,216.214,164.731Z" transform="translate(-74.124 -60.351)" fill="#d1d3d4"/>
    <path id="Path_111" data-name="Path 111" d="M171.9,92.829l-.867-.712,1.89-.957v-.818l-1.579-.589.041-.246,1.637.237-1.285-.9c-.769.45-1.007.278-1.031-.876h.532c-.344-.5-.638-.974-.982-1.408a3.552,3.552,0,0,0-3.92-1.416,2.266,2.266,0,0,1-.916.131c-.327-.057-.917.3-.949-.483,0-.09-.638-.164-.974-.246v-.27l1.637-.09-2.7-.761a2.707,2.707,0,0,1,.6-.327c.818-.131,1.579-.2,2.357-.36.466-.09,1.064-.1,1.056-.867H165.3l-.049-.278,2.619-.671.041-.483c.065,0,.123-.057.164-.049.753.278,1.375-.3,2.087-.311a1.481,1.481,0,0,1,1.121.458c.2.18.63-.646,1.146-.18.1.09.36,0,.606,0l-.311-.516,2.741.687.065-.237a2.969,2.969,0,0,1-.671-.155.589.589,0,0,1-.311-.376c0-.1.2-.295.336-.311.687-.065,1.383-.082,2.07-.139.491,0,.974-.18,1.465-.18,1.915,0,3.838,0,5.728.155a14.78,14.78,0,0,1,2.561.663l-2.07.352v.327h.565a8.539,8.539,0,0,0,1.015-.106l-.4.646a18.442,18.442,0,0,0,2.61-.507,3.494,3.494,0,0,1,2.913.18c-1.637.818-3.453,1.3-4.517,2.889a3.38,3.38,0,0,1,1.138.082c.237.106.352.483.565.818l-1.146.074c-.074.475,1.138.818.213,1.408l.524.548-1.178.164.532.6H185.63c-.352.483-.286.818.4,1.113a1.154,1.154,0,0,1,.818,1.457l-1.588-.671-.54.655,2,.213a10.638,10.638,0,0,1-4.583,1.71c-.278,0-.6.344-.818.606a2.922,2.922,0,0,1-2.774,1.489c-.18,0-.556.409-.556.63a1.506,1.506,0,0,1-.769,1.563c-.074.041-.115.188-.139.295-.139.581-.3,1.154-.4,1.743s-.442.442-.818.286a13.043,13.043,0,0,1-1.375-.622,2.1,2.1,0,0,1-.753-.736c-.646-1.195-1.26-2.455-1.849-3.642A2.376,2.376,0,0,1,171.9,92.829Z" transform="translate(-67.674 -52.149)" fill="#d1d3d4"/>
    <path id="Path_112" data-name="Path 112" d="M292.654,158.953c.311.3.581.458.712.7a2.259,2.259,0,0,1,.393,1.088c-.049.884.622,1.2,1.129,1.637a1.074,1.074,0,0,1,.262.246,2.9,2.9,0,0,0,.884,1.121,4.655,4.655,0,0,1,1.317,2.062,3.8,3.8,0,0,1-.352,3.339,9.551,9.551,0,0,0-1.26,2.905,4.166,4.166,0,0,1-2.218.7c-.139-.065-.27-.147-.409-.229a1.7,1.7,0,0,1-2.512-.908,6.5,6.5,0,0,0-.818-1.113l-.295.2.221-1.17-1.064,1.195c-.336-.548-.532-1.219-.974-1.5a3.1,3.1,0,0,0-1.858-.393,7.6,7.6,0,0,0-2.545.7,3.159,3.159,0,0,1-1.882.614,2.537,2.537,0,0,0-1.375.475,1.072,1.072,0,0,1-1.432-.164.818.818,0,0,1-.123-.581c0-.36.2-.728.131-1.047-.172-.687-.458-1.334-.7-2-.131-.352-.376-.679,0-1.056.057-.057-.115-.311-.131-.483-.057-.548-.327-1.268-.074-1.637s1.064-.647,1.637-.966c.818-.466,2.062-.115,2.455-1.334.057-.164.041-.36.115-.524a2.641,2.641,0,0,1,.311-.434l.286.229a13.308,13.308,0,0,1,1.293-1.481c.548-.483.884-.18,1.08.663a10.027,10.027,0,0,1,.908-1.195,9.378,9.378,0,0,1,1.023-.7,2.346,2.346,0,0,0,.344-.36l2.07.507h0c-.818,1.2-.818,1.2.409,2.1.221.172.45.319.687.475l.867.548c.139-.818.262-1.44.368-2.087s.2-1.318.311-1.98h.27Z" transform="translate(-88.592 -66.317)" fill="#d1d3d4"/>
    <path id="Path_113" data-name="Path 113" d="M159.373,93.074c.082-.908-.818-.876-1.195-1.318-.2.483-.336.99-.925.45-.123-.106-.4,0-.606-.049-.974-.115-1.948-.213-2.913-.352-.188,0-.352-.213-.581-.352l.876-.286c-.818-.147-1.53-.2-1.17-1.121a1.637,1.637,0,0,1,2.046-1.072c-.164.368-.491.761-.466,1.113s.409.712.679,1.039c-.27-1.637-.123-1.964,1.072-2.128.63-.09.892.27.957,1.309a2.872,2.872,0,0,1,3.208.2,2.136,2.136,0,0,0,.818.213h.237a11.266,11.266,0,0,1,1.579.818,7,7,0,0,1,.99,1.129l-.7.139-.09.188,3.192,1.719-1.227,1.522-1.588-1.383-.286.769c.6.556,1.719.957,1.473,2.365l-.908-.09.393.933c-1.121-.466-2.234-.5-2.946-1.5a1.637,1.637,0,0,0-1.849-.63,2.5,2.5,0,0,1-.884-.147c.049-.246.09-.491.147-.737a1.2,1.2,0,0,1,.172-.434,1.637,1.637,0,0,1,.524-.475c.082,0,.278.172.426.27l-.532.679,1.146-.123v-.213l-.385-.139c.188-.589,1.326-.646.933-1.539A1.44,1.44,0,0,0,159.373,93.074Z" transform="translate(-65.918 -53.924)" fill="#d1d3d4"/>
    <path id="Path_114" data-name="Path 114" d="M154.088,81.415c-.728.434-1.408-.3-2.218-.892a22.252,22.252,0,0,1,3.4-.352,10.2,10.2,0,0,0,3.036-.54,8.56,8.56,0,0,1,2.291-.09c1.4,0,2.807.1,4.2.2a6.673,6.673,0,0,1,1.293.417,9,9,0,0,1-.818.434q-1.841.818-3.7,1.555a4.089,4.089,0,0,1-.818.237,1.457,1.457,0,0,0-1.309,1.268l-1.759.72.761.45c-.663.082-1.178.687-1.784.049-.065-.065-.295,0-.45.065a7.807,7.807,0,0,1-3.609-.155l1.228-.36-.147-.393,1.1.09.074-.188-.949-.458c.556-.867,1.358-.131,2.07-.3l-1.71-1.023.2-.18c1.031.4,1.964-.213,3.061-.221C156.477,81.014,155.315,81.906,154.088,81.415Z" transform="translate(-65.756 -52.217)" fill="#d1d3d4"/>
    <path id="Path_115" data-name="Path 115" d="M136.818,92l2.2-.139v-.147c-.458,0-.908-.09-1.358-.115s-.9,0-1.35,0v-.262l.917-.336L136,90.715c.434-1.007,1.334-1.146,2.332-1.285l-.057.54h.262c.417-.4.761-.254,1.146.074s.54-.606.925-.123a3.272,3.272,0,0,0,.818.818l-.295-1.268h1.17a6.948,6.948,0,0,0,.818,1.833c.376.45,1.048.646,1.522,1.113l-.737.065.327.606a4.091,4.091,0,0,1-1.285,0,3.991,3.991,0,0,0-2.75.286c-.491.139-1.227.409-1.6-.4-.049-.106-.319-.115-.483-.164l-1.35-.458Z" transform="translate(-62.873 -54.02)" fill="#d1d3d4"/>
    <path id="Path_116" data-name="Path 116" d="M296.546,153.434l-.6.434,1.833,1.866a2.512,2.512,0,0,1-2.038-1.113.818.818,0,0,0-1.481.057.663.663,0,0,1-1.088.254c-.483-.565-1.007-.54-1.849-.295l.655-.908a1.514,1.514,0,0,0-1.154-1.219,11.84,11.84,0,0,1-1.686-.524c-.188-.074-.286-.344-.442-.548l.614-.27-1.522-.728a6.12,6.12,0,0,1,.974-.376.7.7,0,0,1,.917.565,10.573,10.573,0,0,0,.376,1.08h.254a2.843,2.843,0,0,1,.376-.5c.483-.4.876-.818,1.637-.213.573.434,1.473.409,2.128.769A20.054,20.054,0,0,1,296.546,153.434Z" transform="translate(-90.446 -65.028)" fill="#d1d3d4"/>
    <path id="Path_117" data-name="Path 117" d="M274.886,147.774l.745.254L278.847,145l.957.957c-.941.884-.982,1.5-.115,2.4-.687.278-1.244,1.5-1.219,2.8l-3.044-.589C275.311,149.706,274.485,148.928,274.886,147.774Z" transform="translate(-88.082 -64.115)" fill="#d1d3d4"/>
    <path id="Path_118" data-name="Path 118" d="M235.163,160.416c1.588.065,1.678-1.383,2.57-2.046a1.367,1.367,0,0,1,.237,1.792c-.057.09-.041.237-.074.36-.426,1.514-.818,3.044-1.285,4.558a.9.9,0,0,1-1.44.368,2.193,2.193,0,0,1-.278-2.169,4.165,4.165,0,0,0,.262-1.4C235.2,161.406,235.163,160.931,235.163,160.416Z" transform="translate(-80.807 -66.544)" fill="#d1d3d4"/>
    <path id="Path_119" data-name="Path 119" d="M205.906,104.471l-.655-.2v-.941c0-.115.172-.311.2-.295.409.164.638-.115.565-.376s-.442-.409-.687-.589h-.286l.1-.5c-.687-.646-.949-1.137-.769-1.4.393-.556,1.268-.908,1.637-.663.622.409.638.712.172,1.538l1.727,2.373a.528.528,0,0,1,.417.2c.115.2-.115.36-.188.556s-.123.336-.262.728l-3.151.5Z" transform="translate(-75.282 -55.837)" fill="#d1d3d4"/>
    <path id="Path_120" data-name="Path 120" d="M271.594,152.389l-.892-.074c-.687-.982-1.457-2.1-2.234-3.192s-1.489-2.079-2.308-3.224c1.637.188,2.259,1.489,3.273,2.226a6.3,6.3,0,0,1,1.637,2.038c.123.2.491.262.712.376l-.237,1.874Z" transform="translate(-86.517 -64.279)" fill="#d1d3d4"/>
    <path id="Path_121" data-name="Path 121" d="M242.734,88.043a4.071,4.071,0,0,1-3.224-.876,18.211,18.211,0,0,0,1.9-1.8,4.3,4.3,0,0,1,2.5-1.211c.941-.245,1.94-.262,2.905-.417a12.472,12.472,0,0,0,1.309-.368l.139.3a2.537,2.537,0,0,1-.7.385,18.566,18.566,0,0,0-2.717.54,7.038,7.038,0,0,0-3.044,2.062c-.115.147,0,.573.131.818S242.366,87.789,242.734,88.043Z" transform="translate(-81.676 -52.92)" fill="#d1d3d4"/>
    <path id="Path_122" data-name="Path 122" d="M192.02,98.575l-1.129-.327,1.015-.532h-1.129l-.106-.139,1.088-.638-.09-.262.589.818,2.4-.573.065-.262a5.376,5.376,0,0,1,1.129,1.1c.335.573-.36.818-.663,1.031a3.977,3.977,0,0,1-1.367.647,1.931,1.931,0,0,1-.941,0c-.475-.1-.925-.278-1.4-.426Z" transform="translate(-72.804 -55.334)" fill="#d1d3d4"/>
    <path id="Path_123" data-name="Path 123" d="M290.173,118.992l-1.923.483c.565-.949.876-1.1,2.332-1.1.115-.2.254-.426.36-.655a4.219,4.219,0,0,0,.172-.426,1.869,1.869,0,0,0,.728-.065c.286-.589.507-1.211.736-1.825.147-.385,0-.982.745-.957a1.825,1.825,0,0,1,0,2.046,2.562,2.562,0,0,0-.246,1.514c.09.818-.663.818-1.015.933-.646.172-1.187.352-1.4,1.1h-.237Z" transform="translate(-90.53 -58.565)" fill="#d1d3d4"/>
    <path id="Path_124" data-name="Path 124" d="M132.584,88.159a12.046,12.046,0,0,1,4.3.655c-.769.483-1.375.818-1.956,1.228s-1.015.712-1.424,1.007l-1.358-.892C132.281,89.664,133.083,89.133,132.584,88.159Z" transform="translate(-62.173 -53.788)" fill="#d1d3d4"/>
    <path id="Path_125" data-name="Path 125" d="M150.3,83.425l.426-.36L149,82.722c.319-.867.72-1.358,1.547-1.236a3.9,3.9,0,0,1,.63.229,2.324,2.324,0,0,0,.72.172c.335.336.614.818,1.154.376l.737.638C152.953,84.08,151.9,84.252,150.3,83.425Z" transform="translate(-65.234 -52.574)" fill="#d1d3d4"/>
    <path id="Path_126" data-name="Path 126" d="M214.991,81.058l2.578.221-.27-.589,4.321,1.727V82.7h-1.538c-.09-.221-.123-.458-.254-.548a.6.6,0,0,0-.54,0c-.458.311-.876.671-1.391,1.088l-1.268-.319.524-.27-.818-.065v-.139l.982-.352v-.2a3.609,3.609,0,0,1-1.252.172,4.14,4.14,0,0,1-1.113-.745Z" transform="translate(-77.215 -52.433)" fill="#d1d3d4"/>
    <path id="Path_127" data-name="Path 127" d="M151.285,86.18l.581-.18v.434c1.768,1.211,3.707,0,5.548.581a1.178,1.178,0,0,1-1.637.687,3.394,3.394,0,0,0-.753,0c-1.072,0-2.152,0-3.273-.1-.172,0-.376-.368-.458-.6A3.419,3.419,0,0,1,151.285,86.18Z" transform="translate(-65.646 -53.397)" fill="#d1d3d4"/>
    <path id="Path_128" data-name="Path 128" d="M137.607,86.829l-.237.057a1.836,1.836,0,0,1-.213,0v-.155c.769-1,1.637-.4,2.455-.106.36.123.7.262,1.244.466l-.466-.966.507-.336c.065.057.147.09.172.147.172.434.295.908.949.548.09-.049.434.139.475.27s-.131.475-.254.491c-1.195.229-2.406.417-3.617.6-.049,0-.115-.09-.278-.229l1.219-.311v-.18l-2.692.221v-.123l.818-.295Z" transform="translate(-63.031 -53.359)" fill="#d1d3d4"/>
    <path id="Path_129" data-name="Path 129" d="M309.68,180.679l3.331-2.889a2.18,2.18,0,0,1,.409.246c.106.1.237.376.2.417-.36.385-.384,1.056-1.039,1.187a.655.655,0,0,0-.368.262C311.268,181.235,311.276,181.235,309.68,180.679Z" transform="translate(-94.423 -70.072)" fill="#d1d3d4"/>
    <path id="Path_130" data-name="Path 130" d="M282.16,150.641l.6,1.285-.507.376-.6-1.228c0,1.326,0,1.408-.45,1.7l-.327-1.473-.156.041.753-2.529c.818-.123,1.7.753,2.455-.376-.254.818-.352.9-1.015.818a3.222,3.222,0,0,0-1.088,0c-.72.229-.254.614-.106.917l1.277-.426.074.172Z" transform="translate(-89.162 -64.74)" fill="#d1d3d4"/>
    <path id="Path_131" data-name="Path 131" d="M202.121,104.5v-1.244c.311-.295.581-.507.818-.769.417-.475.818-.147,1.2,0s.3.491-.057.72c-.065,0-.082.164-.09.254,0,.295.082.818-.057.818a7.594,7.594,0,0,1-1.637.606c-.1,0-.262-.2-.4-.319Z" transform="translate(-74.844 -56.347)" fill="#d1d3d4"/>
    <path id="Path_132" data-name="Path 132" d="M148.122,88.989l-.524.434.753.327c.229.818-.581.818-.933,1.121-.057.049-.434-.246-.663-.376l-1.326-.745.074-.237,1.154.2-.614-.646A1.547,1.547,0,0,1,148.122,88.989Z" transform="translate(-64.586 -53.874)" fill="#d1d3d4"/>
    <path id="Path_133" data-name="Path 133" d="M295.93,106.645h-.655l.213,1.972h-.655c.425-1.809-.573-3.764.458-5.777C295.521,104.2,295.726,105.426,295.93,106.645Z" transform="translate(-91.721 -56.456)" fill="#d1d3d4"/>
    <path id="Path_134" data-name="Path 134" d="M272.77,153.86a10.427,10.427,0,0,0,1.383.36c.753.082,1.514.082,2.275.123a.761.761,0,0,1,.524.147l-.45.229,1.178.483v.172a9.045,9.045,0,0,1-1.759-.115,21.667,21.667,0,0,1-2.7-.565.606.606,0,0,1-.393-.818Z" transform="translate(-87.718 -65.725)" fill="#d1d3d4"/>
    <path id="Path_135" data-name="Path 135" d="M294.184,112.842l-.36.818c-.319-.99-.172-1.309.5-1.334l.229-1.637c.581.36.753,1.342,1.637,1.023l.156.7-1.285.736Z" transform="translate(-91.513 -57.882)" fill="#d1d3d4"/>
    <path id="Path_136" data-name="Path 136" d="M293.53,85.2a9.183,9.183,0,0,1-1.236-.131.507.507,0,0,1-.295-.409c0-.164.245-.286.4-.4a.376.376,0,0,1,.3-.065c.9.344,1.809,0,2.717.074.172,0,.327.221.491.336-.147.139-.278.376-.442.4C294.832,85.107,294.193,85.147,293.53,85.2Z" transform="translate(-91.211 -53.068)" fill="#d1d3d4"/>
    <path id="Path_137" data-name="Path 137" d="M316.724,175.585a3.817,3.817,0,0,1-.3.606c-.376.507-.769,1.007-1.178,1.489-.049.065-.237,0-.188-.139l-.565-1.113.5-1.334c.516-.237.9,1.244,1.71.213Z" transform="translate(-95.297 -69.577)" fill="#d1d3d4"/>
    <path id="Path_138" data-name="Path 138" d="M145.6,86.6l-.057-.491.917.491-.221-.532a4.01,4.01,0,0,1,1.08,0c.139,0,.295.409.262.6s-.2.712-.376.745a3.914,3.914,0,0,1-.917-.278c-.311-.09-.426-.1-.638-.155a3.681,3.681,0,0,1-.663-.213,4.653,4.653,0,0,1-.581-.434c.1-.106.246-.319.278-.3a5.731,5.731,0,0,1,.655.442.678.678,0,0,1,.131.172Z" transform="translate(-64.4 -53.403)" fill="#d1d3d4"/>
    <path id="Path_139" data-name="Path 139" d="M156.44,134.841a1.907,1.907,0,0,1,2.455-.818c.957.475,1.882,1.015,2.938,1.588l-1.457.164c-.319-.376-.516-.769-.818-.925a5.361,5.361,0,0,0-1.841-.606C157.324,134.219,156.9,134.6,156.44,134.841Z" transform="translate(-66.586 -62.09)" fill="#d1d3d4"/>
    <path id="Path_140" data-name="Path 140" d="M281.592,136.94c1.08.319,1.26.818.818,1.432s-.262.908.5,1.064a5.846,5.846,0,0,1,.671.221l-.262.565c-.5-.475-1.326-.368-1.792-1.031C280.978,138.356,282.124,137.807,281.592,136.94Z" transform="translate(-89.281 -62.651)" fill="#d1d3d4"/>
    <path id="Path_141" data-name="Path 141" d="M151.932,88.775a1.056,1.056,0,0,1-1.137.966c-.106,0-.295,0-.295.074-.1.646-.556.409-.679.172s-.27-.9-.1-1.1a1.958,1.958,0,0,1,1.137-.311A5.177,5.177,0,0,1,151.932,88.775Z" transform="translate(-65.351 -53.864)" fill="#d1d3d4"/>
    <path id="Path_142" data-name="Path 142" d="M284.417,144.716l.106.573-.213.131-.859-1.113-.655.131-.106-.172,2.046-1.146.139,1.6Z" transform="translate(-89.52 -63.774)" fill="#d1d3d4"/>
    <path id="Path_143" data-name="Path 143" d="M267.18,80.425l-3.38.818c.041-.221,0-.516.115-.589A2.758,2.758,0,0,1,267.18,80.425Z" transform="translate(-86.088 -52.307)" fill="#d1d3d4"/>
    <path id="Path_144" data-name="Path 144" d="M133.84,86.218a10.642,10.642,0,0,1,1.637-.818,9.443,9.443,0,0,1,1.637-.27l.131.27a8.632,8.632,0,0,1-.818.728,3.182,3.182,0,0,1-.426-.311C135.46,86.488,134.1,86.718,133.84,86.218Z" transform="translate(-62.48 -53.239)" fill="#d1d3d4"/>
    <path id="Path_145" data-name="Path 145" d="M162.83,136.847l1.195.115-.606-.7c1.146-.311,2.414.139,2.349.818C164.794,137.035,163.787,137.518,162.83,136.847Z" transform="translate(-67.747 -62.509)" fill="#d1d3d4"/>
    <path id="Path_146" data-name="Path 146" d="M157.833,99.757c-.434,0-.818.155-.966,0-.434-.368-.7-.065-1.088.057a4.286,4.286,0,0,1-1.219,0c.818-1.3,1.047-1.383,2.054-.818l.213.115Z" transform="translate(-66.244 -55.698)" fill="#d1d3d4"/>
    <path id="Path_147" data-name="Path 147" d="M268.6,80.85l-.213.818c-1.637.254-2.095.2-2.93-.507Z" transform="translate(-86.39 -52.462)" fill="#d1d3d4"/>
    <path id="Path_148" data-name="Path 148" d="M223.749,81.2a19.263,19.263,0,0,1-2.373.106,5.657,5.657,0,0,1-1.686-.556h4.092Z" transform="translate(-78.076 -52.444)" fill="#d1d3d4"/>
    <path id="Path_149" data-name="Path 149" d="M146.782,84.595l-2.66-.532.581-.262-.884-.237V83.31a5.26,5.26,0,0,1,1.072.131,4.387,4.387,0,0,1,1.023.327,8.936,8.936,0,0,1,.949.614Z" transform="translate(-64.293 -52.909)" fill="#d1d3d4"/>
    <path id="Path_150" data-name="Path 150" d="M271.9,82.234l-2.971.237-.115-.123a4.743,4.743,0,0,1,1.457-.818,4.91,4.91,0,0,1,1.694.442Z" transform="translate(-86.998 -52.585)" fill="#d1d3d4"/>
    <path id="Path_151" data-name="Path 151" d="M257.219,143a9.289,9.289,0,0,1,.818,1.44c.057.164-.254.6-.475.687-.442.172-.589-.139-.573-.556s0-.974,0-1.457Z" transform="translate(-84.851 -63.752)" fill="#d1d3d4"/>
    <path id="Path_152" data-name="Path 152" d="M297.387,179.545l-.777-1.7a7.8,7.8,0,0,1,1.383,0,.712.712,0,0,1,.262.638A5.618,5.618,0,0,1,297.387,179.545Z" transform="translate(-92.049 -70.076)" fill="#d1d3d4"/>
    <path id="Path_153" data-name="Path 153" d="M287.747,120.71c.859.7.818,1.53-.115,2.046l.057-1.195-.36-.2Z" transform="translate(-90.363 -59.703)" fill="#d1d3d4"/>
    <path id="Path_154" data-name="Path 154" d="M241.852,79.851l2.013-.671.1.147c-.18.254-.327.687-.557.736a8.126,8.126,0,0,1-1.637,0Z" transform="translate(-82.087 -52.158)" fill="#d1d3d4"/>
    <path id="Path_155" data-name="Path 155" d="M213.41,114.7l.524-.213c.057.147.188.319.139.409-.18.385.237,1.113-.663,1.162Z" transform="translate(-76.935 -58.573)" fill="#d1d3d4"/>
    <path id="Path_156" data-name="Path 156" d="M217.119,118.152l-1.309-.818.041-.164h1.432Z" transform="translate(-77.371 -59.06)" fill="#d1d3d4"/>
    <path id="Path_157" data-name="Path 157" d="M158.09,88.88l1.972.376-.066.295C159.383,89.338,158.507,90.23,158.09,88.88Z" transform="translate(-66.886 -53.92)" fill="#d1d3d4"/>
    <path id="Path_158" data-name="Path 158" d="M147.8,83.74c.646.123,1.08.2,1.514.295a.3.3,0,0,1,.106.262.434.434,0,0,1-.237.245C148.6,84.722,148.193,84.509,147.8,83.74Z" transform="translate(-65.016 -52.987)" fill="#d1d3d4"/>
    <path id="Path_159" data-name="Path 159" d="M282.57,132.38l-.638,1.923C281.391,133.452,281.53,132.936,282.57,132.38Z" transform="translate(-89.326 -61.823)" fill="#d1d3d4"/>
    <path id="Path_160" data-name="Path 160" d="M299,153.419a2.839,2.839,0,0,0,.99,0c.27-.106.45-.434.818-.589a3.38,3.38,0,0,1-.434.7.868.868,0,0,1-1.375-.115Z" transform="translate(-92.483 -65.537)" fill="#d1d3d4"/>
    <path id="Path_161" data-name="Path 161" d="M149,87.384l1.293-.434.123.818a6.537,6.537,0,0,1-.818,0,3.085,3.085,0,0,1-.589-.188Z" transform="translate(-65.234 -53.57)" fill="#d1d3d4"/>
    <path id="Path_162" data-name="Path 162" d="M285.383,155.614l-2.013,1.367A1.743,1.743,0,0,1,285.383,155.614Z" transform="translate(-89.643 -66.038)" fill="#d1d3d4"/>
    <path id="Path_163" data-name="Path 163" d="M148.081,95l1.1.655v.164l-1.768-.147Z" transform="translate(-64.945 -55.032)" fill="#d1d3d4"/>
    <path id="Path_164" data-name="Path 164" d="M148.84,85.66l1.637.147c-.581.72-1.1.27-1.637.057Z" transform="translate(-65.205 -53.335)" fill="#d1d3d4"/>
    <path id="Path_165" data-name="Path 165" d="M139.17,84.816l1.637-.246C140.512,85.3,139.956,85.413,139.17,84.816Z" transform="translate(-63.449 -53.137)" fill="#d1d3d4"/>
    <path id="Path_166" data-name="Path 166" d="M289.984,120.3c.45,1.039-.761.614-.769,1.154C288.8,120.627,289.649,120.717,289.984,120.3Z" transform="translate(-90.685 -59.628)" fill="#d1d3d4"/>
    <path id="Path_167" data-name="Path 167" d="M287.752,152.183H286.23c.074-.164.131-.442.2-.45C286.934,151.7,287.49,151.586,287.752,152.183Z" transform="translate(-90.163 -65.333)" fill="#d1d3d4"/>
    <path id="Path_168" data-name="Path 168" d="M244.48,80.148l1.244-.1v.368l-1.211.155Z" transform="translate(-82.579 -52.316)" fill="#d1d3d4"/>
    <path id="Path_169" data-name="Path 169" d="M150.419,174.419a.409.409,0,0,1-.409-.409V56.119a.417.417,0,0,1,.409-.409.409.409,0,0,1,.409.409V174.01A.409.409,0,0,1,150.419,174.419Z" transform="translate(-65.418 -47.895)" fill="#d1d3d4"/>
    <path id="Path_170" data-name="Path 170" d="M211.909,174.419a.409.409,0,0,1-.409-.409V56.119a.409.409,0,0,1,.818,0V174.01A.409.409,0,0,1,211.909,174.419Z" transform="translate(-76.588 -47.895)" fill="#d1d3d4"/>
    <path id="Path_171" data-name="Path 171" d="M273.4,174.419a.409.409,0,0,1-.409-.409V56.119a.409.409,0,0,1,.409-.409.417.417,0,0,1,.409.409V174.01A.409.409,0,0,1,273.4,174.419Z" transform="translate(-87.758 -47.895)" fill="#d1d3d4"/>
    <path id="Path_172" data-name="Path 172" d="M210.661,130.885l2.357.3.769-1.088v-.147c-1.481-.188-2.962-.36-4.435-.556l-1.342-.172a.565.565,0,0,0-.712.376c-.1.286-.1.7.254.818a11.466,11.466,0,0,0,1.408.245c.475.074.957.155,1.44.2Z" transform="translate(-75.814 -61.244)" fill="#231f20"/>
    <ellipse id="Ellipse_10" data-name="Ellipse 10" cx="3.781" cy="1.637" rx="3.781" ry="1.637" transform="matrix(0.13, -0.992, 0.992, 0.13, 130.284, 72.306)" fill="#fff"/>
    <path id="Path_173" data-name="Path 173" d="M207.55,133.434H207.4c-.606-.082-1.08-.63-1.342-1.538a7.365,7.365,0,0,1-.139-2.881c.311-2.365,1.408-4.043,2.57-3.887.606.074,1.08.622,1.342,1.538a7.366,7.366,0,0,1,.139,2.881C209.678,131.805,208.655,133.434,207.55,133.434Zm.818-7.5c-.5,0-1.35,1.195-1.637,3.183a6.548,6.548,0,0,0,.115,2.545c.164.556.417.925.663.957.491.065,1.391-1.146,1.637-3.183a6.619,6.619,0,0,0-.115-2.553C208.876,126.331,208.622,125.963,208.369,125.93Z" transform="translate(-75.56 -60.503)" fill="#231f20"/>
    <path id="Path_174" data-name="Path 174" d="M206.758,127.251a3.094,3.094,0,0,1,.5,2.234,2.75,2.75,0,0,1-1.047,1.989l-5.663-1.285a1.113,1.113,0,0,1-.859-1.228l.131-.966a1.113,1.113,0,0,1,1.146-.966Z" transform="translate(-74.44 -60.85)" fill="#fff"/>
    <path id="Path_175" data-name="Path 175" d="M206.121,131.842h-.09l-5.663-1.285a1.506,1.506,0,0,1-1.17-1.637l.123-.966a1.506,1.506,0,0,1,1.563-1.326l5.8.221a.434.434,0,0,1,.3.147,3.494,3.494,0,0,1,.581,2.545,3.052,3.052,0,0,1-1.236,2.283A.409.409,0,0,1,206.121,131.842Zm-5.295-4.444a.7.7,0,0,0-.7.614l-.123.966a.687.687,0,0,0,.54.769l5.475,1.244a2.512,2.512,0,0,0,.737-1.588,2.938,2.938,0,0,0-.311-1.792l-5.589-.213Z" transform="translate(-74.351 -60.778)" fill="#231f20"/>
    <path id="Path_176" data-name="Path 176" d="M149.91,236.111l19.82,6.964,5.319-30.115Z" transform="translate(-65.4 -76.46)" fill="#231f20"/>
    <path id="Path_177" data-name="Path 177" d="M169.639,243.4a.369.369,0,0,1-.131,0l-19.828-6.964a.426.426,0,0,1-.262-.3.417.417,0,0,1,.123-.385L174.68,212.6a.409.409,0,0,1,.475-.057.393.393,0,0,1,.2.426l-5.311,30.123a.434.434,0,0,1-.2.278A.392.392,0,0,1,169.639,243.4ZM150.6,235.861l18.724,6.547,5.025-28.446Z" transform="translate(-65.309 -76.375)" fill="#231f20"/>
    <path id="Path_178" data-name="Path 178" d="M137.5,216s9.37-4.746,14.108-2.373,7.553,2.373,7.365,4.092-2.373,1.718-2.373,1.718,2.807,1.277,1.08,2.455a5.434,5.434,0,0,1-3.453.982s4.534,1.506,2.373,2.8-6.76.917-8.339,1.219-15.549,4.82-15.549,4.82Z" transform="translate(-62.275 -76.46)" fill="#fff"/>
    <path id="Path_179" data-name="Path 179" d="M132.528,232.051a.442.442,0,0,1-.295-.115.409.409,0,0,1-.1-.417l4.91-15.737a.409.409,0,0,1,.2-.246c.393-.2,9.6-4.8,14.477-2.373A43.079,43.079,0,0,0,156.064,215c2.111.818,3.388,1.26,3.216,2.676a2.275,2.275,0,0,1-1.637,1.882,2.038,2.038,0,0,1,.9,1.317,1.391,1.391,0,0,1-.728,1.277,6.114,6.114,0,0,1-2.013.908c.818.417,1.637,1,1.686,1.678a1.3,1.3,0,0,1-.777,1.211c-1.579.949-4.239,1.048-6.375,1.121a16.69,16.69,0,0,0-2.1.147c-1.53.286-15.4,4.763-15.549,4.812A.319.319,0,0,1,132.528,232.051Zm5.221-15.876-4.583,14.82c2.954-.949,13.5-4.337,14.894-4.591a17.1,17.1,0,0,1,2.218-.164c1.931-.065,4.583-.164,5.99-1,.115-.074.4-.262.376-.426-.049-.466-1.424-1.228-2.668-1.637a.4.4,0,0,1-.27-.475.409.409,0,0,1,.45-.319,5.049,5.049,0,0,0,3.167-.908c.27-.188.393-.368.376-.532,0-.426-.818-.974-1.391-1.228a.417.417,0,1,1,.164-.818c.074,0,1.8,0,1.972-1.367.082-.712-.589-1.023-2.692-1.809a42.909,42.909,0,0,1-4.419-1.866C147.136,211.8,138.952,215.6,137.749,216.175Z" transform="translate(-62.167 -76.369)" fill="#231f20"/>
    <path id="Path_180" data-name="Path 180" d="M149.91,233.691l7.234-34.051,21.662,3.813-6.571,33.634Z" transform="translate(-65.4 -74.041)" fill="#fff"/>
    <path id="Path_181" data-name="Path 181" d="M172.152,237.406h-.065L149.762,234a.417.417,0,0,1-.278-.172.4.4,0,0,1-.066-.319l7.234-34.043a.4.4,0,0,1,.466-.319l21.67,3.805a.418.418,0,0,1,.262.172.385.385,0,0,1,.065.311l-6.547,33.642A.417.417,0,0,1,172.152,237.406Zm-21.842-4.149,21.514,3.273,6.408-32.84-20.86-3.666Z" transform="translate(-65.308 -73.95)" fill="#231f20"/>
    <path id="Path_182" data-name="Path 182" d="M166.276,228.031a5.786,5.786,0,1,1,5.786-5.786,5.786,5.786,0,0,1-5.786,5.786Zm0-10.753a4.967,4.967,0,1,0,4.967,4.967A4.967,4.967,0,0,0,166.276,217.278Z" transform="translate(-67.322 -77.096)" fill="#d1d3d4"/>
    <path id="Path_183" data-name="Path 183" d="M151.109,215.18s10.524.933,9.476,2.905-7.75,1.547-7.75,1.547-.106,4.354-3.666,3.781" transform="translate(-65.265 -76.864)" fill="#fff"/>
    <path id="Path_184" data-name="Path 184" d="M149.7,223.776a4.038,4.038,0,0,1-.687-.057.414.414,0,0,1,.131-.818,2.381,2.381,0,0,0,1.989-.442,4.5,4.5,0,0,0,1.2-2.946.409.409,0,0,1,.434-.4c2.455.155,6.694-.057,7.365-1.326a.139.139,0,0,0,0-.156c-.532-.974-5.679-1.841-9.157-2.152a.41.41,0,0,1,.065-.818c1.473.123,8.879.859,9.82,2.57a.99.99,0,0,1,0,.933c-1.023,1.915-6.154,1.849-7.741,1.784a4.91,4.91,0,0,1-1.465,3.134A2.954,2.954,0,0,1,149.7,223.776Z" transform="translate(-65.173 -76.769)" fill="#231f20"/>
    <path id="Path_185" data-name="Path 185" d="M169.336,238.093h-.065l-12.439-1.866a.414.414,0,0,1,.123-.818l12.439,1.866a.41.41,0,1,1-.057.818Z" transform="translate(-66.593 -80.538)" fill="#d1d3d4"/>
    <path id="Path_186" data-name="Path 186" d="M175.708,207.54h-.074l-11.211-1.923a.415.415,0,1,1,.139-.818l11.211,1.915a.41.41,0,0,1-.065.818Z" transform="translate(-67.973 -74.977)" fill="#d1d3d4"/>
    <path id="Path_187" data-name="Path 187" d="M173.209,210.661h-.074l-7.652-1.342a.409.409,0,0,1-.336-.475.417.417,0,0,1,.475-.335l7.66,1.342a.411.411,0,0,1-.074.818Z" transform="translate(-68.167 -75.651)" fill="#d1d3d4"/>
    <path id="Path_188" data-name="Path 188" d="M168.54,221.677c-.466.229-.565.565-.859.106-.164-.245.049-.745-.262-.941s-1.35.614-1.1.957a5.112,5.112,0,0,0-1-1.137c-.3-.229-1.007-.606-1.391-.36s-.188.671.074.917c.385.368.876.671,1.064,1.162a1.94,1.94,0,0,1,0,1.236,8.687,8.687,0,0,0-.3.941,5.921,5.921,0,0,1-.777-.491.413.413,0,0,0-.417.712,6.816,6.816,0,0,0,2.75,1.211c.867.164,2.079.327,2.766-.36a.411.411,0,0,0-.581-.581.819.819,0,0,1-.344.188,2.21,2.21,0,0,1-.254-.63,2.971,2.971,0,0,1,.483-.982,3.592,3.592,0,0,1,1.211-1,.875.875,0,0,1,.36-.156,2.146,2.146,0,0,1,.589.115.238.238,0,0,0,.131,0,.262.262,0,0,0,.106-.245C170.725,221.26,169.244,221.358,168.54,221.677Zm-2.283,3.47-.483-.139.057-.057c.27-.336.818-.957,1-.188a1.35,1.35,0,0,0,.254.507,5.6,5.6,0,0,1-.827-.09Z" transform="translate(-67.843 -77.78)" fill="#d1d3d4"/>
    <path id="Path_189" data-name="Path 189" d="M68.487,187.25S55.934,221.522,64.9,224.992s43.511-7.668,43.511-7.668l-3.331-16.457Z" transform="translate(-49.371 -71.79)" fill="#fff"/>
    <path id="Path_190" data-name="Path 190" d="M69.684,225.984a14.561,14.561,0,0,1-5.025-.7c-9.239-3.576,2.831-36.825,3.347-38.266a.393.393,0,0,1,.213-.229.409.409,0,0,1,.311,0l36.6,13.584a.393.393,0,0,1,.262.3l3.331,16.457a.417.417,0,0,1-.278.475C107.23,217.988,82.311,225.984,69.684,225.984Zm-1.048-38.29a159.315,159.315,0,0,0-5,17.136c-2.6,11.588-2.136,18.355,1.318,19.7,8.249,3.192,39.28-6.449,42.9-7.6l-3.216-15.876Z" transform="translate(-49.283 -71.702)" fill="#231f20"/>
    <path id="Path_191" data-name="Path 191" d="M80.856,147.34s-5.966,3.273-16.146,38.9l18.372,6.653Z" transform="translate(-49.922 -64.54)" fill="#68e1fd"/>
    <path id="Path_192" data-name="Path 192" d="M140.59,172.787s16.49,13.167,24.9,10.737c3.527-1.015,5.622-5.565,7.07-8.56,3.568-7.365,5.884-15.311,8.486-23.053,1.17-3.486,2.512-6.882,3.789-10.327.818-2.169.982-3.715,2.455-5.622.9-1.137,4.452-4.787,3.273-6.432s-4.386,2.185-4.55-1.293a4.714,4.714,0,0,1,.941-2.586,17.465,17.465,0,0,0,3.625.532c.45,0,1.007-.049,1.17-.475s-.115-.728-.352-1.023c-1.939-2.324-4.967-4.141-7.905-3.421s-4.779,3.715-5.483,6.661c-.818,3.322-.139,7.676-1.874,10.638-2.831,4.861-7.365,9.288-10.925,13.65-2,2.455-4.01,4.91-6.072,7.365-.524.614-2.111,3.159-3.028,3.273l-7.324-5.36" transform="translate(-63.707 -59.774)" fill="#fff"/>
    <path id="Path_193" data-name="Path 193" d="M163.111,184.146c-8.814,0-22.243-10.638-22.865-11.13a.41.41,0,0,1,.516-.638c.164.131,16.416,13,24.55,10.638,3.273-.933,5.3-5.213,6.678-8.053l.139-.286a152.671,152.671,0,0,0,6.94-18.38c.507-1.547,1.007-3.093,1.53-4.632.818-2.5,1.784-5.008,2.7-7.431.368-.966.728-1.939,1.088-2.905.213-.565.376-1.08.532-1.579a11.744,11.744,0,0,1,1.989-4.092c.131-.18.327-.409.556-.679,1.056-1.236,3.527-4.092,2.709-5.262-.286-.409-.818-.254-1.751.057-.769.27-1.563.548-2.185.131a2.029,2.029,0,0,1-.687-1.7,5.09,5.09,0,0,1,1-2.823.4.4,0,0,1,.45-.18,17.3,17.3,0,0,0,3.543.516c.426,0,.712-.065.769-.2s0-.262-.286-.622c-1.71-2.054-4.583-4-7.488-3.273s-4.558,3.748-5.18,6.359a24.032,24.032,0,0,0-.475,4.026c-.156,2.365-.319,4.812-1.449,6.751a63.468,63.468,0,0,1-7.439,9.6c-1.244,1.416-2.455,2.75-3.519,4.092-2.136,2.627-4.092,5-6.08,7.365-.115.139-.286.376-.5.663-1.047,1.448-1.98,2.651-2.8,2.725a.425.425,0,0,1-.278-.074l-7.324-5.368a.417.417,0,0,1-.09-.573.409.409,0,0,1,.573-.09l7.169,5.237a9.292,9.292,0,0,0,2.087-2.357c.229-.3.409-.556.54-.7,2-2.365,3.936-4.73,6.064-7.365,1.113-1.367,2.349-2.774,3.543-4.133a63.761,63.761,0,0,0,7.365-9.468c1.031-1.776,1.187-4.092,1.334-6.4a25.114,25.114,0,0,1,.5-4.157c.679-2.848,2.553-6.17,5.777-6.964s6.44,1.318,8.314,3.56a1.53,1.53,0,0,1,.426,1.432c-.139.36-.516.818-1.571.737a17.757,17.757,0,0,1-3.412-.475,3.928,3.928,0,0,0-.728,2.1,1.329,1.329,0,0,0,.327,1.064,2.431,2.431,0,0,0,1.457-.221c.9-.311,2.021-.7,2.692.229,1.178,1.637-1.285,4.55-2.75,6.277-.229.262-.417.483-.548.646a11.064,11.064,0,0,0-1.866,3.9c-.164.5-.336,1.031-.548,1.637-.36.974-.728,1.948-1.088,2.913-.917,2.414-1.858,4.91-2.7,7.365-.516,1.539-1.015,3.077-1.522,4.624a144.961,144.961,0,0,1-6.98,18.478l-.139.295c-1.432,2.962-3.6,7.447-7.185,8.478A8.463,8.463,0,0,1,163.111,184.146Z" transform="translate(-63.616 -59.685)" fill="#231f20"/>
    <path id="Path_194" data-name="Path 194" d="M124.119,113.86s4.607,6.735,3.7,8.183-4.018.54-4.018.54" transform="translate(-60.657 -58.458)" fill="#fff"/>
    <path id="Path_195" data-name="Path 195" d="M125.665,123.163a8.337,8.337,0,0,1-2.07-.295.417.417,0,0,1-.278-.507.4.4,0,0,1,.507-.278c.818.221,2.946.589,3.56-.368.475-.745-1.547-4.583-3.7-7.717a.417.417,0,0,1,.115-.573.409.409,0,0,1,.565.115c1.121,1.637,4.689,7.079,3.707,8.609a2.717,2.717,0,0,1-2.406,1.015Z" transform="translate(-60.566 -58.367)" fill="#231f20"/>
    <path id="Path_196" data-name="Path 196" d="M118.128,102.421c2.905,2.291,2.144,7.251,2.177,10.467q.049,6.792-.2,13.568c-.106,2.872-7.529,3.052-8.854,2.218l1.342,11.309L96.9,134.255l.278-13.093s4.91-.049,7.717-5.933,2.545-14.869,2.545-14.869S115.288,100.179,118.128,102.421Z" transform="translate(-55.77 -56.005)" fill="#fff"/>
    <path id="Path_197" data-name="Path 197" d="M112.5,140.292a.294.294,0,0,1-.139,0l-15.7-5.728a.409.409,0,0,1-.262-.393l.278-13.093a.417.417,0,0,1,.409-.4c.188,0,4.689-.131,7.365-5.728,2.733-5.728,2.5-14.591,2.5-14.673a.376.376,0,0,1,.106-.295.409.409,0,0,1,.295-.131c.319,0,8.028-.156,10.949,2.144h0c2.57,2.038,2.455,5.925,2.365,9,0,.622-.041,1.211,0,1.743,0,4.517,0,9.092-.2,13.593a2.455,2.455,0,0,1-1.547,2.07,12.7,12.7,0,0,1-7.234.745l1.268,10.638a.4.4,0,0,1-.409.45Zm-15.278-6.424,14.8,5.385-1.26-10.638a.4.4,0,0,1,.188-.4.417.417,0,0,1,.434,0c.818.54,5.008.606,7.111-.507.72-.376,1.1-.818,1.113-1.375.172-4.493.237-9.051.2-13.552V111c.082-2.938.2-6.6-2.054-8.372h0c-2.332-1.841-8.4-1.972-10.025-1.972,0,1.866-.082,9.378-2.586,14.632s-6.416,6-7.684,6.138Z" transform="translate(-55.679 -55.913)" fill="#231f20"/>
    <path id="Path_198" data-name="Path 198" d="M77.526,248.176,77.51,225.2l52.12-.286,5.36,23.266Z" transform="translate(-52.248 -78.631)" fill="#231f20"/>
    <path id="Path_199" data-name="Path 199" d="M134.9,248.494H77.439a.409.409,0,0,1-.409-.409V225.105a.409.409,0,0,1,.409-.409l52.12-.286a.377.377,0,0,1,.4.319l5.36,23.257a.418.418,0,0,1-.082.352.4.4,0,0,1-.336.155Zm-57.055-.818h56.539l-5.172-22.447-51.392.286Z" transform="translate(-52.16 -78.54)" fill="#231f20"/>
    <path id="Path_200" data-name="Path 200" d="M117.224,144.24c-7.365-6.391-31.367-7.488-34.526,1.637s-7.848,65.811-7.848,65.811c17.521,5.949,57.513.1,57.513.1l-5.614-27.357S125.211,151.13,117.224,144.24Z" transform="translate(-51.764 -63.068)" fill="#68e1fd"/>
    <path id="Path_201" data-name="Path 201" d="M113.177,134.393s-3.813-.123-5.647-2.733c0,0,.237,4.558,6.17,6.457Z" transform="translate(-57.701 -61.692)" fill="#231f20"/>
    <path id="Path_202" data-name="Path 202" d="M113.609,138.388h-.123c-6.129-1.964-6.449-6.629-6.457-6.825a.409.409,0,0,1,.745-.262c1.694,2.414,5.287,2.561,5.327,2.561a.409.409,0,0,1,.393.352l.524,3.723a.417.417,0,0,1-.139.368A.426.426,0,0,1,113.609,138.388Zm-5.409-5.467a7.946,7.946,0,0,0,4.91,4.452l-.385-2.733a8.871,8.871,0,0,1-4.525-1.71Z" transform="translate(-57.61 -61.594)" fill="#231f20"/>
    <ellipse id="Ellipse_11" data-name="Ellipse 11" cx="1.62" cy="0.638" rx="1.62" ry="0.638" transform="translate(61.175 54.836) rotate(-86.9)" fill="#231f20"/>
    <path id="Path_203" data-name="Path 203" d="M125.807,145.35l26.563,17.022-10.147,27.406L122.1,181.635Z" transform="translate(-60.348 -64.179)" fill="#68e1fd"/>
    <path id="Path_204" data-name="Path 204" d="M134.876,193.375a.393.393,0,0,1-.213-.057c-.123-.074-12.521-7.316-18.454-14.116a.409.409,0,1,1,.614-.532c5.843,6.694,18.134,13.871,18.257,13.912a.409.409,0,0,1-.2.761Z" transform="translate(-59.253 -70.198)" fill="#231f20"/>
    <path id="Path_205" data-name="Path 205" d="M76.308,202.974h0a.409.409,0,0,1-.368-.45c.818-9.444,3.781-34.46,3.805-34.714a.426.426,0,0,1,.458-.36.417.417,0,0,1,.36.458c0,.246-2.962,25.262-3.813,34.69a.409.409,0,0,1-.442.376Z" transform="translate(-51.962 -68.193)" fill="#231f20"/>
    <path id="Path_206" data-name="Path 206" d="M124.108,126.728s-5.908-.221-5.908,0a5.769,5.769,0,0,0,3.273,2.93,2.128,2.128,0,0,0,2.586-1.465Z" transform="translate(-59.639 -60.778)" fill="#231f20"/>
    <path id="Path_207" data-name="Path 207" d="M122.041,130.039a2.715,2.715,0,0,1-.737-.106,5.818,5.818,0,0,1-3.584-3.322.442.442,0,0,1,.131-.3c.147-.139.319-.3,6.2-.082a.409.409,0,0,1,.393.417v1.44a.483.483,0,0,1,0,.115A2.553,2.553,0,0,1,122.041,130.039Zm-3.273-3.093a5.385,5.385,0,0,0,2.758,2.2A1.637,1.637,0,0,0,123.6,128v-.974C121.673,126.962,119.668,126.922,118.767,126.946Z" transform="translate(-59.552 -60.685)" fill="#231f20"/>
    <path id="Path_208" data-name="Path 208" d="M81.472,95.552c-4.566,7.111-3.994,15.246-10.27,21.67-3.355,3.429-7.365,6.195-11.039,9.239a25.622,25.622,0,0,0-5.892,6.285,10.638,10.638,0,0,0-1.424,8.3c.646,2.21,2.242,4.288,1.874,6.547-.327,2.038-2.136,3.478-3.052,5.336-1.408,2.832-.507,6.383,1.457,8.855A20.559,20.559,0,0,0,60.8,167.2c11.776,5.565,27.218,10.27,38.945,1.956,5.426-3.846,8.781-10.237,4.763-16.293-1.138-1.719-2.766-3.273-3.036-5.295a16.146,16.146,0,0,1,.409-3.887c.679-5.671-5.033-10.278-6.669-15.549a10.036,10.036,0,0,1-.5-5.467c.483-1.792,1.964-3.355,3.126-4.91,3.511-4.812,3.8-10.336,2.692-15.941,3.216-.221,9.82.818,10.156-3.887.409-5.9-11.162-7.611-15.139-7.709-4.337-.106-9.067.3-12.275,3.273a10.852,10.852,0,0,0-1.8,2.062Z" transform="translate(-47.429 -54.161)" fill="#fff"/>
    <path id="Path_209" data-name="Path 209" d="M84.678,174.016c-6.915,0-14.927-2.177-24.149-6.547-2.856-1.35-5.778-2.954-7.823-5.532-1.874-2.357-3.069-6.138-1.506-9.288a13.643,13.643,0,0,1,1.342-2.062,7.618,7.618,0,0,0,1.637-3.151,7.525,7.525,0,0,0-1-4.174,17.189,17.189,0,0,1-.867-2.21,11,11,0,0,1,1.465-8.625,26.268,26.268,0,0,1,5.99-6.391c1.113-.908,2.25-1.792,3.38-2.684a74.817,74.817,0,0,0,7.627-6.547c3.543-3.617,4.836-7.733,6.211-12.087A38.6,38.6,0,0,1,81,95.2h0a11.082,11.082,0,0,1,1.866-2.226c3.445-3.151,8.519-3.437,12.562-3.339,2.856.074,10.982,1.031,14.223,4.591a4.681,4.681,0,0,1,1.309,3.56c-.295,4.215-5.082,4.215-8.584,4.223h-1.489c1.17,6.391.237,11.563-2.856,15.794-.27.385-.565.753-.818,1.121a10.688,10.688,0,0,0-2.193,3.74A9.868,9.868,0,0,0,95.5,127.9a25.6,25.6,0,0,0,3.1,5.884c1.972,3.077,4.01,6.252,3.584,9.82-.049.417-.131.818-.2,1.236a6.136,6.136,0,0,0,1.776,6.318c.344.442.679.892.99,1.35,2.791,4.206,3.183,11.146-4.91,16.858A25.557,25.557,0,0,1,84.678,174.016ZM81.724,95.66a37.241,37.241,0,0,0-3.912,9.313c-1.342,4.255-2.733,8.65-6.408,12.414a76.016,76.016,0,0,1-7.709,6.6c-1.129.884-2.259,1.768-3.363,2.676a25.025,25.025,0,0,0-5.81,6.178,10.172,10.172,0,0,0-1.383,7.971,17.614,17.614,0,0,0,.818,2.111,6.313,6.313,0,0,1-.753,8.134A12.913,12.913,0,0,0,51.92,153c-1.4,2.831-.295,6.269,1.416,8.421,1.948,2.455,4.771,3.994,7.537,5.3,16.686,7.889,29.289,8.543,38.528,1.989,4.738-3.355,8.8-9.493,4.656-15.737-.295-.442-.622-.876-.949-1.309a8.987,8.987,0,0,1-2.144-4.149,8.7,8.7,0,0,1,.213-2.807c.074-.393.147-.818.188-1.187.4-3.273-1.473-6.236-3.453-9.321a25.787,25.787,0,0,1-3.192-6.08,10.367,10.367,0,0,1-.507-5.728,11.457,11.457,0,0,1,2.349-3.985c.286-.36.573-.72.818-1.088,3.028-4.149,3.887-9.255,2.627-15.63a.4.4,0,0,1,.082-.327.409.409,0,0,1,.295-.155h2c3.355,0,7.529,0,7.766-3.462a3.9,3.9,0,0,0-1.072-2.905c-3.036-3.331-11.064-4.255-13.642-4.321-3.887-.1-8.756.172-11.989,3.126A10.27,10.27,0,0,0,81.724,95.66Z" transform="translate(-47.337 -54.055)" fill="#231f20"/>
    <path id="Path_210" data-name="Path 210" d="M111.962,115.9a6.179,6.179,0,0,0-1.318-3.085,8.912,8.912,0,0,0-1.637-2.029,2.962,2.962,0,0,0-2.455-.7,2.758,2.758,0,0,0-1.751,1.432,5.2,5.2,0,0,0-.532,2.25,9.706,9.706,0,0,0,4.583,8.519l-.254-.27" transform="translate(-57.108 -57.764)" fill="#fff"/>
    <path id="Path_211" data-name="Path 211" d="M108.754,122.621a.45.45,0,0,1-.2-.057,10.18,10.18,0,0,1-4.82-8.912,5.532,5.532,0,0,1,.581-2.455,3.143,3.143,0,0,1,2.021-1.637,3.347,3.347,0,0,1,2.8.818,9.215,9.215,0,0,1,1.751,2.119,6.489,6.489,0,0,1,1.383,3.273.409.409,0,0,1-.393.426.393.393,0,0,1-.417-.4,6,6,0,0,0-1.252-2.864,8.708,8.708,0,0,0-1.588-1.939,2.553,2.553,0,0,0-2.1-.622,2.332,2.332,0,0,0-1.481,1.228,4.771,4.771,0,0,0-.483,2.07,9.362,9.362,0,0,0,3.92,7.848.4.4,0,0,1,.327.131l.254.262a.409.409,0,0,1-.295.7Z" transform="translate(-57.01 -57.669)" fill="#231f20"/>
    <rect id="Rectangle_47" data-name="Rectangle 47" width="18.257" height="18.257" transform="translate(172.842 68.111)" fill="#fff"/>
    <path id="Path_212" data-name="Path 212" d="M276.017,147.966H257.759a.409.409,0,0,1-.409-.409V129.3a.409.409,0,0,1,.409-.409h18.257a.417.417,0,0,1,.409.409v18.257A.409.409,0,0,1,276.017,147.966Zm-17.848-.818h17.439V129.708H258.168Z" transform="translate(-84.917 -61.189)" fill="#d1d3d4"/>
    <path id="Path_213" data-name="Path 213" d="M273.423,134.488h-11.6a.409.409,0,0,1-.409-.409.418.418,0,0,1,.409-.409h11.6a.409.409,0,0,1,0,.818Z" transform="translate(-85.654 -62.057)" fill="#d1d3d4"/>
    <path id="Path_214" data-name="Path 214" d="M273.423,138.658h-11.6a.409.409,0,0,1-.409-.409.417.417,0,0,1,.409-.409h11.6a.409.409,0,1,1,0,.818Z" transform="translate(-85.654 -62.814)" fill="#d1d3d4"/>
    <path id="Path_215" data-name="Path 215" d="M273.423,142.818h-11.6a.409.409,0,0,1-.409-.409.417.417,0,0,1,.409-.409h11.6a.409.409,0,1,1,0,.818Z" transform="translate(-85.654 -63.57)" fill="#d1d3d4"/>
    <path id="Path_216" data-name="Path 216" d="M268.865,147h-7.046a.409.409,0,0,1-.409-.409.418.418,0,0,1,.409-.409h7.046a.417.417,0,0,1,.409.409A.409.409,0,0,1,268.865,147Z" transform="translate(-85.654 -64.329)" fill="#d1d3d4"/>
    <rect id="Rectangle_48" data-name="Rectangle 48" width="18.257" height="18.257" transform="translate(95.722 30.868)" fill="#fff"/>
    <path id="Path_217" data-name="Path 217" d="M181.776,102.456H163.519a.409.409,0,0,1-.409-.409V83.789a.409.409,0,0,1,.409-.409h18.257a.409.409,0,0,1,.409.409v18.257A.409.409,0,0,1,181.776,102.456Zm-17.848-.818h17.439V84.2H163.928Z" transform="translate(-67.797 -52.921)" fill="#d1d3d4"/>
    <path id="Path_218" data-name="Path 218" d="M179.191,88.978H167.579a.409.409,0,0,1-.409-.409.417.417,0,0,1,.409-.409h11.612a.417.417,0,0,1,.409.409A.409.409,0,0,1,179.191,88.978Z" transform="translate(-68.535 -53.79)" fill="#d1d3d4"/>
    <path id="Path_219" data-name="Path 219" d="M179.191,93.148H167.579a.409.409,0,0,1-.409-.409.417.417,0,0,1,.409-.409h11.612a.417.417,0,0,1,.409.409A.409.409,0,0,1,179.191,93.148Z" transform="translate(-68.535 -54.547)" fill="#d1d3d4"/>
    <path id="Path_220" data-name="Path 220" d="M179.191,97.318H167.579a.409.409,0,0,1-.409-.409.417.417,0,0,1,.409-.409h11.612a.417.417,0,0,1,.409.409A.409.409,0,0,1,179.191,97.318Z" transform="translate(-68.535 -55.305)" fill="#d1d3d4"/>
    <path id="Path_221" data-name="Path 221" d="M172.17,101.488h-4.591a.409.409,0,0,1-.409-.409.417.417,0,0,1,.409-.409h4.591a.409.409,0,1,1,0,.818Z" transform="translate(-68.535 -56.062)" fill="#d1d3d4"/>
    <rect id="Rectangle_49" data-name="Rectangle 49" width="18.257" height="18.257" transform="translate(155.256 38.397)" fill="#fff"/>
    <path id="Path_222" data-name="Path 222" d="M254.527,111.656H236.269a.409.409,0,0,1-.409-.409V92.989a.409.409,0,0,1,.409-.409h18.257a.417.417,0,0,1,.409.409v18.257A.409.409,0,0,1,254.527,111.656Zm-17.848-.818h17.439V93.4H236.678Z" transform="translate(-81.013 -54.593)" fill="#d1d3d4"/>
    <path id="Path_223" data-name="Path 223" d="M251.933,98.188h-11.6a.409.409,0,1,1,0-.818h11.6a.409.409,0,1,1,0,.818Z" transform="translate(-81.75 -55.463)" fill="#d1d3d4"/>
    <path id="Path_224" data-name="Path 224" d="M251.933,102.348h-11.6a.409.409,0,1,1,0-.818h11.6a.409.409,0,1,1,0,.818Z" transform="translate(-81.75 -56.218)" fill="#d1d3d4"/>
    <path id="Path_225" data-name="Path 225" d="M247.6,106.518h-7.275a.409.409,0,1,1,0-.818H247.6a.409.409,0,1,1,0,.818Z" transform="translate(-81.75 -56.976)" fill="#d1d3d4"/>
    <rect id="Rectangle_50" data-name="Rectangle 50" width="18.257" height="18.257" transform="translate(212.303 129.192)" fill="#fff"/>
    <path id="Path_226" data-name="Path 226" d="M324.236,222.6H305.979a.409.409,0,0,1-.409-.409V203.909a.409.409,0,0,1,.409-.409h18.257a.409.409,0,0,1,.409.409v18.257a.417.417,0,0,1-.409.434Zm-17.848-.818h17.439V204.343H306.388Z" transform="translate(-93.676 -74.742)" fill="#d1d3d4"/>
    <path id="Path_227" data-name="Path 227" d="M321.643,209.128h-11.6a.409.409,0,1,1,0-.818h11.6a.409.409,0,1,1,0,.818Z" transform="translate(-94.414 -75.616)" fill="#d1d3d4"/>
    <path id="Path_228" data-name="Path 228" d="M321.643,213.3h-11.6a.409.409,0,1,1,0-.818h11.6a.409.409,0,1,1,0,.818Z" transform="translate(-94.414 -76.373)" fill="#d1d3d4"/>
    <path id="Path_229" data-name="Path 229" d="M317.294,217.468h-7.275a.409.409,0,1,1,0-.818h7.275a.409.409,0,1,1,0,.818Z" transform="translate(-94.41 -77.131)" fill="#d1d3d4"/>
    <rect id="Rectangle_51" data-name="Rectangle 51" width="18.257" height="18.257" transform="translate(188.874 39.444)" fill="#fff"/>
    <path id="Path_230" data-name="Path 230" d="M295.606,112.936H277.349a.409.409,0,0,1-.409-.409V94.269a.409.409,0,0,1,.409-.409h18.257a.409.409,0,0,1,.409.409v18.257A.417.417,0,0,1,295.606,112.936Zm-17.848-.818H295.2V94.678H277.758Z" transform="translate(-88.475 -54.825)" fill="#d1d3d4"/>
    <path id="Path_231" data-name="Path 231" d="M293.021,99.458H281.409a.409.409,0,1,1,0-.818h11.612a.409.409,0,0,1,0,.818Z" transform="translate(-89.213 -55.693)" fill="#d1d3d4"/>
    <path id="Path_232" data-name="Path 232" d="M293.021,103.628H281.409a.409.409,0,1,1,0-.818h11.612a.409.409,0,0,1,0,.818Z" transform="translate(-89.213 -56.451)" fill="#d1d3d4"/>
    <path id="Path_233" data-name="Path 233" d="M292.776,107.818H281.409a.417.417,0,0,1-.409-.409.409.409,0,0,1,.409-.409h11.367a.409.409,0,1,1,0,.818Z" transform="translate(-89.213 -57.212)" fill="#d1d3d4"/>
    <path id="Path_234" data-name="Path 234" d="M267.3,129.1l1.1,2.111h1.334l.131-.074c-.687-1.318-1.408-2.627-2.095-3.944-.213-.4-.426-.818-.63-1.195a.573.573,0,0,0-.712-.368c-.3.09-.63.327-.516.671a10.908,10.908,0,0,0,.606,1.293c.213.434.425.867.663,1.293C267.216,128.965,267.257,129.03,267.3,129.1Z" transform="translate(-86.468 -60.593)" fill="#231f20"/>
    <ellipse id="Ellipse_12" data-name="Ellipse 12" cx="3.781" cy="1.637" rx="3.781" ry="1.637" transform="translate(176.015 66.291) rotate(-27.69)" fill="#fff"/>
    <path id="Path_235" data-name="Path 235" d="M263.793,128.916a1.694,1.694,0,0,1-1.637-.745,1.849,1.849,0,0,1,.491-1.98,7.489,7.489,0,0,1,2.275-1.776,7.284,7.284,0,0,1,2.75-.818c.949-.074,1.637.18,1.907.728a1.825,1.825,0,0,1-.483,1.98,8.053,8.053,0,0,1-5.025,2.635Zm4.2-4.558h-.254a6.679,6.679,0,0,0-2.455.777,6.441,6.441,0,0,0-2.013,1.563c-.368.45-.516.867-.4,1.088s.548.335,1.121.286a6.408,6.408,0,0,0,2.455-.769,6.481,6.481,0,0,0,2.021-1.563c.36-.45.516-.867.4-1.088h0C268.777,124.473,268.449,124.358,267.991,124.358Z" transform="translate(-85.77 -60.225)" fill="#231f20"/>
    <path id="Path_236" data-name="Path 236" d="M267.723,123.887a3.1,3.1,0,0,1-1.547,1.686,2.709,2.709,0,0,1-2.226.295l-2.209-5.368a1.113,1.113,0,0,1,.507-1.408l.867-.45a1.1,1.1,0,0,1,1.44.376Z" transform="translate(-85.699 -59.303)" fill="#fff"/>
    <path id="Path_237" data-name="Path 237" d="M264.6,126.3a2.511,2.511,0,0,1-.892-.147.417.417,0,0,1-.221-.221l-2.21-5.368a1.514,1.514,0,0,1,.7-1.923l.859-.45a1.506,1.506,0,0,1,1.98.516l3.159,4.91a.425.425,0,0,1,.057.327,3.527,3.527,0,0,1-1.743,1.939A3.461,3.461,0,0,1,264.6,126.3Zm-.434-.818a2.537,2.537,0,0,0,1.727-.311,2.954,2.954,0,0,0,1.285-1.285l-3.044-4.7a.7.7,0,0,0-.917-.237l-.859.45a.7.7,0,0,0-.327.892Z" transform="translate(-85.608 -59.212)" fill="#231f20"/>
    <path id="Path_238" data-name="Path 238" d="M245.858,91.815l1.1,2.111H248.3l.131-.065c-.7-1.318-1.408-2.635-2.095-3.953-.213-.393-.426-.818-.63-1.195a.565.565,0,0,0-.712-.36c-.3.082-.63.319-.516.663a10.914,10.914,0,0,0,.606,1.293c.213.434.426.876.663,1.293A1.76,1.76,0,0,0,245.858,91.815Z" transform="translate(-82.574 -53.82)" fill="#231f20"/>
    <ellipse id="Ellipse_13" data-name="Ellipse 13" cx="3.781" cy="1.637" rx="3.781" ry="1.637" transform="translate(158.471 35.785) rotate(-27.69)" fill="#fff"/>
    <path id="Path_239" data-name="Path 239" d="M242.353,91.617a1.694,1.694,0,0,1-1.637-.736,1.858,1.858,0,0,1,.491-1.989,8.184,8.184,0,0,1,5.025-2.635c.949-.074,1.637.188,1.907.728a1.825,1.825,0,0,1-.483,1.98,8.052,8.052,0,0,1-5.025,2.635Zm4.2-4.55h-.237A7.243,7.243,0,0,0,241.87,89.4c-.368.45-.516.867-.4,1.088s.548.336,1.121.295a6.432,6.432,0,0,0,2.455-.818,6.6,6.6,0,0,0,2.021-1.555c.36-.45.516-.867.4-1.1h0A1.348,1.348,0,0,0,246.551,87.067Z" transform="translate(-81.876 -53.442)" fill="#231f20"/>
    <path id="Path_240" data-name="Path 240" d="M246.275,86.6a3.061,3.061,0,0,1-1.538,1.694,2.717,2.717,0,0,1-2.226.286L240.3,83.209a1.113,1.113,0,0,1,.507-1.408l.859-.45a1.113,1.113,0,0,1,1.449.376Z" transform="translate(-81.804 -52.53)" fill="#fff"/>
    <path id="Path_241" data-name="Path 241" d="M243.157,89.01a2.513,2.513,0,0,1-.892-.147.417.417,0,0,1-.221-.221l-2.21-5.368a1.514,1.514,0,0,1,.7-1.923l.818-.45a1.506,1.506,0,0,1,1.98.516l3.159,4.91a.441.441,0,0,1,.057.336,3.83,3.83,0,0,1-3.429,2.39Zm-.434-.818a2.537,2.537,0,0,0,1.727-.311,2.914,2.914,0,0,0,1.285-1.285l-3.052-4.689a.7.7,0,0,0-.908-.246l-.818.458a.687.687,0,0,0-.327.884Z" transform="translate(-81.714 -52.438)" fill="#231f20"/>
    <path id="Path_242" data-name="Path 242" d="M171.948,82.285l1.1,2.111h1.342l.131-.065c-.7-1.326-1.416-2.635-2.1-3.953-.213-.393-.417-.818-.63-1.195a.565.565,0,0,0-.712-.36c-.295.082-.63.319-.516.663a12.442,12.442,0,0,0,.614,1.293c.213.434.417.876.655,1.293Z" transform="translate(-69.147 -52.089)" fill="#231f20"/>
    <ellipse id="Ellipse_14" data-name="Ellipse 14" cx="3.781" cy="1.637" rx="3.781" ry="1.637" transform="translate(97.992 27.992) rotate(-27.69)" fill="#fff"/>
    <path id="Path_243" data-name="Path 243" d="M168.468,82.072a1.718,1.718,0,0,1-1.637-.737c-.54-1.031.646-2.651,2.758-3.756a7.366,7.366,0,0,1,2.75-.867,1.538,1.538,0,0,1,1.432,2.676,7.267,7.267,0,0,1-2.275,1.776A6.817,6.817,0,0,1,168.468,82.072Zm4.206-4.55h-.237a6.448,6.448,0,0,0-2.455.769c-1.825.957-2.651,2.21-2.455,2.651s1.735.475,3.56-.483a6.548,6.548,0,0,0,2.013-1.555c.368-.45.516-.876.4-1.1h0C173.435,77.629,173.1,77.522,172.674,77.522Z" transform="translate(-68.45 -51.695)" fill="#231f20"/>
    <path id="Path_244" data-name="Path 244" d="M172.373,77.067a3.126,3.126,0,0,1-1.547,1.694,2.7,2.7,0,0,1-2.218.286l-2.218-5.368a1.121,1.121,0,0,1,.483-1.408l.859-.45a1.113,1.113,0,0,1,1.448.376Z" transform="translate(-68.378 -50.799)" fill="#fff"/>
    <path id="Path_245" data-name="Path 245" d="M169.247,79.481a2.512,2.512,0,0,1-.892-.147.417.417,0,0,1-.221-.221l-2.16-5.368a1.506,1.506,0,0,1,.7-1.923l.859-.45a1.514,1.514,0,0,1,1.98.516l3.118,4.877a.4.4,0,0,1,.049.336A3.83,3.83,0,0,1,169.247,79.481Zm-.426-.818a2.512,2.512,0,0,0,1.719-.311,2.9,2.9,0,0,0,1.285-1.285l-3.044-4.689a.7.7,0,0,0-.917-.246l-.818.458a.7.7,0,0,0-.319.884Z" transform="translate(-68.296 -50.708)" fill="#231f20"/>
    <path id="Path_246" data-name="Path 246" d="M286.3,93.613l1.146,2.144h1.342l.123-.065c-.687-1.326-1.407-2.635-2.095-3.953l-.63-1.195a.565.565,0,0,0-.712-.36c-.295.082-.63.319-.515.663a10.986,10.986,0,0,0,.614,1.293c.2.434.417.876.655,1.293Z" transform="translate(-89.927 -54.152)" fill="#231f20"/>
    <ellipse id="Ellipse_15" data-name="Ellipse 15" cx="3.781" cy="1.637" rx="3.781" ry="1.637" transform="translate(191.557 37.248) rotate(-27.69)" fill="#fff"/>
    <path id="Path_247" data-name="Path 247" d="M282.792,93.386a1.686,1.686,0,0,1-1.637-.745,1.833,1.833,0,0,1,.483-1.98,8.052,8.052,0,0,1,5.025-2.635,1.538,1.538,0,0,1,1.424,2.709,7.366,7.366,0,0,1-2.275,1.776,7.284,7.284,0,0,1-2.75.818Zm4.2-4.583h-.254a6.407,6.407,0,0,0-2.455.769,6.481,6.481,0,0,0-2.021,1.563c-.36.45-.515.867-.4,1.088s.548.336,1.129.295a7.365,7.365,0,0,0,4.444-2.332c.368-.45.516-.876.4-1.1h0C287.776,88.942,287.44,88.8,286.99,88.8Z" transform="translate(-89.221 -53.745)" fill="#231f20"/>
    <path id="Path_248" data-name="Path 248" d="M286.714,88.387a3.126,3.126,0,0,1-1.547,1.694,2.717,2.717,0,0,1-2.226.286L280.732,85a1.121,1.121,0,0,1,.516-1.408l.859-.45a1.113,1.113,0,0,1,1.448.376Z" transform="translate(-89.15 -52.855)" fill="#fff"/>
    <path id="Path_249" data-name="Path 249" d="M283.587,90.8a2.511,2.511,0,0,1-.892-.147.417.417,0,0,1-.221-.221l-2.21-5.368a1.514,1.514,0,0,1,.7-1.923l.867-.45a1.514,1.514,0,0,1,1.98.516l3.159,4.91a.4.4,0,0,1,.049.336,3.83,3.83,0,0,1-3.429,2.39Zm-.426-.818a2.521,2.521,0,0,0,1.719-.311,2.955,2.955,0,0,0,1.285-1.285L283.12,83.7a.7.7,0,0,0-.917-.245l-.859.458a.688.688,0,0,0-.327.884Z" transform="translate(-89.058 -52.764)" fill="#231f20"/>
    <path id="Path_250" data-name="Path 250" d="M69.662,109.172s58.176-7.365,58.446-19.485-24.6-9.877-44.117-2.21C65.317,94.819,57.084,109.5,69.662,109.172Z" transform="translate(-49.727 -52.519)" fill="#fff"/>
    <path id="Path_251" data-name="Path 251" d="M69.163,109.5c-4.575,0-5.728-2.062-5.941-3.273-.99-4.91,7.2-13.912,20.532-19.174,14.493-5.728,33.969-8.9,41.506-3.633a7,7,0,0,1,3.167,6.236c-.278,12.275-56.408,19.575-58.8,19.878h-.466Zm.409-.409Zm43.9-27.595c-8.805,0-20.131,2.635-29.419,6.285C71.471,92.7,63.1,101.493,64.024,106.027c.466,2.3,3.273,2.709,5.516,2.66.63-.082,14.927-1.939,29.068-5.2,18.871-4.345,28.9-9.149,29-13.912a6.228,6.228,0,0,0-2.815-5.54C122.233,82.262,118.223,81.5,113.477,81.5Z" transform="translate(-49.637 -52.442)" fill="#231f20"/>
    <path id="Path_252" data-name="Path 252" d="M113.667,87.709S98.814,98.953,83.388,97.889c0,0-3.846-13.355,3.912-19.231s17.488-3.691,20.066-2.013C111.7,79.542,113.667,87.709,113.667,87.709Z" transform="translate(-53.142 -51.366)" fill="#fff"/>
    <path id="Path_253" data-name="Path 253" d="M85.342,98.277c-.7,0-1.391,0-2.087-.065a.409.409,0,0,1-.36-.295,29.4,29.4,0,0,1-.966-7.488c0-5.467,1.751-9.665,5.025-12.144,7.872-5.958,17.75-3.887,20.549-2.021,4.419,2.946,6.391,10.966,6.473,11.3a.417.417,0,0,1-.155.426C113.682,88.055,99.991,98.277,85.342,98.277Zm-1.719-.867c14,.818,27.619-8.6,29.5-9.951-.376-1.408-2.34-8.069-6.064-10.557-2.561-1.71-12.161-3.633-19.591,2C80.612,84.07,83.125,95.486,83.624,97.409Z" transform="translate(-53.051 -51.279)" fill="#231f20"/>
    <path id="Path_254" data-name="Path 254" d="M82.329,95.571a.409.409,0,0,1,0-.818c.2,0,20.884-2.578,29.46-10.025a.417.417,0,0,1,.581.041.4.4,0,0,1-.049.573c-8.805,7.611-29.084,10.115-29.943,10.229Z" transform="translate(-53.049 -53.148)" fill="#231f20"/>
    <rect id="Rectangle_52" data-name="Rectangle 52" width="40.483" height="24.804" transform="translate(167.531 131.164)" fill="#fff"/>
    <path id="Path_255" data-name="Path 255" d="M291.753,231.562H251.269a.409.409,0,0,1-.409-.409v-24.8a.409.409,0,0,1,.409-.409h40.484a.409.409,0,0,1,.409.409v24.8A.417.417,0,0,1,291.753,231.562Zm-40.1-.818h39.665V206.758H251.678Z" transform="translate(-83.738 -75.185)" fill="#d1d3d4"/>
    <path id="Path_256" data-name="Path 256" d="M289.238,229.529H255.219a.409.409,0,0,1-.409-.409V209.529a.409.409,0,0,1,.409-.409h34.019a.409.409,0,0,1,.409.409V229.12A.409.409,0,0,1,289.238,229.529Zm-33.609-.818h33.2V209.938h-33.2Z" transform="translate(-84.455 -75.763)" fill="#d1d3d4"/>
    <path id="Path_257" data-name="Path 257" d="M255.219,225.766a.417.417,0,0,1-.327-.164.409.409,0,0,1,.082-.573c2.259-1.719,13.666-10.237,15.827-9.509s9.452,8,9.763,8.314a.411.411,0,0,1-.581.581c-2.07-2.079-7.815-7.578-9.436-8.118-1.17-.376-8.584,4.46-15.082,9.386a.467.467,0,0,1-.246.082Z" transform="translate(-84.455 -76.918)" fill="#d1d3d4"/>
    <path id="Path_258" data-name="Path 258" d="M294.45,224.112a.417.417,0,0,1-.295-.123c-1.015-1.064-3.961-3.871-5.36-4.092-1.17-.2-3.421,2.1-4.575,3.592a.409.409,0,0,1-.647-.5c.336-.434,3.339-4.239,5.36-3.9s5.417,3.928,5.81,4.345a.4.4,0,0,1,0,.573A.368.368,0,0,1,294.45,224.112Z" transform="translate(-89.668 -77.571)" fill="#d1d3d4"/>
    <path id="Path_259" data-name="Path 259" d="M284.241,217.446a2.1,2.1,0,1,1,2.1-2.095A2.1,2.1,0,0,1,284.241,217.446Zm0-3.38a1.285,1.285,0,1,0,1.277,1.285A1.285,1.285,0,0,0,284.241,214.066Z" transform="translate(-89.418 -76.511)" fill="#d1d3d4"/>
    <rect id="Rectangle_53" data-name="Rectangle 53" width="3.453" height="4.836" transform="translate(186.042 127.817)" fill="#d1d3d4"/>
  </g>
</svg>
