<svg xmlns="http://www.w3.org/2000/svg" width="133.65" height="99.333" viewBox="0 0 133.65 99.333">
  <g id="_47_running" data-name="#47_running" transform="translate(-40.02 -31.69)">
    <path id="Path_684" data-name="Path 684" d="M169.4,236.758H40.229a.209.209,0,1,1,0-.418H169.4a.209.209,0,0,1,0,.418Z" transform="translate(0 -119.171)" fill="#d1d3d4"/>
    <path id="Path_685" data-name="Path 685" d="M210.082,261.288h-3.513a.209.209,0,1,1,0-.418h3.513a.209.209,0,1,1,0,.418Z" transform="translate(-96.863 -133.455)" fill="#d1d3d4"/>
    <path id="Path_686" data-name="Path 686" d="M147.46,165.74c.079.242-3.726,3.947-4.753,9.782,0,0-2.134-1.42-6.144-.994-5.338.572-10.162,1.491-10.162,1.491l.3,5.046s18.921,1.55,21.131,0,7.389-13.295,7.389-13.295" transform="translate(-50.301 -78.059)" fill="#fff"/>
    <path id="Path_687" data-name="Path 687" d="M140.972,181.666c-6.09,0-14.076-.643-14.585-.685a.209.209,0,0,1-.192-.2l-.3-5.046a.209.209,0,0,1,.171-.217c.046,0,4.891-.927,10.179-1.491a10.635,10.635,0,0,1,6.015.869,21.221,21.221,0,0,1,4.3-8.938c.18-.234.351-.455.393-.535a.217.217,0,0,1,.142-.18.213.213,0,0,1,.263.134c.054.159-.038.276-.464.835a20.646,20.646,0,0,0-4.281,9.047.217.217,0,0,1-.121.159.213.213,0,0,1-.2-.021,9.8,9.8,0,0,0-6.006-.956c-4.695.5-9.039,1.282-9.966,1.454l.284,4.678c6.574.535,19.134,1.2,20.813.025,2.134-1.5,7.268-13.09,7.318-13.207a.209.209,0,0,1,.276-.1.2.2,0,0,1,.1.276c-.209.48-5.229,11.812-7.46,13.366C146.882,181.487,144.192,181.666,140.972,181.666Zm5.985-16.152Z" transform="translate(-50.003 -77.767)" fill="#231f20"/>
    <path id="Path_688" data-name="Path 688" d="M177.107,143.2l-5.037,10.81,9.6,4.92,5.263-8.27Z" transform="translate(-76.895 -64.934)" fill="#231f20"/>
    <path id="Path_689" data-name="Path 689" d="M181.379,158.855a.246.246,0,0,1-.092-.021l-9.607-4.924a.209.209,0,0,1-.1-.271l5.041-10.805a.2.2,0,0,1,.138-.113.209.209,0,0,1,.18.033l9.841,7.456a.209.209,0,0,1,.05.276l-5.263,8.274a.2.2,0,0,1-.192.1Zm-9.327-5.225,9.256,4.745,5.054-7.936-9.469-7.188Z" transform="translate(-76.602 -64.65)" fill="#231f20"/>
    <path id="Path_690" data-name="Path 690" d="M204.89,165.815s7.1,6.115,8.938,7.46a17.791,17.791,0,0,0,1.383,9.047c2.034,4.035,5.43,11.277,5.43,11.277l6.178-.652s-5.53-18.587-6.75-22.254S213.1,158.1,213.1,158.1Z" transform="translate(-96.007 -73.61)" fill="#fff"/>
    <path id="Path_691" data-name="Path 691" d="M220.333,193.557a.2.2,0,0,1-.188-.121c-.033-.071-3.408-7.3-5.43-11.277a17.942,17.942,0,0,1-1.42-9.043c-1.963-1.47-8.771-7.339-8.855-7.4a.2.2,0,0,1-.071-.155.184.184,0,0,1,.067-.155l8.2-7.706a.209.209,0,0,1,.317.042c.234.363,5.777,8.989,6.992,12.639s6.683,22.075,6.754,22.258a.2.2,0,0,1-.025.175.2.2,0,0,1-.15.092l-6.182.656Zm-15.454-28.014c1.107.952,7.1,6.09,8.746,7.3a.2.2,0,0,1,.084.2c0,.05-.618,5.012,1.366,8.926,1.863,3.692,4.891,10.15,5.363,11.165l5.781-.614c-.652-2.193-5.547-18.608-6.683-22-1.094-3.291-5.935-10.964-6.812-12.338Z" transform="translate(-95.703 -73.347)" fill="#231f20"/>
    <path id="Path_692" data-name="Path 692" d="M214.049,88.2l3.855,9.866s3.053-2.2,9.657-3.425c0,0-.368-2.088.735-2.924s2.009-1.345,2.134-1.1.556.977.556.977,1.044-1.22,1.671-.977,1.157,3.141,1.153,3.914-14.673,12.948-17.363,11.248-6.616-9.782-6.616-9.782" transform="translate(-98.883 -32.906)" fill="#fff"/>
    <path id="Path_693" data-name="Path 693" d="M216.813,105.849a1.4,1.4,0,0,1-.789-.2c-2.707-1.721-6.533-9.536-6.683-9.866a.209.209,0,1,1,.376-.184c.038.079,3.93,8.036,6.541,9.7a2.31,2.31,0,0,0,1.775-.113c4.753-1.6,14.966-10.171,15.27-10.993,0-.835-.585-3.509-1.027-3.684-.322-.129-1.04.472-1.42.919a.209.209,0,0,1-.18.071.2.2,0,0,1-.159-.1c0-.029-.388-.656-.539-.94a5.344,5.344,0,0,0-1.846,1.119c-.986.769-.656,2.715-.656,2.736a.2.2,0,0,1-.167.238c-6.47,1.2-9.544,3.367-9.573,3.392a.238.238,0,0,1-.184.029.221.221,0,0,1-.134-.125l-3.855-9.866a.209.209,0,0,1,.121-.267.2.2,0,0,1,.267.117l3.759,9.607a27.144,27.144,0,0,1,9.323-3.275c-.063-.568-.146-2.164.835-2.924.635-.489,1.763-1.307,2.23-1.195a.3.3,0,0,1,.217.167c.075.146.271.489.418.723.372-.388,1.124-1.053,1.7-.835.789.313,1.291,3.412,1.286,4.106,0,.835-8.354,7.648-13.245,10.3A8.6,8.6,0,0,1,216.813,105.849Z" transform="translate(-98.586 -32.616)" fill="#231f20"/>
    <path id="Path_694" data-name="Path 694" d="M148.639,94.766l-3.483,2.6s2.26,6.934,2.627,9.256c0,0,3.179,0,3.667,1.1a8.353,8.353,0,0,1,.489,2.782l-1.22.171s-.125,2.184-.735,2.427a7.5,7.5,0,0,1-3.3,0c-.856-.246-1.959-5.743-1.959-5.743s-7.581-11.7-7.213-13.366,7.852-5.793,7.852-5.793" transform="translate(-56.764 -32.906)" fill="#fff"/>
    <path id="Path_695" data-name="Path 695" d="M148.108,113.226a7.321,7.321,0,0,1-1.792-.188c-.9-.259-1.821-4.507-2.088-5.868-.885-1.362-7.6-11.8-7.247-13.474s7.18-5.505,7.957-5.931a.209.209,0,0,1,.2.368c-2.059,1.132-7.464,4.356-7.748,5.651-.255,1.165,4.156,8.537,7.184,13.207a.188.188,0,0,1,.029.075c.518,2.585,1.357,5.455,1.809,5.584a7.141,7.141,0,0,0,3.166,0c.3-.121.547-1.253.606-2.247a.209.209,0,0,1,.18-.2l1.036-.142a7.61,7.61,0,0,0-.464-2.506c-.359-.8-2.631-.977-3.479-.977a.209.209,0,0,1-.2-.175c-.359-2.281-2.6-9.156-2.623-9.227a.2.2,0,0,1,.075-.23l3.483-2.6a.209.209,0,0,1,.251.334l-3.367,2.506c.326,1,2.155,6.683,2.56,8.976.739,0,3.208.15,3.684,1.22a8.4,8.4,0,0,1,.505,2.865.213.213,0,0,1-.18.209l-1.053.146c-.046.61-.23,2.189-.835,2.439A5.329,5.329,0,0,1,148.108,113.226Z" transform="translate(-56.454 -32.638)" fill="#231f20"/>
    <path id="Path_696" data-name="Path 696" d="M177.677,71.4s-8.249-3.93-9.97-3.83C161.952,67.914,151,76.184,151,76.184l5.43,8.233,5.43-2.957s2.134,9.164,1.646,14.924h13.7S185.384,76.769,177.677,71.4Z" transform="translate(-64.626 -20.891)" fill="#68e1fd"/>
    <path id="Path_697" data-name="Path 697" d="M166.222,99.259a.209.209,0,0,1-.1-.388c.046-.029,4.795-2.832,9.916-5.384a.2.2,0,0,1,.28.092.209.209,0,0,1-.092.28c-5.108,2.548-9.845,5.342-9.891,5.371a.2.2,0,0,1-.109.029Z" transform="translate(-73.369 -35.971)" fill="#231f20"/>
    <path id="Path_698" data-name="Path 698" d="M258.687,95.92a13.834,13.834,0,0,1,.706,1.487,2.548,2.548,0,0,1,.192,1.508,1.14,1.14,0,0,1-1.094.906c-.585-.046-.957-.656-1.111-1.228" transform="translate(-126.572 -37.402)" fill="#fff"/>
    <path id="Path_699" data-name="Path 699" d="M258.263,99.748h-.084c-.7-.054-1.132-.748-1.3-1.383a.216.216,0,0,1,.418-.109c.129.5.443,1.036.923,1.073a.931.931,0,0,0,.877-.748,2.414,2.414,0,0,0-.188-1.383,14.244,14.244,0,0,0-.693-1.466.209.209,0,0,1,.372-.192,14.7,14.7,0,0,1,.714,1.508,2.857,2.857,0,0,1,.2,1.633,1.378,1.378,0,0,1-1.241,1.065Z" transform="translate(-126.277 -37.116)" fill="#231f20"/>
    <path id="Path_700" data-name="Path 700" d="M181.032,136.56a29.44,29.44,0,0,0,.706,8.07c.977,3.584,9.239,8.642,9.239,8.642L201.3,147.24l-6.57-10.68Z" transform="translate(-82.093 -61.067)" fill="#231f20"/>
    <path id="Path_701" data-name="Path 701" d="M190.689,153.189a.246.246,0,0,1-.109-.029c-.342-.209-8.354-5.142-9.331-8.771a30.041,30.041,0,0,1-.714-8.136.209.209,0,0,1,.209-.192h13.7a.209.209,0,0,1,.175.1l6.562,10.684a.209.209,0,0,1,.025.159.217.217,0,0,1-.1.129l-10.313,6.031a.2.2,0,0,1-.1.029Zm-9.745-16.707a28.834,28.834,0,0,0,.706,7.806c.885,3.254,8.082,7.852,9.043,8.454l10.024-5.848-6.4-10.4Z" transform="translate(-81.805 -60.776)" fill="#231f20"/>
    <path id="Path_702" data-name="Path 702" d="M188.354,159.418a.188.188,0,0,1-.067,0c-4.352-1.7-7.589-9.331-7.723-9.657a.184.184,0,1,1,.338-.142c.033.079,3.312,7.811,7.518,9.456a.184.184,0,0,1,.1.238A.18.18,0,0,1,188.354,159.418Z" transform="translate(-81.83 -68.6)" fill="#fff"/>
    <path id="Path_703" data-name="Path 703" d="M203.923,150.781a.188.188,0,0,1-.167-.1l-4.937-9.415a.184.184,0,1,1,.326-.171l4.941,9.415a.184.184,0,0,1-.079.246.146.146,0,0,1-.084.021Z" transform="translate(-92.458 -63.652)" fill="#fff"/>
    <path id="Path_704" data-name="Path 704" d="M119.677,190.35s-4.64.042-4.8.53.794,3.9.735,5.2.363,7.339,1.992,7.664,2.381-8.354,2.381-8.354Z" transform="translate(-43.578 -92.39)" fill="#231f20"/>
    <path id="Path_705" data-name="Path 705" d="M117.421,203.743h-.129c-1.942-.388-2.193-7.126-2.159-7.882a16.917,16.917,0,0,0-.418-3.011,7.464,7.464,0,0,1-.292-2.247c.142-.418,1.821-.643,5.012-.672h0a.213.213,0,0,1,.209.2l.3,5.046c-.067.781-.672,7.385-2.059,8.425A.727.727,0,0,1,117.421,203.743Zm1.792-13.408a16.788,16.788,0,0,0-4.427.418,13.968,13.968,0,0,0,.322,2,17.234,17.234,0,0,1,.443,3.112c-.075,1.692.472,7.18,1.825,7.451a.28.28,0,0,0,.242-.071c1.044-.785,1.721-6.111,1.892-8.1Z" transform="translate(-43.31 -92.145)" fill="#231f20"/>
    <path id="Path_706" data-name="Path 706" d="M242.072,242.212s-.835,3.137,0,3.625,14.059.94,13.813.121-7.635-4.4-7.635-4.4Z" transform="translate(-117.442 -122.21)" fill="#231f20"/>
    <path id="Path_707" data-name="Path 707" d="M250.994,246.317c-3.88,0-8.8-.288-9.31-.593-.9-.543-.234-3.308-.092-3.855a.2.2,0,0,1,.18-.155l6.178-.656a.209.209,0,0,1,.113.021c1.754.835,7.493,3.692,7.744,4.528a.3.3,0,0,1-.117.326C255.33,246.209,253.358,246.317,250.994,246.317Zm-9.03-4.206c-.3,1.253-.514,2.986-.058,3.258.873.526,12.255.739,13.454.276-.489-.589-4.047-2.506-7.422-4.177Z" transform="translate(-117.162 -121.918)" fill="#231f20"/>
    <path id="Path_708" data-name="Path 708" d="M135.58,194.935h0a.209.209,0,0,1-.2-.217l.263-5.718a.2.2,0,0,1,.217-.2.213.213,0,0,1,.2.221l-.271,5.71a.209.209,0,0,1-.209.2Z" transform="translate(-55.529 -91.487)" fill="#231f20"/>
    <path id="Path_709" data-name="Path 709" d="M238.214,233.657a.2.2,0,0,1-.2-.146.209.209,0,0,1,.138-.259l6.658-2.026a.209.209,0,1,1,.121.4l-6.658,2.026A.163.163,0,0,1,238.214,233.657Z" transform="translate(-115.292 -116.182)" fill="#231f20"/>
    <path id="Path_710" data-name="Path 710" d="M186.222,113.7H186.2a.209.209,0,0,1-.184-.23c0-.088.919-9.051,0-13.132a.214.214,0,0,1,.418-.092c.931,4.152.042,12.9,0,13.27a.2.2,0,0,1-.209.184Z" transform="translate(-85.011 -39.823)" fill="#231f20"/>
    <path id="Path_711" data-name="Path 711" d="M155.406,125.07a19.446,19.446,0,0,0-4.336,1.834l.994,2.2a34.974,34.974,0,0,1,3.993-1.671Z" transform="translate(-64.666 -54.376)" fill="#231f20"/>
    <path id="Path_712" data-name="Path 712" d="M151.778,129.039a.2.2,0,0,1-.071,0,.213.213,0,0,1-.121-.113l-.99-2.2a.213.213,0,0,1,.063-.251,19.383,19.383,0,0,1,4.4-1.871.209.209,0,0,1,.263.146l.652,2.364a.2.2,0,0,1-.025.163.2.2,0,0,1-.134.1,31.48,31.48,0,0,0-3.947,1.671.226.226,0,0,1-.088-.008Zm-.735-2.343.835,1.855a37.783,37.783,0,0,1,3.638-1.537l-.543-1.955A18.947,18.947,0,0,0,151.043,126.7Z" transform="translate(-64.38 -54.102)" fill="#231f20"/>
    <path id="Path_713" data-name="Path 713" d="M156.081,126.47a9.2,9.2,0,0,0-1.963.806l-.038.192.835,1.462,1.729-.769Z" transform="translate(-66.419 -55.192)" fill="#fff"/>
    <path id="Path_714" data-name="Path 714" d="M190.653,45.413c-.576-.025-1.153-.125-1.825-.184s-1.428-.284-1.441-.911c0-.539.635-.977.493-1.5a1.144,1.144,0,0,0-.221-.376,5.781,5.781,0,0,1,.994-7.936c-.175.058-.363-.117-.38-.3a.723.723,0,0,1,.2-.5,3.6,3.6,0,0,1,1.738-1.061,11.006,11.006,0,0,1,6.487,0c1.621.472,3.563,1.763,3.341,3.722a1.545,1.545,0,0,1-1.337,1.42,9.768,9.768,0,0,1-2.84,5.046,8.475,8.475,0,0,1-3.4,2.314,4.636,4.636,0,0,1-1.8.263Z" transform="translate(-85.307 -0.273)" fill="#fff"/>
    <path id="Path_715" data-name="Path 715" d="M190.595,45.353h-.263a9.091,9.091,0,0,1-1.044-.1c-.251-.029-.514-.063-.789-.084-1.011-.088-1.621-.5-1.633-1.115a1.562,1.562,0,0,1,.292-.81c.138-.234.259-.439.209-.631a.919.919,0,0,0-.167-.284,5.981,5.981,0,0,1,.743-8,.581.581,0,0,1-.18-.359.931.931,0,0,1,.246-.656,3.855,3.855,0,0,1,1.834-1.124,11.248,11.248,0,0,1,6.612,0c1.9.556,3.713,1.988,3.5,3.943a1.8,1.8,0,0,1-1.366,1.591,10.35,10.35,0,0,1-2.865,5.012,8.592,8.592,0,0,1-3.488,2.372A4.766,4.766,0,0,1,190.595,45.353Zm-.246-.418a4.452,4.452,0,0,0,1.738-.246,8.237,8.237,0,0,0,3.316-2.26,9.466,9.466,0,0,0,2.79-4.937.213.213,0,0,1,.2-.175,1.349,1.349,0,0,0,1.136-1.253c.217-1.959-1.909-3.12-3.2-3.5a10.835,10.835,0,0,0-6.366,0,3.342,3.342,0,0,0-1.637.99.535.535,0,0,0-.155.355.167.167,0,0,0,.071.109.234.234,0,0,1,.267.1.226.226,0,0,1-.033.271,5.572,5.572,0,0,0-.961,7.652,1.374,1.374,0,0,1,.255.447,1.228,1.228,0,0,1-.251.956,1.228,1.228,0,0,0-.234.589c0,.572,1.044.689,1.253.706.284.025.547.058.806.088.351.042.685.079,1.011.1Z" transform="translate(-85.007)" fill="#231f20"/>
    <path id="Path_716" data-name="Path 716" d="M216.666,53s1.5,2.46,1.149,2.924-1.424.117-1.424.117" transform="translate(-102.703 -12.409)" fill="#fff"/>
    <path id="Path_717" data-name="Path 717" d="M216.875,56.017a2.82,2.82,0,0,1-.835-.15.22.22,0,0,1,.138-.418c.242.084.977.255,1.19-.038a6.613,6.613,0,0,0-1.157-2.715.209.209,0,1,1,.355-.217c.472.773,1.525,2.636,1.14,3.179A.969.969,0,0,1,216.875,56.017Z" transform="translate(-102.411 -12.039)" fill="#231f20"/>
    <path id="Path_718" data-name="Path 718" d="M205.243,44.033c.977.86.618,2.594.564,3.73-.075,1.591-.184,3.187-.33,4.774-.092,1.011-2.715.931-3.162.61l.255,4.01a5.372,5.372,0,0,1-3.341-.76c-2.088-1.057-2.088-1.562-2.088-1.562l.355-4.595a3.3,3.3,0,0,0,2.832-1.942A13.7,13.7,0,0,0,201.5,43.11S204.287,43.189,205.243,44.033Z" transform="translate(-91.494 -6.65)" fill="#fff"/>
    <path id="Path_719" data-name="Path 719" d="M201.808,57.093a6.612,6.612,0,0,1-2.97-.835c-1.976-1.007-2.189-1.554-2.189-1.746l.355-4.62a.226.226,0,0,1,.217-.192,3.079,3.079,0,0,0,2.64-1.834,13.564,13.564,0,0,0,1.153-5.1.217.217,0,0,1,.067-.146.209.209,0,0,1,.15-.054c.117,0,2.857.1,3.859.982.89.789.773,2.172.681,3.287-.021.213-.038.418-.046.61-.075,1.591-.184,3.2-.33,4.787a.931.931,0,0,1-.627.752,4.507,4.507,0,0,1-2.506.15l.238,3.684a.209.209,0,0,1-.163.217,2.394,2.394,0,0,1-.53.054Zm-4.737-2.59c.033.079.3.543,1.959,1.391a5.785,5.785,0,0,0,3.028.769l-.251-3.813a.2.2,0,0,1,.1-.2.2.2,0,0,1,.226,0,3.884,3.884,0,0,0,2.452-.05c.238-.109.363-.246.38-.418.146-1.579.259-3.183.33-4.77,0-.192.029-.418.046-.627.088-1.019.192-2.289-.543-2.924h0c-.739-.656-2.736-.835-3.387-.869a13.29,13.29,0,0,1-1.2,5.071,3.519,3.519,0,0,1-2.819,2.042Z" transform="translate(-91.208 -6.335)" fill="#231f20"/>
    <path id="Path_720" data-name="Path 720" d="M214.505,62.009a1.3,1.3,0,0,1-1.875-.589" transform="translate(-100.514 -17.312)" fill="#fff"/>
    <path id="Path_721" data-name="Path 721" d="M213.453,62.135a1.362,1.362,0,0,1-.418-.063,1.479,1.479,0,0,1-.881-.835.209.209,0,0,1,.1-.276.2.2,0,0,1,.276.1,1.078,1.078,0,0,0,.627.618,1.412,1.412,0,0,0,.956-.121.209.209,0,0,1,.2.363,1.93,1.93,0,0,1-.869.213Z" transform="translate(-100.226 -17.033)" fill="#231f20"/>
    <path id="Path_722" data-name="Path 722" d="M205.885,52.1a2.172,2.172,0,0,0-.418-1.111,3.149,3.149,0,0,0-.551-.748,1.044,1.044,0,0,0-.835-.292.973.973,0,0,0-.647.468,1.917,1.917,0,0,0-.23.785,3.425,3.425,0,0,0,1.462,3.1l-.084-.1" transform="translate(-95.018 -10.631)" fill="#fff"/>
    <path id="Path_723" data-name="Path 723" d="M204.38,54.213a.209.209,0,0,1-.117-.033,3.655,3.655,0,0,1-1.55-3.291,1.976,1.976,0,0,1,.259-.869,1.165,1.165,0,0,1,.785-.572,1.253,1.253,0,0,1,1.028.347,3.392,3.392,0,0,1,.589.8,2.381,2.381,0,0,1,.418,1.22.226.226,0,0,1-.217.2.2.2,0,0,1-.2-.213,1.98,1.98,0,0,0-.376-1,3.091,3.091,0,0,0-.5-.714.835.835,0,0,0-.677-.246.769.769,0,0,0-.5.372,1.641,1.641,0,0,0-.2.7,3.233,3.233,0,0,0,1.19,2.769.213.213,0,0,1,.138.071l.084.1a.2.2,0,0,1-.159.342Z" transform="translate(-94.732 -10.334)" fill="#231f20"/>
    <path id="Path_724" data-name="Path 724" d="M206.828,65.148a4.25,4.25,0,0,1-1.938-1.428,3.567,3.567,0,0,0,2.051,3.216Z" transform="translate(-96.007 -18.651)" fill="#231f20"/>
    <path id="Path_725" data-name="Path 725" d="M206.65,66.878a.238.238,0,0,1-.075,0,3.811,3.811,0,0,1-2.184-3.412.209.209,0,0,1,.384-.109A4.06,4.06,0,0,0,206.6,64.7a.209.209,0,0,1,.138.184l.117,1.788a.2.2,0,0,1-.088.18A.188.188,0,0,1,206.65,66.878Zm-1.767-2.757a3.124,3.124,0,0,0,1.537,2.218l-.084-1.312a4.929,4.929,0,0,1-1.454-.906Z" transform="translate(-95.715 -18.384)" fill="#231f20"/>
    <ellipse id="Ellipse_58" data-name="Ellipse 58" cx="0.572" cy="0.226" rx="0.572" ry="0.226" transform="translate(112.763 39.944) rotate(-78.19)" fill="#231f20"/>
    <path id="Path_726" data-name="Path 726" d="M226.162,113.646h0a.209.209,0,0,1-.192-.221,3.43,3.43,0,0,1,1.215-2.059.209.209,0,0,1,.263.326,3.082,3.082,0,0,0-1.061,1.763.209.209,0,0,1-.226.192Z" transform="translate(-108.281 -46.369)" fill="#231f20"/>
    <path id="Path_727" data-name="Path 727" d="M142.8,253.088h-5.589a.209.209,0,1,1,0-.418H142.8a.209.209,0,0,1,0,.418Z" transform="translate(-56.473 -128.68)" fill="#d1d3d4"/>
    <path id="Path_728" data-name="Path 728" d="M310.193,247.278h-1.884a.209.209,0,0,1,0-.418h1.884a.213.213,0,0,1,.209.209A.209.209,0,0,1,310.193,247.278Z" transform="translate(-156.107 -125.297)" fill="#d1d3d4"/>
    <path id="Path_729" data-name="Path 729" d="M296.516,261.288h-2.807a.209.209,0,1,1,0-.418h2.824a.209.209,0,0,1,.209.209.213.213,0,0,1-.226.209Z" transform="translate(-147.606 -133.455)" fill="#d1d3d4"/>
    <path id="Path_730" data-name="Path 730" d="M48.127,185.99a.213.213,0,0,1-.209-.18,6.654,6.654,0,0,1,10.442-6.441,10.959,10.959,0,0,1,6.294-8.462,8.066,8.066,0,0,1,9.494,2.652,4.808,4.808,0,0,1,1.516-2.986,6.328,6.328,0,0,1,5.041-1.775c2.865.338,5.534,2.435,7.322,5.747a.209.209,0,0,1-.088.284.2.2,0,0,1-.28-.084c-1.7-3.145-4.315-5.217-7-5.534a5.923,5.923,0,0,0-4.7,1.671,4.256,4.256,0,0,0-1.391,3.442.213.213,0,0,1-.15.221.209.209,0,0,1-.246-.109c-1.554-3.116-5.848-4.549-9.356-3.128a10.562,10.562,0,0,0-6.086,8.479.213.213,0,0,1-.129.167.2.2,0,0,1-.209-.033,6.236,6.236,0,0,0-10.075,5.848.209.209,0,0,1-.171.238Z" transform="translate(-4.553 -79.822)" fill="#d1d3d4"/>
    <path id="Path_731" data-name="Path 731" d="M169.267,215.719a.209.209,0,0,1-.2-.155,15.454,15.454,0,0,0-3.646-6.428.21.21,0,1,1,.3-.288,15.872,15.872,0,0,1,3.759,6.6.209.209,0,0,1-.142.259Z" transform="translate(-72.989 -103.124)" fill="#d1d3d4"/>
    <path id="Path_732" data-name="Path 732" d="M257.44,194.111h0a.209.209,0,0,1-.2-.217c.171-3.688,3.91-6.934,8-6.946h.029a12.244,12.244,0,0,1,9.214,4.891,7.778,7.778,0,0,1,4.657-7.727,6.637,6.637,0,0,1,5.3.384,5.952,5.952,0,0,1,3.016,3.4,9.682,9.682,0,0,1,12.681,4.415.209.209,0,0,1-.1.28.213.213,0,0,1-.28-.1,9.248,9.248,0,0,0-12.326-4.106.2.2,0,0,1-.184,0,.209.209,0,0,1-.121-.138,5.468,5.468,0,0,0-2.878-3.387,6.207,6.207,0,0,0-4.962-.368,7.385,7.385,0,0,0-4.3,8.024.207.207,0,0,1-.372.159c-2.456-3.341-5.948-5.317-9.344-5.317h-.025c-3.884,0-7.426,3.074-7.589,6.549a.209.209,0,0,1-.217.2Z" transform="translate(-126.491 -88.537)" fill="#d1d3d4"/>
    <path id="Path_733" data-name="Path 733" d="M98.286,261.288H95.709a.209.209,0,1,1,0-.418h2.573a.209.209,0,0,1,.209.209A.213.213,0,0,1,98.286,261.288Z" transform="translate(-32.307 -133.455)" fill="#d1d3d4"/>
    <path id="Path_734" data-name="Path 734" d="M65.031,247.278H60.959a.209.209,0,1,1,0-.418h4.072a.213.213,0,0,1,.209.209A.209.209,0,0,1,65.031,247.278Z" transform="translate(-12.071 -125.297)" fill="#d1d3d4"/>
    <path id="Path_735" data-name="Path 735" d="M153.333,266.488h-2.544a.209.209,0,1,1,0-.418h2.544a.213.213,0,0,1,.209.209A.209.209,0,0,1,153.333,266.488Z" transform="translate(-64.381 -136.483)" fill="#d1d3d4"/>
    <path id="Path_736" data-name="Path 736" d="M195.423,247.278h-3.074a.209.209,0,0,1-.209-.209.213.213,0,0,1,.209-.209h3.074a.209.209,0,0,1,0,.418Z" transform="translate(-88.582 -125.297)" fill="#d1d3d4"/>
    <path id="Path_737" data-name="Path 737" d="M249.5,268.928h-3.341a.209.209,0,0,1,0-.418H249.5a.209.209,0,1,1,0,.418Z" transform="translate(-119.916 -137.904)" fill="#d1d3d4"/>
    <path id="Path_738" data-name="Path 738" d="M288.8,207.571a.192.192,0,0,1-.1-.025.2.2,0,0,1-.088-.28,10.612,10.612,0,0,1,4.077-4.595c1.733-.94,4.323-1.078,5.923.472a.209.209,0,0,1-.288.3,4.785,4.785,0,0,0-5.43-.418,10.159,10.159,0,0,0-3.91,4.407.2.2,0,0,1-.188.138Z" transform="translate(-144.747 -99.156)" fill="#d1d3d4"/>
    <path id="Path_739" data-name="Path 739" d="M63.7,199.793a.213.213,0,0,1-.138-.054c-.8-.706-.518-1.963-.038-2.824a8.086,8.086,0,0,1,8.028-3.922c.681.1,1.374.514,1.278,1.165a.213.213,0,0,1-.238.175.209.209,0,0,1-.175-.234c.058-.393-.539-.635-.927-.693a7.652,7.652,0,0,0-7.619,3.726c-.418.781-.622,1.8-.05,2.306a.213.213,0,0,1,0,.3A.217.217,0,0,1,63.7,199.793Z" transform="translate(-13.415 -93.889)" fill="#d1d3d4"/>
  </g>
</svg>
