<svg xmlns="http://www.w3.org/2000/svg" width="91.662" height="92.057" viewBox="0 0 91.662 92.057">
  <g id="_337_thinking_flatline" data-name="#337_thinking_flatline" transform="translate(-95.17 -35.12)">
    <ellipse id="Ellipse_37" data-name="Ellipse 37" cx="43.172" cy="2.766" rx="43.172" ry="2.766" transform="translate(95.17 121.007)" fill="#d1d3d4"/>
    <path id="Path_416" data-name="Path 416" d="M160.345,93.909a25.128,25.128,0,0,0,2.471-1.685,6.729,6.729,0,0,0,2.687-4.472c.329-1.373-.707-2.667-1.726-3.644s-2.18-2.059-2.2-3.469a8.471,8.471,0,0,1,1.09-3.041c2.176-5.3-3.873-7.638-5.084-12.064s-2.637-8.066-8.058-6.656a18.781,18.781,0,0,1-3.969.832c-1.248.062-2.471-.2-3.711-.216a9.643,9.643,0,0,0-8.466,5.034c-.661,1.248-.27,2.912-.89,3.9-1.627,2.588-5.508,1.955-4.684,6.186.3,1.506.94,3.091.366,4.518-.732,1.818-2.991,2.363-4.576,3.528-2.583,1.905-3.257,5.741-2.022,8.707a11.706,11.706,0,0,0,7.051,6.153,28.269,28.269,0,0,0,9.51,1.248C145.81,98.793,153.852,97.807,160.345,93.909Z" transform="translate(-15.072 -13.694)" fill="#fff"/>
    <path id="Path_417" data-name="Path 417" d="M138,98.734h-.112a28.664,28.664,0,0,1-9.568-1.248,11.853,11.853,0,0,1-7.164-6.24c-1.344-3.228-.449-7.072,2.08-8.936a14.344,14.344,0,0,1,1.664-1c1.211-.653,2.359-1.248,2.829-2.442a5.7,5.7,0,0,0-.146-3.4c-.079-.337-.162-.674-.225-1.007-.545-2.787.869-3.578,2.367-4.418a5.937,5.937,0,0,0,2.342-1.909,4.084,4.084,0,0,0,.4-1.747,5.562,5.562,0,0,1,.483-2.134,9.847,9.847,0,0,1,8.524-5.138h.112a15.927,15.927,0,0,1,1.618.112,14.515,14.515,0,0,0,2.08.1,14.144,14.144,0,0,0,3.049-.607l.886-.241c5.537-1.423,7.026,2.242,8.287,6.81a12.09,12.09,0,0,0,2.725,4.335c1.839,2.184,3.744,4.443,2.35,7.837a8.114,8.114,0,0,1-.416.857,4.734,4.734,0,0,0-.674,2.1c0,1.306,1.115,2.359,2.08,3.291l.054.046c1.477,1.414,2.055,2.662,1.776,3.827a6.874,6.874,0,0,1-2.754,4.576,25.414,25.414,0,0,1-2.5,1.7h0C154.686,97.132,147.431,98.734,138,98.734Zm3.478-39.266a9.456,9.456,0,0,0-8.187,4.93,5.258,5.258,0,0,0-.441,2,4.326,4.326,0,0,1-.453,1.914,6.2,6.2,0,0,1-2.5,2.038c-1.435.8-2.675,1.5-2.184,4.01.067.329.146.657.225.99a5.921,5.921,0,0,1,.129,3.636c-.524,1.3-1.785,1.98-3,2.637a13.985,13.985,0,0,0-1.627.969c-2.4,1.768-3.236,5.408-1.959,8.486a11.463,11.463,0,0,0,6.939,6.044,28.24,28.24,0,0,0,9.447,1.248h.112c9.36,0,16.553-1.585,21.99-4.846h0a25.378,25.378,0,0,0,2.45-1.664,6.494,6.494,0,0,0,2.617-4.368c.245-1.019-.3-2.151-1.664-3.461l-.054-.046c-1.023-.982-2.188-2.08-2.2-3.561a5.1,5.1,0,0,1,.711-2.28c.137-.275.275-.553.391-.832,1.3-3.178-.445-5.25-2.292-7.446a12.331,12.331,0,0,1-2.8-4.48c-1.248-4.526-2.617-7.879-7.825-6.54-.3.075-.587.154-.878.237a14.723,14.723,0,0,1-3.132.624,15.185,15.185,0,0,1-2.138-.1c-.52-.054-1.057-.1-1.585-.112Z" transform="translate(-14.812 -13.457)" fill="#231f20"/>
    <path id="Path_418" data-name="Path 418" d="M125.54,139.009s3.395-18.3,6.789-21.4,12.4-3.1,17.123-3.249,11.648,1.477,14.764,4.576,6.344,22.726,6.344,22.726l-6.494-.74,4.135,10.924s-14.319,7.7-20.962,7.243-17.123-9.447-17.123-9.447l.591-12.106Z" transform="translate(-17.736 -46.269)" fill="#68e1fd"/>
    <path id="Path_419" data-name="Path 419" d="M211.152,146.737h0a.187.187,0,0,1-.179-.2c.291-5.666-1.747-16.673-1.768-16.781a.188.188,0,1,1,.37-.071c0,.112,2.08,11.161,1.776,16.873a.187.187,0,0,1-.2.179Z" transform="translate(-66.595 -55.137)" fill="#231f20"/>
    <path id="Path_420" data-name="Path 420" d="M152.947,142.279a.191.191,0,0,1-.191-.187c0-.083-.129-8.208,1.335-13.487a.2.2,0,0,1,.233-.133.187.187,0,0,1,.133.233c-1.452,5.229-1.323,13.312-1.323,13.379a.191.191,0,0,1-.183.2Z" transform="translate(-33.629 -54.515)" fill="#231f20"/>
    <path id="Path_421" data-name="Path 421" d="M174.458,95.63l.695,6.914s-.337,3.935-4.659,3.153a8.736,8.736,0,0,1-6.057-4.435,5.893,5.893,0,0,1-.1-1.78l-.22-4.056c-.108-2.034-.4-4.16-.333-6.186s0-4.185.079-6.3a.5.5,0,0,1,.1-.345.445.445,0,0,1,.27-.116,4.347,4.347,0,0,1,1.764.046,15.463,15.463,0,0,0-.508-4.256,8.279,8.279,0,0,1,2.733,3.553,21.786,21.786,0,0,1,4.293.212,4.713,4.713,0,0,0-.391-2.912,21.5,21.5,0,0,1,1.664,2.355,5.645,5.645,0,0,0,2.059.27c.333-.3.225-2.288.266-2.762a9.714,9.714,0,0,1,1.947,4.247c.333,1.419.3,7.288.3,8.769A3.409,3.409,0,0,1,174.458,95.63Z" transform="translate(-40.068 -25.2)" fill="#fff"/>
    <path id="Path_422" data-name="Path 422" d="M171.334,105.654a6.27,6.27,0,0,1-1.115-.108A8.857,8.857,0,0,1,164.045,101a3.216,3.216,0,0,1-.125-1.348v-.5L163.7,95.1c-.037-.674-.1-1.369-.15-2.043a37.575,37.575,0,0,1-.187-4.16c.029-.99.033-2.009.037-2.991,0-1.082,0-2.2.042-3.328a.7.7,0,0,1,.15-.474.682.682,0,0,1,.379-.171,4.551,4.551,0,0,1,1.61,0,15.288,15.288,0,0,0-.5-3.977.191.191,0,0,1,.3-.2,8.445,8.445,0,0,1,2.741,3.511,22.33,22.33,0,0,1,4.014.191,4.576,4.576,0,0,0-.416-2.612.191.191,0,0,1,.32-.2,21.334,21.334,0,0,1,1.639,2.346,8.216,8.216,0,0,0,1.81.237,7.124,7.124,0,0,0,.171-1.972v-.649a.187.187,0,0,1,.129-.162.2.2,0,0,1,.2.054,9.755,9.755,0,0,1,1.984,4.335,65.371,65.371,0,0,1,.308,8.091v.72a3.948,3.948,0,0,1-1.248,3.033,3.4,3.4,0,0,1-2.608.807l.67,6.685a4.11,4.11,0,0,1-1.456,2.75A3.715,3.715,0,0,1,171.334,105.654Zm-6.569-23.392a3.944,3.944,0,0,0-.736.067.349.349,0,0,0-.166.058.374.374,0,0,0-.046.225c-.042,1.1-.042,2.217-.046,3.295,0,.986,0,2.005-.037,3a38.018,38.018,0,0,0,.187,4.123c.054.674.112,1.373.15,2.051l.216,4.052v.537a3.112,3.112,0,0,0,.083,1.173,8.474,8.474,0,0,0,5.916,4.331,3.842,3.842,0,0,0,3.124-.537,3.781,3.781,0,0,0,1.31-2.442l-.691-6.885a.179.179,0,0,1,.058-.154.2.2,0,0,1,.158-.054,3.1,3.1,0,0,0,2.542-.686,3.594,3.594,0,0,0,1.132-2.75v-.72a64.6,64.6,0,0,0-.3-8,10.1,10.1,0,0,0-1.581-3.773v.108c0,1.136-.033,2.022-.316,2.276s-1.951-.1-2.192-.191a.275.275,0,0,1-.171-.141c-.287-.474-.595-.94-.919-1.389a4.876,4.876,0,0,1,.025,1.9.187.187,0,0,1-.212.154,21.769,21.769,0,0,0-4.26-.208.175.175,0,0,1-.183-.121,8.083,8.083,0,0,0-2.238-3.128,15.917,15.917,0,0,1,.379,3.744.2.2,0,0,1-.075.146.187.187,0,0,1-.162.037A4.023,4.023,0,0,0,164.765,82.263Z" transform="translate(-39.826 -24.878)" fill="#231f20"/>
    <path id="Path_423" data-name="Path 423" d="M180.762,121.22a6.675,6.675,0,0,1-4.78-1.315,4.875,4.875,0,0,1-1.893-3.615,13.522,13.522,0,0,0,6.39,1.527Z" transform="translate(-46.089 -47.403)" fill="#231f20"/>
    <path id="Path_424" data-name="Path 424" d="M179.784,121.2a6.452,6.452,0,0,1-4.16-1.4,5,5,0,0,1-1.955-3.744.183.183,0,0,1,.27-.154,13.634,13.634,0,0,0,6.29,1.506.183.183,0,0,1,.2.166l.283,3.4a.187.187,0,0,1-.158.2A6.234,6.234,0,0,1,179.784,121.2Zm-5.741-4.855a4.967,4.967,0,0,0,1.81,3.166,6.436,6.436,0,0,0,4.464,1.29l-.25-3.045A13.168,13.168,0,0,1,174.043,116.35Z" transform="translate(-45.842 -47.168)" fill="#231f20"/>
    <path id="Path_425" data-name="Path 425" d="M182.738,100.619a5.127,5.127,0,0,1-.691-.05.187.187,0,0,1-.154-.212.183.183,0,0,1,.212-.154c.391.062,1.481.129,1.818-.312.229-.308-.878-2.08-2.08-3.519a.184.184,0,1,1,.287-.229c.616.757,2.592,3.282,2.08,3.969A1.849,1.849,0,0,1,182.738,100.619Z" transform="translate(-50.594 -35.597)" fill="#231f20"/>
    <path id="Path_426" data-name="Path 426" d="M161.57,91.554a6.556,6.556,0,0,0-1.51-2.226,2.222,2.222,0,0,0-2.5-.362,2.771,2.771,0,0,0-.944,2.671,10.9,10.9,0,0,0,.915,3.261,3.914,3.914,0,0,0,1.111,1.639,1.535,1.535,0,0,0,1.851.087" transform="translate(-35.874 -31.303)" fill="#fff"/>
    <path id="Path_427" data-name="Path 427" d="M159.374,96.77a2.018,2.018,0,0,1-1.173-.416,4.1,4.1,0,0,1-1.169-1.718,10.978,10.978,0,0,1-.932-3.328c-.058-.632-.079-2.172,1.036-2.854a2.434,2.434,0,0,1,2.733.379,6.714,6.714,0,0,1,1.56,2.288.191.191,0,1,1-.341.166,6.427,6.427,0,0,0-1.464-2.163,2.044,2.044,0,0,0-2.288-.345c-.961.587-.9,2.055-.857,2.5a10.487,10.487,0,0,0,.9,3.2,3.744,3.744,0,0,0,1.052,1.564,1.352,1.352,0,0,0,1.614.092.187.187,0,0,1,.266.025.191.191,0,0,1-.021.266A1.419,1.419,0,0,1,159.374,96.77Z" transform="translate(-35.57 -30.987)" fill="#231f20"/>
    <ellipse id="Ellipse_38" data-name="Ellipse 38" cx="0.408" cy="1.032" rx="0.408" ry="1.032" transform="translate(128.396 59.419)" fill="#231f20"/>
    <ellipse id="Ellipse_39" data-name="Ellipse 39" cx="0.408" cy="1.032" rx="0.408" ry="1.032" transform="translate(134.557 59.198)" fill="#231f20"/>
    <path id="Path_428" data-name="Path 428" d="M146.263,113.172s1.785-5.025.928-6.415-3.241-2.708-3.7-3.964.329-4.3-.661-4.63-1.718,2.5-.99,4.759a5.207,5.207,0,0,1-1.127-2.708c0-1.323.861-2.974-.067-3.374s-2.38,2.646-2.047,5.092,3.436,5.882,3.241,6.544-17.189,17.143-18.72,19.843c-1.423,2.5-.537,8.124,4.356,7.53S142.96,121.7,146.263,113.172Z" transform="translate(-15.962 -36.024)" fill="#fff"/>
    <path id="Path_429" data-name="Path 429" d="M126.469,135.82a4.035,4.035,0,0,1-3.532-1.839,6.282,6.282,0,0,1-.279-6.015c.957-1.664,7.534-8.32,12.817-13.682,2.954-3,5.745-5.824,5.9-6.136a7.2,7.2,0,0,0-1.007-1.814,13.218,13.218,0,0,1-2.242-4.638c-.27-1.993.62-4.439,1.535-5.133a.745.745,0,0,1,.774-.158c.753.324.562,1.248.374,2.18a7.031,7.031,0,0,0-.191,1.369,3.823,3.823,0,0,0,.516,1.718,5.1,5.1,0,0,1,.7-3.744.724.724,0,0,1,.765-.216c.716.237.682,1.414.649,2.654a6.523,6.523,0,0,0,.133,2.08,6.472,6.472,0,0,0,1.81,2,9.6,9.6,0,0,1,1.876,1.934c.894,1.448-.832,6.369-.911,6.577h0a59.956,59.956,0,0,1-8.84,14.364c-4.123,5.079-7.812,8.154-10.121,8.432A5.709,5.709,0,0,1,126.469,135.82ZM140.2,96.737a.528.528,0,0,0-.3.125c-.745.566-1.664,2.825-1.389,4.784a13.337,13.337,0,0,0,2.188,4.484c.778,1.2,1.148,1.8,1.044,2.138s-1.71,1.943-5.99,6.282c-4.992,5.05-11.827,11.972-12.759,13.6a5.886,5.886,0,0,0,.27,5.62,3.8,3.8,0,0,0,3.9,1.627c4.821-.587,15.392-14.144,18.649-22.556.491-1.377,1.61-5.175.944-6.24a9.336,9.336,0,0,0-1.8-1.847,6.6,6.6,0,0,1-1.918-2.155,6.818,6.818,0,0,1-.158-2.226c.029-1,.062-2.138-.387-2.284a.361.361,0,0,0-.374.125c-.616.607-.919,2.7-.374,4.393a.191.191,0,0,1-.329.179,5.372,5.372,0,0,1-1.165-2.829,7.259,7.259,0,0,1,.2-1.444c.2-.965.283-1.568-.15-1.756a.278.278,0,0,0-.108-.025Zm5.791,16.174Z" transform="translate(-15.682 -35.762)" fill="#231f20"/>
    <path id="Path_430" data-name="Path 430" d="M187.566,114.637s-1.785-5.025-.907-6.423c.786-1.248,2.188-2,3.145-3.116,1.011-1.186.869-3.249,1.444-4.713.116-.3.37-.657.674-.545a.6.6,0,0,1,.283.3,9.381,9.381,0,0,1,.882,2.875,13.188,13.188,0,0,1,.316,2.612,6.482,6.482,0,0,1-.466,2.313c-.183.466-1.077,1.481-.924,2a21.642,21.642,0,0,0,3.174,6.348c1.851,2.313,11.311,11.394,12.638,17.152.7,3.033.245,6.681-4.647,6.086S190.873,123.165,187.566,114.637Z" transform="translate(-53.288 -37.784)" fill="#fff"/>
    <path id="Path_431" data-name="Path 431" d="M203.9,139.519a9,9,0,0,1-1.028-.062c-5.025-.612-12.48-16.64-15.746-25.014h0c-.075-.208-1.805-5.125-.907-6.577a8.291,8.291,0,0,1,1.822-1.893,10.892,10.892,0,0,0,1.34-1.248,5.762,5.762,0,0,0,.948-2.746,10.246,10.246,0,0,1,.462-1.909c.158-.416.491-.832.919-.657a.778.778,0,0,1,.383.383,9.335,9.335,0,0,1,.9,2.912,12.791,12.791,0,0,1,.32,2.654,6.627,6.627,0,0,1-.474,2.38,4.613,4.613,0,0,1-.366.628c-.254.391-.632.982-.553,1.248a21.446,21.446,0,0,0,3.137,6.282c.391.487,1.119,1.273,2.043,2.271,3.582,3.881,9.568,10.371,10.637,14.955.3,1.315.612,3.744-.716,5.221A3.987,3.987,0,0,1,203.9,139.519Zm-16.42-25.21c3.744,9.66,10.945,24.224,15.438,24.769,1.756.212,3.037-.116,3.815-.982,1.215-1.348.915-3.632.628-4.876-1.036-4.468-7.238-11.186-10.566-14.78-.928-1.007-1.664-1.8-2.055-2.3a21.736,21.736,0,0,1-3.207-6.411c-.129-.416.258-1.032.6-1.56a4.083,4.083,0,0,0,.333-.557,6.361,6.361,0,0,0,.449-2.251,13.119,13.119,0,0,0-.312-2.575,9.152,9.152,0,0,0-.857-2.812c-.054-.092-.117-.187-.187-.212-.166-.062-.354.233-.416.437a9.842,9.842,0,0,0-.441,1.839,5.928,5.928,0,0,1-1.036,2.912,11.259,11.259,0,0,1-1.381,1.294,7.663,7.663,0,0,0-1.743,1.8C185.872,109.134,186.991,112.945,187.478,114.31Z" transform="translate(-53.021 -37.523)" fill="#231f20"/>
    <path id="Path_432" data-name="Path 432" d="M128.106,188.863s-18.158-17.123-25.834-13.728-7.525,13.137-3.395,18.745,19.485,10.184,32.182,9.006,30.256-5.907,33.654-10.333.882-11.81-5.167-13.728S137.995,189.3,128.106,188.863Z" transform="translate(-0.522 -81.509)" fill="#231f20"/>
    <path id="Path_433" data-name="Path 433" d="M126.736,202.991c-11.507,0-24.436-4.068-28.259-9.26a14.8,14.8,0,0,1-2.434-12.11,10.192,10.192,0,0,1,5.9-6.914c7.571-3.328,24.71,12.53,25.979,13.728,4.992.2,11.536-2.941,17.322-5.708,5.687-2.716,11.053-5.292,14.1-4.322a9.847,9.847,0,0,1,6.381,6.444,8.226,8.226,0,0,1-1.123,7.571c-3.378,4.4-20.933,9.206-33.783,10.4C129.478,202.933,128.126,202.991,126.736,202.991Zm-22.406-28.375a5.508,5.508,0,0,0-2.238.416,9.838,9.838,0,0,0-5.7,6.656,14.446,14.446,0,0,0,2.375,11.8c4.218,5.728,19.777,10.067,32.011,8.932,12.779-1.19,30.206-5.932,33.53-10.263a7.85,7.85,0,0,0,1.065-7.234,9.472,9.472,0,0,0-6.144-6.207c-2.912-.919-8.208,1.618-13.828,4.306-5.853,2.8-12.48,5.965-17.564,5.741a.187.187,0,0,1-.116-.05C127.56,188.581,112.642,174.615,104.331,174.615Z" transform="translate(-0.267 -81.251)" fill="#231f20"/>
    <path id="Path_434" data-name="Path 434" d="M138.644,214.344l11.744,5.666,5.258-13.283s-16.827-11.814-20.962-8.411S137.313,213.313,138.644,214.344Z" transform="translate(-22.304 -94.947)" fill="#231f20"/>
    <path id="Path_435" data-name="Path 435" d="M150.134,219.97a.17.17,0,0,1-.079,0L138.312,214.3l-.033-.021c-1.061-.832-5.287-7.829-5.35-12.667a4.362,4.362,0,0,1,1.385-3.648c4.193-3.444,20.492,7.9,21.183,8.4a.187.187,0,0,1,.067.216l-5.258,13.27a.187.187,0,0,1-.171.112Zm-11.648-6,11.548,5.57,5.133-12.963c-1.51-1.044-16.819-11.465-20.621-8.32a4.09,4.09,0,0,0-1.248,3.361C133.374,206.209,137.463,213.135,138.486,213.967Z" transform="translate(-22.051 -94.724)" fill="#231f20"/>
    <path id="Path_436" data-name="Path 436" d="M185.51,236.54s8.025,2.662,15.5,1.548c8.416-1.248,10.924-5.017,6.656-8.412s-21.7-.516-21.7-.516Z" transform="translate(-52.759 -112.654)" fill="#68e1fd"/>
    <path id="Path_437" data-name="Path 437" d="M196.889,238.27a42.282,42.282,0,0,1-11.71-1.83.191.191,0,0,1-.129-.191l.445-7.38a.187.187,0,0,1,.158-.175c.711-.121,17.551-2.854,21.848.553,1.693,1.344,2.4,2.783,2.03,4.16-.582,2.172-3.777,3.848-8.765,4.576A26.488,26.488,0,0,1,196.889,238.27Zm-11.444-2.147c1.1.341,8.461,2.5,15.275,1.5,4.83-.72,7.9-2.292,8.449-4.314.329-1.219-.329-2.517-1.9-3.744-3.96-3.141-19.689-.774-21.4-.5Z" transform="translate(-52.49 -112.375)" fill="#231f20"/>
    <path id="Path_438" data-name="Path 438" d="M175.94,237.368s6.931,2.184,8.262-1.8-1.552-4.356-5.167-5.167Z" transform="translate(-47.17 -114.044)" fill="#fff"/>
    <path id="Path_439" data-name="Path 439" d="M179.568,237.873H179.3a15.128,15.128,0,0,1-3.682-.6.183.183,0,0,1-.116-.1.166.166,0,0,1,0-.154l3.108-6.951a.187.187,0,0,1,.216-.108l.624.137c2.13.47,3.973.874,4.7,2.147a4,4,0,0,1,0,3.124C183.561,237.041,181.993,237.873,179.568,237.873Zm-3.632-.907c1.144.312,6.689,1.664,7.817-1.739a3.5,3.5,0,0,0,.05-2.82c-.641-1.123-2.409-1.514-4.451-1.964l-.474-.1Z" transform="translate(-46.904 -113.779)" fill="#231f20"/>
    <path id="Path_440" data-name="Path 440" d="M121.846,224.35a.229.229,0,0,1-.1-.029c-.087-.058-9.015-5.558-14.144-7.85a.189.189,0,1,1,.154-.345c5.158,2.3,14.1,7.817,14.194,7.871a.187.187,0,0,1,.062.262A.2.2,0,0,1,121.846,224.35Z" transform="translate(-7.194 -105.698)" fill="#fff"/>
    <path id="Path_441" data-name="Path 441" d="M123.529,228.148s-3.744-.736-4.726,2.08,0,8.32,2.5,9.3,6.348-3.024,7.825-3.395,5.271-1.876,5.271-1.876Z" transform="translate(-13.582 -112.678)" fill="#68e1fd"/>
    <path id="Path_442" data-name="Path 442" d="M121.908,239.6a2.567,2.567,0,0,1-.919-.162c-2.683-1.028-3.594-6.7-2.621-9.539,1-2.912,4.9-2.2,4.938-2.192l.058.021,10.878,6.094a.175.175,0,0,1,.1.179.187.187,0,0,1-.116.162c-.158.062-3.823,1.518-5.3,1.889a8.761,8.761,0,0,0-2.038,1.211C125.357,238.323,123.51,239.6,121.908,239.6Zm.308-11.6c-1.136,0-2.912.3-3.49,2.022a10.392,10.392,0,0,0-.037,5.237c.47,2.018,1.36,3.411,2.438,3.823,1.589.607,3.781-.915,5.545-2.138a8.2,8.2,0,0,1,2.163-1.248c1.177-.3,3.881-1.335,4.871-1.726l-10.5-5.878A6.416,6.416,0,0,0,122.216,228Z" transform="translate(-13.326 -112.424)" fill="#231f20"/>
    <path id="Path_443" data-name="Path 443" d="M165.723,207.758h-.062a.187.187,0,0,1-.116-.241l1.2-3.486c-.865-.89-8.4-8.632-13.52-12.388a.189.189,0,1,1,.225-.3c5.433,3.985,13.566,12.426,13.649,12.513a.183.183,0,0,1,.042.191l-1.248,3.6a.187.187,0,0,1-.166.117Z" transform="translate(-33.858 -91.21)" fill="#fff"/>
    <path id="Path_444" data-name="Path 444" d="M180.241,109.862a5.479,5.479,0,0,1-2.721-.736.179.179,0,0,1-.054-.254.183.183,0,0,1,.254-.054,4.93,4.93,0,0,0,4.83.067.183.183,0,0,1,.179.32,5.054,5.054,0,0,1-2.488.657Z" transform="translate(-48.043 -43.022)" fill="#231f20"/>
    <path id="Path_445" data-name="Path 445" d="M227.029,40.843a5.562,5.562,0,0,0-2.217,1.7c-2.721,3.465-.965,7.392,1.194,10.65,2.321,3.5,7.771,3.182,11.486,1.8,1.747,2.292,5.3,3.232,8.382,2.5a10.08,10.08,0,0,0,6.577-5.3c.715,1.248,2.687,1.718,4.264,1.306a6.407,6.407,0,0,0,2.172-11.378,3.542,3.542,0,0,0-4.085-.158,5.359,5.359,0,0,0-3.424-3.744c-.5-.162-5.034-.316-4.647.225a8,8,0,0,0-6.307-2.875,12.829,12.829,0,0,0-6.922,2.08,9.119,9.119,0,0,0-2.912,2.692,7.592,7.592,0,0,0-3.561.512Z" transform="translate(-74.9 -0.257)" fill="#fff"/>
    <path id="Path_446" data-name="Path 446" d="M243.473,57.68a8.218,8.218,0,0,1-6.332-2.7c-4.035,1.452-9.339,1.464-11.59-1.934-1.909-2.887-4.114-7.164-1.181-10.908a5.72,5.72,0,0,1,2.3-1.76h0a7.754,7.754,0,0,1,3.548-.528,9.5,9.5,0,0,1,2.912-2.654,13.171,13.171,0,0,1,7.035-2.08,8.281,8.281,0,0,1,6.286,2.716,6.279,6.279,0,0,1,2.28-.22,14.393,14.393,0,0,1,2.45.162,5.6,5.6,0,0,1,3.49,3.569,3.889,3.889,0,0,1,4.077.345,6.706,6.706,0,0,1,2.587,6.656,6.431,6.431,0,0,1-4.834,5.1,4.331,4.331,0,0,1-4.289-1.1,10.242,10.242,0,0,1-6.552,5.088A9.152,9.152,0,0,1,243.473,57.68Zm-6.261-3.153a.212.212,0,0,1,.166.083c1.639,2.147,5.071,3.162,8.166,2.409a9.83,9.83,0,0,0,6.44-5.183.208.208,0,0,1,.183-.116.212.212,0,0,1,.187.1c.691,1.215,2.629,1.572,4.027,1.211a6.007,6.007,0,0,0,4.526-4.776,6.278,6.278,0,0,0-2.421-6.24,3.353,3.353,0,0,0-3.827-.166.212.212,0,0,1-.208.037.208.208,0,0,1-.133-.158,5.115,5.115,0,0,0-3.282-3.565,16.4,16.4,0,0,0-4.376,0,.208.208,0,0,1-.379.133,7.762,7.762,0,0,0-6.14-2.787,12.709,12.709,0,0,0-6.806,2.055A8.94,8.94,0,0,0,230.5,40.2a.22.22,0,0,1-.191.1,7.33,7.33,0,0,0-3.478.487,5.271,5.271,0,0,0-2.13,1.635c-2.737,3.486-.795,7.392,1.2,10.4,2.151,3.249,7.334,3.17,11.232,1.718a.237.237,0,0,1,.079,0Z" transform="translate(-74.621 0)" fill="#d1d3d4"/>
    <path id="Path_447" data-name="Path 447" d="M243.736,91.982a3.1,3.1,0,0,1,1.514-.129,2.117,2.117,0,0,1,1.581.782c.324.512.05,1.381-.557,1.389a1.674,1.674,0,0,1,2.2,1.123c.5,1.909-1.968,3.1-3.573,2.979a11.453,11.453,0,0,0-2.38-.329c-1.46.2-2.5.358-3.594-.953a2.994,2.994,0,0,1,1.951-4.426c.233-.033,2.018.2,1.889.624a1.635,1.635,0,0,1,.965-1.061Z" transform="translate(-83.674 -33.108)" fill="#fff"/>
    <path id="Path_448" data-name="Path 448" d="M244.832,98.073a2.143,2.143,0,0,1-.233,0,6.327,6.327,0,0,1-.978-.179,3.673,3.673,0,0,0-1.356-.154c-1.477.208-2.625.37-3.781-1.023a2.883,2.883,0,0,1,.121-3.461,2.85,2.85,0,0,1,1.959-1.306,4.576,4.576,0,0,1,1.872.416,1.851,1.851,0,0,1,.932-.832h0a3.257,3.257,0,0,1,1.618-.137,2.336,2.336,0,0,1,1.731.874,1.248,1.248,0,0,1,.046,1.177,1.839,1.839,0,0,1,.553.154,1.943,1.943,0,0,1,1.073,1.248,2.08,2.08,0,0,1-.449,1.909,4.31,4.31,0,0,1-3.107,1.315Zm-2.284-.774a4.992,4.992,0,0,1,1.181.183,5.7,5.7,0,0,0,.911.166,3.823,3.823,0,0,0,2.991-1.181A1.639,1.639,0,0,0,248,94.928a1.535,1.535,0,0,0-.832-.965,1.344,1.344,0,0,0-.74-.121.77.77,0,0,1-.416.121.2.2,0,0,1-.2-.158.216.216,0,0,1,.112-.237,1.377,1.377,0,0,1,.341-.116.6.6,0,0,0,.137-.175.832.832,0,0,0,0-.8,1.869,1.869,0,0,0-1.431-.686,2.841,2.841,0,0,0-1.414.112h0a1.46,1.46,0,0,0-.832.932.208.208,0,0,1-.4-.121,4.434,4.434,0,0,0-1.664-.362A2.454,2.454,0,0,0,239,93.48a2.488,2.488,0,0,0-.146,2.962c1.011,1.215,1.955,1.082,3.382.882A2.573,2.573,0,0,1,242.548,97.3Zm.911-5.587Z" transform="translate(-83.385 -32.839)" fill="#d1d3d4"/>
    <path id="Path_449" data-name="Path 449" d="M229.41,107.049a1.835,1.835,0,0,0-1.248-.075,1.048,1.048,0,0,0-.732.932.745.745,0,0,0,.832.736c-.973.636,1.115,2.3,2.038.524a1.473,1.473,0,0,0-.89-2.117Z" transform="translate(-77.24 -41.919)" fill="#fff"/>
    <path id="Path_450" data-name="Path 450" d="M228.9,109.911a1.294,1.294,0,0,1-.179,0,1.394,1.394,0,0,1-1.169-.928.7.7,0,0,1,.033-.416.89.89,0,0,1-.25-.146.986.986,0,0,1-.374-.753,1.248,1.248,0,0,1,.874-1.127,2.055,2.055,0,0,1,1.377.075h0a1.868,1.868,0,0,1,1.094,1.023A1.631,1.631,0,0,1,230.2,109,1.493,1.493,0,0,1,228.9,109.911Zm-.907-1.735a.2.2,0,0,1,.191.125.208.208,0,0,1-.079.254.287.287,0,0,0-.15.32.99.99,0,0,0,.832.612,1.057,1.057,0,0,0,1.069-.674,1.211,1.211,0,0,0,.087-1.023,1.439,1.439,0,0,0-.865-.807h0a1.7,1.7,0,0,0-1.1-.071.832.832,0,0,0-.591.736.562.562,0,0,0,.22.416.416.416,0,0,0,.349.1Z" transform="translate(-76.965 -41.661)" fill="#d1d3d4"/>
    <path id="Path_451" data-name="Path 451" d="M271.68,144.6a5.025,5.025,0,0,0-.578-2.725,20.305,20.305,0,0,1-1.223-1.726c-.516-1.107-.154-2.409-.275-3.623a4.576,4.576,0,0,0-1.273-2.7c-.636-.641-1.456-1.082-2.08-1.751-.994-1.1-1.281-2.646-1.847-4.014a10.022,10.022,0,0,0-3.977-4.684c1.086,2.184-1.385,4.959-.266,7.126.354.686,1.032,1.186,1.294,1.914.628,1.756-1.468,3.661-.795,5.408.333.869,1.248,1.373,1.7,2.2.587,1.111.125,2.459.175,3.715a6.846,6.846,0,0,0,2.371,4.48c.778.749,1.664,1.394,2.5,2.08,1.007.832,1.431,1.664,2.321.362a11.153,11.153,0,0,0,1.959-6.057Z" transform="translate(-96.181 -51.538)" fill="#d1d3d4"/>
    <path id="Path_452" data-name="Path 452" d="M290.528,149.116a6.4,6.4,0,0,1,0-4.06c.616-1.431,2.155-2.442,2.338-3.989.116-1.011-.416-2.038-.2-3.041a5.648,5.648,0,0,1,1.693-2.421,10.125,10.125,0,0,0,2.617-6.194,15.686,15.686,0,0,1,2.5,4.123,5.262,5.262,0,0,1-.362,4.647,4.159,4.159,0,0,0-.632,1.032c-.3.986.541,1.909.978,2.845a3.27,3.27,0,0,1-.308,3.357c-.886,1.107-2.6,1.535-3.028,2.883a6.658,6.658,0,0,0-.154,1.527,4.48,4.48,0,0,1-3.224,3.844c-1.048.254-1.028-.162-1.215-1.04C291.256,151.441,290.8,150.3,290.528,149.116Z" transform="translate(-113.893 -55.065)" fill="#d1d3d4"/>
    <path id="Path_453" data-name="Path 453" d="M277.014,134.443c-.745-2.575-1.04-5.267-1.826-7.829a43.337,43.337,0,0,0-2.438-5.824l3.195,1.348a4.61,4.61,0,0,1,2.617,1.943c.832,1.743-.67,3.973.212,5.7a17.056,17.056,0,0,0,1.248,1.589,5.24,5.24,0,0,1,.279,4.672c-.22.661-1.186,4.077-2.051,3.128-.349-.379-.379-1.8-.524-2.313C277.5,136.032,277.23,135.246,277.014,134.443Z" transform="translate(-103.707 -50.031)" fill="#d1d3d4"/>
    <path id="Path_454" data-name="Path 454" d="M283.43,208.791c-.632-4.206-2.629-19.04-2.65-19.19l.549-.071c0,.15,2.013,14.976,2.65,19.182Z" transform="translate(-108.396 -90.176)" fill="#d1d3d4"/>
    <path id="Path_455" data-name="Path 455" d="M288.223,209.725h-.553c.037-4.992,2.122-24.095,3.328-25.405l.416.37C290.586,185.556,288.257,202.882,288.223,209.725Z" transform="translate(-112.42 -87.133)" fill="#d1d3d4"/>
    <path id="Path_456" data-name="Path 456" d="M288.214,195.778l-.553-.025c.478-10.774-1.805-33.4-1.83-33.625l.549-.058C286.4,162.3,288.692,184.962,288.214,195.778Z" transform="translate(-111.346 -74.139)" fill="#d1d3d4"/>
    <path id="Path_457" data-name="Path 457" d="M274,211.45h11.889l-.832,12.035a3.969,3.969,0,0,1-3.96,3.7h-2.3a3.973,3.973,0,0,1-3.964-3.7Z" transform="translate(-104.437 -102.977)" fill="#fff"/>
    <path id="Path_458" data-name="Path 458" d="M280.822,227.128h-2.3a4.2,4.2,0,0,1-4.16-3.89L273.53,211.2a.22.22,0,0,1,.058-.158.208.208,0,0,1,.137-.046h11.889a.208.208,0,0,1,.208.225l-.832,12.035A4.193,4.193,0,0,1,280.822,227.128Zm-6.872-15.712.832,11.814a3.777,3.777,0,0,0,3.744,3.5h2.3a3.773,3.773,0,0,0,3.744-3.5l.832-11.814Z" transform="translate(-104.162 -102.714)" fill="#d1d3d4"/>
  </g>
</svg>
