<svg xmlns="http://www.w3.org/2000/svg" width="176" height="97" fill="none" viewBox="0 0 176 97">
  <path fill="#F4A17C" fill-rule="evenodd" d="M.595 48.798C5.096 57.487 12.1 71.007 36.5 66.816c19.643-3.374 25.44 7.113 30.876 16.947.875 1.583 1.741 3.148 2.653 4.637 1.442 2.352 4.081 3.6 6.84 3.6H99.13c2.759 0 5.398-1.248 6.84-3.6.912-1.489 1.778-3.054 2.653-4.637 5.436-9.834 11.233-20.321 30.876-16.947 24.399 4.19 31.404-9.33 35.905-18.018a5.3 5.3 0 0 0 .595-2.434V7.476c0-6.416-6.522-10.77-12.448-8.313L91.448 29.07a9 9 0 0 1-6.896 0L12.448-.837C6.522-3.295 0 1.06 0 7.476v38.888c0 .847.205 1.682.595 2.434Z" clip-rule="evenodd"/>
  <path fill="#F5E2D5" d="M104.252 10.293s1.062.118 1.971.931c.909.814 1.748-1.26.243-1.683a1.938 1.938 0 0 0-2.214.752Zm-1.01-.095s.694-.806 1.883-1.096c1.188-.29-.075-2.14-1.272-1.144-1.194.998-.611 2.24-.611 2.24ZM89.38 15.014s-.738.765-.909 1.968c-.17 1.2-2.157.144-1.277-1.137.878-1.28 2.186-.831 2.186-.831Zm.715-.714s-1.054-.177-2.154.357c-1.1.534-1.329-1.688.235-1.686a1.926 1.926 0 0 1 1.92 1.33Zm15.308 7.018c2.304-3.76 1.096-8.659-2.699-10.942-3.794-2.283-8.738-1.085-11.042 2.675-2.304 3.76-1.096 8.659 2.699 10.941 3.795 2.283 8.739 1.086 11.042-2.674Z"/>
  <path fill="#3F4553" d="M92.303 15.827a.313.313 0 0 1-.354-.151.305.305 0 0 1 .127-.416l2.001-1.07-1.341-.046a.31.31 0 0 1-.3-.318.31.31 0 0 1 .32-.298l2.487.085a.307.307 0 0 1 .137.58l-3.012 1.609a.475.475 0 0 1-.064.025Zm10.716-2.92c-.023.005-.046.01-.072.01l-3.27.103a.312.312 0 0 1-.309-.218.307.307 0 0 1 .132-.352l2.209-1.365a.312.312 0 0 1 .427.098.305.305 0 0 1-.098.423l-1.23.76 2.118-.067a.31.31 0 0 1 .321.298.313.313 0 0 1-.228.31Zm-10.85 4.306c1.704 3.112 4.728 4.886 7.515 4.126 2.783-.76 4.469-3.818 4.327-7.354l-1.075.11a31.063 31.063 0 0 0-9.92 2.725l-.847.393Z"/>
  <path fill="#4E5567" d="M103.092 17.98c-1.207-.392-2.732-.426-4.288 0-1.588.434-2.9 1.258-3.732 2.232 1.411.906 3.007 1.255 4.532.84 1.543-.424 2.745-1.55 3.488-3.072Z"/>
  <path fill="#F5E2D5" d="M49.675 48.289c1.23-4.226-1.229-8.641-5.494-9.861-4.265-1.22-8.721 1.218-9.952 5.444-1.231 4.226 1.229 8.64 5.494 9.86 4.265 1.22 8.72-1.217 9.952-5.443Z"/>
  <path fill="#3F4553" d="M37.845 41.245a.307.307 0 0 1 .168-.588l2.245.36-1.036-.845a.307.307 0 0 1-.041-.433.314.314 0 0 1 .438-.041l1.921 1.568a.306.306 0 0 1 .085.364.31.31 0 0 1-.331.177l-3.38-.539c-.025-.008-.049-.013-.07-.023Zm10.296 4.144a.315.315 0 0 1-.065-.036l-2.657-1.891a.308.308 0 0 1 .213-.557l2.59.249c.17.015.295.167.279.336a.31.31 0 0 1-.34.277l-1.442-.138 1.722 1.224c.14.1.171.29.07.428a.31.31 0 0 1-.37.108Zm-5.176 4.039c-1.174 0-2.22-.262-3.131-.783-2.4-1.373-2.955-4.036-2.978-4.15a.388.388 0 0 1 .761-.149c.005.024.515 2.441 2.613 3.637 1.528.872 3.527.9 5.943.085a.386.386 0 1 1 .249.728c-1.251.419-2.406.632-3.457.632Z"/>
  <path fill="#F5E2D5" d="M90.447 70.808a8.7 8.7 0 0 0 0-12.385c-3.452-3.42-9.047-3.42-12.499 0a8.7 8.7 0 0 0 0 12.385c3.452 3.42 9.047 3.42 12.499 0Z"/>
  <path fill="#3F4553" d="M79.219 67.48s5.684-3.214 11.16-3.992c0 0 1.572 5.132-3.664 7.118-4.54 1.722-7.496-3.125-7.496-3.125Zm1.121-2.473a.52.52 0 0 1-.461-.277l-1.29-2.468a.512.512 0 0 1 .223-.693.522.522 0 0 1 .7.22l1.289 2.47a.512.512 0 0 1-.461.748Zm6.873-2.471a.516.516 0 0 1-.505-.405l-.601-2.81a.517.517 0 0 1 1.013-.213l.6 2.81a.513.513 0 0 1-.507.618Z"/>
  <path fill="#4E5567" d="M88.106 69.582c-.477-1.162-2.142-1.637-3.768-1.057-.901.323-1.6.903-1.981 1.558 1.178.587 2.644.852 4.327.213a7.247 7.247 0 0 0 1.422-.714Z"/>
  <path fill="#F5E2D5" d="M135.328 41.917c4.485-1.909 6.559-7.059 4.632-11.503-1.926-4.444-7.124-6.498-11.609-4.59-4.484 1.91-6.558 7.06-4.632 11.503 1.927 4.444 7.125 6.5 11.609 4.59Z"/>
  <path fill="#3F4553" d="M132.967 35.82c-3.053 0-5.37-1.76-5.404-1.785a.255.255 0 0 1-.044-.36.26.26 0 0 1 .362-.043c.187.144 4.618 3.497 9.232.367a.262.262 0 0 1 .36.067.255.255 0 0 1-.067.356c-1.533 1.04-3.061 1.399-4.439 1.399Zm2.52-4.649c0 .54-.212.978-.477.978-.264 0-.476-.436-.476-.978 0-.541.212-.977.476-.977.265 0 .477.439.477.977Zm-4.576-.187c0 .539-.212.978-.476.978s-.477-.436-.477-.978c0-.539.213-.978.477-.978s.476.437.476.978Z"/>
  <path fill="#F4A17C" d="M109.489 94.877c11.911 0 21.567-2.162 21.567-4.829s-9.656-4.829-21.567-4.829c-11.91 0-21.567 2.162-21.567 4.83 0 2.666 9.656 4.828 21.567 4.828Z"/>
  <path fill="#F4A17C" d="M109.489 94.877c11.911 0 21.567-2.162 21.567-4.829s-9.656-4.829-21.567-4.829c-11.91 0-21.567 2.162-21.567 4.83 0 2.666 9.656 4.828 21.567 4.828Z" opacity=".5"/>
  <path fill="#3F4553" d="M107.82 26.211s-1.652-.148-1.802-1.637c-.15-1.488 3.757-3.35 6.236-3.425 2.48-.075 4.883 2.607 4.883 4.765 0 2.158.376 5.211 2.253 5.806 1.878.596 3.157 4.244 2.028 5.584-1.126 1.34-1.051 1.34.075 2.532 1.127 1.19.15 3.277-.601 3.723-.751.447-3.006 1.117-8.04.67-5.034-.446-8.041-4.988-8.266-6.85-.225-1.861 1.502-3.129 2.103-3.947.6-.819-.451-1.488-.376-2.384.075-.893 1.202-1.637 1.502-2.384.306-.741.005-2.453.005-2.453Z"/>
  <path fill="#3F4553" d="M115.928 44.504a34.84 34.84 0 0 1-3.084-.15c-5.278-.469-8.173-5.231-8.383-6.96-.184-1.51.852-2.623 1.606-3.436.212-.229.393-.426.523-.6.303-.416.119-.788-.093-1.222-.169-.339-.34-.688-.306-1.096.047-.567.466-1.054.873-1.524.269-.313.523-.608.639-.895.246-.608.062-1.935.008-2.297-.378-.064-1.683-.385-1.82-1.74-.037-.35.121-.726.463-1.113 1.085-1.224 3.895-2.394 5.897-2.453 1.131-.03 2.341.495 3.335 1.452 1.038.998 1.683 2.317 1.683 3.444 0 1.868.282 5.088 2.165 5.686.987.313 1.901 1.46 2.331 2.92.352 1.198.261 2.27-.241 2.868-1.02 1.212-1.02 1.212-.029 2.256l.101.105c.562.593.591 1.337.518 1.855-.132.944-.689 1.791-1.147 2.066-.388.225-1.725.834-5.039.834Zm-3.576-23.23c-.032 0-.063 0-.096.003-1.909.057-4.685 1.206-5.71 2.366-.295.33-.43.641-.402.918.138 1.368 1.671 1.522 1.686 1.525a.13.13 0 0 1 .117.105c.013.072.303 1.758-.008 2.527-.132.326-.399.637-.681.965-.378.441-.772.895-.811 1.38-.028.34.13.655.28.963.231.464.466.944.073 1.485a7.49 7.49 0 0 1-.542.624c-.72.777-1.706 1.842-1.538 3.233.202 1.675 3.017 6.281 8.149 6.738 5.542.492 7.495-.375 7.963-.652.399-.236.904-1.024 1.026-1.88.065-.465.039-1.127-.451-1.645l-.098-.106c-1.067-1.123-1.119-1.242.021-2.596.448-.534.52-1.517.191-2.633-.331-1.131-1.129-2.42-2.159-2.745-2.041-.647-2.344-3.993-2.344-5.93 0-1.06-.614-2.307-1.603-3.259-.927-.885-2.035-1.385-3.063-1.385Z"/>
  <path fill="#AC9B8F" d="M119.804 38.179a.32.32 0 0 1-.082-.008.13.13 0 0 1-.099-.154.131.131 0 0 1 .156-.097c.002 0 .126.02.282-.093.199-.143.463-.505.595-1.426.171-1.186-1.724-2.74-3.729-4.386-.89-.73-1.812-1.488-2.62-2.263-2.678-2.568-3.056-5.606-3.061-5.637a.13.13 0 0 1 .114-.141.133.133 0 0 1 .142.113c.003.028.373 2.982 2.983 5.48.801.768 1.717 1.522 2.606 2.248 2.151 1.766 4.011 3.292 3.819 4.619-.119.824-.36 1.365-.717 1.609a.656.656 0 0 1-.389.136Zm-12.771-13.186c-.839 0-1.106-.324-1.119-.342a.126.126 0 0 1 .023-.18.13.13 0 0 1 .182.024c.002.002.435.482 2.032.084 1.678-.415 3.388-1.757 3.403-1.773a.128.128 0 0 1 .181.021.126.126 0 0 1-.02.18c-.073.056-1.769 1.39-3.501 1.819a4.793 4.793 0 0 1-1.181.167Z"/>
  <path fill="#E49621" d="M99.93 87.439s1.118 1.455 2.369 2.14c1.251.685 3.496.213 2.848-1.411-.647-1.625-1.683-2.482-2.46-2.78-.776-.3-2.796.468-2.757 2.05Z"/>
  <path fill="#3F4553" d="M103.57 90.012c-.46 0-.937-.105-1.333-.32-1.261-.69-2.364-2.115-2.411-2.174a.129.129 0 0 1-.026-.074c-.016-.675.321-1.288.953-1.73.637-.444 1.489-.636 1.981-.446.388.149 1.714.795 2.533 2.853.23.578.134 1.09-.27 1.442-.339.298-.872.45-1.427.45Zm-3.511-2.617c.174.218 1.194 1.465 2.302 2.073.772.421 1.924.375 2.468-.097.321-.28.388-.678.199-1.155-.779-1.96-2.025-2.568-2.387-2.707-.36-.138-1.109-.02-1.738.418-.318.218-.844.7-.844 1.468Z"/>
  <path fill="#F1BD54" d="m101.522 89.022.013.038c.244.193.5.372.764.516 1.251.685 3.496.213 2.849-1.411-2.028-1.237-3.626.857-3.626.857Z"/>
  <path fill="#3F4553" d="M103.571 90.012a2.84 2.84 0 0 1-1.334-.32 5.6 5.6 0 0 1-.782-.529.125.125 0 0 1-.044-.064l-.013-.041a.124.124 0 0 1 .021-.116c.018-.02 1.691-2.173 3.796-.887a.14.14 0 0 1 .052.061c.23.577.134 1.09-.27 1.442-.339.303-.872.454-1.426.454Zm-1.88-.99c.233.18.458.328.67.446.772.421 1.924.375 2.468-.097.311-.272.386-.654.215-1.114-1.691-1.003-3.045.4-3.353.765Z"/>
  <path fill="#F1BD54" d="M102.299 89.579c1.173.641 3.219.27 2.936-1.119-.419.444-1.255.988-2.418.562-1.248-.454-2.318-1.699-2.761-2.27a1.702 1.702 0 0 0-.126.687s1.118 1.455 2.369 2.14Z"/>
  <path fill="#3F4553" d="M103.57 90.01a2.81 2.81 0 0 1-1.333-.32c-1.261-.691-2.364-2.115-2.411-2.174a.13.13 0 0 1-.026-.075 1.843 1.843 0 0 1 .137-.739.128.128 0 0 1 .104-.08.128.128 0 0 1 .119.05c.404.52 1.473 1.78 2.701 2.23 1.194.436 1.991-.227 2.279-.532.033-.036.083-.049.129-.036a.125.125 0 0 1 .091.098c.098.487-.065.916-.461 1.203-.337.252-.824.375-1.329.375Zm-3.511-2.615c.173.218 1.194 1.465 2.302 2.073.723.395 1.818.38 2.388-.035.248-.18.378-.414.383-.696-.422.36-1.235.819-2.362.408-1.157-.423-2.17-1.514-2.667-2.124a1.62 1.62 0 0 0-.044.374Z"/>
  <path fill="#E49621" d="M118.689 87.385s-1.119 1.455-2.37 2.14c-1.251.685-3.496.213-2.848-1.412.647-1.624 1.683-2.48 2.46-2.778.776-.3 2.796.467 2.758 2.05Z"/>
  <path fill="#3F4553" d="M115.048 89.958c-.554 0-1.088-.153-1.43-.451-.404-.352-.499-.862-.269-1.442.818-2.055 2.147-2.702 2.533-2.853.492-.19 1.344.002 1.981.446.631.439.971 1.055.953 1.73a.133.133 0 0 1-.026.074c-.047.061-1.15 1.486-2.411 2.173-.394.216-.87.323-1.331.323Zm1.282-4.562c-.14 0-.259.018-.355.054-.363.139-1.606.75-2.388 2.707-.189.477-.121.875.2 1.155.543.475 1.696.518 2.467.097 1.109-.605 2.129-1.852 2.303-2.07 0-.767-.526-1.25-.845-1.47-.463-.324-.991-.473-1.382-.473Z"/>
  <path fill="#F1BD54" d="m117.096 88.968-.013.038c-.244.193-.5.372-.764.516-1.251.685-3.496.213-2.849-1.411 2.028-1.24 3.626.857 3.626.857Z"/>
  <path fill="#3F4553" d="M115.047 89.958c-.554 0-1.087-.153-1.429-.451-.404-.352-.5-.862-.269-1.442a.117.117 0 0 1 .052-.062c2.105-1.285 3.78.865 3.796.888a.124.124 0 0 1 .021.115l-.013.039a.124.124 0 0 1-.044.061 5.773 5.773 0 0 1-.782.53 2.823 2.823 0 0 1-1.332.322Zm-1.473-1.76c-.171.46-.096.844.215 1.114.544.475 1.696.518 2.468.097a4.99 4.99 0 0 0 .671-.446c-.311-.362-1.666-1.763-3.354-.765Z"/>
  <path fill="#F1BD54" d="M116.319 89.525c-1.173.641-3.219.27-2.936-1.119.419.444 1.256.988 2.418.562 1.248-.454 2.318-1.699 2.761-2.27a1.7 1.7 0 0 1 .127.687s-1.119 1.455-2.37 2.14Z"/>
  <path fill="#3F4553" d="M115.048 89.956c-.505 0-.992-.126-1.334-.372-.396-.288-.559-.716-.461-1.204a.128.128 0 0 1 .091-.097.127.127 0 0 1 .129.036c.288.305 1.085.965 2.279.531 1.227-.449 2.3-1.709 2.701-2.23a.134.134 0 0 1 .119-.049.13.13 0 0 1 .104.08c.095.241.142.49.137.74a.12.12 0 0 1-.026.073c-.047.062-1.15 1.486-2.411 2.174-.386.213-.865.318-1.328.318Zm-1.564-1.275c.007.282.134.516.383.695.569.416 1.665.431 2.387.036 1.109-.606 2.129-1.853 2.302-2.07 0-.126-.015-.252-.046-.375-.497.608-1.51 1.7-2.667 2.124-1.124.408-1.937-.051-2.359-.41Z"/>
  <path fill="#FED9CE" d="M109.923 31.618s-.301 2.458-.526 2.979c-.225.52-3.006.67-4.208 1.116-1.201.446-3.757 2.607-5.334 4.095-1.577 1.488-3.007 5.435-3.007 5.956 0 .52 1.577-1.489 3.007-2.905 1.426-1.414 4.583-3.202 4.583-3.202s1.129 5.54 1.279 6.137c.151.596-.002 1.589-.002 1.812 0 .223-3.157 5.658-3.683 10.2-.525 4.54.451 13.178.451 13.178s-1.727 3.35-1.877 7.074c-.151 3.723-.977 8.116-.902 8.413.076.298-.15.893.226.968.375.074.676-.968 1.577-1.19.901-.224 2.102.371 2.255-.224.15-.595 0-1.786.15-3.351.151-1.563 2.631-7.967 2.782-10.125.15-2.158 1.952-12.732 2.33-13.253l.376-.52s.375-.894.601.074c.225.967 0 10.571.45 11.987.451 1.414 4.001 10.913 4.452 12.03.45 1.115-.526 2.457-.226 3.053.301.595 1.127.372 1.878.372.751 0 1.533 1.093 2.134 1.093.6 0 .797-.87.797-1.837 0-.968-2.649-10.392-2.799-12.701a20.874 20.874 0 0 0-.676-4.096s.976-10.646.751-12.955c-.225-2.31-2.178-8.19-2.178-8.19l1.352-7.351s4.133 2.309 5.56 4.17c1.426 1.86 2.405 1.785 2.253.297-.151-1.488-3.683-5.881-5.56-7.819-1.878-1.934-4.434-1.562-5.185-2.083-.751-.52-.3-5.658-.3-5.658l-2.781 2.456Z"/>
  <path fill="#3F4553" d="M99.971 87.572a.275.275 0 0 1-.065-.008c-.362-.071-.339-.456-.32-.736a1.21 1.21 0 0 0-.006-.326c-.03-.12.02-.52.192-1.732.243-1.727.611-4.336.707-6.717.142-3.505 1.691-6.723 1.875-7.093-.07-.628-.951-8.818-.448-13.168.422-3.646 2.553-7.913 3.356-9.52.168-.335.313-.625.326-.682-.003-.038.008-.138.018-.269.036-.398.096-1.06-.013-1.493-.134-.54-1.049-5.004-1.245-5.966-.65.38-3.183 1.883-4.403 3.092-.497.492-1.015 1.062-1.473 1.565-1.137 1.247-1.424 1.53-1.634 1.45-.044-.018-.12-.064-.12-.2 0-.585 1.443-4.537 3.046-6.05 1.284-1.212 4.061-3.634 5.379-4.122.507-.187 1.276-.323 2.022-.454.893-.156 2.007-.351 2.111-.593.214-.497.512-2.917.515-2.942a.119.119 0 0 1 .041-.08l2.781-2.458a.132.132 0 0 1 .146-.018.127.127 0 0 1 .069.126c-.17 1.957-.256 5.193.246 5.542.226.156.674.23 1.194.318 1.15.193 2.722.457 4.009 1.783 1.87 1.927 5.438 6.336 5.596 7.893.088.88-.218 1.137-.409 1.211-.49.193-1.228-.313-2.077-1.419-1.238-1.614-4.594-3.602-5.363-4.044l-1.313 7.141c.171.513 1.958 5.953 2.175 8.188.22 2.26-.686 12.26-.748 12.955.062.22.533 1.945.673 4.098.086 1.303 1 5.003 1.735 7.977.593 2.402 1.064 4.3 1.064 4.732 0 1.267-.328 1.965-.927 1.965-.326 0-.668-.256-1.028-.526-.37-.277-.753-.567-1.105-.567-.161 0-.327.01-.487.02-.606.04-1.233.078-1.507-.464-.156-.305-.034-.731.106-1.224.166-.587.352-1.252.116-1.837-.455-1.129-3.995-10.602-4.454-12.039-.269-.85-.3-4.431-.329-7.593-.018-2.068-.033-4.018-.124-4.405-.075-.318-.147-.352-.147-.352-.042.008-.148.157-.208.298a.06.06 0 0 1-.013.026l-.375.52c-.332.46-2.139 10.81-2.305 13.187-.085 1.21-.893 3.746-1.608 5.983-.57 1.781-1.106 3.464-1.173 4.147-.075.775-.075 1.468-.075 2.027 0 .575 0 1.031-.078 1.344-.114.454-.637.39-1.191.324-.375-.046-.8-.098-1.157-.008-.464.115-.762.475-1.003.765-.191.225-.357.428-.567.428Zm4.467-48.041c.018 0 .036.002.055.01a.128.128 0 0 1 .072.093c.01.056 1.132 5.544 1.279 6.13.119.474.057 1.164.021 1.578-.01.12-.021.212-.021.264 0 .07-.049.172-.352.78-.797 1.596-2.913 5.832-3.33 9.435-.518 4.474.44 13.063.451 13.15a.142.142 0 0 1-.013.072c-.018.033-1.717 3.369-1.865 7.02-.096 2.394-.463 5.011-.707 6.743-.116.821-.215 1.53-.197 1.637.029.116.021.262.01.4-.017.31-.007.447.115.47.09.015.238-.164.383-.339.249-.303.59-.716 1.139-.852.407-.1.855-.046 1.251.003.528.064.852.09.909-.13.073-.283.073-.725.073-1.281 0-.562 0-1.263.075-2.05.067-.711.585-2.328 1.183-4.2.71-2.223 1.515-4.743 1.598-5.923.129-1.868 1.919-12.716 2.354-13.32l.367-.51c.055-.126.221-.457.464-.441.228.018.324.323.376.549.095.413.111 2.199.132 4.46.025 2.986.057 6.704.316 7.515.458 1.434 3.993 10.895 4.448 12.021.27.667.06 1.406-.106 2.001-.119.424-.233.824-.122 1.042.197.39.689.36 1.259.323.168-.01.337-.02.505-.02.44 0 .857.316 1.261.618.324.244.632.475.87.475.604 0 .668-1.196.668-1.709 0-.4-.512-2.476-1.056-4.67-.777-3.138-1.655-6.694-1.743-8.02-.148-2.267-.666-4.05-.671-4.068-.005-.015-.005-.03-.005-.046.01-.108.974-10.661.751-12.932-.22-2.268-2.154-8.103-2.173-8.162a.152.152 0 0 1-.005-.064l1.352-7.352a.13.13 0 0 1 .192-.087c.171.095 4.171 2.343 5.601 4.203.883 1.152 1.507 1.44 1.774 1.334.209-.082.3-.426.248-.946-.15-1.478-3.729-5.89-5.523-7.742-1.228-1.265-2.753-1.521-3.866-1.709-.575-.097-1.028-.172-1.3-.361-.702-.488-.474-4.25-.381-5.456l-2.502 2.212c-.044.357-.313 2.469-.528 2.966-.153.352-.976.514-2.305.745-.732.128-1.494.261-1.978.44-1.111.414-3.522 2.4-5.29 4.068-1.505 1.419-2.826 5.024-2.955 5.768.243-.18.795-.783 1.29-1.327.46-.505.98-1.077 1.483-1.572 1.425-1.412 4.483-3.149 4.612-3.223a.127.127 0 0 1 .057-.013Z"/>
  <path fill="#3F4553" d="M114.674 85.92c.301.595 1.127.372 1.878.372.751 0 1.533 1.093 2.134 1.093.6 0 .797-.87.797-1.837 0-.968-2.649-10.392-2.799-12.701a20.874 20.874 0 0 0-.676-4.096s.976-10.645.751-12.955a12.763 12.763 0 0 0-.225-1.334l-13.308-1.283c-.549 1.49-1.018 3.11-1.194 4.629-.526 4.542.451 13.178.451 13.178s-1.728 3.351-1.878 7.075c-.15 3.723-.976 8.115-.901 8.413.075.298-.15.893.225.967.376.075.676-.967 1.577-1.19.902-.223 2.103.372 2.256-.223.15-.596 0-1.786.15-3.352.15-1.562 2.631-7.966 2.781-10.124.15-2.158 1.953-12.732 2.331-13.253l.375-.521s.376-.893.601.074c.225.968 0 10.572.451 11.988.45 1.414 4.001 10.913 4.451 12.029.451 1.114-.528 2.456-.228 3.05Z"/>
  <path fill="#3F4553" d="M99.971 87.572a.281.281 0 0 1-.065-.008c-.362-.071-.339-.456-.32-.736.007-.12.015-.246-.006-.326-.031-.12.02-.52.192-1.732.243-1.727.611-4.336.707-6.717.142-3.505 1.691-6.723 1.874-7.092-.069-.63-.95-8.82-.448-13.169.156-1.347.56-2.914 1.202-4.66a.135.135 0 0 1 .135-.084l13.307 1.283a.126.126 0 0 1 .114.1c.117.544.192.998.228 1.35.22 2.26-.686 12.26-.748 12.955.062.22.533 1.945.673 4.098.086 1.303 1 5.003 1.735 7.977.593 2.402 1.064 4.3 1.064 4.732 0 1.267-.328 1.965-.927 1.965-.326 0-.668-.257-1.028-.526-.37-.277-.753-.567-1.105-.567-.161 0-.327.01-.487.02-.606.039-1.233.078-1.507-.464-.156-.305-.034-.731.106-1.224.166-.588.352-1.252.116-1.837-.455-1.129-3.995-10.602-4.454-12.04-.269-.849-.3-4.43-.329-7.592-.018-2.068-.033-4.018-.124-4.405-.075-.319-.147-.352-.147-.352-.042.008-.148.157-.208.298a.06.06 0 0 1-.013.025l-.375.521c-.332.46-2.139 10.81-2.305 13.186-.085 1.212-.893 3.747-1.608 5.984-.57 1.78-1.106 3.464-1.173 4.147-.075.775-.075 1.467-.075 2.027 0 .574 0 1.029-.078 1.344-.114.454-.637.39-1.191.323-.375-.046-.8-.097-1.157-.007-.464.115-.762.475-1.003.764-.196.237-.362.44-.572.44Zm3.346-34.257c-.614 1.688-1.002 3.205-1.155 4.506-.518 4.475.44 13.063.45 13.15a.124.124 0 0 1-.013.072c-.018.033-1.716 3.369-1.864 7.02-.096 2.394-.464 5.011-.707 6.743-.117.821-.215 1.53-.197 1.637.029.116.021.262.01.4-.017.31-.007.447.115.47.09.015.238-.164.383-.339.248-.303.59-.716 1.139-.852.407-.1.855-.046 1.251.003.528.064.852.09.909-.13.072-.283.072-.724.072-1.281 0-.562 0-1.263.075-2.05.068-.711.586-2.328 1.184-4.2.709-2.223 1.515-4.742 1.598-5.923.129-1.868 1.919-12.716 2.354-13.32l.367-.51c.055-.126.22-.457.464-.441.228.018.324.323.375.549.096.413.112 2.199.132 4.46.026 2.986.057 6.704.316 7.515.459 1.434 3.993 10.895 4.449 12.021.27.667.06 1.406-.106 2.001-.119.424-.233.824-.122 1.042.197.39.689.36 1.259.323.168-.01.336-.02.505-.02.44 0 .857.316 1.261.618.324.244.632.475.87.475.603 0 .668-1.196.668-1.709 0-.4-.513-2.476-1.056-4.67-.777-3.138-1.655-6.694-1.743-8.02-.148-2.269-.666-4.05-.671-4.068-.005-.015-.005-.03-.005-.046.01-.108.974-10.661.751-12.932a11.74 11.74 0 0 0-.202-1.23l-13.116-1.264Z"/>
  <path fill="#9776A5" d="M118.189 36.906c-1.878-1.935-4.434-1.563-5.185-2.083-.549-.38-.455-3.215-.367-4.722l-.485-.451-2.229 1.97s-.301 2.458-.526 2.98c-.225.52-3.006.67-4.208 1.115-1.183.44-3.672 2.536-5.254 4.019l1.556 1.801c1.411-1.006 2.947-1.873 2.947-1.873s1.129 5.54 1.279 6.138c.151.595-.002 1.588-.002 1.811 0 .164-1.722 3.174-2.833 6.564 2.154.982 6.396 2.099 13.825 1.21-.383-2.524-2.126-7.777-2.126-7.777l1.352-7.35s1.3.725 2.693 1.69l2.15-2.058a42.817 42.817 0 0 0-2.587-2.984Z"/>
  <path fill="#3F4553" d="M111.588 55.837c-4.299 0-7.067-.777-8.758-1.55a.131.131 0 0 1-.07-.156c.811-2.471 1.953-4.76 2.502-5.858.168-.336.313-.629.326-.685-.003-.038.008-.139.018-.27.036-.397.096-1.06-.013-1.493-.135-.539-1.049-5.003-1.246-5.966-.424.247-1.647.973-2.778 1.776a.13.13 0 0 1-.174-.02l-1.556-1.8a.127.127 0 0 1 .01-.176c1.362-1.278 4.009-3.57 5.299-4.047.507-.187 1.276-.323 2.022-.454.893-.156 2.007-.351 2.111-.593.215-.497.512-2.92.515-2.943a.119.119 0 0 1 .041-.08l2.23-1.97a.132.132 0 0 1 .176.003l.484.451a.126.126 0 0 1 .042.1c-.187 3.11.039 4.422.313 4.609.225.156.673.23 1.194.318 1.15.192 2.721.457 4.008 1.783.749.77 1.717 1.889 2.595 2.995a.129.129 0 0 1-.01.172l-2.149 2.058a.128.128 0 0 1-.164.012 37.436 37.436 0 0 0-2.524-1.593l-1.313 7.14c.145.44 1.758 5.36 2.121 7.768a.125.125 0 0 1-.026.097.125.125 0 0 1-.088.049 44.025 44.025 0 0 1-5.138.323Zm-8.546-1.734c2.266 1.006 6.428 1.999 13.518 1.17-.414-2.533-2.082-7.575-2.1-7.626a.126.126 0 0 1-.005-.064l1.351-7.352a.13.13 0 0 1 .192-.087c.013.008 1.266.708 2.615 1.637l1.989-1.904c-.852-1.067-1.784-2.14-2.507-2.884-1.227-1.265-2.752-1.521-3.866-1.709-.575-.097-1.028-.171-1.3-.361-.448-.31-.593-1.917-.424-4.775l-.353-.331-2.105 1.86c-.044.356-.313 2.468-.528 2.966-.153.352-.976.513-2.305.744-.733.128-1.494.262-1.978.441-1.07.398-3.382 2.287-5.122 3.908l1.4 1.62c1.376-.97 2.846-1.804 2.859-1.812a.13.13 0 0 1 .192.087c.01.057 1.132 5.545 1.279 6.13.119.475.057 1.165.021 1.578-.01.12-.021.213-.021.264 0 .07-.049.172-.352.78-.536 1.083-1.647 3.308-2.45 5.72Z"/>
  <path fill="#FED9CE" d="M114.53 35.207c-.681-.118-1.235-.187-1.526-.387-.548-.38-.455-3.215-.367-4.721l-.484-.452-2.23 1.97s-.3 2.459-.526 2.98c-.088.2-.557.346-1.165.474.5 1.489 1.598 4.152 3.04 4.152 1.404.003 2.641-2.507 3.258-4.016Z"/>
  <path fill="#3F4553" d="M111.272 39.354c-1.515 0-2.631-2.656-3.164-4.241a.133.133 0 0 1 .01-.106.131.131 0 0 1 .085-.061c.821-.172 1.036-.313 1.075-.4.215-.498.513-2.92.515-2.944a.124.124 0 0 1 .042-.08l2.229-1.97a.133.133 0 0 1 .177.003l.484.451a.126.126 0 0 1 .041.1c-.186 3.11.039 4.422.314 4.609.225.156.675.23 1.196.318l.274.046a.133.133 0 0 1 .091.064.137.137 0 0 1 .008.11c-.764 1.871-1.971 4.101-3.377 4.101Zm-2.872-4.188c.443 1.283 1.52 3.929 2.872 3.929 1.282 0 2.455-2.31 3.076-3.79l-.113-.02c-.575-.098-1.031-.172-1.303-.362-.448-.31-.593-1.917-.425-4.775l-.352-.331-2.105 1.86c-.044.356-.314 2.468-.528 2.966-.096.213-.423.367-1.122.523Z"/>
  <path fill="#C6FF00" d="M112.621 30.37a4.74 4.74 0 0 0-.798.142c-.31.077-.911.403-1.483.739l-.415.367s-.121 1-.269 1.86c.518-.185 2.022-.767 2.918-1.614.003-.529.024-1.05.047-1.493Z"/>
  <path fill="#BFB2AA" d="M112.621 30.37a4.74 4.74 0 0 0-.798.142c-.31.077-.911.403-1.483.739l-.415.367s-.121 1-.269 1.86c.518-.185 2.022-.767 2.918-1.614.003-.529.024-1.05.047-1.493Z"/>
  <path fill="#FA6E5A" d="M109.695 68.572c8.225 0 14.893-6.607 14.893-14.757 0-8.15-6.668-14.756-14.893-14.756-8.225 0-14.892 6.607-14.892 14.756 0 8.15 6.667 14.757 14.892 14.757Z"/>
  <path fill="#E3604D" d="M114.592 66.083c-8.225 0-14.893-6.607-14.893-14.757 0-4.744 2.263-8.962 5.775-11.662-6.169 1.804-10.672 7.454-10.672 14.151 0 8.15 6.668 14.757 14.893 14.757 3.436 0 6.598-1.157 9.118-3.092-1.339.39-2.756.603-4.221.603Z"/>
  <path fill="#3F4553" d="M99.246 48.355c-.262 0-.5-.18-.56-.441a.567.567 0 0 1 .433-.683l4.107-.936-2.372-.734a.57.57 0 1 1 .342-1.088l4.399 1.363a.568.568 0 0 1-.041 1.1l-6.179 1.409a.755.755 0 0 1-.13.01Zm20.587 0a.603.603 0 0 1-.135-.015l-5.891-1.409a.57.57 0 0 1-.029-1.1l4.623-1.363a.575.575 0 0 1 .715.385.569.569 0 0 1-.386.708l-2.574.76 3.814.91a.57.57 0 0 1 .425.688.582.582 0 0 1-.562.436Zm-21.514 2.412c1.502 6.39 6.026 11.031 11.376 11.031s9.876-4.642 11.376-11.03l-1.976-.327a57.624 57.624 0 0 0-19.075.039l-1.701.287Z"/>
  <path fill="#4E5567" d="M117.451 57.454c-1.963-1.29-4.669-2.089-7.663-2.089-3.05 0-5.803.834-7.774 2.168 2.074 2.307 4.752 3.705 7.681 3.705 2.965 0 5.671-1.429 7.756-3.784Z"/>
  <path fill="#FED9CE" d="M107.745 25.39s-.526 1.563-.976 2.458c-.451.893.225 3.65.751 4.468.525.818 1.502.67 1.877.595.376-.075 2.028-1.116 2.631-1.712l.901-.892s.301 0 .601-.596c.301-.595-.901-1.934-1.952-3.574-1.052-1.637-1.502-1.563-1.502-1.563l-2.331.816Z"/>
  <path fill="#3F4553" d="M108.833 33.098c-.78 0-1.199-.37-1.422-.716-.541-.844-1.238-3.64-.759-4.593.443-.875.966-2.424.972-2.44a.121.121 0 0 1 .08-.08l2.33-.818c.109-.018.612-.01 1.655 1.617.28.436.567.844.844 1.239.798 1.137 1.373 1.958 1.116 2.46-.259.514-.533.632-.655.66l-.872.865c-.617.61-2.295 1.668-2.696 1.747-.22.041-.417.06-.593.06Zm-.984-7.608c-.101.298-.56 1.612-.964 2.415-.429.85.254 3.58.746 4.341.334.521.922.7 1.746.54.323-.065 1.96-1.081 2.563-1.679l.901-.893a.134.134 0 0 1 .091-.038c-.002 0 .233-.026.484-.524.187-.367-.409-1.216-1.098-2.199-.277-.397-.564-.808-.849-1.247-.87-1.354-1.303-1.49-1.372-1.503l-2.248.787Z"/>
  <path fill="#3F4553" d="M108.273 29.103a.153.153 0 0 1-.047-.008c-.784-.3-.714-.502-.694-.566.052-.157.656-1.04.839-1.307a.128.128 0 0 1 .179-.033c.06.041.075.12.034.177-.345.5-.715 1.06-.795 1.214.065.067.295.187.528.277.067.026.101.1.075.167a.13.13 0 0 1-.119.08Zm2.623-1.173a.127.127 0 0 1-.116-.074c-.119-.251-.275-.41-.464-.475-.253-.084-.489.026-.492.026a.13.13 0 0 1-.173-.056.13.13 0 0 1 .057-.172.967.967 0 0 1 .694-.039c.256.087.463.293.614.608a.129.129 0 0 1-.063.172c-.02.005-.038.01-.057.01Zm-2.778-.713a.127.127 0 0 1-.106-.054.496.496 0 0 0-.306-.187c-.116-.013-.246.041-.378.157a.132.132 0 0 1-.184-.01.129.129 0 0 1 .011-.183c.189-.17.383-.241.582-.22a.742.742 0 0 1 .484.292.129.129 0 0 1-.031.18.106.106 0 0 1-.072.025Zm3.191-.102a.127.127 0 0 1-.122-.088c-.363-1.036-1.002-.893-1.028-.885a.131.131 0 0 1-.158-.092.128.128 0 0 1 .09-.157c.008-.002.894-.22 1.339 1.05a.13.13 0 0 1-.08.164.117.117 0 0 1-.041.008Zm-3.808-.511a.126.126 0 0 1-.114-.185c.145-.29.34-.462.578-.516.362-.082.683.157.696.167a.127.127 0 0 1 .024.18.13.13 0 0 1-.182.023c-.002-.003-.24-.177-.484-.12-.158.035-.292.164-.401.379a.13.13 0 0 1-.117.072Zm.309 3.084s.924.357 2.108-.305c0 0-.617.916-1.337 1.018-.719.1-.771-.713-.771-.713Z"/>
  <path fill="#FED9CE" d="M99.443 40.283s-3.255 2.707-3.776 4.449c-.52 1.742-.13 5.74-.194 6.964-.065 1.224.782 2.579 1.17 2.838.392.259.456-.193.392-.644-.065-.452-.065-2.774-.065-2.774s.585 1.675.65 1.355c.065-.324.065-.903-.194-1.807-.26-.903-.912-2.191-.847-2.45.065-.26 2.147-4.126 2.473-5.353"/>
  <path fill="#3F4553" d="M96.843 54.736a.5.5 0 0 1-.272-.097c-.41-.27-1.297-1.665-1.23-2.95.018-.365-.003-.989-.029-1.712-.06-1.706-.142-4.044.228-5.28.526-1.758 3.68-4.401 3.815-4.512a.128.128 0 0 1 .181.016.126.126 0 0 1-.016.18c-.03.025-3.229 2.704-3.734 4.387-.357 1.198-.277 3.51-.217 5.201.026.729.046 1.36.028 1.735-.062 1.175.754 2.486 1.114 2.725.075.048.127.059.142.05.05-.03.099-.227.05-.569-.065-.454-.068-2.694-.068-2.791a.13.13 0 0 1 .109-.126.131.131 0 0 1 .145.085c.137.395.31.839.432 1.1.013-.3-.023-.777-.222-1.475-.112-.39-.303-.862-.472-1.278-.28-.693-.422-1.062-.378-1.24.024-.092.192-.428.57-1.177.632-1.255 1.686-3.354 1.906-4.175a.13.13 0 0 1 .158-.092c.07.018.111.087.093.157-.225.846-1.248 2.878-1.924 4.223-.272.541-.528 1.05-.549 1.126-.023.113.194.65.368 1.08.17.424.362.901.479 1.304.292 1.019.251 1.606.197 1.865-.026.126-.117.142-.145.144-.078.005-.184.013-.5-.79.005.718.02 1.742.06 2.02.036.246.061.682-.169.823a.248.248 0 0 1-.15.044Z"/>
  <path fill="#3F4553" d="M96.82 54.639a.13.13 0 0 1-.122-.085c-.005-.01-.42-1.152-.624-2.579a.13.13 0 0 1 .256-.038c.202 1.398.609 2.515.611 2.527a.128.128 0 0 1-.077.165.1.1 0 0 1-.044.01Zm-.464-.308a.13.13 0 0 1-.116-.072c-.018-.033-.422-.846-.681-2.178a.132.132 0 0 1 .103-.152.132.132 0 0 1 .153.103c.251 1.296.655 2.104.658 2.112a.13.13 0 0 1-.057.172.108.108 0 0 1-.06.015Z"/>
  <path fill="#FED9CE" d="M120.903 40.283s3.255 2.707 3.775 4.449c.521 1.742.13 5.74.195 6.964.064 1.224-.782 2.579-1.171 2.838-.388.259-.456-.193-.391-.644.065-.452.065-2.774.065-2.774s-.585 1.675-.65 1.355c-.065-.321-.065-.903.194-1.807.262-.903.912-2.191.847-2.45-.065-.26-2.147-4.126-2.473-5.353"/>
  <path fill="#3F4553" d="M123.503 54.736a.29.29 0 0 1-.153-.043c-.228-.141-.202-.577-.168-.824.039-.277.054-1.303.059-2.02-.316.801-.417.796-.499.791-.029-.002-.12-.018-.145-.144-.052-.259-.096-.846.196-1.865.117-.403.308-.88.479-1.303.174-.431.389-.968.366-1.08-.021-.075-.278-.588-.549-1.13-.676-1.344-1.699-3.376-1.922-4.22a.128.128 0 0 1 .093-.157.13.13 0 0 1 .158.092c.218.819 1.274 2.92 1.904 4.172.378.752.546 1.088.569 1.18.044.178-.098.547-.378 1.24-.168.416-.357.888-.471 1.278-.202.698-.238 1.175-.223 1.475.122-.264.293-.705.433-1.1a.13.13 0 0 1 .145-.085c.062.01.108.064.108.126 0 .095 0 2.335-.067 2.791-.049.342 0 .54.049.57.016.01.068 0 .143-.051.36-.239 1.175-1.55 1.113-2.725-.02-.375.003-1.006.029-1.735.059-1.688.14-4.003-.218-5.201-.505-1.683-3.7-4.36-3.734-4.388a.126.126 0 0 1-.015-.18.128.128 0 0 1 .181-.015c.134.11 3.289 2.754 3.814 4.511.371 1.237.288 3.575.228 5.28-.026.724-.047 1.35-.028 1.712.067 1.286-.821 2.682-1.23 2.951a.466.466 0 0 1-.267.097Z"/>
  <path fill="#3F4553" d="M123.508 54.536c-.011 0-.021 0-.034-.005a.128.128 0 0 1-.093-.156c.005-.016.409-1.58.409-2.623 0-.072.057-.128.129-.128.073 0 .13.056.13.128 0 1.075-.399 2.623-.417 2.687a.127.127 0 0 1-.124.097Zm.463-.051a.128.128 0 0 1-.121-.172c.005-.015.611-1.67.611-2.304 0-.072.057-.128.129-.128.073 0 .13.056.13.128 0 .677-.601 2.322-.627 2.391a.127.127 0 0 1-.122.085Z"/>
  <path fill="#F4A17C" d="M64.219 94.998c11.728 0 21.235-2.216 21.235-4.95s-9.507-4.95-21.235-4.95c-11.727 0-21.234 2.216-21.234 4.95s9.507 4.95 21.234 4.95Z"/>
  <path fill="#F4A17C" d="M65.444 95c12.414 0 22.478-2.21 22.478-4.935 0-2.725-10.064-4.934-22.478-4.934-12.415 0-22.479 2.209-22.479 4.934s10.064 4.934 22.479 4.934Z"/>
  <path fill="#E49621" d="M55.296 86.607s-3.149 1.64-3.742 2.49c-.593.849.197 1.523 1.38 1.605 1.184.082 6.055-1.542 6.495-1.752.443-.21.122-1.486-.2-2.143-.318-.659-3.933-.2-3.933-.2Z"/>
  <path fill="#3F4553" d="M53.025 90.833c-.036 0-.07 0-.1-.002-.785-.054-1.404-.365-1.62-.806-.103-.216-.165-.565.14-1 .606-.865 3.66-2.461 3.789-2.53a.088.088 0 0 1 .044-.014c.619-.079 3.724-.433 4.066.27.178.367.334.867.396 1.275.085.567 0 .916-.26 1.04-.434.207-5.085 1.767-6.455 1.767Zm2.31-4.103c-.272.144-3.13 1.658-3.677 2.438-.19.27-.228.52-.12.744.174.36.713.613 1.404.662 1.166.085 5.992-1.532 6.43-1.74.135-.064.179-.351.114-.77a4.518 4.518 0 0 0-.373-1.203c-.191-.395-2.315-.313-3.778-.13Z"/>
  <path fill="#F1BD54" d="M59.592 87.908c-1.248.541-4.692 2.001-5.881 2.153-.969.123-1.86-.239-2.352-.498-.08.618.62 1.073 1.575 1.14 1.183.081 6.054-1.543 6.495-1.753.243-.118.253-.56.163-1.042Z"/>
  <path fill="#3F4553" d="M53.025 90.833c-.036 0-.07 0-.101-.002-.663-.047-1.207-.27-1.492-.614a.871.871 0 0 1-.204-.67.125.125 0 0 1 .07-.097.122.122 0 0 1 .119 0c.442.234 1.328.606 2.276.485 1.186-.151 4.773-1.678 5.845-2.142a.122.122 0 0 1 .11.005.13.13 0 0 1 .068.09c.122.639.042 1.046-.233 1.177-.438.208-5.088 1.768-6.458 1.768Zm-1.533-1.06c.02.1.067.193.14.283.235.285.725.477 1.307.518 1.166.085 5.993-1.532 6.43-1.74.132-.064.174-.34.12-.741-1.464.631-4.62 1.95-5.765 2.096-.888.11-1.722-.177-2.232-.415Z"/>
  <path fill="#E49621" d="M70.546 86.607s3.15 1.64 3.742 2.49c.593.849-.197 1.523-1.38 1.605-1.183.083-6.055-1.542-6.495-1.752-.443-.21-.121-1.486.2-2.143.32-.659 3.933-.2 3.933-.2Z"/>
  <path fill="#3F4553" d="M72.82 90.833c-1.372 0-6.02-1.56-6.461-1.768-.256-.123-.344-.472-.259-1.039a4.84 4.84 0 0 1 .396-1.275c.342-.706 3.447-.349 4.066-.27a.219.219 0 0 1 .044.013c.13.067 3.185 1.663 3.788 2.53.306.436.246.785.14 1.001-.215.444-.834.752-1.618.806l-.096.002Zm-4.581-4.254c-.785 0-1.409.077-1.51.282a4.51 4.51 0 0 0-.373 1.204c-.064.418-.02.705.114.77.428.205 5.04 1.744 6.34 1.744.033 0 .062 0 .09-.002.692-.05 1.228-.303 1.404-.662.108-.224.067-.475-.12-.744-.543-.78-3.405-2.294-3.677-2.438-.699-.09-1.55-.154-2.268-.154Z"/>
  <path fill="#F1BD54" d="M66.252 87.908c1.248.542 4.693 2.002 5.881 2.153.969.123 1.86-.239 2.352-.498.08.619-.62 1.073-1.575 1.14-1.183.082-6.054-1.543-6.495-1.753-.246-.118-.256-.56-.163-1.042Z"/>
  <path fill="#3F4553" d="M72.82 90.833c-1.373 0-6.021-1.56-6.461-1.768-.275-.13-.355-.538-.233-1.177a.126.126 0 0 1 .067-.09.13.13 0 0 1 .111-.005c1.072.464 4.661 1.99 5.845 2.142.948.12 1.833-.251 2.276-.485a.122.122 0 0 1 .12 0 .13.13 0 0 1 .07.098.85.85 0 0 1-.206.67c-.284.343-.828.566-1.491.613l-.099.002Zm-6.467-2.74c-.057.4-.012.677.12.741.427.206 5.039 1.743 6.339 1.745.033 0 .062 0 .09-.002.583-.041 1.073-.236 1.308-.519a.643.643 0 0 0 .14-.282c-.508.239-1.339.529-2.235.416-1.144-.149-4.298-1.468-5.762-2.1ZM56.855 54.5s-2.867 12.29-3.266 14.046c-.398 1.755-.691 3.728-.225 4.908.466 1.18 1.96 12.763 1.96 12.763l4.294 1.16s.054-7.441-.088-10.366-.308-6.623-.308-6.623l4.563-11.267.753.988 3.416 10.1-2.01 16.927 4.084-1.06s3.509-10.766 4.081-13.006c.57-2.24.844-3.747.399-4.776-.445-1.029-3.335-12.51-3.335-12.51L56.855 54.5Z"/>
  <path fill="#3F4553" d="M59.615 87.503a.151.151 0 0 1-.033-.005l-4.294-1.16a.127.127 0 0 1-.093-.108c-.016-.115-1.5-11.58-1.953-12.732-.388-.988-.318-2.617.22-4.983.394-1.734 3.237-13.922 3.266-14.046a.132.132 0 0 1 .137-.1l14.313 1.283a.129.129 0 0 1 .114.098c.028.115 2.892 11.485 3.33 12.49.448 1.032.207 2.502-.394 4.858-.564 2.22-4.047 12.906-4.08 13.014a.125.125 0 0 1-.091.085l-4.084 1.06a.135.135 0 0 1-.12-.029.125.125 0 0 1-.043-.113l2.007-16.896-3.4-10.053-.604-.79-4.462 11.033c.016.343.171 3.815.308 6.594.143 2.894.088 10.3.088 10.374a.118.118 0 0 1-.051.1.13.13 0 0 1-.08.026Zm-4.174-1.388 4.047 1.093c.008-1.12.042-7.55-.088-10.195-.142-2.925-.308-6.622-.308-6.622 0-.018.003-.036.01-.054l4.563-11.267a.128.128 0 0 1 .104-.08.13.13 0 0 1 .122.052l.753.988c.008.01.016.023.018.036l3.416 10.099a.137.137 0 0 1 .005.056l-1.989 16.74 3.833-.995c.298-.914 3.517-10.813 4.055-12.932.585-2.3.824-3.731.407-4.693-.43-.988-3.03-11.293-3.32-12.442l-14.11-1.265c-.285 1.224-2.867 12.29-3.24 13.935-.526 2.314-.6 3.895-.23 4.834.445 1.144 1.804 11.575 1.952 12.712Z"/>
  <path fill="#4E5567" d="M67.319 84.565h-.016a.13.13 0 0 1-.114-.144c.016-.123 1.495-12.342 1.572-13.025.042-.348.052-.454.293-.466.114-.006.355-.018.883-.37.127-.085.21-.146.261-.187-.07 0-.157.002-.233.005-.32.01-.761.025-1.074-.11-.728-.316-2.65-6.68-3.028-7.955a.127.127 0 0 1 .088-.159.13.13 0 0 1 .161.087c1.08 3.639 2.458 7.606 2.882 7.79.262.113.668.1.964.09.339-.01.528-.018.58.136.044.134-.063.254-.453.516-.588.393-.876.408-1.016.413h-.015a10108.612 10108.612 0 0 1-1.605 13.266.13.13 0 0 1-.13.113Zm-7.953-2.685a.13.13 0 0 1-.129-.112l-.109-.916a.13.13 0 0 1 .114-.141.13.13 0 0 1 .143.113l.108.916a.13.13 0 0 1-.114.14h-.013Zm-.266-2.283a.13.13 0 0 1-.13-.113l-.966-8.218c-.17-.036-.567-.123-1.087-.267-.093-.026-.29-.08-.298-.233-.01-.172.194-.255.645-.434.35-.139.787-.313 1.186-.562.476-.295 1.608-2.748 3.102-6.728a.128.128 0 0 1 .166-.074.126.126 0 0 1 .075.164c-1.088 2.894-2.527 6.433-3.209 6.856-.419.26-.885.447-1.227.582a7.597 7.597 0 0 0-.41.172c.011.003.022.005.035.01.691.19 1.157.28 1.162.283.055.01.099.056.104.11l.976 8.311a.13.13 0 0 1-.114.141h-.01Zm3.068-17.723a.128.128 0 0 1-.122-.172c.177-.482.28-.777.28-.777a.131.131 0 0 1 .166-.08.13.13 0 0 1 .08.165s-.103.295-.28.78a.134.134 0 0 1-.124.084Z"/>
  <path fill="#FFF9F1" d="M65.527 34.502s-6.948-1.132-9.747-1.63c-2.8-.498-5.205-.967-5.205-.967l-1.22 3.872s5.555 1.852 7.018 2.286c1.463.434 2.04.67 2.04.67s.192 9.347-.409 11.359c-.6 2.012-1.952 6.055-1.952 6.055l7.157 3.972 1.438-2.196.111 2.076s2.25-.131 4.278-.775c2.028-.644 3.255-1.419 3.255-1.419l-1.608-7 2.193-9.03s11.052-2.175 11.117-2.88c.065-.706-1.52-3.293-1.52-3.293l-14.975-.967-1.97-.133Z"/>
  <path fill="#3F4553" d="M63.21 60.25a.132.132 0 0 1-.062-.015l-7.158-3.972a.126.126 0 0 1-.06-.151c.014-.041 1.36-4.065 1.953-6.053.557-1.868.422-10.292.404-11.236a28.048 28.048 0 0 0-1.95-.637c-1.447-.428-6.966-2.268-7.02-2.286a.128.128 0 0 1-.083-.159l1.22-3.872c.02-.061.083-.103.147-.087.024.005 2.437.475 5.203.965 2.732.484 9.5 1.588 9.74 1.629l1.965.136 14.975.967c.041.003.08.026.104.062.163.27 1.605 2.645 1.538 3.371-.018.188-.05.534-5.684 1.82a227.55 227.55 0 0 1-5.456 1.162l-2.168 8.922 1.6 6.968a.124.124 0 0 1-.056.136c-.013.008-1.267.793-3.287 1.435-2.02.641-4.285.78-4.309.78a.127.127 0 0 1-.093-.033.13.13 0 0 1-.044-.09l-.09-1.684-1.22 1.866a.136.136 0 0 1-.109.056Zm-7.002-4.159 6.958 3.862 1.37-2.094a.134.134 0 0 1 .142-.054.13.13 0 0 1 .096.118l.106 1.945c.508-.038 2.403-.215 4.115-.76 1.704-.54 2.849-1.182 3.149-1.36l-1.587-6.907a.114.114 0 0 1 0-.059l2.193-9.03a.131.131 0 0 1 .1-.094c5.16-1.016 10.774-2.335 11.02-2.782.043-.515-1.016-2.39-1.471-3.143l-14.909-.962-1.973-.136c-.005 0-.007 0-.013-.002-.07-.01-6.979-1.14-9.747-1.63-2.429-.43-4.583-.847-5.093-.944l-1.148 3.644c.819.271 5.568 1.85 6.894 2.245 1.453.43 2.03.664 2.053.675a.13.13 0 0 1 .08.115c.008.382.184 9.391-.414 11.398-.541 1.809-1.706 5.316-1.921 5.955Z"/>
  <path fill="#fff" d="m63.096 34.02-.303 4.43 3.669-1.424 3.9 2.982-.124-5.825-7.142-.164Z"/>
  <path fill="#3F4553" d="M70.362 40.136a.149.149 0 0 1-.08-.025l-3.84-2.936-3.603 1.399a.134.134 0 0 1-.124-.016.128.128 0 0 1-.052-.113l.303-4.43c.005-.07.07-.119.132-.121l7.14.164a.13.13 0 0 1 .127.126l.124 5.824a.133.133 0 0 1-.07.118c-.018.005-.036.01-.057.01Zm-3.9-3.238c.029 0 .057.01.08.026l3.685 2.817-.116-5.432-6.894-.159-.282 4.108 3.48-1.35a.102.102 0 0 1 .047-.01ZM64.79 57.63h-.011a.128.128 0 0 1-.12-.138l1.44-16.97c.006-.073.07-.121.14-.119a.128.128 0 0 1 .12.139l-1.44 16.97a.13.13 0 0 1-.13.119Zm8.087-15.723a.122.122 0 0 1-.073-.023.128.128 0 0 1-.044-.162l1.733-3.623a.133.133 0 0 1 .173-.062.129.129 0 0 1 .062.172l-1.377 2.88 3.143-3.334a.131.131 0 0 1 .184-.005.128.128 0 0 1 .005.182l-3.71 3.936a.138.138 0 0 1-.096.039Zm-14.463-3.043a.132.132 0 0 1-.104-.052l-2.843-3.7a.126.126 0 0 1 .023-.18.13.13 0 0 1 .181.024l2.248 2.922-.784-1.893a.13.13 0 0 1 .07-.167.131.131 0 0 1 .168.07l1.157 2.796a.13.13 0 0 1-.054.16.112.112 0 0 1-.062.02Z"/>
  <path fill="#fff" d="m64.779 34.378 1.447 6.153 2.595-5.806-1.326-.085-1.97-.136c.002-.002-.28-.049-.746-.126Z"/>
  <path fill="#3F4553" d="M66.227 40.66h-.013a.129.129 0 0 1-.114-.098l-1.448-6.153a.133.133 0 0 1 .031-.118.123.123 0 0 1 .117-.038l.748.123 3.284.22c.041.003.08.026.103.062.021.036.026.08.008.118l-2.595 5.807a.138.138 0 0 1-.121.077Zm-1.277-6.122 1.316 5.59 2.364-5.288-3.113-.21-.567-.093Z"/>
  <path fill="#C6FF00" d="m64.779 34.378 1.447 6.153 2.595-5.806-1.326-.085-1.97-.136c.002-.002-.28-.049-.746-.126Z"/>
  <path fill="#FED9CE" d="m64.779 34.378 1.447 6.153 2.595-5.806-1.326-.085-1.97-.136c.002-.002-.28-.049-.746-.126Z"/>
  <path fill="#fff" d="M86.734 37.49s.127 1.025-.448 1.474c-.573.449-2.994 1.226-3.672.823-.679-.403-1.64-2.535-1.264-4.036.375-1.498 2.644-.941 2.644-.941s2.217.703 2.74 2.68Z"/>
  <path fill="#575C69" d="M83.18 40.026c-.261 0-.481-.039-.632-.128-.756-.45-1.696-2.684-1.323-4.178.169-.672.712-1.062 1.577-1.131a4.224 4.224 0 0 1 1.222.095c.102.03 2.3.75 2.834 2.771.002.005.002.01.002.018.005.044.127 1.1-.495 1.588-.45.357-2.141.965-3.185.965Zm-.096-5.188c-.634 0-1.416.167-1.61.944-.365 1.458.598 3.533 1.206 3.895.614.364 2.96-.372 3.525-.813.484-.38.41-1.258.401-1.35-.502-1.878-2.63-2.574-2.651-2.581a4.101 4.101 0 0 0-.87-.095Z"/>
  <path fill="#FED9CE" d="M84.683 38.576c-1.062.06-1.997-.695-2.266-1.714-.676-2.576-2.323-8.639-2.95-9.055-.797-.526-1.409-.66-1.398-1.147l.052-2.43s.354-.528.59-.035c.236.49.179.877.179.877s.39-1.085.35-1.427c-.042-.34-.122-1.264-.117-1.508.005-.244.329-.454.808.04.479.496 1.413 1.56 1.232 2.066-.181.506-.505 3.002-.505 3.002s5.998 8.724 5.884 9.5c-.083.556-.567 1.76-1.86 1.831Z"/>
  <path fill="#3F4553" d="M84.566 38.707c-1.049 0-1.994-.746-2.274-1.814-1.383-5.273-2.493-8.714-2.895-8.98-.23-.152-.445-.27-.634-.375-.482-.267-.832-.46-.821-.88l.052-2.43c0-.023.007-.049.02-.07.021-.033.22-.32.477-.302.14.01.254.105.34.282.053.113.092.223.123.323.096-.33.174-.662.158-.8-.041-.331-.121-1.268-.116-1.527a.388.388 0 0 1 .248-.357c.13-.05.407-.077.782.313.56.578 1.466 1.63 1.262 2.2-.163.448-.446 2.578-.492 2.927 1.066 1.552 5.992 8.773 5.878 9.55-.093.637-.63 1.863-1.979 1.938-.049.002-.09.002-.129.002Zm-6.319-14.433-.049 2.389c-.005.254.22.39.69.652.193.107.413.228.652.384.608.4 1.968 5.186 3.003 9.13.26.993 1.155 1.673 2.132 1.619 1.183-.067 1.654-1.152 1.737-1.72.078-.528-3.555-6.05-5.862-9.408a.117.117 0 0 1-.021-.087c.013-.103.326-2.515.51-3.03.109-.306-.362-1.066-1.204-1.936-.23-.238-.41-.287-.502-.251a.131.131 0 0 0-.083.123c-.006.231.07 1.134.114 1.491.044.362-.314 1.37-.355 1.486a.131.131 0 0 1-.153.082.126.126 0 0 1-.096-.144c0-.002.047-.36-.166-.806-.038-.082-.085-.133-.124-.136-.054-.007-.16.085-.223.162Z"/>
  <path fill="#263238" d="M80.174 25.162a.158.158 0 0 1-.036-.005.127.127 0 0 1-.086-.16l.28-.926c-.06-.133-.225-.523-.243-.88-.01-.197.07-.287.137-.328.173-.105.417.028.463.054.063.036.08.115.045.174a.129.129 0 0 1-.177.046c-.077-.046-.176-.069-.199-.056 0 0-.018.02-.013.098.02.38.238.823.24.828a.115.115 0 0 1 .009.093l-.295.975a.134.134 0 0 1-.125.087Z"/>
  <path fill="#263238" d="M79.731 25.046c-.01 0-.02 0-.03-.002a.13.13 0 0 1-.097-.154l.218-.88c-.065-.139-.236-.578-.135-1.04.047-.207.14-.346.28-.407.192-.088.38.012.401.023a.13.13 0 0 1 .052.174.13.13 0 0 1-.176.051c-.003-.002-.099-.048-.171-.015-.075.033-.114.144-.132.228-.101.457.13.906.132.911a.12.12 0 0 1 .01.09l-.227.926a.127.127 0 0 1-.125.095Z"/>
  <path fill="#263238" d="M79.36 25.02c-.007 0-.015 0-.022-.002a.132.132 0 0 1-.107-.149l.21-1.172c-.034-.134-.173-.714-.194-1.13a.45.45 0 0 1 .14-.374c.197-.182.52-.146.556-.141.07.01.122.072.112.144a.127.127 0 0 1-.145.11c-.067-.008-.257-.01-.35.074-.041.039-.06.095-.057.175.024.436.192 1.1.195 1.106a.126.126 0 0 1 .002.054l-.215 1.198a.123.123 0 0 1-.124.108Z"/>
  <path fill="#FA6E5A" d="M68.583 35.823c8.868 0 16.057-7.124 16.057-15.911C84.64 11.125 77.451 4 68.583 4c-8.869 0-16.058 7.123-16.058 15.91 0 8.788 7.189 15.912 16.058 15.912Z"/>
  <path fill="#AC3E2F" d="M57.5 19.265c.32-7.728 6.157-13.938 13.592-15.067a16.225 16.225 0 0 0-1.849-.184c-8.861-.362-16.34 6.46-16.708 15.239-.365 8.78 6.52 16.19 15.38 16.555a16.24 16.24 0 0 0 3.112-.172c-7.944-1.237-13.867-8.211-13.527-16.37Z" opacity=".3"/>
  <path fill="#3F4553" d="M58.851 21.341s11.785-1.537 21.538.883c0 0-.914 9.699-11.097 9.476-8.827-.193-10.44-10.359-10.44-10.359Zm10.931-5.039a.772.772 0 0 1-.77-.672c-.245-1.897-1.985-3.326-4.05-3.326-1.838 0-3.456 1.15-3.935 2.792a.78.78 0 0 1-.964.526.77.77 0 0 1-.53-.954c.67-2.3 2.902-3.903 5.43-3.903 2.84 0 5.244 2.006 5.59 4.67a.772.772 0 0 1-.67.862c-.034.002-.067.005-.101.005Zm11.314 1.827a.775.775 0 0 1-.777-.75c-.047-1.69-1.453-3.102-3.27-3.281-1.62-.16-3.15.708-3.72 2.111a.781.781 0 0 1-1.01.429.768.768 0 0 1-.432-1c.826-2.038 3.01-3.3 5.314-3.072 2.592.256 4.6 2.31 4.67 4.77a.77.77 0 0 1-.757.79c-.003.003-.01.003-.018.003Z"/>
  <path fill="#fff" d="M60.385 21.639c.095.385.808 2.491 4.966 2.663 4.579.188 9.152.544 11.532.473 1.424-.044 2.105-1.258 2.424-2.228-7.21-1.634-15.323-1.219-18.922-.908Z"/>
  <path fill="#4E5567" d="M72.338 30.922c.003-2.28-2.468-4.21-5.604-4.339-1.737-.071-3.314.429-4.412 1.273 1.574 1.788 3.855 3.233 7.129 3.305a13.31 13.31 0 0 0 2.887-.239ZM54.835 86.664l5.13 1.596.041-2.097-5.378-1.098.207 1.599Z"/>
  <path fill="#3F4553" d="M59.965 88.388a.199.199 0 0 1-.039-.005l-5.13-1.596a.13.13 0 0 1-.09-.106l-.208-1.6a.128.128 0 0 1 .042-.11.124.124 0 0 1 .114-.032l5.378 1.099a.13.13 0 0 1 .104.128l-.041 2.096a.128.128 0 0 1-.13.126Zm-5.013-1.822 4.886 1.52.036-1.82-5.096-1.042.174 1.342Z"/>
  <path fill="#4E5567" d="m65.372 86.974.632 1.858 5.052-2.037-.38-1.733-5.304 1.912Z"/>
  <path fill="#3F4553" d="M66.004 88.958a.14.14 0 0 1-.055-.013.132.132 0 0 1-.07-.075l-.631-1.855a.127.127 0 0 1 .077-.161l5.304-1.912a.127.127 0 0 1 .106.008.126.126 0 0 1 .065.084l.38 1.732a.13.13 0 0 1-.077.147l-5.053 2.034a.095.095 0 0 1-.046.01Zm-.469-1.907.546 1.609 4.825-1.942-.327-1.484-5.044 1.817Z"/>
  <path fill="#fff" d="M46.541 33.347s-.344.973.12 1.535c.463.562 2.659 1.832 3.407 1.58.748-.248 2.147-2.132 2.105-3.674-.044-1.545-2.38-1.48-2.38-1.48s-2.315.218-3.252 2.04Z"/>
  <path fill="#3F4553" d="M49.848 36.621c-.969 0-2.875-1.16-3.29-1.66-.502-.608-.157-1.614-.142-1.658l.008-.015c.958-1.865 3.26-2.099 3.356-2.11.865-.017 2.484.283 2.523 1.604.044 1.538-1.357 3.52-2.194 3.8a.811.811 0 0 1-.261.04Zm-3.188-3.225c-.029.09-.29.929.1 1.403.457.552 2.59 1.766 3.269 1.542.673-.225 2.059-2.047 2.017-3.548-.039-1.399-2.224-1.355-2.248-1.355-.015 0-2.242.23-3.138 1.958Z"/>
  <path fill="#FED9CE" d="M47.776 34.697c1.025.282 2.1-.257 2.582-1.196 1.214-2.373 4.13-7.95 4.832-8.221.893-.347 1.517-.347 1.613-.824.096-.477.474-2.383.474-2.383s-.233-.59-.567-.16c-.334.429-.363.822-.363.822s-.147-1.142-.033-1.468c.114-.323.39-1.211.437-1.45.047-.239-.222-.513-.797-.13-.575.382-1.717 1.223-1.65 1.757.07.534-.155 3.04-.155 3.04s-7.74 7.254-7.795 8.037c-.039.557.174 1.832 1.422 2.176Z"/>
  <path fill="#3F4553" d="M48.333 34.902c-.197 0-.394-.026-.59-.08-1.303-.359-1.562-1.667-1.518-2.311.054-.786 6.422-6.797 7.8-8.088.03-.352.212-2.492.15-2.964-.078-.598 1.036-1.434 1.704-1.88.453-.3.714-.216.83-.139a.388.388 0 0 1 .167.403c-.05.254-.332 1.152-.443 1.468-.047.133-.042.472-.018.816a1.95 1.95 0 0 1 .189-.29c.119-.154.25-.224.39-.203.252.036.387.359.4.395.007.023.01.046.005.072l-.469 2.378c-.083.413-.463.526-.992.686a9.02 9.02 0 0 0-.702.233c-.45.174-2.276 3.302-4.762 8.16-.427.836-1.271 1.344-2.141 1.344Zm-.52-.328c.94.259 1.962-.216 2.43-1.132 1.86-3.633 4.22-8.02 4.9-8.283.267-.102.508-.174.72-.238.515-.154.764-.239.813-.49l.466-2.346c-.041-.087-.119-.195-.18-.202-.042-.008-.094.033-.151.105-.306.39-.337.75-.337.752a.127.127 0 0 1-.127.118.122.122 0 0 1-.132-.113c-.015-.12-.147-1.183-.026-1.527.12-.339.389-1.206.433-1.432a.132.132 0 0 0-.054-.138c-.083-.054-.267-.046-.544.138-1.01.673-1.634 1.314-1.593 1.635.07.541-.145 2.963-.153 3.069a.137.137 0 0 1-.038.082c-2.979 2.791-7.717 7.42-7.754 7.951-.044.575.184 1.738 1.326 2.05Z"/>
  <path fill="#263238" d="M55.348 22.683h-.005a.126.126 0 0 1-.122-.133c0-.008.034-.706.016-1.047-.021-.37.533-1.714.598-1.866a.127.127 0 0 1 .168-.069.127.127 0 0 1 .07.167c-.23.554-.59 1.519-.578 1.755.019.354-.015 1.044-.015 1.073a.132.132 0 0 1-.132.12Zm-.43-.143-.26-.006s.02-.749.032-1.029c.013-.284.3-1.167.332-1.264a.129.129 0 0 1 .163-.083c.067.02.106.095.082.162-.085.262-.31.985-.32 1.198-.011.277-.03 1.021-.03 1.021Z"/>
</svg>
