<svg xmlns="http://www.w3.org/2000/svg" width="164" height="130" fill="none" viewBox="0 0 164 130">
  <g clip-path="url(#a)">
    <path fill="#9BA3FF" d="M150.386 24.34H147v17h3.386v-17Zm5.307 5.714h-3.386v11.285h3.386V30.054Zm5.314 5.386h-3.386v5.9h3.386v-5.9Z"/>
  </g>
  <g clip-path="url(#b)">
    <path fill="#808AFF" d="M85.5 129.339c19.054 0 34.5-2.686 34.5-6 0-3.313-15.446-6-34.5-6-19.054 0-34.5 2.687-34.5 6 0 3.314 15.446 6 34.5 6Z"/>
  </g>
  <path fill="#FDBCA0" d="M79.682 45.495s-1.352 14.941 4.246 14.716c6.006-.245 4.39-14.716 4.39-14.716-.784-2.332-1.097-3.715-.745-6.162H80.28c.352 2.447.182 3.83-.6 6.162Z"/>
  <path fill="#F0A38B" d="M80.427 42.223c.828.248 1.661.477 2.524.548.818.069 1.658.017 2.472-.071.678-.075 1.4-.196 2.078-.421-.107-.888-.091-1.8.075-2.95h-7.292c.16 1.126.209 2.027.143 2.894Z"/>
  <path fill="#FDBCA0" d="M83.928 41.372a7.804 7.804 0 0 0 5.55-2.303c1.745-1.762 3.113-3.725 3.514-6.032.514-2.962-.486-5.92-2.668-8.302H77.53c-2.182 2.378-3.182 5.34-2.667 8.302.4 2.307 1.771 4.27 3.514 6.032a7.83 7.83 0 0 0 5.552 2.303Z"/>
  <path fill="#DF8370" d="M84.564 47.237c-.264.29-.512.607-.746.924-.284-.196-.508-.434-.756-.679-.023-.023-.068 0-.058.033.14.385.433.698.732.965.065.056.157.062.222 0a6.51 6.51 0 0 0 .87-1.043c.103-.154-.138-.34-.264-.2Zm7.041-.57a35.455 35.455 0 0 0-5.755.965c-.114.03-.065.203.049.176a38.305 38.305 0 0 1 5.706-.831c.202-.013.198-.327 0-.31Zm-15.355 0a35.4 35.4 0 0 1 5.754.965c.114.03.065.203-.05.176a38.305 38.305 0 0 0-5.705-.831c-.199-.013-.199-.327 0-.31Z"/>
  <path fill="#3F4553" d="M76.584 19.81c-2.72 1.559-4.634 4.015-4.667 7.316-.032 3.723 4.495 9.65 4.433 9.503-1.505-3.621-1.899-8.605 1.856-11.101.375-.248.844-.391 1.18-.682-.01-1.967-1.095-3.872-2.802-5.037Z"/>
  <path fill="#424495" d="M91.005 19.81c2.72 1.559 4.634 4.015 4.667 7.316.032 3.723-2.192 7.034-4.407 9.845.564-1.226 1.87-8.95-1.885-11.443-.375-.248-.844-.391-1.18-.682.014-1.967 1.102-3.872 2.805-5.037Z"/>
  <path fill="#4E5567" d="M130.05 17.84c-2.078-1.035-4.504-1.257-6.764-.797-1.094.222-2.13.61-3.117 1.136-.654.345-1.319.841-2.081.9-.925.068-1.736-.535-2.423-1.07-2.136-1.664-4.308-3.122-7.057-3.523-1.329-.196-2.814-.052-3.843.763a7.423 7.423 0 0 0-4.361-2.756c-2.293-.483-4.471.205-6.272 1.588-1.016-.499-2.795-1.216-3.02-1.278-6.773-1.866-16.022 2.867-14.824 10.85 1.03 6.86 9.702 10.03 15.71 8.621 1.297 2.456 4.404 3.027 6.797 1.749.183.14.365.28.55.417 3.821 2.806 8.266 4.63 13.067 3.8a14.724 14.724 0 0 0 5.1-1.92c1.491 1.121 3.455 1.477 5.263.61a4.726 4.726 0 0 0 2.569-3.175h.069c3.992-.049 8.226-2.035 9.245-6.227.929-3.81-1.136-7.963-4.608-9.689Z"/>
  <path fill="#3F4553" d="M111.897 16.596c1.313 1.074 2.091 2.545 1.273 4.166-.664 1.321-1.859 2.284-2.729 3.455-1.019 1.37-1.195 3.128.476 4.13 1.644.985 3.706-.242 5.077-1.172 1.694-1.151 3.511-4.482 4.97-5.91 6.481-6.345 12.916.437 12.942.46-.84-1.651-2.182-3.05-3.856-3.886-2.078-1.034-4.504-1.256-6.764-.796-1.094.222-2.13.61-3.117 1.136-.654.345-1.319.841-2.081.9-.925.068-1.736-.535-2.423-1.07-2.136-1.664-4.309-3.122-7.057-3.523-1.3-.19-2.749-.052-3.775.717 2.238-.87 5.27-.078 7.064 1.393Z"/>
  <path fill="#3F4553" d="M129.158 32.679c-1.586.186-3.071.098-4.53-.552-.629 1.635-1.915 3.285-3.733 3.543-1.221.173-2.664-.209-2.914-1.504-8.585 7-18.209-.809-19.137-2.273-2.677 1.748-6.051-.385-7.05-3.116-2.04.793-4.39.548-6.371-.303-3.69-1.582-5.735-5.944-4.445-9.793 1.074-3.2 3.937-5.39 7.109-6.28-6.184-.035-12.825 4.414-11.8 11.251 1.03 6.86 9.7 10.032 15.711 8.622 1.296 2.457 4.403 3.027 6.797 1.749.183.14.365.28.55.417 3.821 2.806 8.266 4.63 13.067 3.8a14.724 14.724 0 0 0 5.1-1.92c1.491 1.121 3.455 1.477 5.262.61a4.727 4.727 0 0 0 2.57-3.175h.068c1.906-.023 3.863-.49 5.504-1.422a10.33 10.33 0 0 1-1.758.346Zm-47.516 2.107c-1.14.19-2.993.251-4.045-.878-.208-.225-.492.03-.231.255.042.036.085.069.127.101a1.109 1.109 0 0 1-.39.042c-.004 0-.004.004 0 .007a.977.977 0 0 0 .5.04c.004.002.007.006.01.006-.143.094-.316.133-.485.189-.003 0-.003.003 0 .006.209.02.427-.006.6-.117.019.013.038.02.058.033-.13.1-.277.176-.443.215-.016.003-.013.03.003.03a.934.934 0 0 0 .583-.16c.036.019.075.035.111.055-.12.088-.244.166-.384.232-.013.006-.007.029.006.029.186.006.349-.088.495-.2.046.024.091.04.14.06-.062.062-.133.12-.202.179-.01.01 0 .023.013.023a.878.878 0 0 0 .316-.147c1.046.43 2.27.444 3.319.065.11-.045.026-.084-.101-.065Z"/>
  <path fill="#3F4553" d="M86.322 34.786c1.14.19 2.993.251 4.045-.878.208-.225.491.03.23.255a2.32 2.32 0 0 1-.126.101c.127.036.254.052.39.042.004 0 .004.004 0 .007a.977.977 0 0 1-.5.04c-.004.002-.008.006-.01.006.143.094.315.133.484.189.004 0 .004.003 0 .006-.208.02-.426-.006-.599-.117-.02.013-.039.02-.058.033.13.1.276.176.443.215.016.003.013.03-.004.03a.934.934 0 0 1-.583-.16c-.035.019-.075.035-.11.055.12.088.244.166.384.232.013.006.006.029-.007.029-.185.006-.348-.088-.495-.2-.045.024-.09.04-.136.06.061.062.133.12.201.179.01.01 0 .023-.012.023a.878.878 0 0 1-.316-.147 4.7 4.7 0 0 1-3.322.065c-.108-.045-.026-.084.1-.065ZM84.7 37.164c-.534.277-1.065.388-1.615.056-.04-.023-.085.032-.05.065.473.42 1.313.528 1.786.036.078-.085-.02-.209-.12-.157Zm1.221 1.925a5.93 5.93 0 0 1-1.977.244 5.93 5.93 0 0 1-1.977-.244c-.016-.007-.029.023-.013.03.642.273 1.316.42 1.99.436a5.396 5.396 0 0 0 1.99-.437c.017-.007.004-.033-.013-.03Z"/>
  <path fill="#FBAD8B" d="M80.883 36.385a1.096 1.096 0 0 0-.173-.066c-.745-.192-1.628-.558-2.406-.424-.55.095-.678.764-.365 1.158.335.424.993.545 1.501.584.512.04 1.313.095 1.694-.306.345-.363.11-.77-.251-.947Zm6.097 0a.969.969 0 0 1 .172-.066c.746-.192 1.628-.558 2.407-.424.55.095.677.764.365 1.158-.336.424-.994.545-1.502.584-.511.04-1.312.095-1.693-.306-.346-.363-.108-.77.25-.947Z"/>
  <path fill="#F9CDB9" d="M74.093 31.5c-.772-.113-1.599.206-1.459 1.123.11.73.896 1.458 2.094 1.24a8.142 8.142 0 0 1-.635-2.362Z"/>
  <path fill="#F8C4AB" d="M73.347 32.219c.212-.177.54-.255.824-.21-.016-.087-.026-.178-.039-.267-.388-.036-.844.124-1.065.405-.345.44-.085.93.296 1.23.056.045.134-.026.082-.082-.277-.293-.47-.766-.098-1.076Z"/>
  <path fill="#F8C4AB" d="M74.324 32.708a1.055 1.055 0 0 0-.768-.27c-.069.002-.095.117-.017.126.277.04.515.183.662.405-.17.091-.294.29-.121.453.137.13.339.16.53.14a8.747 8.747 0 0 1-.286-.854Z"/>
  <path fill="#FDCA27" d="M74.025 33.65c-.003-.003-.01 0-.007.004.124.306.3 1.024-.123 1.171-.284.098-.31-.268-.267-.46.039-.176.136-.359.218-.515 0 0-.196-.043-.375-.134-.244.209-.332.519-.29.845.04.297.228.623.564.633.3.01.514-.248.56-.522.052-.356-.091-.731-.28-1.021Z"/>
  <path fill="#93BFA8" d="M136.345 89.831c-1.83-2.182-5.79-2.358-8.389-2.63-7.813-.815-15.824-.612-23.641.02-3.891.317-7.764.79-11.62 1.413-2.79.453-5.907.77-8.695 1.663-2.788-.893-5.904-1.213-8.695-1.663-3.853-.627-7.729-1.1-11.62-1.413-7.817-.633-15.832-.835-23.641-.02-2.596.272-6.56.448-8.39 2.63-1.768 2.107.414 4.662 2.095 6.002 2.322 1.853 5.269 2.767 8.083 3.566 3.533.998 7.148 1.677 10.783 2.192 16.267 2.297 25.1.604 33.603.499.325.414.632.845.912 1.292 8.62.055 19.693-.633 28.252-1.791 3.638-.493 7.249-1.191 10.783-2.192 2.817-.796 5.761-1.71 8.083-3.566 1.68-1.34 3.863-3.895 2.097-6.002Z"/>
  <path fill="#66A986" d="M124.803 91.342c.271-.346 1.909-.774 2.554-1.06-3.039.244-6.09.61-9.122.923-5.768.593-11.542 2.123-17.007 4.038a447.416 447.416 0 0 0-7.823 2.845c-2.058.763-4.093 1.598-6.025 2.639.297-.092.593-.183.89-.271 3.08-.907 15.635-7.709 38.882-8.547-.538-.117-2.453-.434-2.349-.567Zm-81.265-.48c-.27-.346-1.908-.773-2.553-1.06 3.039.244 6.09.61 9.122.923 5.768.594 11.542 2.124 17.007 4.038a453.52 453.52 0 0 1 7.822 2.845c2.059.763 4.094 1.598 6.025 2.639-.296-.091-.592-.183-.889-.27-3.08-.908-15.635-7.71-38.882-8.548.534-.117 2.45-.433 2.348-.567Z"/>
  <path fill="#FDB597" d="M91.859 98.075c-1.31-.526-2.694-.539-3.967.006-2.176.936-4.843-.499-7.103-.241-2.081.238-3.348 2.609-1.755 4.123.384.365 4.246 1.768 10.366-1.089.67-.314 1.325-.493 2.084-.483.176.003.342.169.528.15.397-.049.723-.121.944-.506.521-.907-.348-1.66-1.097-1.96Z"/>
  <path fill="#FDBCA0" d="M76.584 102.886c1.104-.877 2.43-1.288 3.801-1.128 2.351.274 4.498-1.866 6.738-2.268 2.062-.368 3.954 1.54 2.86 3.452-.264.46-3.567 2.91-10.246 1.924-.733-.107-1.41-.091-2.133.134-.166.052-.28.261-.466.294-.394.068-.726.091-1.049-.212-.755-.721-.136-1.693.495-2.196Zm44.383-53.59c-.753.388-1.544.825-2.283 1.233.39-.32 2.559-2.532 3.403-3.076.091-.059-.124-.956-2.342.819-.661.528-1.442 1.063-2.064 1.64.791-1.504 1.452-3.027 2.488-4.404.042-.055.029-.117-.007-.16-.212-.166-.742.023-.98.278-.424.45-2.032 2.192-2.814 4.029.013-.63-.042-1.651-.488-1.86-.281-.134-.746.043-1.046.066-.589.042-1.361.127-1.912-.108-.081-.033-.286-.059-.211.212.251.887 1.488.998 2.257 1.194.26.633-.473 1.67-.935 1.983-.752.512-1.85.01-1.661-.995.166-.884.694-1.285.228-2.153-.153-.287-.811-.548-.664-.085.377 1.185-.707 2.18-.847 3.325-.111.906.368 1.712.85 2.44-.029.075-.052.15-.078.221a16.394 16.394 0 0 0-1.531 3.585c.84.278 3.309.102 3.299.082.01.02.297-1.735.954-2.476.72-.812 1.625-1.438 2.492-2.078 1.82-1.347 3.67-2.655 5.546-3.928.107-.068.019-.649-1.654.216Zm-73.736 0c.753.388 1.544.825 2.283 1.233-.39-.32-2.56-2.532-3.403-3.076-.091-.059.124-.956 2.342.819.66.528 1.442 1.063 2.064 1.64-.791-1.504-1.452-3.027-2.488-4.404-.042-.055-.03-.117.007-.16.212-.166.742.023.98.278.423.45 2.032 2.192 2.814 4.029-.013-.63.042-1.651.488-1.86.28-.134.746.043 1.046.066.59.042 1.361.127 1.912-.108.08-.033.286-.059.211.212-.25.887-1.488.998-2.257 1.194-.26.633.473 1.67.935 1.983.752.512 1.85.01 1.66-.995-.165-.884-.693-1.285-.227-2.153.153-.287.81-.548.664-.085-.377 1.185.707 2.18.847 3.325.11.906-.368 1.712-.85 2.44.03.075.052.15.078.221a16.412 16.412 0 0 1 1.53 3.585c-.84.278-3.308.102-3.298.082-.01.02-.297-1.735-.955-2.476-.72-.812-1.625-1.438-2.49-2.078a165.307 165.307 0 0 0-5.547-3.928c-.108-.068-.02-.649 1.654.216Z"/>
  <path fill="#F2EDE4" d="M109.451 56.326c-1.221 3.154-5.363 14.8-7.093 19.739-1.029-2.642-3.81-14.115-6.152-27.435-.73-4.14-5.39-3.549-7.884-3.135-.18 2.78-2.873 10.485-4.319 10.501-1.446-.016-4.312-7.176-4.318-10.5-2.492-.415-7.155-1.005-7.885 3.134-2.344 13.32-5.123 24.796-6.152 27.435-1.732-4.939-5.871-16.585-7.093-19.74-1.566.741-3.299 1.149-5.028 1.25 1.338 3.566 5.758 28.814 12.271 28.814 2.824 0 4.612-3.004 7.49-14.134.144 1.86.193 5.431.121 9.186-.052 2.704-1.918 5.83-4.416 5.226-.505-.12-1.163.26-.537.94.169.185.387.322.612.427 3.99 1.892 4.146 4.72 6.5 6.367 1.424.995 3.176 1.308 4.846 1.648 1.811.365 3.677.64 5.52.362 3.065-.46 5.446-2.512 7.983-4.117 1.416-.897 2.856-1.615 4.52-1.86 4.283-.629 3.999-3.656 3.104-3.594-3 .205-6.95-3.624-6.973-7.84-.016-2.805.04-5.294.15-6.745 2.879 11.13 4.667 14.135 7.49 14.135 6.514 0 10.933-25.25 12.272-28.815-1.73-.101-3.462-.512-5.029-1.25Z"/>
  <path fill="#D9C9AC" d="M92.22 67.352a.95.95 0 0 0-.085.068c-.53.519-.944 1.142-1.465 1.67-.521.526-1.195.966-1.935.963-1.775-.01-2.664-2.144-3.732-3.23-1.641-1.663-3.234 2.127-4.455 2.87-1.254.764-2.104.304-3.029-.6-.567-.554-1.049-1.177-1.573-1.77-.137-.157-.45.01-.364.211.612 1.475 1.996 3.921 3.823 3.96 1.12.023 2.039-.62 2.775-1.409.361-.388 1.358-2.472 2.006-2.198.12.052.205.16.286.264.323.424.622.87.968 1.275.179.21.697.555.697.842.732.747 1.739 1.334 2.778 1.207 1.061-.13 1.901-.962 2.517-1.84.436-.623.804-1.295 1.094-2 .043-.1.078-.228.004-.31-.082-.084-.206-.045-.31.027Z"/>
  <g clip-path="url(#c)">
    <path fill="#3F4553" d="m151.99 84.295 11.145-3.736-5.587-16.4-11.145 3.736a.822.822 0 0 0-.523 1.048l5.053 14.83a.837.837 0 0 0 1.057.522Z"/>
    <path fill="#DDDDE3" d="m151.998 83.97 11.423-3.828-5.383-15.797-11.423 3.83a.536.536 0 0 0-.339.68l5.036 14.78c.098.28.404.429.686.336Z"/>
    <path fill="#E2E5FF" d="m152.239 83.89 11.423-3.829-5.383-15.797-11.423 3.83a.536.536 0 0 0-.339.68l5.036 14.78c.098.28.404.433.686.336Z"/>
    <path fill="#4E5567" d="M152.855 84.003 164 80.267l-5.587-16.395-11.145 3.736a.822.822 0 0 0-.523 1.048l5.053 14.83a.835.835 0 0 0 1.057.517Z"/>
    <path fill="#3F4553" d="m157.789 64.081-.24.08 5.587 16.4.24-.08-5.587-16.4Z"/>
    <path fill="#93BFA8" d="m159.381 76.892.249-.526.522.267-4.081-11.976c-.074-.21-.257-.194-.469-.121-.213.072-.372.17-.298.38l4.077 11.976Z"/>
    <path fill="#3F4553" d="m134.338 68.43 7.502-8.82-1.517-1.269-7.501 8.82 1.516 1.269Z"/>
    <path fill="#F2EDE4" d="m132.82 67.158 1.515 1.267-2.188 1.194c-.073.04-.171-.044-.147-.121l.82-2.34Z"/>
    <path fill="#3F4553" d="m132.151 69.623.592-.324-.514-.433-.221.632c-.028.076.07.161.143.125Z"/>
    <path fill="#4E5567" d="m133.836 68.01 7.501-8.82-.515-.431-7.501 8.82.515.43Z"/>
  </g>
  <g clip-path="url(#d)">
    <path fill="#808AFF" d="M51.503-16.66C41.833-16.66 34-8.828 34 .841c0 9.664 7.834 17.503 17.503 17.503 9.663 0 17.502-7.834 17.502-17.503C69-8.828 61.167-16.66 51.504-16.66Zm0 32.045c-8.032 0-14.543-6.51-14.543-14.543 0-8.032 6.51-14.542 14.543-14.542 8.032 0 14.542 6.51 14.542 14.542s-6.51 14.543-14.542 14.543Z"/>
    <path fill="#AEB4FC" d="M64.92 6.45c3.1-7.41-.396-15.93-7.806-19.028-7.41-3.099-15.928.396-19.027 7.806s.396 15.929 7.806 19.027c7.41 3.1 15.93-.396 19.028-7.806Z"/>
    <path fill="#808AFF" d="M64.738.869c0-1.02-1.588-1.025-1.588 0s1.588 1.025 1.588 0ZM51.469 14.078c1.02 0 1.025-1.588 0-1.588-1.02 0-1.026 1.588 0 1.588ZM38.262.81c0 1.019 1.587 1.025 1.587 0 0-1.02-1.587-1.026-1.587 0Zm19.492 4.282a.48.48 0 0 1-.27-.077l-6.257-3.72a.532.532 0 0 1-.259-.458v-10a.53.53 0 0 1 1.059 0V.539l5.998 3.567a.524.524 0 0 1 .181.727.518.518 0 0 1-.452.26Z"/>
  </g>
  <path fill="#9BA3FF" d="m16.62 36.746-.349-1.981-2.025.345a6.194 6.194 0 0 0-1.522-2.402l1.187-1.664-1.662-1.152-1.18 1.656a6.278 6.278 0 0 0-2.794-.635l-.356-2.008-2.004.345.35 2.002a6.285 6.285 0 0 0-2.431 1.504L2.15 31.583.985 33.226l1.676 1.166a6.086 6.086 0 0 0-.643 2.761L0 37.498l.35 1.981 2.024-.345a6.19 6.19 0 0 0 1.523 2.402L2.71 43.2l1.662 1.152 1.18-1.656a6.278 6.278 0 0 0 2.793.635l.356 2.008 2.005-.345-.35-2.001a6.284 6.284 0 0 0 2.43-1.505l1.684 1.173 1.166-1.642-1.676-1.167a6.07 6.07 0 0 0 .642-2.761l2.019-.345Zm-7.988 2.216a1.888 1.888 0 0 1-2.186-1.519c-.182-1.015.51-1.981 1.536-2.16a1.888 1.888 0 0 1 2.186 1.518 1.865 1.865 0 0 1-1.536 2.16Z"/>
  <path fill="#AEB4FC" d="M35.728 32.75v-2.493h-2.55A7.583 7.583 0 0 0 31.839 27l1.809-1.787-1.781-1.76-1.802 1.78a7.816 7.816 0 0 0-3.282-1.36V21.34h-2.521v2.52a7.735 7.735 0 0 0-3.296 1.325l-1.809-1.788-1.78 1.76 1.801 1.781a7.63 7.63 0 0 0-1.376 3.244h-2.563v2.492h2.55a7.585 7.585 0 0 0 1.34 3.258L17.32 37.72l1.781 1.76 1.802-1.78a7.817 7.817 0 0 0 3.282 1.36v2.532h2.521v-2.52a7.772 7.772 0 0 0 3.296-1.324l1.809 1.787 1.78-1.76-1.8-1.78a7.631 7.631 0 0 0 1.375-3.245h2.563Zm-10.245 1.035c-1.292 0-2.346-1.036-2.346-2.32 0-1.277 1.047-2.319 2.346-2.319 1.292 0 2.346 1.035 2.346 2.32a2.343 2.343 0 0 1-2.346 2.319Z"/>
  <g opacity=".3">
    <path fill="#ECECEC" d="m153.995 14.236-18.729-4.209a.338.338 0 0 1-.257-.407l2.358-10.5c.04-.184.224-.3.407-.257l18.729 4.213c.184.04.3.223.257.407l-2.362 10.5a.335.335 0 0 1-.403.253Z"/>
    <path fill="#F5F4F5" d="M135.319 9.78a.086.086 0 0 1-.067-.106l2.362-10.5c.01-.05.06-.08.107-.067l18.729 4.212c.05.01.08.06.066.107l-2.361 10.5c-.01.05-.06.08-.107.067L135.319 9.78Z"/>
    <path fill="#706F6E" d="M153.867 2.48 140.414-.545l-.055.244 13.453 3.025.055-.244Z"/>
    <path fill="#585857" d="m139.105.964-.62-.14a.145.145 0 0 1-.11-.173l.097-.437a.145.145 0 0 1 .173-.11l.62.14a.145.145 0 0 1 .11.173l-.096.437a.15.15 0 0 1-.174.11Z"/>
    <path fill="#5E5E5D" d="M138.511.7c-.01-.003-.017-.013-.013-.023l.096-.436c.004-.01.014-.017.024-.014l.62.14c.01.004.017.014.014.024l-.097.437c-.004.01-.014.016-.024.013l-.62-.14Z"/>
    <path fill="#585857" d="m140.242 1.218-.62-.14a.145.145 0 0 1-.11-.174l.096-.437a.147.147 0 0 1 .174-.11l.62.14a.145.145 0 0 1 .11.174l-.096.437a.147.147 0 0 1-.174.11Z"/>
    <path fill="#5E5E5D" d="M139.648.958c-.01-.004-.016-.014-.013-.024l.097-.437a.019.019 0 0 1 .023-.013l.621.14c.01.003.016.013.013.023l-.097.437c-.003.01-.013.017-.023.014l-.621-.14Z"/>
    <path fill="#585857" d="m141.38 1.475-.62-.14a.147.147 0 0 1-.111-.174l.097-.437a.147.147 0 0 1 .174-.11l.62.14a.145.145 0 0 1 .11.174l-.097.437a.149.149 0 0 1-.173.11Z"/>
    <path fill="#5E5E5D" d="M140.786 1.211a.019.019 0 0 1-.013-.023l.097-.437c.003-.01.013-.017.023-.013l.62.14c.01.003.017.013.014.023l-.097.437c-.003.01-.013.017-.023.013l-.621-.14Z"/>
    <path fill="#585857" d="m142.517 1.728-.62-.14a.145.145 0 0 1-.11-.174l.097-.436a.145.145 0 0 1 .173-.11l.62.14a.147.147 0 0 1 .111.173l-.097.437a.144.144 0 0 1-.174.11Z"/>
    <path fill="#5E5E5D" d="M141.924 1.468c-.01-.003-.017-.013-.014-.023l.097-.437c.003-.01.013-.017.023-.014l.621.14c.01.004.016.014.013.024l-.097.437a.019.019 0 0 1-.023.013l-.62-.14Z"/>
    <path fill="#585857" d="m143.651 1.985-.62-.14a.145.145 0 0 1-.11-.174l.096-.437a.147.147 0 0 1 .174-.11l.62.14a.145.145 0 0 1 .11.174l-.096.437a.144.144 0 0 1-.174.11Z"/>
    <path fill="#5E5E5D" d="M143.061 1.725c-.01-.003-.017-.013-.013-.023l.096-.437c.004-.01.014-.017.024-.014l.62.14c.01.004.017.014.014.024l-.097.437a.02.02 0 0 1-.024.013l-.62-.14Z"/>
    <path fill="#585857" d="m144.789 2.242-.621-.14a.147.147 0 0 1-.11-.174l.097-.437a.147.147 0 0 1 .174-.11l.62.14a.145.145 0 0 1 .11.174l-.097.437a.145.145 0 0 1-.173.11Z"/>
    <path fill="#5E5E5D" d="M144.198 1.978a.019.019 0 0 1-.013-.023l.097-.437c.003-.01.013-.017.023-.013l.62.14c.01.003.017.013.014.023l-.097.437c-.003.01-.013.017-.023.013l-.621-.14Z"/>
    <path fill="#585857" d="m145.926 2.495-.62-.14a.145.145 0 0 1-.11-.173l.097-.437a.145.145 0 0 1 .173-.11l.62.14a.145.145 0 0 1 .11.173l-.096.437a.143.143 0 0 1-.174.11Z"/>
    <path fill="#5E5E5D" d="M145.336 2.235c-.01-.003-.017-.013-.014-.023l.097-.437c.003-.01.013-.017.023-.014l.621.14c.01.004.017.014.013.024l-.097.437c-.003.01-.013.017-.023.013l-.62-.14Z"/>
    <path fill="#585857" d="m147.064 2.752-.621-.14a.147.147 0 0 1-.11-.173l.097-.437a.146.146 0 0 1 .173-.11l.621.14a.145.145 0 0 1 .11.173l-.097.437a.146.146 0 0 1-.173.11Z"/>
    <path fill="#5E5E5D" d="M146.473 2.492a.019.019 0 0 1-.013-.023l.097-.437c.003-.01.013-.017.023-.014l.62.14c.01.004.017.014.014.024l-.097.437a.019.019 0 0 1-.023.013l-.621-.14Z"/>
    <path fill="#585857" d="m148.201 3.009-.62-.14a.145.145 0 0 1-.11-.174l.097-.436a.145.145 0 0 1 .173-.11l.621.14a.147.147 0 0 1 .11.173l-.097.437a.15.15 0 0 1-.174.11Z"/>
    <path fill="#5E5E5D" d="M147.607 2.746c-.01-.004-.016-.014-.013-.024l.097-.437a.019.019 0 0 1 .023-.013l.62.14c.01.003.017.013.014.023l-.097.437c-.003.01-.013.017-.023.014l-.621-.14Z"/>
    <path fill="#585857" d="m149.338 3.263-.62-.14a.145.145 0 0 1-.11-.174l.097-.437a.145.145 0 0 1 .173-.11l.621.14a.147.147 0 0 1 .11.174l-.097.437a.144.144 0 0 1-.174.11Z"/>
    <path fill="#5E5E5D" d="M148.745 3.002c-.01-.003-.017-.013-.014-.023l.097-.437c.003-.01.013-.017.023-.013l.621.14c.01.003.017.013.013.023l-.097.437c-.003.01-.013.017-.023.014l-.62-.14Z"/>
    <path fill="#585857" d="m150.476 3.52-.621-.14a.147.147 0 0 1-.11-.174l.097-.437a.147.147 0 0 1 .174-.11l.62.14a.145.145 0 0 1 .11.173l-.097.437a.146.146 0 0 1-.173.11Z"/>
    <path fill="#5E5E5D" d="M149.882 3.26c-.01-.004-.017-.014-.013-.024l.096-.437c.004-.01.014-.017.024-.013l.62.14c.01.003.017.013.013.023l-.096.437c-.004.01-.014.017-.024.013l-.62-.14Z"/>
    <path fill="#585857" d="m151.613 3.776-.62-.14a.145.145 0 0 1-.11-.173l.096-.437a.147.147 0 0 1 .174-.11l.62.14a.145.145 0 0 1 .11.173l-.096.437a.15.15 0 0 1-.174.11Z"/>
    <path fill="#5E5E5D" d="M151.019 3.513c-.01-.004-.016-.014-.013-.024l.097-.437a.019.019 0 0 1 .023-.013l.62.14c.01.003.017.013.014.023l-.097.437c-.003.01-.013.017-.023.014l-.621-.14Z"/>
    <path fill="#585857" d="m152.751 4.03-.621-.14a.145.145 0 0 1-.11-.174l.097-.437a.145.145 0 0 1 .173-.11l.621.14a.147.147 0 0 1 .11.174l-.097.437c-.02.08-.097.13-.173.11Z"/>
    <path fill="#5E5E5D" d="M152.157 3.77c-.01-.004-.017-.014-.014-.024l.097-.437c.004-.01.014-.016.024-.013l.62.14c.01.003.017.013.013.023l-.096.437c-.004.01-.014.017-.024.014l-.62-.14Z"/>
    <path fill="#585857" d="m153.888 4.286-.62-.14a.145.145 0 0 1-.11-.173l.096-.437a.147.147 0 0 1 .174-.11l.62.14a.145.145 0 0 1 .11.173l-.097.437a.146.146 0 0 1-.173.11Z"/>
    <path fill="#5E5E5D" d="M153.294 4.026a.019.019 0 0 1-.013-.023l.097-.437c.003-.01.013-.017.023-.013l.621.14c.01.003.016.013.013.023l-.097.437c-.003.01-.013.017-.023.013l-.621-.14Z"/>
    <path fill="#585857" d="m155.022 4.543-.62-.14a.145.145 0 0 1-.11-.173l.096-.437a.147.147 0 0 1 .174-.11l.62.14a.145.145 0 0 1 .11.173l-.097.437a.145.145 0 0 1-.173.11Z"/>
    <path fill="#5E5E5D" d="M154.432 4.28c-.01-.004-.017-.014-.013-.024l.096-.436c.004-.01.014-.017.024-.014l.62.14c.01.004.017.014.013.024l-.096.437c-.004.01-.014.016-.024.013l-.62-.14Z"/>
    <path fill="#585857" d="m138.471.974.767.174c.087.02.144.107.124.197l-.17.754a.165.165 0 0 1-.197.123l-.767-.173a.165.165 0 0 1-.124-.197l.17-.754a.165.165 0 0 1 .197-.124Z"/>
    <path fill="#5E5E5D" d="M138.258 1.925c-.02-.004-.033-.027-.03-.047l.17-.754c.003-.02.027-.033.047-.03l.767.174c.02.003.033.026.03.046l-.17.754c-.003.02-.027.034-.047.03l-.767-.173Z"/>
    <path fill="#585857" d="m139.782 1.271.767.173c.087.02.143.107.123.197l-.17.754a.165.165 0 0 1-.197.124l-.767-.174a.165.165 0 0 1-.123-.197l.17-.754a.163.163 0 0 1 .197-.123Z"/>
    <path fill="#5E5E5D" d="M139.569 2.222c-.02-.004-.034-.027-.03-.047l.17-.754c.003-.02.026-.033.046-.03l.768.174c.02.003.033.026.03.046l-.171.754c-.003.02-.026.033-.046.03l-.767-.173Z"/>
    <path fill="#585857" d="m141.093 1.565.768.173c.086.02.143.107.123.197l-.17.754a.165.165 0 0 1-.197.123l-.767-.173a.165.165 0 0 1-.124-.197l.171-.754a.166.166 0 0 1 .196-.123Z"/>
    <path fill="#5E5E5D" d="M140.88 2.515c-.02-.003-.034-.026-.03-.046l.17-.754c.003-.02.026-.034.046-.03l.768.173c.02.003.033.027.03.047l-.17.754c-.004.02-.027.033-.047.03l-.767-.174Z"/>
    <path fill="#585857" d="m142.404 1.858.767.174c.087.02.143.107.123.197l-.17.753a.164.164 0 0 1-.196.124l-.768-.174a.165.165 0 0 1-.123-.196l.17-.754a.167.167 0 0 1 .197-.124Z"/>
    <path fill="#5E5E5D" d="M142.191 2.812c-.02-.003-.034-.027-.03-.047l.17-.753c.003-.02.026-.034.046-.03l.768.173c.02.003.033.027.03.047l-.17.754c-.004.02-.027.033-.047.03l-.767-.174Z"/>
    <path fill="#585857" d="m143.714 2.155.768.174c.086.02.143.106.123.196l-.17.754a.165.165 0 0 1-.197.124l-.767-.174a.164.164 0 0 1-.123-.197l.17-.753a.165.165 0 0 1 .196-.124Z"/>
    <path fill="#5E5E5D" d="M143.501 3.106c-.02-.004-.033-.027-.03-.047l.17-.754c.004-.02.027-.033.047-.03l.767.173c.02.004.034.027.03.047l-.17.754c-.003.02-.027.033-.047.03l-.767-.173Z"/>
    <path fill="#585857" d="m145.025 2.449.768.173c.086.02.143.107.123.197l-.17.754a.165.165 0 0 1-.197.123l-.767-.173a.164.164 0 0 1-.123-.197l.17-.754a.168.168 0 0 1 .196-.123Z"/>
    <path fill="#5E5E5D" d="M144.812 3.4c-.02-.004-.034-.027-.03-.047l.17-.754c.003-.02.027-.033.047-.03l.767.173c.02.004.033.027.03.047l-.17.754c-.004.02-.027.033-.047.03l-.767-.174Z"/>
    <path fill="#585857" d="m146.337 2.745.767.174c.087.02.143.107.123.197l-.17.753a.165.165 0 0 1-.197.124l-.767-.174a.165.165 0 0 1-.123-.196l.17-.754a.165.165 0 0 1 .197-.124Z"/>
    <path fill="#5E5E5D" d="M146.123 3.696c-.02-.003-.034-.027-.03-.047l.17-.753c.003-.02.027-.034.047-.03l.767.173c.02.003.033.027.03.047l-.17.753c-.004.02-.027.034-.047.03l-.767-.173Z"/>
    <path fill="#585857" d="m147.651 3.04.767.173c.087.02.143.106.123.196l-.17.754a.165.165 0 0 1-.197.124l-.767-.174a.165.165 0 0 1-.123-.197l.17-.753a.165.165 0 0 1 .197-.124Z"/>
    <path fill="#5E5E5D" d="M147.434 3.99c-.02-.004-.033-.027-.03-.047l.17-.754c.004-.02.027-.033.047-.03l.767.174c.02.003.033.026.03.046l-.17.754c-.003.02-.027.034-.047.03l-.767-.173Z"/>
    <path fill="#585857" d="m148.962 3.333.767.173c.086.02.143.107.123.197l-.17.754a.165.165 0 0 1-.197.123l-.767-.173a.164.164 0 0 1-.123-.197l.17-.754a.165.165 0 0 1 .197-.123Z"/>
    <path fill="#5E5E5D" d="M148.748 4.286c-.02-.003-.033-.026-.03-.046l.17-.754c.003-.02.027-.034.047-.03l.767.173c.02.004.033.027.03.047l-.17.754c-.003.02-.027.033-.047.03l-.767-.174Z"/>
    <path fill="#585857" d="m150.273 3.63.767.173c.086.02.143.107.123.197l-.17.754a.165.165 0 0 1-.197.123l-.767-.173a.164.164 0 0 1-.123-.197l.17-.754a.162.162 0 0 1 .197-.123Z"/>
    <path fill="#5E5E5D" d="M150.059 4.58c-.02-.003-.034-.026-.03-.046l.17-.754c.003-.02.027-.034.047-.03l.767.173c.02.003.033.027.03.047l-.17.754c-.004.02-.027.033-.047.03l-.767-.174Z"/>
    <path fill="#585857" d="m151.583 3.923.768.173c.086.02.143.107.123.197l-.17.754a.165.165 0 0 1-.197.123l-.764-.173a.165.165 0 0 1-.123-.197l.17-.754a.16.16 0 0 1 .193-.123Z"/>
    <path fill="#5E5E5D" d="M151.37 4.874c-.02-.004-.033-.027-.03-.047l.17-.754c.003-.02.027-.033.047-.03l.767.174c.02.003.033.026.03.046l-.174.754c-.003.02-.026.033-.046.03l-.764-.173Z"/>
    <path fill="#585857" d="m152.894 4.22.767.173c.087.02.144.107.124.197l-.17.754a.165.165 0 0 1-.197.123l-.767-.173a.165.165 0 0 1-.124-.197l.17-.754c.02-.09.11-.143.197-.123Z"/>
    <path fill="#5E5E5D" d="M152.681 5.17c-.02-.003-.033-.026-.03-.046l.17-.754c.003-.02.027-.033.047-.03l.767.173c.02.004.033.027.03.047l-.17.754c-.004.02-.027.033-.047.03l-.767-.173Z"/>
    <path fill="#585857" d="m154.205 4.513.767.174c.087.02.143.106.123.197l-.17.753a.165.165 0 0 1-.197.124l-.767-.174a.164.164 0 0 1-.123-.196l.173-.754a.162.162 0 0 1 .194-.124Z"/>
    <path fill="#5E5E5D" d="M153.991 5.464c-.02-.003-.033-.027-.03-.047l.171-.753c.003-.02.026-.034.046-.03l.767.173c.02.003.034.027.03.047l-.17.754c-.003.02-.026.033-.046.03l-.768-.174Z"/>
    <path fill="#585857" d="m138.194 2.195.767.174c.087.02.144.106.124.196l-.17.754a.165.165 0 0 1-.197.124l-.767-.174a.165.165 0 0 1-.124-.197l.174-.753a.162.162 0 0 1 .193-.124Z"/>
    <path fill="#5E5E5D" d="M137.981 3.146c-.02-.004-.033-.027-.03-.047l.17-.754c.003-.02.027-.033.047-.03l.767.174c.02.003.033.026.03.046l-.17.754c-.003.02-.027.034-.047.03l-.767-.173Z"/>
    <path fill="#585857" d="m139.509 2.492.767.173c.087.02.143.107.123.197l-.17.754a.164.164 0 0 1-.196.123l-.768-.173a.165.165 0 0 1-.123-.197l.17-.754a.163.163 0 0 1 .197-.123Z"/>
    <path fill="#5E5E5D" d="M139.292 3.443c-.02-.004-.033-.027-.03-.047l.17-.754c.003-.02.027-.033.047-.03l.767.174c.02.003.033.026.03.046l-.17.754c-.003.02-.027.033-.047.03l-.767-.173Z"/>
    <path fill="#585857" d="m140.819 2.786.768.173c.086.02.143.107.123.197l-.17.754a.165.165 0 0 1-.197.123l-.767-.173a.164.164 0 0 1-.123-.197l.17-.754a.164.164 0 0 1 .196-.123Z"/>
    <path fill="#5E5E5D" d="M140.606 3.736c-.02-.003-.033-.026-.03-.046l.17-.754c.004-.02.027-.034.047-.03l.767.173c.02.003.034.027.03.047l-.17.754c-.003.02-.027.033-.047.03l-.767-.174Z"/>
    <path fill="#585857" d="m142.13 3.08.767.173c.087.02.144.106.124.196l-.171.754a.164.164 0 0 1-.196.124l-.768-.174a.165.165 0 0 1-.123-.197l.17-.753a.165.165 0 0 1 .197-.124Z"/>
    <path fill="#5E5E5D" d="M141.917 4.03c-.02-.004-.034-.027-.03-.047l.17-.754c.003-.02.027-.033.047-.03l.767.174c.02.003.033.026.03.046l-.17.754c-.004.02-.027.033-.047.03l-.767-.173Z"/>
    <path fill="#585857" d="m143.441 3.376.768.173c.086.02.143.107.123.197l-.17.754a.165.165 0 0 1-.197.123l-.767-.173a.164.164 0 0 1-.123-.197l.17-.754c.02-.09.11-.143.196-.123Z"/>
    <path fill="#5E5E5D" d="M143.228 4.327c-.02-.004-.034-.027-.03-.047l.17-.754c.003-.02.027-.033.047-.03l.767.173c.02.004.033.027.03.047l-.17.754c-.004.02-.027.033-.047.03l-.767-.173Z"/>
    <path fill="#585857" d="m144.752 3.67.767.173c.087.02.144.106.124.197l-.17.753a.166.166 0 0 1-.197.124l-.767-.174a.165.165 0 0 1-.124-.196l.17-.754a.167.167 0 0 1 .197-.124Z"/>
    <path fill="#5E5E5D" d="M144.539 4.62c-.02-.003-.034-.027-.03-.047l.17-.753c.003-.02.027-.034.047-.03l.767.173c.02.003.033.027.03.047l-.17.754c-.004.02-.027.033-.047.03l-.767-.174Z"/>
    <path fill="#585857" d="m146.063 3.966.767.174c.087.02.143.107.123.197l-.17.753a.164.164 0 0 1-.196.124l-.768-.174a.165.165 0 0 1-.123-.196l.17-.754a.165.165 0 0 1 .197-.124Z"/>
    <path fill="#5E5E5D" d="M145.849 4.917c-.02-.003-.033-.027-.03-.047l.17-.754c.004-.02.027-.033.047-.03l.767.174c.02.003.034.027.03.047l-.17.753c-.003.02-.026.034-.046.03l-.768-.173Z"/>
    <path fill="#585857" d="m147.374 4.26.767.173c.087.02.143.107.123.197l-.17.754a.164.164 0 0 1-.196.123l-.768-.173a.165.165 0 0 1-.123-.197l.17-.754a.168.168 0 0 1 .197-.123Z"/>
    <path fill="#5E5E5D" d="M147.16 5.21c-.02-.003-.033-.026-.03-.046l.17-.754c.004-.02.027-.033.047-.03l.767.173c.02.004.033.027.03.047l-.17.754c-.003.02-.027.033-.047.03l-.767-.174Z"/>
    <path fill="#585857" d="m148.685 4.553.767.174c.087.02.143.107.123.197l-.17.754a.164.164 0 0 1-.196.123l-.768-.173a.165.165 0 0 1-.123-.197l.17-.754a.168.168 0 0 1 .197-.124Z"/>
    <path fill="#5E5E5D" d="M148.471 5.504c-.02-.003-.033-.027-.03-.047l.17-.753c.004-.02.027-.034.047-.03l.767.173c.02.003.034.027.03.047l-.17.753c-.003.02-.027.034-.047.03l-.767-.173Z"/>
    <path fill="#585857" d="m149.995 4.85.768.174c.086.02.143.106.123.197l-.17.753a.165.165 0 0 1-.197.124l-.767-.174a.164.164 0 0 1-.123-.197l.17-.753a.165.165 0 0 1 .196-.124Z"/>
    <path fill="#5E5E5D" d="M149.782 5.8c-.02-.002-.033-.026-.03-.046l.17-.754c.004-.02.027-.033.047-.03l.767.174c.02.003.034.026.03.046l-.17.754c-.003.02-.027.034-.047.03l-.767-.173Z"/>
    <path fill="#585857" d="m151.31 5.144.767.173c.087.02.143.107.123.197l-.17.754a.165.165 0 0 1-.197.123l-.767-.173a.164.164 0 0 1-.123-.197l.17-.754a.165.165 0 0 1 .197-.123Z"/>
    <path fill="#5E5E5D" d="M151.093 6.094c-.02-.003-.034-.026-.03-.046l.17-.754c.003-.02.027-.034.047-.03l.767.173c.02.004.033.027.03.047l-.17.754c-.004.02-.027.033-.047.03l-.767-.174Z"/>
    <path fill="#585857" d="m152.621 5.44.767.174c.087.02.143.107.123.197l-.17.754a.165.165 0 0 1-.197.123l-.767-.173a.164.164 0 0 1-.123-.197l.17-.754a.163.163 0 0 1 .197-.123Z"/>
    <path fill="#5E5E5D" d="M152.407 6.391c-.02-.003-.033-.026-.03-.046l.171-.754c.003-.02.026-.034.046-.03l.767.173c.02.003.034.027.03.047l-.17.754c-.003.02-.026.033-.046.03l-.768-.174Z"/>
    <path fill="#585857" d="m153.932 5.734.767.174c.087.02.143.106.123.196l-.17.754a.165.165 0 0 1-.197.124l-.767-.174a.165.165 0 0 1-.123-.197l.17-.753a.165.165 0 0 1 .197-.124Z"/>
    <path fill="#5E5E5D" d="M153.718 6.685c-.02-.004-.033-.027-.03-.047l.17-.754c.003-.02.027-.033.047-.03l.767.174c.02.003.033.026.03.046l-.17.754c-.003.02-.027.034-.047.03l-.767-.173Z"/>
    <path fill="#585857" d="m137.921 3.416.767.173c.087.02.144.107.124.197l-.17.754a.165.165 0 0 1-.197.123l-.767-.173a.165.165 0 0 1-.124-.197l.17-.754a.17.17 0 0 1 .197-.123Z"/>
    <path fill="#5E5E5D" d="M137.708 4.366c-.02-.003-.034-.026-.03-.046l.17-.754c.003-.02.026-.033.046-.03l.767.173c.021.004.034.027.031.047l-.171.754c-.003.02-.026.033-.046.03l-.767-.174Z"/>
    <path fill="#585857" d="m139.232 3.71.767.173c.087.02.143.107.123.197l-.17.753a.165.165 0 0 1-.197.124l-.767-.174a.165.165 0 0 1-.123-.196l.17-.754a.17.17 0 0 1 .197-.124Z"/>
    <path fill="#5E5E5D" d="M139.019 4.664c-.02-.004-.034-.027-.03-.047l.17-.754c.003-.02.026-.033.046-.03l.768.173c.02.004.033.027.03.047l-.171.754c-.003.02-.026.033-.046.03l-.767-.173Z"/>
    <path fill="#585857" d="m140.542 4.006.767.174c.087.02.144.107.124.197l-.17.753a.165.165 0 0 1-.197.124l-.767-.174a.165.165 0 0 1-.124-.196l.171-.754a.168.168 0 0 1 .196-.124Z"/>
    <path fill="#5E5E5D" d="M140.329 4.957c-.02-.003-.033-.027-.03-.047l.17-.754c.004-.02.027-.033.047-.03l.767.174c.02.003.033.027.03.047l-.17.753c-.003.02-.027.034-.047.03l-.767-.173Z"/>
    <path fill="#585857" d="m141.857 4.3.767.173c.087.02.144.107.124.197l-.171.754a.164.164 0 0 1-.196.123l-.767-.173a.165.165 0 0 1-.124-.197l.17-.754a.165.165 0 0 1 .197-.123Z"/>
    <path fill="#5E5E5D" d="M141.64 5.25c-.02-.003-.033-.026-.03-.046l.17-.754c.004-.02.027-.034.047-.03l.767.173c.02.004.033.027.03.047l-.17.754c-.003.02-.027.033-.047.03l-.767-.174Z"/>
    <path fill="#585857" d="m143.168 4.597.767.173c.086.02.143.107.123.197l-.17.754a.165.165 0 0 1-.197.123l-.767-.173a.164.164 0 0 1-.123-.197l.17-.754a.163.163 0 0 1 .197-.123Z"/>
    <path fill="#5E5E5D" d="M142.954 5.547c-.02-.003-.033-.026-.03-.046l.17-.754c.004-.02.027-.034.047-.03l.767.173c.02.003.034.027.03.047l-.17.754c-.003.02-.026.033-.046.03l-.768-.174Z"/>
    <path fill="#585857" d="m144.479 4.89.767.174c.086.02.143.106.123.197l-.17.753a.165.165 0 0 1-.197.124l-.767-.174a.164.164 0 0 1-.123-.197l.17-.753a.165.165 0 0 1 .197-.124Z"/>
    <path fill="#5E5E5D" d="M144.265 5.84c-.02-.003-.033-.026-.03-.046l.17-.754c.003-.02.027-.033.047-.03l.767.174c.02.003.033.026.03.046l-.17.754c-.004.02-.027.034-.047.03l-.767-.173Z"/>
    <path fill="#585857" d="m145.79 5.184.767.173c.087.02.143.107.123.197l-.17.754a.165.165 0 0 1-.197.123l-.767-.173a.164.164 0 0 1-.123-.197l.17-.754a.168.168 0 0 1 .197-.123Z"/>
    <path fill="#5E5E5D" d="M145.576 6.138c-.02-.004-.033-.027-.03-.047l.17-.754c.003-.02.027-.033.047-.03l.767.174c.02.003.033.026.03.046l-.17.754c-.004.02-.027.033-.047.03l-.767-.173Z"/>
    <path fill="#585857" d="m147.1 5.48.768.174c.086.02.143.107.123.197l-.17.754a.165.165 0 0 1-.197.123l-.767-.173a.164.164 0 0 1-.123-.197l.17-.754c.02-.09.11-.144.196-.123Z"/>
    <path fill="#5E5E5D" d="M146.887 6.431c-.02-.003-.033-.027-.03-.047l.17-.753c.003-.02.027-.034.047-.03l.767.173c.02.003.033.027.03.047l-.17.754c-.003.02-.027.033-.047.03l-.767-.174Z"/>
    <path fill="#585857" d="m148.411 5.774.767.174c.087.02.144.106.124.196l-.171.754a.164.164 0 0 1-.196.124l-.768-.174a.165.165 0 0 1-.123-.197l.17-.753a.167.167 0 0 1 .197-.124Z"/>
    <path fill="#5E5E5D" d="M148.198 6.725c-.02-.004-.034-.027-.03-.047l.17-.754c.003-.02.027-.033.047-.03l.767.174c.02.003.033.026.03.046l-.174.754c-.003.02-.026.034-.046.03l-.764-.173Z"/>
    <path fill="#585857" d="m149.722 6.071.767.173c.087.02.144.107.124.197l-.171.754a.164.164 0 0 1-.196.123l-.767-.173a.165.165 0 0 1-.124-.197l.17-.754a.166.166 0 0 1 .197-.123Z"/>
    <path fill="#5E5E5D" d="M149.508 7.022c-.02-.004-.033-.024-.03-.047l.17-.754c.004-.02.027-.033.047-.03l.767.174c.02.003.034.026.03.046l-.17.754c-.003.02-.027.033-.047.03l-.767-.173Z"/>
    <path fill="#585857" d="m151.033 6.364.767.174c.087.02.144.107.124.197l-.17.754a.165.165 0 0 1-.197.123l-.767-.173a.165.165 0 0 1-.124-.197l.17-.754a.169.169 0 0 1 .197-.124Z"/>
    <path fill="#5E5E5D" d="M150.819 7.315c-.02-.003-.033-.027-.03-.047l.17-.753c.004-.02.027-.034.047-.03l.767.173c.02.003.034.027.03.047l-.17.753c-.003.02-.026.034-.046.03l-.768-.173Z"/>
    <path fill="#585857" d="m152.344 6.658.767.174c.086.02.143.106.123.196l-.17.754a.165.165 0 0 1-.197.124l-.767-.174a.164.164 0 0 1-.123-.197l.17-.754a.168.168 0 0 1 .197-.123Z"/>
    <path fill="#5E5E5D" d="M152.13 7.612c-.02-.003-.033-.027-.03-.047l.17-.754c.004-.02.027-.033.047-.03l.767.174c.02.003.034.027.03.047l-.17.75c-.003.02-.026.033-.046.03l-.768-.17Z"/>
    <path fill="#585857" d="m153.658 6.955.767.173c.087.02.143.107.123.197l-.17.754a.165.165 0 0 1-.197.123l-.767-.173a.165.165 0 0 1-.123-.197l.17-.754a.163.163 0 0 1 .197-.123Z"/>
    <path fill="#5E5E5D" d="M153.441 7.906c-.02-.004-.033-.027-.03-.047l.17-.754c.003-.02.027-.033.047-.03l.767.173c.02.004.033.027.03.047l-.17.754c-.004.02-.027.033-.047.03l-.767-.173Z"/>
    <path fill="#585857" d="m137.647 4.637.767.173c.087.02.144.107.124.197l-.17.754a.165.165 0 0 1-.197.123l-.767-.173a.165.165 0 0 1-.124-.197l.171-.754a.166.166 0 0 1 .196-.123Z"/>
    <path fill="#5E5E5D" d="M137.434 5.587c-.02-.003-.033-.026-.03-.046l.17-.754c.004-.02.027-.033.047-.03l.767.173c.02.004.033.027.03.047l-.17.754c-.003.02-.027.033-.047.03l-.767-.174Z"/>
    <path fill="#585857" d="m138.958 4.93.768.174c.086.02.143.106.123.197l-.17.753a.165.165 0 0 1-.197.124l-.767-.174a.165.165 0 0 1-.124-.196l.171-.754a.166.166 0 0 1 .196-.124Z"/>
    <path fill="#5E5E5D" d="M138.745 5.881c-.02-.003-.033-.027-.03-.047l.17-.754c.004-.02.027-.033.047-.03l.767.174c.02.003.033.027.03.047l-.17.753c-.003.02-.027.034-.047.03l-.767-.173Z"/>
    <path fill="#585857" d="m140.269 5.227.768.174c.086.02.143.106.123.196l-.17.754a.165.165 0 0 1-.197.124l-.767-.174a.165.165 0 0 1-.124-.197l.174-.753a.16.16 0 0 1 .193-.124Z"/>
    <path fill="#5E5E5D" d="M140.056 6.178c-.02-.004-.034-.027-.03-.047l.17-.754c.003-.02.026-.033.046-.03l.768.174c.02.003.033.026.03.046l-.17.754c-.004.02-.027.033-.047.03l-.767-.173Z"/>
    <path fill="#585857" d="m141.58 5.52.767.174c.087.02.144.107.124.197l-.171.754a.164.164 0 0 1-.196.123l-.768-.173a.165.165 0 0 1-.123-.197l.17-.754a.168.168 0 0 1 .197-.123Z"/>
    <path fill="#5E5E5D" d="M141.367 6.471c-.02-.003-.034-.026-.03-.046l.17-.754c.003-.02.026-.034.047-.03l.767.173c.02.004.033.027.03.047l-.17.754c-.004.02-.027.033-.047.03l-.767-.174Z"/>
    <path fill="#585857" d="m147.59 6.872-4.706-1.058a.157.157 0 0 0-.19.12l-.184.81a.112.112 0 0 0 .084.134l4.749 1.068a.167.167 0 0 0 .197-.124l.17-.754a.159.159 0 0 0-.12-.196Z"/>
    <path fill="#5E5E5D" d="m142.641 6.758.18-.797c.003-.017.023-.03.04-.023l4.706 1.057c.02.003.034.027.03.047l-.17.753c-.003.02-.027.034-.047.03l-4.739-1.067Z"/>
    <path fill="#585857" d="m148.138 6.995.767.174c.087.02.144.106.124.196l-.171.754a.164.164 0 0 1-.196.124l-.767-.174a.165.165 0 0 1-.124-.197l.17-.753a.165.165 0 0 1 .197-.124Z"/>
    <path fill="#5E5E5D" d="M147.924 7.946c-.02-.004-.033-.027-.03-.047l.17-.754c.004-.02.027-.033.047-.03l.767.174c.02.003.034.026.03.046l-.17.754c-.003.02-.026.033-.047.03l-.767-.173Z"/>
    <path fill="#585857" d="m149.449 7.292.767.173c.086.02.143.107.123.197l-.17.754a.165.165 0 0 1-.197.123l-.767-.173a.164.164 0 0 1-.123-.197l.17-.754c.02-.09.11-.143.197-.123Z"/>
    <path fill="#5E5E5D" d="M149.235 8.243c-.02-.004-.033-.027-.03-.047l.17-.754c.004-.02.027-.033.047-.03l.767.173c.02.004.034.027.03.047l-.17.754c-.003.02-.026.033-.046.03l-.768-.173Z"/>
    <path fill="#585857" d="m150.759 7.585.767.174c.087.02.144.107.124.197l-.17.754a.165.165 0 0 1-.197.123l-.767-.174a.165.165 0 0 1-.124-.196l.17-.754a.167.167 0 0 1 .197-.124Z"/>
    <path fill="#5E5E5D" d="M150.546 8.536c-.02-.003-.033-.027-.03-.047l.17-.754c.003-.02.027-.033.047-.03l.767.174c.02.003.033.027.03.047l-.17.753c-.004.02-.024.034-.047.03l-.767-.173Z"/>
    <path fill="#585857" d="m152.07 7.879.767.173c.087.02.144.107.124.197l-.17.754a.165.165 0 0 1-.197.123l-.767-.173a.165.165 0 0 1-.124-.197l.17-.754a.169.169 0 0 1 .197-.123Z"/>
    <path fill="#5E5E5D" d="M151.856 8.83c-.02-.004-.033-.027-.03-.047l.171-.754c.003-.02.026-.033.046-.03l.767.173c.02.004.034.027.03.047l-.17.754c-.003.02-.026.033-.046.03l-.768-.173Z"/>
    <path fill="#585857" d="m153.381 8.176.767.173c.087.02.144.107.124.197l-.17.754a.165.165 0 0 1-.197.123l-.767-.173a.165.165 0 0 1-.124-.197l.17-.754a.166.166 0 0 1 .197-.123Z"/>
    <path fill="#5E5E5D" d="M153.168 9.126c-.02-.003-.033-.026-.03-.046l.17-.754c.003-.02.027-.033.047-.03l.767.173c.02.004.033.027.03.047l-.17.754c-.003.02-.027.033-.047.03l-.767-.174Z"/>
    <path fill="#EDEDED" d="m147.354 9-3.849-.864a.32.32 0 0 0-.384.243l-.464 2.058a.32.32 0 0 0 .244.384l3.849.864a.32.32 0 0 0 .384-.244l.463-2.058a.32.32 0 0 0-.243-.383Z"/>
    <path fill="#9D9B9B" d="m147.384 8.876-3.85-.864a.446.446 0 0 0-.533.337l-.464 2.058c-.053.24.097.48.337.534l3.849.864a.447.447 0 0 0 .534-.337l.464-2.058a.449.449 0 0 0-.337-.534Zm-.247 2.565a.32.32 0 0 1-.384.244l-3.849-.864a.32.32 0 0 1-.243-.384l.463-2.058a.32.32 0 0 1 .384-.243l3.849.864a.32.32 0 0 1 .243.383l-.463 2.058Z"/>
    <path fill="#DFDFDE" d="m142.888 9.423-.227 1.014a.32.32 0 0 0 .243.384l3.85.864c.173.04.346-.07.383-.244l.227-1.014-4.476-1.004Z"/>
    <path fill="#D9D9DA" d="m145.109 9.92-2.221-.5-.227 1.014a.32.32 0 0 0 .243.384l1.908.43.297-1.328Z"/>
    <path fill="#E3E1E1" d="m156.59 3.092-18.899-4.249a.232.232 0 0 1-.177-.244l1.978-10.813a.489.489 0 0 1 .597-.434l19.249 4.33c.291.066.457.37.354.65l-2.839 10.617a.225.225 0 0 1-.263.143Z"/>
    <path fill="#C7C7C6" d="m138.338-2.195 1.824-9.129a.463.463 0 0 1 .564-.41l17.642 3.966c.273.06.43.35.333.614l-2.255 9.029a.465.465 0 0 1-.54.293L138.702-1.7a.464.464 0 0 1-.364-.494Z"/>
    <path fill="#C6E6F2" d="m138.465-2.181 1.824-9.136a.335.335 0 0 1 .41-.297l17.649 3.97a.338.338 0 0 1 .243.443l-2.261 9.036a.336.336 0 0 1-.391.213l-17.214-3.872a.333.333 0 0 1-.26-.357Z"/>
    <path fill="#585857" d="M153.851 2.479 140.403-.547l.006-.227 13.559 3.05-.117.203Z"/>
  </g>
  <path fill="#FDFFFC" d="M29.808 64.977c-.897-3.792-4.689-6.13-8.46-5.23-3.776.9-6.105 4.708-5.208 8.494a7.036 7.036 0 0 0 5.168 5.214c.142.379.407 2.676.881 3.413.214.333.484.389.897.302.331 1.182 1.717 2.267 2.859 2.16.8-.077 1.38-.63 1.64-1.372.205-.578.368-1.243.47-1.888.55-.015.815-.072.79-.588-.046-.896-1.015-3.362-1.05-3.74a7.085 7.085 0 0 0 2.013-6.765Z"/>
  <path fill="#AEB4FC" d="M26.154 64.72c-.107-.383-.484-.639-.882-.541-.372.087-.652.501-.54.885a.79.79 0 0 0 .448.511c-.152.993-.346 1.97-.428 2.973-.076.931-.152 1.842-.356 2.748-1.106-1.663-2.207-3.32-3.425-4.902.337-.322.082-1.044-.484-.91-.668.158-.423 1.202.25 1.043.005 0 .01-.005.015-.01 1.264 1.796 2.502 3.618 3.532 5.562.112.21.417.164.489-.051.336-1.003.433-2.027.504-3.076.082-1.13.3-2.24.393-3.366.341-.113.586-.502.484-.865Z"/>
  <path fill="#808AFF" d="M17.669 58.54a1695.98 1695.98 0 0 1-4.271-2.129c-.296-.143-.566.282-.27.44 1.386.768 2.777 1.53 4.163 2.298.408.225.785-.404.378-.61Zm2.675-5.424c-.117-.26-.453-.072-.428.164.173 1.473.719 2.978 1.147 4.4.107.348.642.23.555-.133-.351-1.463-.657-3.055-1.274-4.431Zm6.625-.43c-.367.323-.591.834-.82 1.264-.24.45-.454.911-.658 1.377-.163.378.464.578.622.189a15.5 15.5 0 0 1 .627-1.392c.199-.394.489-.778.606-1.202.066-.23-.209-.39-.377-.236Z"/>
  <defs>
    <clipPath id="a">
      <path fill="#fff" d="M0 0h14v17H0z" transform="translate(147 24.34)"/>
    </clipPath>
    <clipPath id="b">
      <path fill="#fff" d="M0 0h69v12H0z" transform="translate(51 117.339)"/>
    </clipPath>
    <clipPath id="c">
      <path fill="#fff" d="M0 0h32v26H0z" transform="translate(132 58.34)"/>
    </clipPath>
    <clipPath id="d">
      <path fill="#fff" d="M0 0h35v35H0z" transform="translate(34 -16.66)"/>
    </clipPath>
  </defs>
</svg>
