<svg xmlns="http://www.w3.org/2000/svg" width="176" height="114" fill="none" viewBox="0 0 176 114">
  <g clip-path="url(#a)">
    <path fill="#76C79E" d="M130.032-2.008c-10.874 2.62-30.006 5.034-42.026 7.73 0 0 3.12 2.764 4.273 3.536 1.256.843.525 1.507.415 1.578-8.725 5.608-17.2 13.152-25.592 19.223-3.306 2.39-3.865 3.141-4.587 2.965-1.02-.25-1.53-.278-2.337-.942-.78-.64-1.914-.593-2.664.084C46.18 42.371 15.288 74.006-4.046 94.35v15.614h8.9l20.16-22.812c12.711-14.385 24.535-28.127 39.944-39.54.639 1.79 4.294 4.696 5.99 3.856 1.431-.707 4.88-3.443 6.362-4.626 10.17-8.137 15.887-14.119 30.466-22.509a1.33 1.33 0 0 1 1.542.154c1.626 1.424 3.287 4.191 4.402 4.982 3.355-8.348 11.947-21.735 16.721-30.953a.366.366 0 0 0-.409-.525Z"/>
    <path fill="#A2E0C1" d="M114.345 40.516c1.634-1.612 4.082-2.071 6.372-2.071-.368-.919-.706-4.646 1.118-6.285 1.827-1.64 5.815-1.194 6.487.136.847-2.061 3.154-3.401 5.349-3.112 2.195.289 4.079 2.187 4.369 4.397.919-1.364 4.353-1.173 5.694-.231 1.34.945 1.941 2.34 1.465 3.836.561-.34 3.124-1.234 4.91.517 2.384 2.34.429 4.435.098 5.136 2.276-1.153 5.312.738 5.707 3.275.395 2.537-1.469 5.08-3.876 5.917-2.412.837-5.15.19-7.284-1.21-.568 3.24-4.384 5.455-7.453 4.322-2.016-.745-3.421-2.56-4.647-4.336-.631.949-1.806 1.337-2.894 1.66-1.955.578-3.974 1.142-6.004.945-2.029-.197-4.099-1.326-4.832-3.244-.108-.28-.189-.575-.378-.806-.294-.35-.77-.463-1.203-.606-3.481-1.142-6.173-5.111-2.998-8.24Zm10.1 25.157c1.327-.735 2.867-1.198 4.359-.946 1.493.255 2.905 1.347 3.219 2.84.452-1.527 1.131-3.255 2.644-3.727 1.111-.347 2.343.146 3.187.948.845.803 1.378 1.874 1.898 2.922-.023-1.704 2.03-2.949 3.62-2.37 1.591.578 2.425 2.533 2.043 4.193 1.078-.657 2.567-.534 3.526.285.959.823 1.317 2.282.844 3.46-.534 1.336-1.925 2.135-2.614 3.393 1.331-.693 3.127-.289 4.039.905.912 1.194.841 3.047-.162 4.166-.699.779-1.722 1.17-2.712 1.503a57.647 57.647 0 0 1-23.341 2.82c-.57-.048-1.158-.112-1.668-.381-1.054-.558-1.489-1.826-1.807-2.983-.783-2.856-2.269-6.58-2.12-9.563.158-3.085 2.431-6.02 5.045-7.465Z" opacity=".7"/>
    <path fill="#FFCF86" d="M29.43 28.47c0 4.407-3.55 7.978-7.923 7.978-4.376 0-7.922-3.574-7.922-7.979 0-4.407 3.55-7.978 7.922-7.978 4.377-.004 7.923 3.57 7.923 7.978Z"/>
    <path fill="#92D2B2" d="M50.542 40.611c-1.658-1.592-4.11-2.017-6.4-1.99.358-.921.646-4.652-1.198-6.268-1.847-1.615-5.829-1.119-6.487.221-.875-2.047-3.198-3.36-5.39-3.04-2.191.32-4.052 2.241-4.312 4.455-.935-1.35-4.366-1.115-5.694-.153-1.327.963-1.907 2.367-1.414 3.857-.564-.333-3.14-1.194-4.904.582-2.353 2.37-.371 4.438-.03 5.135-2.293-1.122-5.302.81-5.663 3.35-.361 2.54 1.533 5.06 3.954 5.867 2.421.802 5.153.119 7.27-1.31.609 3.234 4.455 5.398 7.508 4.224 2.005-.772 3.387-2.605 4.589-4.397.645.938 1.823 1.313 2.917 1.619 1.962.55 3.989 1.088 6.015.863 2.026-.224 4.079-1.38 4.788-3.309.101-.279.179-.578.368-.81.287-.353.763-.472 1.195-.618 3.462-1.187 6.103-5.19 2.888-8.278Z"/>
    <path fill="#76C79E" d="M76.068 60.194c-1.658-1.867-5.022-1.85-6.531.14.895-1.337-.27-3.306-1.824-3.687-1.553-.381-3.167.367-4.454 1.326-1.246-1.854-3.657-2.833-5.832-2.364-2.174.466-3.981 2.35-4.37 4.554-1.93-.588-4.038-1.071-5.93-.367-2.113.785-3.504 2.959-3.842 5.203-.338 2.242.236 4.534 1.104 6.625-1.76-.564-3.559-1.125-5.406-1.108-1.847.017-3.786.71-4.863 2.217-1.3 1.816-1.077 4.275-.8 6.496-4.235.292-9.776 5.734-6.25 10.172 2.272 2.86 3.342 3.224 4.994 3.401-1.236.663-4.552 6.656 4.072 7.611 7.986.885 16.648.354 23.324-4.152 3.259-2.2 5.788-5.32 8.139-8.486 2.38-3.21 4.643-6.543 6.243-10.206 1.439-3.292 1.652-6.499 2.374-9.944.517-2.493 1.84-5.19-.148-7.431Z"/>
    <path fill="#4E5567" d="M145.216 114c-5.541-8.087-8.682-17.92-11.62-27.422l-8.317-26.891c-2.263-7.312-4.589-14.764-9.013-20.994-1.81-2.55-4.4-5.057-7.503-4.87-1.817.109-3.438 1.136-4.951 2.16-24.6 16.616-44.301 39.457-63.685 62.016-3.643 4.241-7.26 8.509-10.934 12.723-1.003 1.149-2.127 2.207-2.833 3.275h118.856V114Z"/>
    <path fill="#FDBCA0" d="M60.15 22.43c.418.186.691 1.628 1.11 1.815.145.065.32.201.253.344-.462 1.003-.537 2-.621 3.074-1.01.004-3.097-.115-3.14-1.49-.03-.992 1.306-4.227 2.397-3.744Z"/>
    <path fill="#F9F7F1" d="M45.612 19.916c-.112-2.442.22-4.748.61-6.486.825-3.649 3.3-6.887 6.593-8.621 3.292-1.734 7.344-1.942 10.792-.544 2.384.966 4.555 1.092 7.115 1.279 1.202.088 2.459.102 3.56-.395 1.1-.496 1.999-1.64 1.86-2.847.753 3.058 1.682 6.085 2.708 9.06.17.487.372 1.014.82 1.262-3.677 2.714-8.273 4.027-12.693 2.901-2.353-.598-4.491-1.822-6.737-2.754-2.242-.932-5.38-.915-7.692-.174-4.846 1.551-7.227 6.72-6.936 7.319Z"/>
    <path fill="#FC6D5C" d="M61.972 26.347c.18.01.372.027.517.14.135.105.2.279.253.442a169.073 169.073 0 0 0 4.978 12.628c.415.935.868 1.91 1.688 2.516.078.058 1.273.48 1.253.572-.013.06-.733.289-.783.323-2.874 1.925-4.397 2.418-7.27 4.343-.926.619-3.827.959-4.846 1.404-1.679-3.622-2.169-6.468-2.277-10.464-.09-3.286.19-6.564.527-9.826.129-1.22-.04-2.193 1.277-2.384 1.438-.2 3.228.211 4.683.306Z"/>
    <path fill="#FC6D5C" d="M63.35 51.545c1.415.027 2.78-.51 4.063-1.112 2.779-1.303 5.822-2.643 8.202-4.588a17.136 17.136 0 0 0 4.039 3.18c1.449.81 2.178 1.88 3.15 2.66.696.557.696.557 1.27 1.084.091.085-.013-.197.075-.282.719-.724 1.506-1.326 2.222-2.047-2.746-2.605-5.18-5.731-7.072-9.016-.196-.34-.398-.697-.736-.891-.324-.187-.716-.198-1.087-.18-2.472.129-4.755 1.319-7.166 1.884-3.211.751-8.395.241-10.519 3.39-1.712 2.534.848 5.864 3.56 5.918Z"/>
    <path fill="#FC6D5C" d="M57.633 52.069c.054 2.775.284 5.547.685 8.295.085.578.176 1.183-.006 1.738-.142.431-.44.795-.73 1.146-1.543 1.867-3.09 3.734-4.633 5.601-.196.238-.405.517-.361.823.027.18.138.333.246.476.76 1.017 1.52 2.034 2.283 3.05a30.337 30.337 0 0 1 9.277-9.651c.287-.187.584-.381.76-.677.148-.252.195-.547.236-.837.608-4.24 1.215-8.482 1.766-12.73.037-.292.067-.615-.108-.85-.135-.18-.358-.258-.57-.333l-2.912-.993c-1.273-.435-3.664-1.326-4.886-.313-1.26 1.044-1.074 3.82-1.047 5.255Z"/>
    <path fill="#3F414E" d="m84.091 54.545 5.376-2.816c.503-.262 1.03-.548 1.32-1.038-.06.102-2.958-.098-3.275-.108-.932-.031-2.286-.65-3.127-.378-.75.242-.875.85-.905 1.534-.017.411.334 2.949.611 2.806ZM53.797 77.039c.757.799 1.959 1.39 2.938.894.439-.221-1.233-1.564-1.543-2.513-.267-.813-.406-1.116-.193-1.949.196-.772.787-1.445.588-2.282-.264-1.105-1.368-1.425-2.344-1.115-1.283.408-2.732 1.292-2.16 2.088 1.907 2.666 1.698 3.805 2.714 4.877Z"/>
    <path fill="#FC6D5C" d="M53.615 30.935c-.97 1.47-2.435 5.075-3.188 6.666-2.438 5.163-2.391 11.165-4.231 16.573 1.056-.116 1.884.207 2.94.092.892-3.476 2.148-7.353 3.307-10.75.105-.307.213-.616.405-.875.253-.343 1.49-1.431 1.854-1.652 1.472-.895 4.194-9.186 3.066-10.836-.952-1.391.034-4.516-1.395-3.472-1.077.782-2.04 3.16-2.758 4.254Zm15.969 1.813c1.385.105 1.199-.575 2.36-1.343 3.14-2.085 4.617-3.445 8.25-4.425.669.54 1.327 1.663 1.614 2.476-4.346 3.23-6.943 5.448-10.502 9.54-.202.23-.422.48-.722.537-.294.058-.585-.075-.855-.207a151.274 151.274 0 0 1-9.151-4.87c-1.33-.77-2.506-6.575-.139-7.183 1.716-.44 8.405 5.417 9.145 5.475Z"/>
    <path fill="#FDBCA0" d="M86.09 26.637c-1.084.948-2.499 1.459-3.88 1.85-.074.02-.155.04-.226.01-.071-.03-.111-.102-.145-.167l-.622-1.146c-.06-.112-.121-.231-.114-.357.01-.146.111-.269.209-.378.689-.775 1.715-2.265 2.887-2.091.635.092 2.648 1.619 1.891 2.279Z"/>
    <path fill="#3F414E" d="M52.278 57.776a.624.624 0 0 1 .661.642c-.08 2.599-.587 5.115-.74 7.727-.016.27-.053.582-.28.728-.134.089-.303.092-.465.092-4.238.004-10.108-.418-12.346-.752-.22-.333.111-3.564.111-4.955 0-1.156 0-2.663.331-3.18.223-.347 2.401-.275 3.441-.258.669.014 7.156.085 9.287-.044Z"/>
    <path fill="#3F414E" d="M49.954 58.769c.19-1.065-.193-2.245-1.003-2.949-.814-.704-1.76-1.177-2.826-1.071-1.317.129-2.202 1.52-2.35 1.812-.74 1.466-1.102 2.218-.865 2.823.452-.007.79.014 1.229-.102a6.633 6.633 0 0 1 .55-2.261c.237-.534.588-1.075 1.142-1.262.692-.235 1.435.163 2.016.609.743.567 1.465 1.41 1.297 2.336.516-.082.293.143.81.065Z"/>
    <path fill="#FDBCA0" d="M65.687 20.107c.142.54.304 1.285.672 1.74.139.174.058.43-.159.46-.472.068-1.053-.017-1.421.194-.372.214-.379.37-.483.789-.19.765-.348 1.136-.767 1.799-.256.408-.516.64-.712.7-.193.058-.395.007-.588-.047-1.344-.374-2.739-.905-3.576-2.027-.753-1.014-.922-2.404-.547-3.612.375-1.207 1.256-2.224 2.337-2.867 2.779-1.663 4.552.245 5.244 2.87Z"/>
    <path fill="#3F414E" d="M75.237.47c.972 4.149 4.63 15.256 7.601 24.14 3.722 11.117 6.984 20.252 9.493 25.173.01.02.493.864-.132-.966a10215.76 10215.76 0 0 0-9.449-27.523c-3.11-9.033-6.007-17.44-7.175-20.81-.362-1.035-.358-.096-.338-.015Z"/>
    <path fill="#FDBCA0" d="M45.237 55.854c.56.282 1.138.54 1.725.769a19.74 19.74 0 0 0 1.621.547c.135.038.287.075.406-.003.104-.068.141-.197.172-.32.125-.486.25-.983.233-1.486-.034-1.02-.733-2.003-1.793-2.102-1.621-.153-1.993 1.367-2.364 2.595Z"/>
    <path fill="#DBDBDB" d="M45.83 53.49c.018-.146.663-1.034.663-1.034s3.306.85 3.306.963c0 .112-.145.962-.294.962-.149-.003-3.711-.595-3.674-.89Zm33.743-26.806c.078-.31 1.57-.507 1.651-.37.084.136 1.469 2.33 1.395 2.663-.075.333-.733 1-.919 1-.182-.004-2.201-2.997-2.127-3.293Z"/>
    <path fill="#F79B69" d="M85.111 24.837a.772.772 0 0 0-.868-.115c-.337.173-.719.455-.675.83.074.666.513 2.367.956 2.292.439-.075 1.722-1.221 1.8-1.592.05-.252-.73-.986-1.213-1.415Z"/>
    <path fill="#FDBCA0" d="M81.48 26.535s.882-2.922 1.321-2.922c.44 0-.182 2.81-.111 3.33.077.516-1.21-.409-1.21-.409Z"/>
    <path fill="#DBDBDB" d="M51.561 69.407a62.732 62.732 0 0 0 4.846 5.989c.149.163.834-.099.676-.269a63.785 63.785 0 0 1-4.846-5.989c-.118-.17-.82.065-.676.269Z"/>
    <path fill="#3F414E" d="M65.4 18.549c.149.963-1.614 1.996-3.083 1.996-1.47 0-2.276-.296-2.864.15-.587.442-.733 1.775-1.394 1.85-.662.075-.956-2.217.148-3.846 1.101-1.626 1.837-2.072 3.67-2.367 1.014-.167 3.098-.562 3.523 2.217Z"/>
    <path fill="#E2EEDD" d="M51.703 8.32c1.847-2.875 6.91-3.85 10.02-3.12.31.075.948-.394.472-.506-3.562-.84-9.138.272-11.248 3.557-.23.36.587.337.756.068Zm8.5 23.768c.017.231.226.439.203.67-.038.398.776.272.807-.071.027-.306-.19-.524-.213-.817-.014-.194-.351-.183-.47-.15-.172.048-.344.17-.327.368Zm.665 2.673a.848.848 0 0 0 .048.357c.037.113.111.238.111.36.003.188.2.218.351.201.125-.013.456-.112.45-.289a1.1 1.1 0 0 0-.068-.36c-.04-.112-.105-.235-.091-.357.033-.357-.774-.211-.8.088Zm.622 2.684c.017.285.175.7.398.887.145.123.372.082.53.014.081-.034.358-.21.21-.333-.2-.167-.324-.527-.338-.782-.01-.174-.364-.126-.456-.102-.145.037-.354.136-.344.316Zm1.013 3.315c.06.3.307.572.297.881-.014.388.794.245.807-.078.014-.38-.23-.66-.304-1.02-.067-.333-.868-.13-.8.218Zm1.267 2.85c.047.297.168.62.374.84.2.215.963-.084.743-.319-.182-.197-.273-.476-.317-.735-.044-.292-.848-.098-.8.215Zm1.242 2.48c.08.262.25.503.435.7.037.041.159.024.203.02.104-.01.212-.033.31-.07.058-.021.338-.12.24-.218a1.67 1.67 0 0 1-.392-.646c-.05-.177-.844.054-.796.214Z"/>
    <path fill="#DBDBDB" d="M60.494 61.887c-1.32-.506-1.783-1.792-2.553-2.867-.146-.204-.872.116-.8.218.82 1.153 1.29 2.432 2.698 2.972.182.069.904-.224.655-.323Zm-.487.973c-.885-.238-1.752-.833-2.367-1.507-.145-.16-.892.13-.753.283.642.7 1.547 1.306 2.465 1.55.176.048.402-.02.56-.098.075-.038.278-.18.095-.228Z"/>
    <path fill="#E2EEDD" d="M84.145 53.12c.378-.49.892-.806 1.364-1.194.632-.517 1.223-1.078 1.895-1.544.334-.231-.47-.133-.615-.03-.59.408-1.131.88-1.675 1.353-.564.49-1.232.87-1.695 1.473-.165.21.608.095.726-.058Z"/>
    <path fill="#DBDBDB" d="M56.08 26.718c.148-.592.439-.738.956-.775.513-.038 1.945 0 3.562.22.598.082 1.175 3.106.844 3.106-.33 0-5.362-2.551-5.362-2.551Z"/>
    <path fill="#DBDBDB" d="M63.783 28.755s-3.046-2.183-3.12-2.476c-.075-.295 1.65-.074 1.87.113.223.18 1.435 2.251 1.25 2.363Z"/>
    <path fill="#3F414E" d="M62.665 21.634c.01-.422.81-.65 1.023-.28.182.317.945.014.733-.356-.517-.895-2.546-.324-2.567.693-.01.429.804.31.81-.057Zm-1.478 2.126c.71.946 2.445 1.086 3.234.154.11-.13-.362-.07-.442.024-.619.733-1.854.29-2.336-.351-.078-.103-.542.057-.456.172Zm4.24-1.657c.014-.027.007-.017-.027.034l-.74-.082v.014c.01.2.186.272.369.255.145-.01.452-.126.442-.32v-.013c-.017-.374-.56-.286-.74-.082a.6.6 0 0 0-.07.109c-.091.18.077.313.243.33.192.02.432-.065.523-.245Z"/>
    <path fill="#DBDBDB" d="M40.104 60.983c2.546.01 5.089.136 7.635.251 2.286.106 4.697.051 6.95.439.401.068.81-.507.273-.602-2.425-.418-5.005-.35-7.463-.463-2.441-.112-4.883-.224-7.324-.234-.466.003-.611.608-.071.608Z"/>
    <path fill="#F9F7F1" d="M42.228 60.194c-.05.418-.23.805-.233 1.23-.003.157.773.018.797-.176.05-.429.179-.844.189-1.279.003-.146-.794-.03-.8.214-.01.408-.132.796-.18 1.197.267-.057.53-.115.798-.176.003-.395.175-.762.226-1.153.023-.215-.77-.062-.797.142Zm7.132.176c.003.392-.115.773-.091 1.167.007.123.273.102.337.092.156-.024.392-.092.46-.255.142-.35.168-.796.138-1.17-.017-.228-.82-.065-.8.214.027.344-.007.748-.135 1.068.267-.054.533-.109.797-.166-.024-.392.094-.776.09-1.167.004-.21-.8-.068-.796.218Zm-9.584-2.023c-.03.146-.023.292-.023.438 0 .052.401-.003.401-.108 0-.147-.006-.296.024-.44.004-.023-.378-.006-.402.11Zm-.094 1.146c-.007.13-.014.262-.058.381-.074.211.325.187.379.034.054-.15.074-.296.08-.452.014-.198-.391-.126-.401.037Zm-.088 2.122c.01.16-.027.32-.047.477-.027.19.381.125.402-.038.023-.184.057-.36.043-.544-.01-.167-.411-.071-.398.105Zm-.094 1.252v.486c0 .099.401.03.401-.109v-.486c0-.095-.402-.027-.402.109Zm-.14 1.221v.486c0 .177.403.095.403-.047v-.487c0-.177-.402-.092-.402.048Zm.048 1.166c0 .15-.006.3-.044.446-.016.075.372.02.396-.075.04-.16.047-.316.05-.48 0-.05-.402.004-.402.11Zm12.636-6.836c-.003.201-.037.409.024.602.034.106.429-.01.402-.109-.06-.193-.027-.4-.024-.601 0-.079-.398-.017-.402.108Zm-.091 1.32c.058.166-.006.347-.003.52.007.2.409.13.405-.037-.006-.197.064-.398-.003-.592-.058-.17-.456-.058-.399.109Zm-.138 2.109c0 .156.007.313-.044.466-.034.102.358.05.395-.065.054-.167.047-.337.047-.51.004-.085-.398-.02-.398.109Zm-.206 1.135c.037.16.023.323.023.487 0 .068.399.01.402-.11 0-.162.014-.326-.023-.486-.024-.091-.426.014-.402.11Zm-.047 1.323c.003.194-.041.381-.048.575-.003.167.399.082.402-.05.003-.212.05-.419.047-.633-.003-.126-.401-.048-.401.108Zm-.139 1.344c.004.231.105.547 0 .762-.04.081.139.078.169.075.084-.014.19-.048.23-.13.054-.112.037-.258.03-.377-.007-.146-.027-.29-.03-.436 0-.115-.399-.04-.399.106Z"/>
    <path fill="#E2EEDD" d="M81.528 58.575c-.733.653-1.37 1.421-1.736 2.34-.104.258.696.163.8-.102.332-.83.92-1.524 1.578-2.109.125-.112.09-.248-.075-.282a.709.709 0 0 0-.567.153Zm5.136-2.125c-.29.25-.449.59-.584.945-.05.132.274.081.317.071.119-.02.42-.078.47-.218.121-.32.257-.636.52-.863.138-.123-.122-.133-.186-.126-.179.013-.395.068-.537.19Zm-1.877 3.978c-.091.143-.152.3-.21.456-.05.133-.104.306-.222.398-.112.085-.237.252-.061.35.162.092.429.044.57-.064.183-.14.318-.296.412-.507.092-.197.142-.405.26-.589.108-.166-.09-.265-.226-.275-.186-.01-.415.065-.523.231Zm-2.989-5.145a4.573 4.573 0 0 0-.6.898c-.089.173.073.272.229.282.175.01.439-.058.526-.231.139-.276.304-.538.504-.769.111-.133.09-.282-.088-.33-.182-.05-.446.003-.57.15Zm-5.94 8.431c-.162.346-.52.54-.73.856-.097.147.082.174.2.17.152-.006.439-.057.534-.203.23-.35.607-.565.79-.953.07-.15-.28-.119-.331-.112-.149.024-.388.085-.463.242Zm5.586 4.071c-.125.39-.483.673-.669 1.04-.091.177.078.306.24.323.189.02.432-.06.523-.241.213-.422.568-.724.716-1.187.061-.197-.246-.258-.365-.248-.202.013-.381.119-.445.313Zm.216-3.653c-.186.347-.432.663-.554 1.044-.064.2.723.095.794-.13.118-.38.368-.696.553-1.043.078-.147-.287-.116-.327-.11-.156.025-.385.086-.466.239Zm6.304.816c-.283.517-.543 1.055-.506 1.66.017.3.82.122.8-.214-.03-.504.227-.977.46-1.402.195-.36-.612-.302-.754-.044Zm1.463-4.611a1.75 1.75 0 0 0-.52 1.122c-.007.122.783.03.8-.215a1.53 1.53 0 0 1 .446-.962c.128-.13-.115-.146-.19-.14-.175.014-.408.069-.536.194Zm.813-3.119c-.175.33-.388.653-.368 1.044.01.194.19.248.362.231.135-.013.455-.119.445-.31-.017-.346.162-.608.321-.904.095-.173-.08-.289-.236-.303-.186-.013-.43.065-.524.242Zm3.293 6.207c-.132.52-.267 1.044-.21 1.585.027.248.831.071.8-.215-.053-.503.085-.993.207-1.476.07-.279-.73-.153-.797.106Zm-2.698 7.281c.007.415-.047.813-.253 1.177-.098.177.084.303.24.32.195.02.422-.065.523-.242.23-.405.307-.864.3-1.326-.006-.405-.813-.269-.81.071Zm6.237-10.233c-.152.364-.294.73-.368 1.119-.078.4.743.296.81-.062.064-.336.193-.653.324-.965.176-.429-.628-.419-.766-.092Zm-4.714.417a1.128 1.128 0 0 0-.203.919c.037.197.33.204.473.163.165-.044.365-.184.327-.38-.03-.16-.023-.34.071-.47.108-.15.085-.32-.101-.384-.182-.065-.453-.007-.567.153Zm8.857-3.206c-.182.452-.054.942-.206 1.391-.155.452.649.462.77.105.156-.452.031-.952.206-1.39.176-.44-.631-.453-.77-.106Zm-.638 4.275v1.183c0 .354.804.184.804-.095v-1.183c-.004-.354-.804-.184-.804.095Zm-2.415 4.805c-.047.323-.145.626-.138.956.003.218.804.071.8-.214-.003-.29.095-.568.135-.854.04-.282-.76-.133-.797.112Zm-1.728 5.84a12.89 12.89 0 0 0-.206 1.251c-.044.313.763.163.8-.102.058-.418.112-.84.206-1.251.068-.296-.74-.167-.8.102Zm8.155-8.887c-.068.47-.176.928-.277 1.391-.04.194.746.065.79-.14.098-.462.21-.921.277-1.39.027-.205-.763-.058-.79.139Zm.199-3.159c.024.2.007.39-.068.578-.06.16.267.133.331.126.146-.024.402-.089.463-.245a1.39 1.39 0 0 0 .071-.674c-.02-.217-.827-.044-.797.215Zm-2.9 7.441c-.034.544-.017 1.116-.2 1.636-.047.13.72.047.787-.15.189-.544.179-1.136.213-1.704.007-.095-.784-.01-.8.218Zm5.389-2.364c.007.63.078 1.252.139 1.878.027.255.83.081.8-.218-.061-.626-.132-1.248-.139-1.877-.003-.242-.803-.089-.8.217Zm-1.793 4.891c-.135.54-.078 1.095-.071 1.646 0 .194.804.058.8-.215-.003-.52-.061-1.044.068-1.55.057-.245-.74-.12-.797.119Zm-3.738 3.931a10.605 10.605 0 0 0-.139 1.53c-.007.433.807.32.814-.054.007-.513.057-1.024.138-1.53.065-.422-.753-.32-.813.054Zm11.4-6.179c-.004.595.199 1.153.277 1.738.03.241.837.06.8-.215-.078-.585-.28-1.142-.277-1.737 0-.221-.8-.079-.8.214Zm-3.039 3.408c-.004.625-.088 1.302.206 1.877.128.248.898-.024.8-.215-.297-.574-.213-1.251-.206-1.877.003-.207-.797-.068-.8.215Zm6.213-7.442c.125.616.655 1.051.76 1.67.027.157.834-.024.801-.214-.105-.62-.635-1.051-.76-1.67-.031-.163-.838.03-.801.214Zm1.618-4.479c.429.395.986.847 1.019 1.476.004.095.183.099.24.102l.196.01c.172.01.422-.071.53-.21.118-.157-.101-.201-.209-.208-.064-.003-.132-.01-.196-.01l.24.102c-.034-.657-.628-1.153-1.074-1.565-.193-.176-.939.126-.746.303Zm3.731 1.19c.405.66.645 1.425 1.243 1.95.216.186.962-.127.743-.317-.594-.52-.841-1.29-1.243-1.949-.142-.228-.918.03-.743.316Zm-.439 4.429c-.078.741.274 1.516.713 2.095.128.17.894-.099.753-.286-.392-.514-.74-1.279-.669-1.939.02-.241-.777-.078-.797.13Zm-2.975 4.646c-.057.54.172.979.416 1.445.138.268.915.003.8-.218-.216-.418-.466-.844-.415-1.337.033-.31-.77-.153-.801.11Zm-3.937 6.315c.155.571.162 1.173.344 1.738.118.364.915.142.8-.215-.182-.564-.192-1.166-.344-1.737-.098-.371-.898-.154-.8.214Zm10.154-6.815c-.054.853.51 1.557.689 2.363.05.221.854.017.8-.214-.182-.806-.746-1.51-.689-2.364.01-.17-.783-.058-.8.214Zm-40.195 1.257c-.122.432-.294.85-.443 1.276-.179.513-.162 1.061-.317 1.578-.095.306.716.197.804-.092.138-.456.142-.932.256-1.39.125-.497.362-.967.503-1.46.088-.316-.719-.2-.803.088Zm-4.691 1.898a7.327 7.327 0 0 1-1.04 1.65c-.344.411-.537.9-.685 1.411-.058.197.73.085.793-.133.183-.625.433-1.118.868-1.605.385-.428.615-.938.858-1.456.074-.153-.69-.081-.794.133Zm-2.002-4.962a10.89 10.89 0 0 0-1.213 1.344c-.327.418-.385.911-.631 1.367-.206.377.604.34.756.061.216-.398.257-.864.534-1.231.361-.48.77-.939 1.212-1.343.135-.126.071-.3-.091-.347-.2-.062-.419.013-.567.15Zm13.946 8.214c-.01.813-.125 1.469-.428 2.224-.291.724-.264 1.544-.649 2.234-.192.347.615.276.75.03.364-.656.398-1.4.604-2.111.254-.874.517-1.534.527-2.472 0-.354-.8-.188-.804.095Zm-3.586-.117c-.436.647-.473 1.48-.621 2.225-.037.19.75.061.79-.14.149-.744.19-1.577.621-2.224.085-.125-.297-.088-.32-.081-.156.024-.375.078-.47.22Zm-5.389 4.698c.006 1.047-.774 1.962-.69 2.996.048.599.25 1.153.207 1.765-.03.463-.52.983-.733 1.388-.176.333.624.231.743.01.516-.99.949-1.493.685-2.65-.304-1.34.598-2.407.588-3.72-.004-.245-.804-.092-.8.21Zm1.732-3.442c-.084.418-.341.779-.351 1.218-.004.105.793.006.8-.218.01-.408.26-.755.338-1.15.034-.16-.75-.037-.787.15Zm13.528.592c.105.37.007.73 0 1.112-.01.493.523 1.064.702 1.506.335.823-.169 1.834-.29 2.667-.014.095.766.03.8-.218.132-.925.513-1.728.29-2.663-.1-.425-.422-.806-.617-1.19-.223-.439.047-.963-.085-1.432-.054-.184-.85.04-.8.218Zm-3.31 2.948c-.324.592-.455 1.31-.56 1.97-.088.54-.226 1.336.165 1.788.142.163.895-.119.753-.282-.374-.432-.179-1.323-.097-1.816.097-.602.24-1.258.533-1.796.07-.133-.679-.075-.794.136Zm13.255-4.2c.358 1.15.692 2.245.449 3.456-.179.887-.497 1.765-.24 2.666.084.3.885.078.8-.214-.293-1.038.2-2.112.348-3.14.142-.992-.263-2.054-.554-2.982-.098-.303-.894-.078-.803.214Zm-3.664 3.337v2.295c0 .388.807.242.807-.078v-2.296c0-.387-.807-.241-.807.079Zm-1.449 4.87c.034 1.176-1.8 3.72-.388 4.696.199.136.898-.183.749-.285-1.32-.912.473-3.48.439-4.626-.003-.176-.807-.04-.8.215Zm9.807-5.01c.064.663.033 1.388.276 2.017.071.187.858-.068.801-.214-.24-.63-.213-1.354-.277-2.017-.014-.146-.821.003-.8.214Zm8.101-4.472c.912.68 1.874.877 2.343 2.037.433 1.065.949 2.238.878 3.408-.023.401.787.275.811-.072.081-1.322-.503-2.608-.993-3.812-.452-1.119-1.536-1.354-2.418-2.01-.27-.2-.979.18-.621.449Zm-1.746 4.493c-.037.591-.01 1.595.696 1.788a.767.767 0 0 0 .564-.088c.077-.044.27-.218.081-.269-.561-.153-.574-1.084-.547-1.55.02-.283-.781-.11-.794.119Zm-2.695 4.71c.203.646.165 1.326.523 1.925.389.646 1.219.973 1.716 1.53.179.201.942-.088.743-.313-.433-.483-.996-.806-1.469-1.244-.591-.555-.486-1.398-.713-2.116-.084-.272-.881-.044-.8.218Zm-4.039 1.881c.159.289.071.66.173.972.121.381.922.157.8-.214-.122-.377-.044-.755-.24-1.115-.182-.33-.942-.024-.733.357Zm13.707-10.506c.21.463.392.959.78 1.303.257.224.963-.154.622-.453-.297-.262-.443-.71-.601-1.064-.156-.347-.946-.11-.801.214Zm1.446 4.795c-.227 1.123-.598 4.442 1.023 4.7.381.062.82-.48.283-.564-.634-.102-.621-1.755-.634-2.184-.021-.666.003-1.363.138-2.02.078-.387-.739-.278-.81.068Zm-3.445 5.527c-.463 1.15 1.05 2.04 1.817 2.578.196.136.891-.184.753-.282-.713-.5-2.205-1.357-1.776-2.429.067-.173-.706-.088-.794.133Zm-52.49-13.954c-1.243 1.129-1.57 2.734-1.51 4.363.007.156.115.248.267.265.088.01.176.017.267.028.395.037.817-.538.277-.589-.088-.01-.176-.017-.267-.027l.267.265c-.054-1.4.138-2.938 1.232-3.931.402-.367-.233-.646-.533-.374Zm1.384 6.833c.037.727-.418 1.465-.797 2.053-.185.286.612.184.737-.01.425-.66.905-1.442.86-2.258-.01-.221-.813-.065-.8.214Zm1.03-4.544c-.206.31-.31.622-.27.996.02.204.338.211.476.177.186-.051.348-.187.324-.391a.835.835 0 0 1 .142-.534c.287-.429-.459-.565-.672-.248Zm2.58 10.862c-.507 1.177-1.49 2.04-2.14 3.13-.227.377.587.37.762.08.652-1.09 1.635-1.948 2.141-3.128.18-.418-.628-.398-.763-.082Zm-10.677-3.01c-.5.201-.828.79-1.132 1.204-.51.704-.763 1.354-.78 2.231-.003.19.797.062.8-.217.014-.759.21-1.323.645-1.939.132-.187.267-.37.406-.554a6.28 6.28 0 0 1 .263-.327c.034-.04.28-.217.091-.142.527-.208.04-.392-.294-.256Zm.85 6.01c-.084.435-.266.837-.415 1.251-.068.187.253.232.358.221.192-.02.381-.112.446-.302.148-.415.33-.817.415-1.252.07-.357-.743-.238-.804.082Zm-5.008 2.394c-.415.606-.587 1.36-.719 2.071-.054.29.75.15.797-.108.122-.667.274-1.395.662-1.963.2-.289-.601-.2-.74 0Zm5.234 5.731c.058-.147.129-.286.213-.418a.558.558 0 0 1 .267-.242c.122-.048.324-.221.203-.364-.129-.15-.382-.088-.537-.03-.446.17-.73.578-.902 1.006-.155.395.645.33.756.048Zm-14.199 5.639c-.149-.415.074-.885.378-1.17.138-.129-.118-.15-.193-.146-.179.013-.398.068-.533.197-.341.319-.622.864-.453 1.333.071.204.861-.041.8-.214Zm30.615-4.52c-.02.534-.064 1.064-.068 1.598-.003.419.807.293.81-.064.004-.534.051-1.065.068-1.599.014-.415-.8-.292-.81.065Zm7.875-8.757c-.041.55.233 1.05.206 1.598-.007.136.79.03.8-.218.023-.547-.247-1.047-.206-1.598.01-.126-.78-.03-.8.218Zm9.6 10.362c.213.568.179 1.082-.067 1.622-.149.327-.297.715-.037 1.024.243.289 1.003-.037.729-.36-.213-.252.213-.8.277-1.075.115-.47.061-.98-.105-1.428-.138-.375-.935-.15-.797.217Zm-7.186 7.863v.347c0 .19.2.231.358.214.135-.013.45-.112.45-.299v-.347c0-.19-.2-.231-.359-.214-.135.013-.449.112-.449.299Zm19.704-13.78c-.513.942.28 2.707 1.104 3.25.277.184.99-.203.622-.448-.642-.425-1.368-1.986-.966-2.728.213-.387-.601-.367-.76-.075Zm13.687 2.01c.459.424.709.968.935 1.54.125.316.919.081.8-.215-.239-.608-.51-1.207-.996-1.656-.233-.214-.989.102-.739.33Zm.658 9.053c0 .918.031 1.823.277 2.714.074.272.875.051.8-.218-.246-.891-.273-1.796-.276-2.714 0-.235-.801-.085-.801.218Zm-4.002 6.074c-.054.367.095.68.369.918.185.163.918-.143.749-.292-.216-.191-.364-.453-.324-.749.037-.255-.76-.105-.794.123ZM58.937 71.546c.067.326.233.64.446.894.206.249.972-.054.74-.336a1.76 1.76 0 0 1-.383-.776c-.07-.326-.874-.119-.803.218Zm1.897-1.143c.365.143.733.49.865.864.135.391.935.17.8-.218-.189-.544-.679-1.017-1.209-1.22a.515.515 0 0 0-.567.153c-.118.153-.068.35.111.421Zm2.516-3.319c-.04.326-.132.643-.138.973-.007.432.807.316.81-.058.007-.33.098-.646.139-.973.05-.418-.767-.313-.81.058Zm2.53-1.677a.821.821 0 0 1 .233-.183c.016-.01.141-.051.057-.034.091-.017-.074-.055-.02.02.185.252.956-.04.74-.333-.19-.252-.555-.221-.825-.153-.31.078-.621.275-.84.51-.119.13-.088.282.087.33a.645.645 0 0 0 .568-.156Zm-4.566 1.378c-.297.306-.655.602-.79 1.023-.075.235.719.126.797-.119.118-.377.462-.65.73-.921.137-.14-.12-.198-.207-.194a.809.809 0 0 0-.53.21Zm5.67-4.03a.245.245 0 0 1 .084-.11c-.003 0-.06.021.037-.003.088-.024.264-.04.385-.058.142-.02.409-.088.463-.248.054-.163-.264-.136-.334-.126-.5.072-1.19.143-1.429.667-.07.156.277.136.335.126.155-.024.388-.089.459-.248Zm1.395 1.771c.212-.064.368-.098.58-.119.166-.017.416-.112.446-.31.03-.196-.223-.247-.361-.234a4.05 4.05 0 0 0-.8.16c-.142.044-.385.167-.335.357.054.187.331.187.47.146Zm1.391-2.731c.017.473-.28 1.068.317 1.3a.52.52 0 0 0 .568-.154c.121-.15.067-.343-.112-.415-.105-.04.047-.642.04-.785-.016-.439-.827-.327-.813.054Zm1.692-.846c.152.207.175.472.179.72.003.215.807.069.8-.217-.007-.296-.054-.565-.233-.81-.145-.193-.919.075-.746.307Zm-4.448-1.643c.149.231.176.514.277.765.081.198.865-.06.8-.214-.1-.252-.124-.534-.276-.765-.129-.204-.865.109-.8.214Zm-9.513 15.607c.416.296.878.497 1.378.258.108-.05.334-.204.206-.346-.122-.136-.392-.089-.534-.02-.07.033.115-.008.068-.021-.06-.014-.118-.048-.176-.075a2.705 2.705 0 0 1-.31-.204c-.233-.167-.966.17-.632.408Zm-.267-2.87c-.158.35-.3.707-.482 1.044-.092.17.077.262.226.269.175.01.432-.062.527-.228.185-.337.324-.694.482-1.044.17-.378-.634-.306-.753-.041Zm-5.48 6.387c.156.404.071.935.443 1.23.145.113.374.065.526 0 .071-.03.362-.197.217-.312-.331-.262-.247-.772-.386-1.136-.104-.269-.894-.027-.8.218Zm1.962 1.261c.304.065.611.113.922.157.182.027.432-.068.523-.238.095-.18-.08-.29-.236-.31a9.105 9.105 0 0 1-.736-.122c-.2-.041-.422-.004-.568.153-.118.126-.09.323.095.36Zm12.366-12.008c.166-.099.409-.079.595-.102.158-.02.412-.102.449-.29.037-.186-.233-.217-.355-.2-.425.058-.82.088-1.199.313-.121.071-.23.255-.06.347.175.095.412.027.57-.068Zm-2.57 1.632c-.087.235-.114.452-.087.7.02.194.347.18.469.147.169-.044.351-.167.33-.364a.94.94 0 0 1 .048-.412c.155-.421-.645-.38-.76-.071Zm-8.01-9.472h.828c.175 0 .419-.136.439-.33.023-.21-.213-.268-.372-.268h-.827c-.176 0-.419.136-.439.326-.024.215.213.272.371.272Zm-.786 1.259a2.72 2.72 0 0 0 .074.918c.095.395.895.18.8-.218a2.18 2.18 0 0 1-.064-.751c.054-.436-.766-.337-.81.05Zm1.87.428v.626c0 .167.379.105.453.085.145-.04.348-.126.348-.303v-.625c0-.167-.379-.11-.453-.089-.145.044-.348.133-.348.306Zm-2.59 3.34c.088.15.247.255.412.303a.55.55 0 0 0 .568-.153c.115-.14.077-.34-.105-.395-.081-.024-.095-.037-.142-.112-.185-.317-.949-.01-.733.357ZM52.2 67.764c-.247.364-.672.537-.858.956-.07.156.277.132.334.126.152-.024.392-.089.463-.249.162-.364.577-.53.8-.853.102-.15-.087-.187-.202-.184-.166 0-.436.054-.537.204Zm-3.725.796c.21.3.361.64.621.905.149.15.362.166.547.071.129-.064.331-.285.183-.438-.26-.266-.412-.606-.622-.905-.223-.316-.982.01-.73.367Zm-2.85-.231c-.162.561.06 1.047.047 1.609-.01.425.8.31.81-.058.014-.473-.225-.99-.09-1.453.131-.452-.666-.445-.767-.098Zm.851 2.867c-.334.306-.794.425-1.105.765-.114.126.102.122.183.112.159-.017.422-.061.537-.187.307-.337.77-.46 1.104-.765.132-.123-.118-.12-.182-.112-.172.02-.405.068-.537.187Zm2.033.004c.057.414.31.747.513 1.098.145.258.922-.01.74-.33-.183-.32-.402-.612-.453-.987-.044-.306-.847-.115-.8.218Zm.344 3.335c.027.255.061.51.068.766.01.245.81.088.8-.215-.01-.255-.044-.51-.067-.765-.027-.258-.831-.081-.8.214Zm-2.62-.272c-.244.307-.571.538-.74.902-.182.394.625.343.756.058.142-.313.433-.507.642-.769.108-.136.091-.29-.091-.343-.18-.052-.45.003-.567.152Zm4.627 1.276c-.045.411.084.751.364 1.05.152.164.898-.129.753-.285-.23-.245-.361-.558-.324-.898.027-.235-.77-.075-.794.133Zm-1.703 2.217c-.256.463-.492.942-.648 1.449-.088.289.716.173.8-.099.142-.466.358-.904.595-1.333.185-.333-.618-.248-.747-.017Zm-2.219-.561c-.553.231-1.097.48-1.658.697-.141.055-.31.245-.192.398.128.163.378.112.54.051.557-.217 1.105-.462 1.658-.694.139-.057.314-.244.193-.398-.122-.166-.382-.122-.54-.054Zm-5.139-3.779c.45.089.861.334 1.209.63.294.248.98-.177.611-.487a3.46 3.46 0 0 0-1.553-.762c-.416-.081-.797.517-.267.62Zm-3.725.137c-.003.452-.07.965.247 1.333.246.282 1.003-.048.733-.357-.244-.28-.17-.69-.17-1.034.004-.429-.806-.313-.81.058Zm2.566 1.915c-.053.438.099.812.203 1.227.058.221.858.007.8-.214-.094-.374-.26-.741-.209-1.136.03-.255-.766-.099-.793.123Zm2.081.901a.59.59 0 0 1 .361.228c.149.193.922-.079.747-.303-.149-.19-.379-.282-.608-.327-.182-.037-.422.038-.567.153-.132.106-.092.218.067.249Zm-4.174-4.119c.18-.061.355-.054.547-.051.19.007.426-.055.524-.238.087-.17-.078-.306-.237-.31-.327-.01-.658-.017-.972.089-.142.047-.385.166-.331.364.05.18.33.194.47.146Zm-3.303 1.435c-.348.32-.597.742-.81 1.16-.172.34-.446.96-.118 1.289.256.262 1.013-.072.732-.357-.334-.337.47-1.483.73-1.724.402-.364-.233-.64-.534-.368Zm.696 3.632c-.006.51-.101 1.017-.067 1.531.01.173.817.027.8-.218-.034-.51.06-1.02.068-1.53.003-.157-.797-.034-.8.218Zm2.485 1.391c.146.453.362.857.716 1.177.28.252.966-.163.611-.48-.266-.237-.418-.574-.526-.91-.125-.389-.922-.168-.8.213Zm3.692 1.282c.283.008.52.307.685.5.162.191.925-.091.746-.302-.304-.354-.628-.602-1.11-.612-.176-.004-.42.068-.53.21-.116.154.104.201.209.205Zm-1.412 1.711c0 .473-.017.946-.064 1.415-.027.259.77.095.793-.126.05-.5.071-1.003.071-1.506 0-.18-.8-.051-.8.217Zm-3.488-.021c-.301.358-.602.722-.983.997-.129.092-.101.194.054.208a.892.892 0 0 0 .567-.153c.419-.303.757-.697 1.091-1.088.118-.14-.101-.167-.196-.164-.169.01-.415.065-.533.2Zm-1.658-.754c-1.06-.017-2.408.568-3.107 1.38-.182.215.594.117.73-.04.394-.46 1.242-.993 1.863-.983a.96.96 0 0 0 .568-.153c.125-.081.111-.2-.054-.204Zm-5.879 1.272c-.305.609-.173 1.289-.166 1.942.003.367.807.207.803-.088-.006-.582-.158-1.272.112-1.813.189-.37-.618-.303-.75-.041Zm2.674-1.528c.152-.132.33-.268.533-.295.135-.017.406-.085.466-.238.061-.153-.27-.116-.327-.109-.53.071-1 .326-1.402.677-.145.129.129.17.2.166a.89.89 0 0 0 .53-.2Zm.408 3.187c.088.487.321.929.483 1.391.091.259.885.02.8-.214-.162-.462-.395-.905-.482-1.39-.044-.253-.848-.059-.8.213Zm3.07 1.242c.176.245.31.537.31.843.004.388.808.242.808-.078a1.886 1.886 0 0 0-.379-1.102c-.189-.265-.959.028-.739.337Zm-4.933 2.86c-.051.428.233.724.344 1.112.05.17.848-.05.8-.214-.111-.388-.398-.684-.344-1.112.01-.085-.77-.02-.8.214Zm10.36-1.877c.09.302.226.588.277.904.04.266.844.079.8-.214-.047-.316-.186-.602-.277-.905-.084-.278-.881-.054-.8.215Zm3.478-3.051c.203-.18.476-.48.767-.47.172.008.418-.067.53-.21.121-.153-.102-.197-.206-.2-.669-.028-1.24.36-1.723.785-.118.105-.1.22.065.248a.772.772 0 0 0 .567-.153Zm.777 3.051c.246-.153.503-.422.804-.446.172-.013.415-.122.442-.32.027-.2-.216-.265-.368-.255-.557.045-.95.385-1.405.667-.142.089-.203.3-.047.405.175.119.408.05.574-.051ZM49.539 81c-.014.494.196.922.28 1.395.064.36.868.153.8-.218-.074-.418-.283-.816-.273-1.248.013-.408-.797-.279-.807.072Zm-8.594 10.918c.287-.082.6-.041.898-.038.175 0 .415-.068.53-.21.122-.15-.101-.194-.206-.194-.442-.004-.881-.024-1.314.102-.094.027-.395.126-.354.279.04.15.351.088.446.06Zm-3.901-2.347c0 .47-.01.935-.138 1.39-.081.29.726.171.8-.101.128-.456.135-.922.139-1.391.003-.333-.8-.16-.8.102Zm-.067-43.896c.135.405.459.687.716 1.01.138.173.901-.099.75-.29-.24-.302-.541-.56-.666-.938-.074-.224-.868.014-.8.218Zm2.951-.901c-.084.017.02.007.05.013a.867.867 0 0 1 .156.062c.135.068.26.156.382.241.263.184.982-.19.625-.439-.423-.289-.828-.486-1.345-.377-.141.03-.381.177-.334.357.05.194.324.17.466.143Zm-.392 2.214c.318 0 .834-.116 1.057.176.122.157.882-.108.753-.278-.27-.354-.911-.242-1.293-.238-.193 0-.402.044-.567.153-.122.081-.112.187.05.187Zm-2.12 2.754c.358.215.763.255 1.155.371.175.051.402-.014.56-.095.078-.041.27-.187.092-.242-.352-.105-.737-.132-1.054-.323-.149-.088-.371-.027-.52.03-.04.018-.375.178-.233.26Zm5.339-5.094c-.088-.014-.054-.02-.017.013a.424.424 0 0 1 .064.089c.044.092.07.194.095.292.047.208.064.419.09.63.045.33.848.136.801-.215-.07-.534-.088-1.23-.74-1.34-.178-.03-.435.072-.523.235-.101.184.084.272.23.296Zm-.254 2.694c.01.278.058.554.068.833.007.183.81.04.8-.214-.01-.28-.057-.555-.067-.834-.007-.183-.81-.04-.8.215Zm2.357-4.861c.257.085.453.262.639.453.182.19.938-.106.746-.306-.21-.218-.453-.422-.743-.52-.182-.062-.402-.014-.564.08-.088.055-.263.232-.078.293Zm-.152 1.939c.014.29.071.558.142.837.091.35.892.136.8-.215-.057-.227-.121-.459-.135-.693-.01-.198-.189-.255-.364-.242-.139.014-.453.123-.443.313Zm-3.015-3.578c.338-.143.74-.112 1.101-.15.169-.017.415-.112.446-.309.03-.194-.22-.252-.361-.235-.52.058-1.034.058-1.527.266-.132.054-.317.234-.196.384.122.156.382.109.537.044Zm.213 1.782h.898c.172 0 .412-.068.533-.204.129-.143-.108-.173-.199-.173h-.898c-.172 0-.412.068-.534.204-.125.143.112.173.2.173Zm-3.134-3.207c-.135.439-.358.85-.345 1.323.01.384.814.228.808-.081-.014-.473.209-.881.344-1.323.057-.19-.247-.228-.358-.218-.186.017-.392.112-.45.3Zm-3.938 1.874c-.006.544-.165 1.221.368 1.571.264.174.986-.2.625-.435-.351-.231-.189-.864-.186-1.21.004-.392-.803-.249-.807.074Zm4.701-3.966c.18-.136.409-.105.622-.085.182.017.412-.057.567-.153.138-.085.098-.15-.044-.163-.642-.058-1.347.072-1.864.473-.149.116.132.126.186.119.182-.02.385-.075.533-.19Zm1.452.861c-.159.3-.02.65.23.85.131.106.385.031.52-.023.057-.024.358-.167.226-.27-.206-.162-.314-.434-.186-.68.078-.149-.283-.125-.33-.118-.156.023-.379.085-.46.241Zm.308-3.459a.627.627 0 0 1 .456-.183c.155-.01.415-.11.449-.29.037-.19-.233-.207-.352-.2a1.942 1.942 0 0 0-1.202.51c-.128.12-.08.276.085.316a.638.638 0 0 0 .564-.153Zm.27 1.367h.692c.175 0 .415-.068.53-.207.122-.146-.105-.187-.202-.187h-.69c-.175 0-.415.068-.533.207-.125.147.105.188.203.188Zm-1.827-3.37c-.71-.044-1.608.364-1.976.997-.206.357.605.303.753.047.166-.285.588-.554.925-.534.183.01.426-.06.527-.23.095-.17-.088-.273-.23-.28Zm-3.448 2.259c-.135.54-.075 1.098-.071 1.649 0 .21.803.068.8-.214-.003-.52-.06-1.041.068-1.551.06-.255-.737-.13-.797.116Zm-3.803 1.234c.139.442.389.833.693 1.183.155.18.837-.17.8-.214-.3-.35-.55-.738-.689-1.184-.054-.17-.848.065-.804.215Zm1.608-2.602c.142-.088.297-.2.47-.194.188.004.405-.05.567-.153.128-.081.108-.173-.047-.177-.571-.013-1.125.198-1.601.5-.129.082-.105.17.047.177.186.01.402-.05.564-.153Zm1.155 5.034c-.02.346.074.656.206.972.074.174.85-.095.8-.214-.131-.316-.226-.626-.206-.973.007-.088-.787-.003-.8.215Zm10.289 1.531c.03.363.314.598.51.88.145.207.922-.058.747-.306-.183-.255-.43-.456-.456-.79-.017-.24-.821-.074-.8.215Zm1.766 2.213a.889.889 0 0 0-.307.46c-.054.186.733.074.79-.137a.697.697 0 0 1 .243-.374c.149-.122-.131-.15-.192-.146a.941.941 0 0 0-.534.197Zm-9.353-.113c-.301.249-.585.508-.811.827-.115.163.098.266.226.272.196.01.412-.068.527-.228.192-.275.452-.49.709-.7.142-.116.07-.282-.084-.323-.203-.051-.416.027-.568.153Zm-5.738 2.497c-.463.367-.804.96-.973 1.52-.057.194.244.245.362.235.189-.017.388-.116.446-.31.114-.38.37-.87.685-1.122.429-.337-.23-.554-.52-.323Zm1.591 1.476c-.25.63.658.81.895 1.231.135.242.898-.044.8-.214-.135-.242-.368-.384-.588-.54-.199-.147-.422-.324-.314-.592.085-.215-.699-.123-.793.115Zm-.348 3.037c.125.425.07.895.378 1.252.236.272.996-.048.733-.354-.264-.303-.203-.748-.311-1.116-.108-.364-.909-.146-.8.218Zm2.141 1.81a2.6 2.6 0 0 1 .277.765c.043.248.847.057.8-.215a2.601 2.601 0 0 0-.277-.765c-.139-.258-.909.014-.8.215Zm-4.731-10.567c.29.466.766.745 1.165 1.102.287.255.969-.167.61-.487-.357-.32-.786-.564-1.046-.983-.206-.33-.962-.006-.73.368Zm-.713-2.534c-.328.228-.537.558-.83.82-.129.112-.085.258.077.295a.686.686 0 0 0 .567-.152c.247-.218.42-.524.69-.711.104-.072.242-.235.067-.323-.17-.085-.426-.031-.57.071Zm-1.587-2.497c-.287.208-.578.409-.814.68-.128.147.108.205.21.205.185-.004.405-.068.53-.211.199-.228.462-.398.705-.575.135-.099.088-.228-.067-.252a.787.787 0 0 0-.564.154Zm-5.194 2.113c-.08.47-.104.966-.317 1.398-.179.36.625.282.75.034.24-.48.283-1 .371-1.524.054-.337-.753-.2-.804.092Zm.716 4.268c.26.146.514.269.81.313.18.027.42-.054.568-.153.139-.092.095-.174-.05-.194-.206-.03-.396-.146-.571-.245-.149-.081-.372-.017-.517.038-.037.006-.378.163-.24.241Zm-3.603 4.792c.277.05.615.034.84.224.136.116.382.055.528-.003.07-.03.358-.184.22-.3-.308-.258-.713-.261-1.092-.33a.742.742 0 0 0-.567.154c-.125.102-.088.228.071.255Zm7.439-2.469c-.084.483-.428.897-.756 1.241-.132.14-.064.33.105.388.196.068.425-.007.567-.153.405-.425.794-.946.898-1.541.071-.401-.75-.296-.814.065Zm-4.089 7.679c.554.01 1.094.078 1.634.19.196.041.422 0 .568-.152.114-.123.087-.31-.092-.347a9.61 9.61 0 0 0-1.816-.225c-.19-.003-.426.055-.524.235-.094.166.075.296.23.3Zm4.67-1.432c.243.204.476.391.767.524.317.143.928-.316.466-.524-.23-.102-.426-.289-.615-.449-.257-.224-.966.154-.618.45Zm-9.26-8.083c.524.234 1.054-.045 1.517-.293.111-.061.33-.211.202-.364-.118-.14-.395-.106-.537-.03-.124.067-.25.135-.378.197a.855.855 0 0 1-.128.054c-.02.017-.04.024-.06.014.04.006.043.006.013 0a.602.602 0 0 0-.571.064c-.105.072-.24.276-.058.357Zm1.571-4.429c-.27.354-.473.748-.554 1.19-.074.395.743.286.81-.064.062-.327.21-.633.413-.898.307-.405-.453-.51-.669-.228Zm-4.745 3.136c-.195.3-.172.636-.162.976.007.197.193.255.365.242.142-.014.45-.12.446-.313-.01-.286-.047-.582.115-.834.111-.17-.095-.299-.237-.312a.574.574 0 0 0-.527.241ZM13.703 47.9c.426.536 1.358.37 1.918.18.027-.01.362-.143.244-.215-.136-.078-.385.01-.514.054-.263.089-.672-.02-.844-.238-.149-.183-.848.16-.804.218Zm106.028-6.82c.344-.129.841.014 1.178.102.2.051.426.014.568-.153.111-.136.081-.35-.105-.398-.662-.17-1.341-.282-1.996-.037-.152.058-.3.265-.189.422.128.173.375.126.544.064Zm2.046 1.198c-.121.37-.402.656-.483 1.044-.064.31.743.18.801-.099.081-.38.364-.673.483-1.044.091-.286-.713-.177-.801.099Zm.115 4.104c.422.031.82.123 1.222.262.294.102.942-.326.476-.486a5.344 5.344 0 0 0-1.404-.293c-.183-.013-.429.062-.524.232-.098.17.081.275.23.285Zm3.579-2.207c.112-.207.406-.173.608-.18.173-.007.409-.072.537-.194.135-.13-.118-.143-.189-.14-.547.021-1.449.103-1.742.654-.071.132.283.091.32.085.139-.028.392-.082.466-.225Zm-.655-2.418h.828c.189 0 .402-.054.567-.153.128-.075.108-.156-.041-.156h-.827a1.18 1.18 0 0 0-.567.153c-.132.075-.112.156.04.156Zm-1.249-3.677c-.051.44.037.864.213 1.266.165.37.959.143.8-.218-.155-.353-.243-.714-.199-1.102.047-.428-.77-.33-.814.055Zm1.584-2.078c.307.048.662.038.932.211a.502.502 0 0 0 .574-.04c.131-.106.209-.334.034-.446-.392-.252-.828-.275-1.277-.347-.192-.03-.439.065-.52.255-.078.187.081.337.257.367Zm2.114 2.225c.148.262.324.51.483.765.175.283.945-.006.736-.343-.159-.255-.334-.5-.483-.765-.095-.167-.409-.106-.54-.045-.152.072-.291.218-.196.388Zm-4.303-4.751c-.381.238-.861.513-.908 1.01-.034.336.773.187.8-.095.034-.35.341-.494.608-.66.112-.072.24-.242.068-.327-.173-.088-.412-.024-.568.072Zm3.945.421c.466 0 .939-.02 1.391.116a.553.553 0 0 0 .568-.153c.118-.136.077-.337-.105-.391-.584-.174-1.182-.163-1.783-.163-.456.003-.615.595-.071.591Zm3.157 1.691c.159.404.398.775.554 1.183.084.221.871-.027.8-.217-.155-.409-.392-.776-.554-1.184-.087-.218-.874.034-.8.218Zm2.026-2.371c.223-.119.486.004.628.19.149.201.922-.07.747-.302-.416-.554-1.344-.367-1.861-.088-.098.054-.253.214-.078.285.172.072.405 0 .564-.085Zm-2.276 7.21c.385.432.645.963 1.037 1.391.162.18.919-.109.75-.296-.392-.428-.652-.959-1.037-1.39-.162-.181-.922.105-.75.295Zm-1.597 3.275c.547.15 1.053.402 1.584.602.185.068.401.03.567-.071.094-.061.253-.255.067-.323-.577-.218-1.134-.49-1.732-.653-.26-.072-.942.323-.486.445Zm-.821 3.075c.341.31.817.5 1.047.918.179.327.939.02.733-.36-.257-.47-.78-.687-1.165-1.03-.277-.25-.966.156-.615.472Zm-2.58 1.68v1.67c0 .132.8.017.8-.215v-1.67c0-.136-.8-.02-.8.215Zm-2.387.943a.34.34 0 0 0-.101.309c.033.23.837.047.8-.215-.007-.054 0-.068.037-.108.139-.14-.118-.198-.206-.198a.774.774 0 0 0-.53.211Zm1.455 2.852c.358.157.747.242 1.128.303.193.03.439-.065.52-.255.081-.19-.074-.34-.253-.367a3.76 3.76 0 0 1-.942-.255c-.361-.16-.925.364-.453.575Zm4.002-1.336h1.104c.176 0 .416-.065.531-.208.121-.15-.102-.197-.206-.197h-1.105c-.175 0-.415.065-.53.21-.121.147.101.195.206.195Zm3.387-3.846c.274.302.429.666.588 1.037.081.19.287.241.479.19.145-.037.402-.214.321-.404-.179-.419-.351-.847-.659-1.188-.141-.156-.364-.166-.547-.074-.135.068-.324.285-.182.438Zm2.067-2.623c.439.007.871.085 1.31.068.179-.006.412-.06.53-.21.118-.147-.098-.201-.206-.198-.439.017-.874-.06-1.31-.071-.176-.004-.419.068-.53.21-.122.154.101.201.206.201Zm-.72-5.938c.071.439.436.738.831.884.159.058.415-.034.561-.102.084-.04.26-.15.098-.21-.341-.126-.629-.419-.689-.786-.027-.167-.834.01-.801.214Zm1.493 3.102c.473-.122.962-.116 1.449-.116.182 0 .422-.057.526-.227.102-.16-.084-.259-.223-.259-.631 0-1.252.003-1.867.163-.125.03-.388.153-.341.327.044.18.331.146.456.112Zm.945-4.503c.368.323.777.622 1.277.687.192.024.435-.065.52-.248.084-.184-.078-.323-.247-.347-.361-.048-.668-.33-.935-.565-.27-.238-.966.163-.615.473Zm.632-3.054c.212.258.483.473.746.673.257.198.973-.17.625-.438-.227-.174-.453-.354-.635-.579-.213-.258-.979.048-.736.344Zm3.529 2.132c.047-.085.104-.027-.135.024.033-.007.087.01.121.014.125.02.25.091.348.17.192.156.918-.16.75-.293-.504-.401-1.53-.408-1.878.208-.084.15.287.126.331.119.162-.024.375-.089.463-.242Zm.331 2.752c.206-.02.402-.014.601.054.172.058.408-.013.56-.091.085-.045.264-.188.088-.249a2.148 2.148 0 0 0-.918-.085c-.179.017-.406.061-.534.204-.118.133.111.174.203.167Zm-2.026 2.492c.212.572.648.973.999 1.453.196.268.966-.03.736-.34-.32-.439-.743-.81-.935-1.33-.128-.337-.922-.105-.8.218Zm-1.108 4.384c.182.517.695.745 1.067 1.102.138.133.375.102.537.03.101-.043.344-.224.202-.36-.32-.31-.847-.54-1.006-.986-.111-.323-.908-.092-.8.214Zm-1.931 3.684c.172.425.641.486.982.724.24.17.969-.177.632-.415-.237-.167-.696-.238-.814-.527-.125-.306-.919-.068-.8.218Zm1.681 2.2c.206.167.439.296.621.486.176.18.929-.112.747-.299-.183-.19-.416-.32-.622-.486-.135-.11-.381-.044-.523.013-.064.024-.358.177-.223.286Zm3.563-3.632c.364-.167.817-.078 1.205-.072.176 0 .416-.068.53-.207.122-.15-.104-.19-.206-.194-.624-.007-1.246-.064-1.833.204-.068.03-.355.167-.223.283.125.108.398.044.527-.014Zm2.438-3.867c.104-.157.482-.051.648-.048.186.004.422-.058.527-.231.094-.163-.081-.279-.23-.279-.625-.01-1.297-.085-1.699.51-.111.167.095.272.23.28.193.013.412-.066.524-.232Zm.476-3.727c.179.088.317.217.432.384.149.214.926-.054.747-.31a1.394 1.394 0 0 0-.537-.452c-.169-.081-.416-.01-.568.078-.108.062-.243.215-.074.3Zm2.85 4.761c.132.2.317.354.537.452.172.078.412.014.567-.078.105-.061.247-.224.075-.303a1.046 1.046 0 0 1-.433-.38c-.091-.14-.415-.048-.526 0-.119.047-.318.163-.22.309Zm2.148-3.755c-.068.044-.176.004-.088.061.166.106.422.045.571-.06.128-.09.219-.27.054-.375-.331-.21-.74-.143-1.054.061-.128.082-.219.273-.054.374.172.106.412.041.571-.06Zm-3.884 8.417c.247-.017.487.017.726.069.186.037.439-.072.52-.249.092-.194-.081-.306-.243-.34a3.3 3.3 0 0 0-.932-.071c-.175.013-.415.125-.442.326-.024.204.213.276.371.265Zm-14.699 19.063c.233.306.385.666.621.972.179.232.949-.05.743-.323-.236-.306-.388-.666-.621-.972-.179-.235-.949.047-.743.323Zm3.167-.585c.294.18.621.279.898.486.115.089.402-.017.514-.054.037-.014.351-.13.243-.21-.274-.208-.605-.31-.899-.487-.128-.078-.388.01-.513.054-.027.01-.358.14-.243.211Zm-.574 5.19c.017.214.061.425.139.626.094.241.881-.004.8-.218a2.169 2.169 0 0 1-.138-.626c-.014-.21-.821-.05-.801.218Zm5.808-1.19c.352.166.73.224 1.108.292.179.034.422-.05.567-.153.139-.099.092-.183-.057-.21-.331-.062-.658-.12-.966-.266-.155-.075-.422.024-.56.095-.102.048-.25.167-.092.242Zm-1.735 5.084c-.048.452.125.816.381 1.177.193.268.959-.024.736-.34-.199-.28-.344-.558-.31-.912.037-.384-.774-.255-.807.075Zm-2.279 2.993a.69.69 0 0 0 .297.734c.162.11.425.044.57-.058.132-.091.217-.268.054-.377-.131-.088-.145-.231-.114-.377.071-.368-.747-.249-.807.078Zm8.182.238a1.394 1.394 0 0 0-.169.734c.006.164.375.1.449.079.135-.038.358-.123.351-.293-.007-.177.024-.36.108-.517.172-.326-.625-.22-.739-.003Zm3.424-6.999h.206c.192 0 .401-.048.567-.153.125-.079.108-.174-.047-.174h-.206c-.193 0-.402.051-.568.153-.125.079-.108.174.048.174Z"/>
    <path fill="#76C79E" d="M176.108 65.575a4.762 4.762 0 0 0-.743.245c-1.84.786-3.113 2.755-3.083 4.765-1.8-.187-3.741-.252-5.291.694-1.729 1.054-2.59 3.21-2.506 5.244.081 2.034.976 3.955 2.094 5.652-1.648-.194-3.33-.38-4.954-.05-1.624.332-3.215 1.275-3.914 2.791-.837 1.823-.226 3.956.395 5.864-3.684.983-7.649 6.734-3.789 10.039 2.486 2.133 3.495 2.269 4.978 2.143-.976.799-2.887 6.649 4.876 6.013 4.029-.33 8.169-1.092 11.934-2.595V65.575h.003Z"/>
    <path fill="#E2EEDD" d="M158.997 96.354c.19.377.173.877.632 1.044.176.065.409 0 .564-.088.088-.048.26-.204.081-.27-.338-.122-.338-.622-.476-.904-.122-.241-.895.03-.801.218Zm2.898-.904c0 .465-.044.958.311 1.315.239.242.996-.078.736-.343-.284-.286-.24-.673-.24-1.048 0-.397-.807-.255-.807.075Zm-3.154 4.849c.287.061.642.01.892.184.226.156.962-.177.634-.402-.307-.21-.692-.16-1.04-.234a.676.676 0 0 0-.567.153c-.125.115-.088.265.081.299Zm2.789-1.041c.21-.068.534-.15.676.075.158.258.935-.017.739-.33-.29-.466-1.108-.34-1.536-.204-.129.04-.389.153-.338.34.044.174.331.163.459.12Zm-1.887-5.948c-.244.303-.423.65-.71.912-.128.119-.084.268.082.31a.655.655 0 0 0 .567-.154c.324-.303.533-.694.81-1.034.125-.156-.104-.255-.223-.262a.639.639 0 0 0-.526.228Zm-3.486.721c-.432.63-1.04 1.31-1.104 2.105-.034.436.784.33.814-.054.054-.674.605-1.259.966-1.792.294-.426-.456-.582-.676-.259Zm.629 3.646v1.112c0 .238.8.088.8-.214v-1.112c0-.239-.8-.089-.8.214Zm-1.793 1.809v.487c0 .102.8-.004.8-.215v-.486c0-.105-.8 0-.8.214Zm6.402 3.642h1.588c.192 0 .425-.051.523-.238.088-.166-.074-.309-.236-.309h-1.588c-.192 0-.425.051-.523.238-.088.167.074.309.236.309Zm3.026-2.197c.233-.136.652-.034.908-.03.189.003.426-.055.524-.238.087-.167-.078-.303-.237-.303-.608-.007-1.168-.071-1.715.248-.139.082-.213.283-.054.381.182.109.408.038.574-.058Zm1.158-3.533c-.189.404-.429 1.102-.003 1.432.253.197.972-.167.624-.44-.094-.074-.04-.326-.023-.417.027-.177.084-.35.162-.514.182-.395-.625-.35-.76-.061Zm-.824-2.765c-.165.252-.297.527-.483.765-.121.157.102.252.223.259a.634.634 0 0 0 .527-.225c.186-.238.317-.513.483-.765.108-.163-.091-.252-.223-.258-.186-.01-.419.06-.527.224Zm-1.04-1.779c.29-.132.652-.081.962-.081.169 0 .419-.13.443-.317.027-.207-.22-.244-.365-.244-.479 0-.939-.007-1.388.197-.135.061-.314.241-.192.398.121.156.381.119.54.047Zm-1.435-2.434c.385.03.77.074 1.155.129a.742.742 0 0 0 .567-.154c.122-.105.095-.251-.074-.275a17.598 17.598 0 0 0-1.334-.146c-.176-.014-.422.068-.53.217-.115.16.098.218.216.228Zm-2.246-3.239c-.432.538-.696 1.255-.486 1.942.101.33.898.11.8-.214-.162-.527 0-1.112.341-1.537.314-.391-.452-.439-.655-.19Zm-.26 4.554c.284.235.669.303 1.03.255.165-.02.415-.108.446-.302.03-.19-.223-.242-.358-.225-.186.024-.335-.034-.49-.16-.243-.2-.962.153-.628.432Zm2.398-3.4c.52.003 1.003.027 1.503-.147.027-.01.361-.143.243-.207-.135-.075-.382.013-.514.058.061-.01.048-.007-.037.003-.071.007-.145.003-.216.003-.152-.003-.3-.01-.452-.013-.189 0-.402.058-.568.153-.131.071-.108.146.041.15Zm-.8-3.167c.577.007 1.148.078 1.725.072.176-.004.412-.069.534-.205.125-.142-.108-.176-.2-.173-.577.01-1.151-.065-1.725-.072-.172 0-.415.072-.534.205-.128.142.108.173.2.173Zm-2.209-.676c-.169.285-.361.564-.442.89-.071.283.733.16.8-.105.071-.286.24-.524.385-.779.095-.16-.078-.224-.213-.224-.165-.004-.435.058-.53.218Zm6.082-.657c.233.241.412.517.52.837.121.36.918.136.8-.215a2.622 2.622 0 0 0-.584-.972c-.142-.147-.368-.136-.54-.055-.125.058-.338.259-.196.405Zm-.422 2.895a.69.69 0 0 1 .25.377c.067.241.868.02.8-.215a.883.883 0 0 0-.304-.459c-.135-.109-.385-.04-.523.017-.061.02-.355.17-.223.28Zm3.181 1.261c.209.34.165.758.483 1.044.212.187.959-.122.742-.316-.297-.265-.28-.714-.482-1.044-.139-.228-.919.03-.743.316Zm-1.895 1.966c.014.248.085.48.206.693.135.232.892-.054.801-.217a1.526 1.526 0 0 1-.206-.694c-.01-.197-.817-.044-.801.218Zm2.833 1.738c.25.343.25.775.277 1.183.007.12.814-.013.801-.214-.027-.408-.027-.84-.277-1.184-.135-.183-.848.153-.801.215Zm-2.137 1.608c-.325.368-.254.84.098 1.163.145.133.368.11.537.034.101-.044.347-.234.202-.367-.159-.146-.361-.439-.179-.643.115-.132.088-.285-.091-.336-.182-.055-.442.003-.567.15Zm1.307 3.262c.253.39.635.65.989.935.122.099.396.01.517-.038.051-.017.355-.146.233-.244-.331-.27-.706-.51-.942-.871-.135-.21-.871.102-.797.218Zm1.942-.973c.411.034.749.337.986.66.124.17.891-.092.749-.286-.297-.408-.719-.69-1.226-.73a.928.928 0 0 0-.567.152c-.125.089-.101.19.058.204Zm-2.493 4.309c.041.296.189.555.277.833.112.358.912.136.801-.217-.088-.283-.237-.538-.277-.833-.027-.198-.338-.194-.47-.157-.172.048-.361.177-.331.374Zm2.996-.51c.277.184.554.37.827.558.152.102.368.061.527-.007.057-.024.368-.197.219-.3-.277-.186-.553-.37-.827-.557-.152-.102-.365-.061-.527.007-.057.023-.371.197-.219.299Zm-2.327 4.19c.591-.122 1.192-.119 1.793-.116.189 0 .422-.054.524-.234.094-.164-.078-.286-.23-.286-.746 0-1.479.007-2.212.16-.138.027-.385.17-.338.347.051.187.328.156.463.129Zm-2.931-.425c-.253.418-.463.85-.574 1.329-.091.398.729.3.81-.061.098-.421.308-.809.53-1.173.108-.177-.094-.323-.246-.344a.523.523 0 0 0-.52.249Zm-3.299 2.55c.249.126.493.262.621.528.088.18.408.136.547.068.172-.085.273-.249.186-.429-.176-.36-.554-.554-.895-.724-.345-.174-.919.326-.459.557Zm-1.675 1.81c.398.18.696.507 1.111.656.179.065.436-.024.567-.153.132-.133.075-.269-.088-.326-.354-.13-.618-.439-.962-.596a.613.613 0 0 0-.571.065c-.104.072-.239.269-.057.354Zm5.585-.446c.496-.02.989-.064 1.486-.068.186 0 .422-.054.527-.231.094-.163-.081-.279-.227-.276-.564.004-1.127.051-1.688.072-.159.007-.415.115-.449.292-.041.198.226.215.351.211Zm2.965-1.408c.203.082.355.279.517.419.196.17.422.227.678.217.173-.007.409-.068.534-.197.132-.136-.115-.157-.196-.153-.148.007-.314-.191-.408-.282-.146-.14-.284-.259-.47-.334-.162-.064-.415.024-.56.099-.092.044-.261.163-.095.231Zm3.208-1.02c.291-.065.601-.041.895-.041.179 0 .419-.061.53-.214.112-.153-.094-.218-.213-.218-.445 0-.878 0-1.313.099-.105.024-.392.136-.351.296.047.163.347.102.452.078Zm1.574-3.193c-.122.034-.075.01 0 .027.05.01.101.027.148.044.105.034.21.071.318.099.175.044.401-.028.56-.102.068-.031.277-.167.098-.211-.175-.045-.338-.116-.513-.157-.223-.047-.459-.01-.676.048-.067.017-.398.109-.368.235.031.125.365.037.433.017Zm-4.91-24.678c.229.061.435.262.611.412.196.166.378.347.577.506.21.17.946-.146.747-.306-.456-.367-.855-.87-1.436-1.027-.175-.047-.428.041-.567.153-.138.116-.084.221.068.262Zm-1.952 1.007c-.04.503.162 1.024.655 1.21a.548.548 0 0 0 .568-.152c.124-.143.07-.32-.102-.385-.267-.098-.331-.49-.31-.738.033-.411-.781-.292-.811.065Zm2.728-4.18c.497-.15.993-.102 1.499-.04a.825.825 0 0 0 .568-.154c.128-.098.098-.21-.061-.228-.706-.088-1.401-.108-2.09.099-.088.027-.395.122-.358.269.037.146.351.081.442.054Zm3.975-2.275c-.041.405.071.82.378 1.095.145.13.372.102.537.027.098-.044.348-.228.203-.36a.991.991 0 0 1-.314-.85c.037-.361-.774-.222-.804.088Zm-1.385 4.927c-.054.44.159.807.453 1.113.138.146.371.13.54.05.118-.057.335-.247.196-.397-.223-.235-.422-.493-.378-.833.047-.395-.767-.276-.811.068Zm-.408 5.381c-.034.473.051.925.206 1.374.088.255.881.017.8-.214-.142-.408-.24-.837-.209-1.272.02-.3-.78-.13-.797.112Zm-3.178-.088c.051.289.152.56.304.813.085.139.422.044.527 0 .121-.051.307-.16.216-.31a2.084 2.084 0 0 1-.25-.718c-.044-.265-.847-.07-.797.215Zm-2.006-7.108c-.374.272-.824.602-.83 1.119-.004.421.807.299.81-.061.004-.34.304-.51.551-.69.138-.1.206-.304.044-.416-.169-.119-.419-.064-.575.048Zm4.647 12.43.483.347c.253.184.976-.18.625-.432a40.413 40.413 0 0 1-.483-.347c-.254-.183-.973.18-.625.432Z"/>
    <path fill="#FFCF86" d="M11.697 21.402c.676.395 1.378.817 1.878 1.432.216.269.982-.04.736-.347-.534-.656-1.27-1.115-1.99-1.534-.286-.166-.999.228-.624.45Zm-3.153 4.551c.901.268 1.85.245 2.762.462.277.068.949-.35.483-.462-.912-.221-1.86-.197-2.763-.463-.273-.081-.942.327-.482.463Zm-.281 5.285c.983.085 1.885-.337 2.854-.37.182-.008.415-.055.527-.222.104-.156-.088-.248-.22-.241-.962.034-1.894.455-2.853.37-.308-.027-.848.415-.308.463Zm2.253 4.782c.563-.293 1.02-.932 1.644-1.075.128-.03.388-.16.341-.333-.047-.184-.33-.15-.46-.12-.766.178-1.188.807-1.853 1.15-.49.252-.044.568.328.378Zm2.914 1.714c.31-.211.614-.429.922-.65.138-.098.087-.228-.068-.252a.79.79 0 0 0-.567.154c-.304.217-.611.438-.922.65-.142.094-.085.227.067.25.203.031.406-.043.568-.152Zm2.782-19.695c.105.629.372 1.36.855 1.795.172.157.901-.15.75-.285-.46-.415-.706-1.13-.804-1.728-.03-.194-.838-.01-.8.218Zm5.312 1.041c.054-.708.534-1.28.554-1.997.007-.2-.793-.071-.8.218-.02.676-.5 1.224-.55 1.897-.024.286.776.12.796-.119Zm3.752.639c.243-.63.844-1.068 1.445-1.31.122-.047.324-.217.203-.363-.125-.15-.385-.092-.537-.031-.747.303-1.567.874-1.868 1.656-.152.398.649.33.757.048Zm3.244 1.843c.315-.214 1.048-.901 1.436-.71.152.074.368.01.517-.045.023-.01.371-.167.236-.235-.918-.452-2.083.473-2.803.96-.125.084-.108.173.048.183a.974.974 0 0 0 .567-.153Zm2.037 3.649c.652-.047 1.267-.34 1.925-.272.318.034.848-.418.307-.473-.74-.074-1.4.232-2.127.283-.402.027-.659.503-.105.462Zm.459 2.82c.571 0 1.088-.003 1.58.32.27.177.987-.201.626-.439-.591-.388-1.23-.422-1.919-.422-.189 0-.425.051-.523.238-.088.167.078.303.236.303ZM16.277 16.063c-.328-.568-.308-1.235-.46-1.854-.06-.248-.864-.037-.8.218.152.619.135 1.289.46 1.854.141.244.904-.034.8-.218Zm-5.609 3.982c-.497-.275-.889-.717-1.236-1.163-.183-.234-.953.055-.74.323.375.483.807.95 1.344 1.248.169.092.419.028.567-.067.119-.079.233-.245.065-.34ZM7.02 25.44c-.662.003-1.337-.014-1.958-.263-.2-.078-.929.232-.649.344.72.285 1.513.3 2.276.296.244 0 .865-.378.331-.378Zm-.962 5.914c-.766.003-1.715-.116-2.421.241-.486.248-.05.694.358.49.246-.126.58-.109.85-.119.382-.017.764-.007 1.146-.01.462 0 .61-.602.067-.602Zm1.82 5.56c-.496.276-1.033.453-1.567.65-.135.047-.317.235-.2.384.13.16.382.102.541.041.53-.197 1.07-.374 1.567-.65.122-.068.328-.224.2-.384-.119-.143-.396-.119-.541-.04Zm2.938 3.112c-.334.404-.72.772-.952 1.248-.068.143.28.105.324.095.142-.024.395-.081.466-.231.216-.446.578-.786.888-1.16.115-.14-.101-.16-.196-.153-.158.01-.415.065-.53.2Zm11.262-24.242c.057-.69.5-1.245.638-1.915.034-.16-.75-.037-.787.15-.142.69-.59 1.265-.652 1.98-.006.091.78.013.8-.215Zm6.152 1.173c.119-.343.4-.666.78-.676.176-.007.42-.13.443-.327.024-.207-.212-.272-.371-.265-.692.02-1.388.514-1.614 1.177-.156.442.645.432.763.091Zm3.459 2.871c.314-.215.688-.35 1.07-.354.186-.003.419-.054.527-.228.098-.16-.084-.262-.223-.262a3.417 3.417 0 0 0-1.878.572c-.11.078-.236.248-.064.34.166.092.42.034.568-.068Zm2.367 4.934c.408-.095.847-.06 1.266-.057.172 0 .415-.068.533-.204.129-.143-.108-.17-.199-.174-.567-.003-1.124 0-1.681.126-.085.02-.396.122-.358.262.037.146.354.068.439.047Zm.155 3.813c.351-.034.7.003 1.04.085.18.04.402-.024.56-.102.065-.03.278-.17.099-.214a4.123 4.123 0 0 0-1.354-.099c-.176.017-.402.065-.537.194-.132.126.118.143.192.136Zm-19.13-16.223a20.858 20.858 0 0 0-.554-1.853c-.09-.262-.884-.027-.8.214.213.609.395 1.228.554 1.854.064.262.864.047.8-.215Zm-7.453 4.904c-.317-.156-.598-.4-.743-.73-.074-.174-.307-.167-.462-.127-.112.031-.412.17-.338.34.182.415.51.739.915.94.179.088.409.043.57-.065.112-.075.237-.27.058-.358Zm-4.95 7.758a1.747 1.747 0 0 1-.757-.146c-.179-.081-.405-.034-.567.068-.105.068-.243.259-.064.337.344.153.706.228 1.084.224.186-.003.419-.054.527-.228.101-.153-.085-.255-.223-.255ZM.375 32.612h1.104c.179 0 .419-.14.439-.337.024-.214-.21-.282-.375-.282H.439c-.18 0-.419.14-.44.337-.02.217.21.282.376.282ZM2.212 39.9c.29-.16.59-.296.908-.387.088-.028.399-.123.358-.27-.04-.146-.354-.077-.442-.054a6.22 6.22 0 0 0-1.3.541c-.085.048-.264.197-.085.259.172.064.409-.004.56-.089Zm5.875 3.336c-.293.361-.52.77-.827 1.113-.122.136-.081.302.095.357a.585.585 0 0 0 .567-.153c.31-.347.537-.755.827-1.112.112-.14.088-.3-.094-.358-.18-.054-.446.004-.568.154Zm15.001-31.673c.084-.677.412-1.268.736-1.853.08-.146-.287-.123-.331-.116-.162.024-.378.089-.463.242-.327.585-.652 1.18-.736 1.853-.034.252.767.095.794-.126Zm8.01 2.874c.24-.507.867-.697 1.26-1.064.141-.133-.122-.174-.2-.17-.19.01-.395.071-.534.2-.435.412-1.046.582-1.32 1.16-.07.15.28.119.328.112.148-.024.391-.085.466-.238Zm3.61 4.69c.32-.098.658-.061.989-.061.176 0 .415-.065.53-.21.118-.15-.101-.202-.206-.202-.476 0-.942-.017-1.405.123-.094.03-.395.126-.354.282.037.153.348.095.446.068Zm2.725 5.643c.418-.028.827.06 1.225.18.17.05.409-.034.561-.106.074-.034.27-.153.098-.204a4.358 4.358 0 0 0-1.536-.19c-.176.01-.402.071-.538.19-.135.126.122.133.19.13Zm-.358 4.308c.496.004.986.024 1.475.089a.808.808 0 0 0 .568-.153c.125-.099.098-.225-.064-.245a13.664 13.664 0 0 0-1.655-.099c-.176 0-.416.065-.53.211-.118.15.101.197.206.197Z"/>
    <path fill="#7A7582" d="M86.27 48.573s5.717-4.86 9.492-7.632c3.775-2.768 8.952-6.948 12.322-7.42 3.367-.474 8.223.594 9.536 3.512 1.314 2.918 9.152 23.83 9.152 23.83l-9.702-4.58-5.94 10.322-4.525-6.748-2.512-7.295-8.713 6.462-6.49-6.411s3.603-2.932 3.14-3.673c-.459-.741-2.164.231-3.728.973-1.563.741-2.124-.374-2.124-.374l.091-.966Z"/>
    <path fill="#E2EEDD" d="M84.216 48.073c.577.867 1.86 2.353 2.988 2.503.402.05.713-.109 1.068-.262.141-.061.533-.32.682-.367.415-.306 1.88-1.16 2.42-.936.778.323.396.636-.53 1.446-1.81 1.581-1.992 2.074-3.518 2.993-1.503.9-1.928 1.33-2.975-.14-1.054-1.476-2.566-2.663-3.981-3.21-.267-.102-1.003.415-.588.575 1.905.734 3.14 1.873 4.275 3.51.483.697.54 1.04 1.462.91.81-.111 2.01-1.037 2.62-1.51a36.456 36.456 0 0 0 3.648-3.254c.756-.769.98-1.619-.436-1.837-.75-.115-1.276.33-1.911.64-1.02.5-1.624.993-2.469.864-.827-.126-1.87-1.752-2.347-2.466-.158-.238-1.043-.126-.854.157l.446.384Z"/>
    <path fill="#E2EEDD" d="M88.522 52.776c2.205 2.173 4.36 4.37 6.375 6.72.135.157.483.075.621-.03 2.986-2.252 5.984-4.483 8.899-6.826l-.723.03c.692 1.766.993 3.643 1.8 5.367.618 1.323 1.3 2.616 1.989 3.898a78.77 78.77 0 0 0 1.962 3.469c.267.439.733 1.534 1.307 1.67 1.29.302 2.336-2.88 2.711-3.636 1.142-2.31 2.138-5.186 3.934-7.08-.212.04-.425.084-.641.125 1.904 1.02 3.812 2.088 5.855 2.81 2.036.72 4.015 1.73 6.187 1.948.324.034.844-.428.304-.483-1.949-.197-3.715-1.115-5.542-1.762-2.154-.761-4.16-1.843-6.173-2.92-.182-.1-.5-.021-.641.125-1.442 1.524-2.307 3.683-3.222 5.544-.517 1.047-1.02 2.101-1.557 3.139-.202.39-.412.775-.635 1.153a7.69 7.69 0 0 1-.266.408c-.284.411.148.129.138.122-.54-.513-.915-1.302-1.29-1.938-.736-1.235-1.418-2.504-2.09-3.772a72.117 72.117 0 0 1-1.621-3.234c-.773-1.657-1.04-3.476-1.705-5.17-.108-.275-.574-.088-.723.03-2.867 2.303-5.818 4.5-8.753 6.714l.621-.03c-2.016-2.35-4.174-4.547-6.375-6.72-.216-.205-.976.101-.746.33Z"/>
  </g>
  <defs>
    <clipPath id="a">
      <path fill="#fff" d="M0 0h176v114H0z"/>
    </clipPath>
  </defs>
</svg>
