<svg xmlns="http://www.w3.org/2000/svg" width="176" height="86" fill="none" viewBox="0 0 176 86">
  <path fill="#FBF5EB" d="M119.324 33.582c.873 5.336-45.673 3.948-53.825 1.9-4.638-.971.793-23.55-2.122-30.914-1.679-6.895 50.645-5.079 54.507-.512 2.974 3.514.212 22.012 1.44 29.526Z"/>
  <path fill="#FDBCA0" d="M71.872 20.6c.183-.922-.052-1.983.08-2.494.297-1.148.446-1.722.27-1.885-.717-.668-1.216 2.372-1.89 2.348-.27-.15-.5-1.068-.59-1.73-.106-.789.195-3.126-.276-3.084-.398.034-.665 1.735-.654 2.306-.014-.595.225-3.204-.405-2.985-.46.16-.468 3.141-.457 3.538-.014-.192.093-3.05-.364-2.853-.526.227-.418 2.8-.408 3.194-.02-.24.145-2.693-.412-2.425-.346.167-.488 2.543-.478 2.94.042 1.746 1.672 5.958 1.966 6.445l2.707.056s.381-1.124.492-1.673c.142-.692.35-1.353.419-1.698Z"/>
  <path fill="#8E97FD" d="M86.334 41.43c.328 2.525-3.192 11.291-2.44 15.643 7.279 1.537 24.447-1.221 25.784-7.006.107-3.917-.032-8.3.045-10.909.193-6.818-1.06-18.502-12.354-14.884-.578-.122-.558-.978-6.252-.588-5.507.369-5.773 10.195-4.783 17.744Z"/>
  <path fill="#8E97FD" d="M67.195 24.096c-2.288 11.72 4.798 20.5 14.687 20.03 14.05-.665 22.51-11.758 18.667-19.456l-3.783.056c-11.212-1.969-13.894 6.46-17.269 6.153-2.426-.219-6.431-2.355-7.255-7.298-.18-1.078-4.864-.42-5.047.515Z"/>
  <path fill="#3F414E" d="M93.692 24.837c-1.876 4.508-9.238 6.64-8.058-.017.364-2.056-2.322-3.684-2.565-5.145-.55-3.326 2.756-4.394 3.483-7.423 1.093-4.564 2.904-12.14 15.174-4.989 3.732 2.171-8.034 17.574-8.034 17.574Z"/>
  <path fill="#F0A38B" d="m99.719 16.582.02 8.44c-.432 2.428-6.358 2.786-6.047.02l-.017-3.624 6.044-4.835Z"/>
  <path fill="#FDBCA0" d="M89.805 16.457c-.038.515-.103.985-.076 1.49a6.26 6.26 0 0 0 .43 1.95c.664 1.663 2.049 4.025 3.783 4.067 3.06.07 7.027-3.402 6.535-7.886-.429-3.913-3.721-9.914-4.912-7.604-1.848 3.586-3.922 2.205-5.244 4.421-.277.463-.533 1.047-.512 2.394.007.438.02.813-.004 1.168Z"/>
  <path fill="#F4A07B" d="M96.105 18.666a1.733 1.733 0 0 0 1.658 1.799 1.731 1.731 0 0 0 1.79-1.667A1.733 1.733 0 0 0 97.895 17a1.729 1.729 0 0 0-1.79 1.666Zm-6.375-.72c.037.658.186 1.322.428 1.952a1.736 1.736 0 0 0 1.43-1.646 1.733 1.733 0 0 0-1.658-1.798h-.125c-.038.518-.103.988-.076 1.492Z"/>
  <path fill="#002869" d="M94.925 16.45s.692 1.155 2.821-.153c.267-.163-.914.202-1.644.261-.748.056-1.364-.358-1.177-.108Zm-4.753-.744c.173.285 1.707 1.471 2.27.42.15-.274-.442.303-1.131.05-.706-.258-1.25-.65-1.139-.47Z"/>
  <path fill="#F27979" d="M93.96 19.233c-.454.021-1.153-.09-1.271-.626-.052-.237.07-.438.176-.64.277-.518.523-.991.506-1.6-.004-.08.121-.098.124-.018.018.581-.183 1.054-.453 1.559-.16.295-.35.556-.107.88.221.292.664.34 1.007.323.08-.003.097.119.017.122Zm1.3 1.232c.136-.272-1.294.685-2.851-.164-.669-.365.934 1.604 2.852.164Z"/>
  <path fill="#3F414E" fill-rule="evenodd" d="M0 74.772V53.287c.829-4.396 2.168-8.102 3.995-9.8.17-.158.346-.306.53-.427C12.21 35.05 19.952 31 37.907 37.498c13.53-2.933 22.132-1.587 31.067-.188 7.812 1.222 15.878 2.485 27.713.962h.022c.1.004.192.007.286.007 4.203.085 7.03-.569 9.615-1.167 4.628-1.07 8.482-1.962 18.083 1.888.188.009.593-.131 1.196-.34 2.562-.882 8.684-2.993 16.76-.16 18.278-3.481 24.439.5 28.928 3.5 1.851 1.443 3.315 3.929 4.424 6.984v32.764c-.349.456-.729.775-1.139.934-7.793 3.047-39.477 2.826-69.16 2.619-15.056-.105-29.598-.207-40.245.123-.731.025-1.462.045-2.193.066-13.269.396-26.053.613-36.468.462a287.052 287.052 0 0 1-3.616-.073c-11.438-.282-19.368-1.095-20.845-2.738-.58-.646-1.595-4.427-2.334-8.37Z" clip-rule="evenodd"/>
  <path fill="#656B7B" d="M82.658 40.033c1.36-.048 2.721-.093 4.081-.142.568-.021.571-.911 0-.89-1.36.048-2.72.093-4.08.142-.568.02-.572.911 0 .89ZM77.4 74.617c-1.114.783-2.232 1.566-3.347 2.348-.467.327.014 1.075.481.748 1.115-.783 2.233-1.565 3.347-2.348.468-.327-.013-1.075-.48-.748Zm7.609-29.24c-.987 1.683-1.977 3.363-2.963 5.047-.288.49.429 1.016.716.522.987-1.684 1.977-3.364 2.963-5.048.29-.487-.426-1.016-.716-.522Zm1.461 24.575a26.958 26.958 0 0 0 3.087 3.594c.408.4 1.035-.23.626-.63a26.066 26.066 0 0 1-2.949-3.412c-.332-.463-1.1-.018-.765.448Zm2.91-14.762v4.449c0 .573.886.573.886 0v-4.45c0-.59-.886-.59-.886 0 0-.59 0 0 0 0Zm-21.177 8.529-3.413-.97c-.547-.157-.837.685-.287.841l3.413.97c.547.154.838-.685.287-.841Zm3.527-20.284a28.402 28.402 0 0 1 3.812 2.773c.432.372.92-.372.491-.741a28.703 28.703 0 0 0-3.81-2.772c-.489-.296-.984.445-.492.74ZM14.478 63.952c-.816-.049-1.633-.094-2.45-.14a35.84 35.84 0 0 1-.028-.89c.817.05 1.63.094 2.447.14.565.034.603.925.031.89Zm38.602 9.475c1.36.05 2.72.094 4.081.143.568.021.571.912 0 .89-1.36-.048-2.72-.093-4.08-.142-.572-.02-.572-.911 0-.89Zm1.028-21.713c-.986-1.683-1.976-3.363-2.963-5.047-.287-.49.43-1.016.717-.522.986 1.684 1.976 3.364 2.963 5.048.29.49-.426 1.015-.717.521Zm-12.26 28.563c-.329.024-.658.045-.986.066l-1.745-2.97c-.287-.491.43-1.017.717-.523.671 1.145 1.342 2.286 2.014 3.427Zm21.918-28.149V47.68c0-.574.886-.574.886 0v4.45c0 .594-.886.594-.886 0 0 .594 0 0 0 0Zm-15.355 3.73-3.413.97c-.547.156-.838-.685-.287-.842l3.413-.97c.543-.157.834.685.287.842Zm-3.386 12.23a28.403 28.403 0 0 0 3.811-2.772c.433-.373.921.372.492.74a28.712 28.712 0 0 1-3.811 2.773c-.488.296-.983-.442-.492-.741ZM24.45 80.809a57.84 57.84 0 0 1-1.626-.073 27.896 27.896 0 0 1-1.759-1.44c-.425-.38.128-1.072.554-.692.9.793 1.842 1.53 2.832 2.205Zm9.883-14.902-2.046 5.486c-.197.532-1.055.302-.855-.234l2.046-5.485c.2-.533 1.056-.303.855.233ZM20.35 43.662l-3.899-1.214c-.543-.17-.311-1.03.232-.86l3.898 1.214c.543.17.311 1.03-.232.86Zm9.237 4.094c.513 1.885 1.028 3.767 1.54 5.652.15.547-.678.867-.827.313-.512-1.885-1.028-3.767-1.54-5.652-.152-.546.675-.866.827-.313ZM23.094 67.73a26.95 26.95 0 0 1-3.918 2.654c-.499.278-.942-.494-.44-.772a25.775 25.775 0 0 0 3.738-2.515c.436-.359 1.063.27.62.633ZM20.72 52.974l-1.164 4.296c-.149.553-1.004.32-.855-.233.402-1.479.776-2.863 1.163-4.296.156-.574 1.008-.341.855.233.152-.574 0 0 0 0Zm14.99 8.247c1.181-.01 2.365-.024 3.545-.034.568-.007.63.883.06.887-1.181.01-2.365.024-3.545.034-.568.007-.63-.88-.06-.887Zm8.956-12.195c-1.513.434-2.98.99-4.4 1.67-.516.246-.79-.602-.28-.846a28.341 28.341 0 0 1 4.4-1.67c.546-.156.83.689.28.846Zm115.992-8.993c1.361-.048 2.721-.093 4.081-.142.568-.021.571-.911 0-.89-1.36.048-2.72.093-4.081.142-.567.02-.571.911 0 .89ZM155.4 74.617c-1.114.783-2.232 1.566-3.347 2.348-.467.327.014 1.075.481.748l3.348-2.348c.467-.327-.014-1.075-.482-.748Zm7.609-29.24c-.987 1.683-1.977 3.363-2.963 5.047-.288.49.429 1.016.716.522.987-1.684 1.977-3.364 2.963-5.048.291-.487-.426-1.016-.716-.522Zm1.46 24.575a27.041 27.041 0 0 0 3.088 3.594c.408.4 1.035-.23.626-.63a26.08 26.08 0 0 1-2.949-3.412c-.332-.463-1.1-.018-.765.448Zm2.911-14.762v4.449c0 .573.886.573.886 0v-4.45c0-.59-.886-.59-.886 0 0-.59 0 0 0 0Zm-21.177 8.529-3.413-.97c-.547-.157-.837.685-.287.841l3.413.97c.547.154.838-.685.287-.841Zm3.528-20.284a28.485 28.485 0 0 1 3.811 2.773c.432.372.92-.372.491-.741a28.658 28.658 0 0 0-3.811-2.772c-.488-.296-.983.445-.491.74ZM92.478 63.952c-.816-.049-1.633-.094-2.45-.14a35.84 35.84 0 0 1-.028-.89c.817.05 1.63.094 2.447.14.564.034.602.925.031.89Zm38.602 9.475c1.361.05 2.721.094 4.081.143.568.021.571.912 0 .89-1.36-.048-2.72-.093-4.081-.142-.571-.02-.571-.911 0-.89Zm1.028-21.713c-.986-1.683-1.976-3.363-2.963-5.047-.287-.49.43-1.016.717-.522.986 1.684 1.976 3.364 2.963 5.048.291.49-.426 1.015-.717.521Zm-12.26 28.563c-.329.024-.658.045-.986.066l-1.745-2.97c-.287-.491.429-1.017.716-.523.672 1.145 1.344 2.286 2.015 3.427Zm21.918-28.149V47.68c0-.574.886-.574.886 0v4.45c0 .594-.886.594-.886 0 0 .594 0 0 0 0Zm-15.355 3.73-3.413.97c-.547.156-.838-.685-.287-.842l3.413-.97c.543-.157.834.685.287.842Zm-3.386 12.23a28.357 28.357 0 0 0 3.811-2.772c.433-.373.921.372.492.74a28.732 28.732 0 0 1-3.811 2.773c-.488.296-.983-.442-.492-.741Zm-20.574 12.721a57.695 57.695 0 0 1-1.627-.073 27.784 27.784 0 0 1-1.758-1.44c-.426-.38.127-1.072.553-.692.9.793 1.842 1.53 2.832 2.205Zm9.882-14.902-2.046 5.486c-.197.532-1.055.302-.855-.234l2.046-5.485c.201-.533 1.056-.303.855.233ZM98.349 43.662l-3.898-1.214c-.543-.17-.311-1.03.232-.86l3.898 1.214c.543.17.311 1.03-.232.86Zm9.238 4.094 1.541 5.652c.149.547-.679.867-.828.313-.512-1.885-1.028-3.767-1.54-5.652-.152-.546.675-.866.827-.313Zm-6.493 19.974a26.969 26.969 0 0 1-3.918 2.654c-.499.278-.942-.494-.44-.772a25.762 25.762 0 0 0 3.738-2.515c.436-.359 1.063.27.62.633ZM98.72 52.974l-1.164 4.296c-.149.553-1.004.32-.855-.233.402-1.479.776-2.863 1.163-4.296.156-.574 1.007-.341.855.233.153-.574 0 0 0 0Zm14.991 8.247c1.18-.01 2.364-.024 3.544-.034.568-.007.63.883.059.887-1.18.01-2.364.024-3.544.034-.568.007-.63-.88-.059-.887Zm8.955-12.195a28.344 28.344 0 0 0-4.4 1.67c-.516.246-.789-.602-.28-.846a28.35 28.35 0 0 1 4.399-1.67c.547-.156.831.689.281.846Z"/>
  <path fill="#fff" d="M113.911 73.44c-1.104 2.65-7.993 6.79-9.128 6.18-1.859-1.001-8.74-10.873-8.169-13.225.544-2.237 7.086-6.279 7.086-6.279s6.708-2.713 10.46-2.779c2.063-.038 10.322 12.526 9.318 15.128-.491 1.263-6.445 2.056-9.567.974Z"/>
  <path fill="#fff" d="M113.741 72.688c-.325 2.87-8.318 7.43-9.886 6.807-.92-.365-8.674-11.301-8.106-13.65.543-2.236 10.751-7.193 10.751-7.193s5.552-1.054 9.308-1.124c2.063-.038 8.401 11.97 7.397 14.575-.488 1.263-7.712 2.683-9.464.585Z"/>
  <path fill="#fff" d="M113.582 72.246c-1.128 3.639-9.547 7.423-10.523 6.766-1.582-1.072-7.566-10.533-6.999-12.885.544-2.236 10.644-7.071 10.644-7.071 3.095-.188 5.601-1.218 9.613-1.33 2.07-.059 8.594 11.031 7.809 13.64-.464 1.544-9.256 2.404-10.544.88Z"/>
  <path fill="#E8E2E3" d="M111.924 73.164s.685 1.45 2.305.821c1.755-.681 1.565-2.459 1.565-2.459-1.578.15-2.932.609-3.87 1.638Z"/>
  <path fill="#8E97FD" d="M113.232 71.394c-.595.445-.879 1.137-.837 2.094.218.911-8.024 4.776-10.128 4.964-1.413.125-7.57-11.973-7.321-13.41.194-1.11 9.941-5.437 10.398-6.317 0 0 1.457-1.103 2.454-.856.983.244 9.332-1.78 10.315-1.805 1.54-.035 7.404 11.643 7.383 13.998-.01.974-9.699 3.082-10.031 2.282-.356-.867-2.233-.95-2.233-.95Z"/>
  <path fill="#4E5567" d="m104.932 58.784 7.463 14.7c.751-.939 2.073-1.801 3.07-1.14l-7.189-14.645c-.367-.73-3.59.598-3.344 1.085Zm-1.81 16.391c1.976-.772 3.845-1.743 5.521-3.054.239-.184.505.198.27.386-1.71 1.336-3.618 2.324-5.629 3.11-.28.111-.443-.33-.162-.442Zm-.596-1.878c1.257-.588 2.631-1.13 3.742-1.98.239-.184.509.202.27.386-1.139.87-2.561 1.434-3.849 2.035-.274.126-.433-.316-.163-.441Z"/>
  <path fill="#FDBCA0" d="M91.166 46.421c-.89-.281-1.97-.16-2.461-.347-1.101-.421-1.655-.633-1.838-.474-.738.644 2.218 1.468 2.118 2.14-.176.254-1.111.386-1.772.403-.793.021-3.07-.529-3.08-.052-.008.4 1.643.849 2.211.901-.592-.052-3.143-.567-2.994.084.11.476 3.056.803 3.45.834-.19-.007-3.007-.42-2.862.056.166.55 2.724.72 3.116.751-.243-.007-2.648-.434-2.444.15.128.362 2.464.758 2.856.793 1.73.146 6.074-1.03 6.587-1.273l.346-2.7s-1.07-.5-1.603-.67c-.661-.21-1.294-.491-1.63-.596Z"/>
  <path fill="#8E97FD" d="M93.973 51.302c2.842.372 15.947 7.207 19.896-2.087 5.525-12.996-4.593-26.545-13.084-25.383l3.254 12.15c-1.295 2.147-.551 5.806-.866 6.731-.789 2.317.104 3.608-9.363 3.472-1.083-.01-.779 4.995.163 5.117Z"/>
  <path fill="#3F414E" d="M94.052 5.583c-.225-1.287 11.129-4.682 14.507 6.189 1.205 3.882 10.156 3.77 6.016 11.25-1.308 2.361 7.982 4.47-.079 10.56-7.543 5.698-19.066.706-18.027-3.263 1.149-4.393 5.095-2.052 2.513-7.645-1.312-2.846.231-4.54.55-5.493l.187-.598c.19-.679.27-1.312 0-1.931-.81-1.85-6.335-.727-5.154-5.075 1.114-4.108-.513-3.994-.513-3.994Z"/>
  <path fill="#5863E3" d="M101.27 45.82c3.565-.86 1.135-7.872 2.984-10.15.103-.13-.08-.317-.184-.185-1.873 2.306.329 9.312-2.869 10.084-.163.038-.094.292.069.25Zm-3.316 6.832c3.627 1.227 8.452 2.386 12.108.775.152-.066.02-.292-.132-.226-3.579 1.58-8.345.404-11.907-.803-.16-.053-.229.201-.07.254Z"/>
  <path fill="#002869" d="M106.97 8.975c.617 1.155 1.375 2.122 2.423 2.905 1.094.817 2.098 1.415 2.735 2.692.076.15.305.028.232-.122-.474-.95-1.132-1.596-1.984-2.205-1.36-.967-2.371-1.885-3.174-3.395-.083-.146-.311-.025-.232.125ZM85.33 22.2c.342 1.277-.675 2.675-.703 3.97-.031 1.353.938 1.93 2.157 2.153.162.03.235-.223.069-.254-3.78-.692-.682-3.743-1.27-5.942-.046-.156-.298-.087-.253.073Z"/>
</svg>
