<svg xmlns="http://www.w3.org/2000/svg" width="118" height="85" fill="none" viewBox="0 0 118 85">
  <g clip-path="url(#a)">
    <path fill="#FDF9E7" d="M28.565 77.72c0 .405-2.371.731-5.295.731s-5.296-.326-5.296-.731c0-.405 2.372-.731 5.296-.731 2.924 0 5.295.326 5.295.731Z"/>
    <path fill="#F05D48" d="M40.423 85c10.365 0 18.767-1.162 18.767-2.595 0-1.433-8.402-2.595-18.767-2.595-10.364 0-18.767 1.162-18.767 2.595 0 1.433 8.403 2.595 18.767 2.595Zm48.562-.888c12.337 0 22.337-1.382 22.337-3.088 0-1.705-10-3.088-22.337-3.088-12.336 0-22.336 1.383-22.336 3.088 0 1.706 10 3.088 22.336 3.088Z"/>
    <path fill="#F05D48" d="M60.333 78.91c13.756 0 24.908-1.542 24.908-3.443s-11.152-3.442-24.908-3.442c-13.757 0-24.909 1.54-24.909 3.442 0 1.901 11.152 3.442 24.909 3.442Zm56.737-4.202c0 .878-5.158 1.594-11.524 1.594-6.363 0-11.524-.713-11.524-1.594 0-.879 5.158-1.594 11.524-1.594 6.363 0 11.524.712 11.524 1.594Zm-99.492-4.82c-5.932-1.362-11.496-6.016-14.43-11.45C.219 53.003-.917 46.448.822 40.517c1.735-5.93 6.578-11.033 12.591-12.316 7.318-1.563 14.698 2.491 20.287 7.49 2.284 2.043 4.437 4.29 7.08 5.833 2.646 1.54 5.957 2.3 8.778 1.114 3.386-1.424 5.124-5.108 6.772-8.403C60.386 26.12 65.71 18.52 72.725 12.8 79.74 7.076 88.548 3.33 97.58 3.36c5.626.02 11.499 1.654 15.419 5.712 4.968 5.143 5.835 13.17 4.353 20.183-1.482 7.013-4.949 13.411-7.705 20.023-2.755 6.612-4.846 13.888-3.37 20.902l-88.698-.292Z"/>
    <path fill="#F05D48" d="M55.205 26.631c1.717-2.833 3.205-5.855 3.864-9.103.86-4.248.124-8.732-2.803-12.046C52.141.816 43.65-1.396 37.833.932c-2.396.96-4.478 2.975-5.027 5.507-.933 4.286 2.319 7.995 4.335 11.416 1.082 1.839 1.89 3.979 1.969 6.134.071 2.059-1.211 3.96-.9 6.038.176 1.167.875 2.212 1.78 2.968 1.978 1.654 4.774 2.256 7.255 1.62 3.835-.983 6.038-4.808 7.96-7.984Z"/>
    <path fill="#E7DFC2" d="M46.418 13.807H3.838a.15.15 0 0 0-.15.15v33.61a.15.15 0 0 0 .15.151h42.58a.15.15 0 0 0 .15-.15v-33.61a.152.152 0 0 0-.15-.151Zm-12.91 16.807h-3.966v-3.876h3.966v3.876Zm.3-3.876h3.966v3.876h-3.966v-3.876Zm-8.828 4.177v3.875h-3.966v-3.875h3.966Zm-3.966-.301v-3.876h3.966v3.876h-3.966Zm4.265.3h3.967v3.876H25.28v-3.875Zm0-.3v-3.876h3.967v3.876H25.28Zm4.263-4.174v-3.875h3.966v3.875h-3.966Zm-.296 0H25.28v-3.875h3.966v3.875Zm-4.266 0h-3.966v-3.875h3.966v3.875Zm-4.266 0h-3.966v-3.875h3.966v3.875Zm0 .298v3.876h-3.966v-3.876h3.966Zm-4.262 3.876h-3.967v-3.876h3.966v3.876Zm-4.266 0H8.22v-3.876h3.966v3.876Zm0 .3v3.876H8.22v-3.875h3.966Zm.3 0h3.965v3.876h-3.966v-3.875Zm4.262 0h3.966v3.876h-3.966v-3.875Zm3.966 4.174v3.876h-3.966v-3.876h3.966Zm.3 0h3.966v3.876h-3.966v-3.876Zm4.265 0h3.967v3.876H25.28v-3.876Zm4.263 0h3.966v3.876h-3.966v-3.876Zm0-.301v-3.872h3.966v3.875h-3.966v-.003Zm4.266-3.872h3.966v3.875h-3.966v-3.875Zm4.263 0h3.966v3.875H38.07v-3.875Zm0-.301v-3.876h3.966v3.876H38.07Zm0-4.174v-3.875h3.966v3.875H38.07Zm-.297 0h-3.966v-3.875h3.966v3.875Zm-3.966-4.176V18.39h3.966v3.876h-3.966v-.003Zm-.3 0h-3.966V18.39h3.966v3.873Zm-4.262 0H25.28V18.39h3.966v3.873Zm-4.266 0h-3.966V18.39h3.966v3.873Zm-4.266 0h-3.966V18.39h3.966v3.873Zm-4.262 0h-3.967V18.39h3.966v3.873Zm0 .3v3.876h-3.967v-3.875h3.966Zm-4.266 3.876H8.22v-3.875h3.966v3.875Zm-4.266 0H3.988v-3.875H7.92v3.875Zm0 .298v3.876H3.988v-3.876H7.92Zm0 4.177v3.875H3.988v-3.875H7.92Zm0 4.173v3.876H3.988v-3.876H7.92Zm.3 0h3.966v3.876H8.22v-3.876Zm4.265 0h3.966v3.876h-3.966v-3.876Zm3.966 4.174v3.875h-3.966v-3.875h3.966Zm.297 0h3.966v3.875h-3.966v-3.875Zm4.266 0h3.966v3.875h-3.966v-3.875Zm4.265 0h3.967v3.875H25.28v-3.875Zm4.263 0h3.966v3.875h-3.966v-3.875Zm4.266 0h3.966v3.875h-3.966v-3.875Zm0-.298v-3.876h3.966v3.876h-3.966Zm4.263-3.876h3.966v3.876H38.07v-3.876Zm4.265 0h3.932v3.876h-3.932v-3.876Zm0-.301v-3.872h3.932v3.875h-3.932v-.003Zm0-4.173v-3.876h3.932v3.876h-3.932Zm0-4.174v-3.875h3.932v3.875h-3.932Zm0-4.176V18.39h3.932v3.876h-3.932v-.003Zm-.3 0h-3.965V18.39h3.966v3.873Zm-3.965-4.174v-3.982h3.966v3.982H38.07Zm-.297 0h-3.966v-3.982h3.966v3.982Zm-4.266 0h-3.966v-3.982h3.966v3.982Zm-4.262 0H25.28v-3.982h3.966v3.982Zm-4.266 0h-3.966v-3.982h3.966v3.982Zm-4.266 0h-3.966v-3.982h3.966v3.982Zm-4.262 0h-3.967v-3.982h3.966v3.982Zm-4.266 0H8.22v-3.982h3.966v3.982Zm0 .301v3.876H8.22V18.39h3.966ZM7.92 22.264H3.988V18.39H7.92v3.873ZM3.988 39.262H7.92v3.875H3.988v-3.875Zm4.232 0h3.966v3.875H8.22v-3.875Zm3.966 4.176v3.982H8.22v-3.982h3.966Zm.3 0h3.965v3.982h-3.966v-3.982Zm4.262 0h3.966v3.982h-3.966v-3.982Zm4.266 0h3.966v3.982h-3.966v-3.982Zm4.265 0h3.967v3.982H25.28v-3.982Zm4.263 0h3.966v3.982h-3.966v-3.982Zm4.266 0h3.966v3.982h-3.966v-3.982Zm4.263 0h3.966v3.982H38.07v-3.982Zm0-.301v-3.875h3.966v3.875H38.07Zm4.265-3.875h3.932v3.875h-3.932v-3.875Zm3.932-21.172h-3.932v-3.982h3.932v3.982ZM7.92 14.108v3.982H3.988v-3.982H7.92Zm-3.932 29.33H7.92v3.982H3.988v-3.982Zm38.348 3.982v-3.982h3.932v3.982h-3.932Z"/>
    <path fill="#FEDEA6" d="M21.25 23.418s.953 8.545 5.674 10.032L35.61 31s-5.186-2.401-5.716-7.582H21.25Z"/>
    <path fill="#F7F4E3" d="M16.748 31.317s-.724 9.727-4.319 11.419l-6.615-2.79s3.95-2.73 4.353-8.63h6.581Zm22.341-14.699-5.786 1.691 2.002 6.924 5.786-1.691-2.002-6.924Z"/>
    <path fill="#FDFDFD" d="m38.788 17.304-4.863 1.422 1.293 4.47 4.863-1.421-1.293-4.471Z"/>
    <path fill="#D2CDB8" d="m22.647 37.621-4.451-1.226-1.45 5.323 4.45 1.226 1.451-5.323Z"/>
    <path fill="#E7DFC2" d="m22.18 37.947-3.741-1.03-.938 3.44 3.74 1.031.938-3.44Z"/>
    <path fill="#CCC6AD" d="m92.511 34.934-1.903-.003c-.312 0-.612.276-.596.6.015.326.262.599.596.599l1.903.003c.312 0 .612-.276.596-.6a.613.613 0 0 0-.596-.599Z"/>
    <path fill="#CCC6AD" d="M111.144 50.86 93.619 35.197c-.858-.766-2.128.502-1.264 1.271L109.88 52.13c.855.77 2.125-.499 1.264-1.27Zm2.628 22.156h-1.686c-1.544-.445-4.009-.73-6.79-.73-2.78 0-5.242.288-6.79.73H96.82c-.078.455 0 1.092 0 1.092 0 1.008 3.794 1.823 8.472 1.823 4.681 0 8.472-.815 8.472-1.823.159-.674.007-1.092.007-1.092Z"/>
    <path fill="#E7DFC2" d="M113.772 73.016c0 1.008-3.792 1.827-8.469 1.827-4.681 0-8.473-.82-8.473-1.827 0-1.004 3.795-1.823 8.473-1.823a34.935 34.935 0 0 1 1.894.047c3.766.182 6.575.914 6.575 1.776Z"/>
    <path fill="#E7DFC2" d="m107.197 71.237-.877 1.519-.016.025v-1.575c.3.01.599.016.893.031Z"/>
    <path fill="#E7DFC2" d="m109.871 51.261-5.292 21.04c-.284 1.123 1.441 1.603 1.725.477 1.763-7.013 3.53-14.027 5.293-21.04.284-1.123-1.442-1.6-1.726-.477Z"/>
    <path fill="#E7DFC2" d="M111.537 50.464 94.012 34.803c-.858-.766-2.128.502-1.264 1.274l17.525 15.661c.855.766 2.125-.502 1.264-1.274Zm-35.62-15.533s5.111-8.368 11.727-4.38c6.615 3.988 1.685 12.464 1.685 12.464L75.917 34.93Z"/>
    <path fill="#C1B894" d="M89.328 43.018c-.368.618-2.711-.088-5.592-1.6a38.496 38.496 0 0 1-3.779-2.278c-2.683-1.843-4.406-3.587-4.038-4.205.344-.575 2.4-.004 5.012 1.302.793.395 1.641.86 2.506 1.384.864.52 1.67 1.05 2.393 1.572 2.366 1.694 3.838 3.248 3.498 3.825Z"/>
    <path fill="#FAC978" d="M85.824 39.187a3.005 3.005 0 0 1-2.93 2.347 3.007 3.007 0 0 1-3.002-3.025 3 3 0 0 1 1.036-2.278c.792.395 1.641.86 2.505 1.383a38.82 38.82 0 0 1 2.39 1.573Z"/>
    <path fill="#E7DFC2" d="M93.023 33.984c-1.92 0-1.922 3 0 3 1.92 0 1.922-3 0-3Z"/>
    <path fill="#E7DFC2" d="M93.023 34.865c-.79 0-.793 1.237 0 1.237s.793-1.237 0-1.237Zm17.547 14.607c-2.468 0-2.471 3.857 0 3.857 2.469 0 2.472-3.857 0-3.857Z"/>
    <path fill="#E7DFC2" d="M110.57 50.621c-.999 0-1.002 1.563 0 1.563.998 0 1.001-1.563 0-1.563Z"/>
    <path fill="#536969" d="M28.56 68.93H17.98s-.287 6.358 2.887 8.611c.262.186.59.283.924.283h2.959c.333 0 .66-.097.923-.283 3.173-2.25 2.886-8.61 2.886-8.61Z"/>
    <path fill="#405050" d="M28.566 68.934c0 .188-1.73.351-4.057.392a58.378 58.378 0 0 1-2.306.003c-2.412-.034-4.229-.2-4.229-.395 0-.179 1.539-.333 3.664-.386a66.804 66.804 0 0 1 2.933-.006c2.294.043 3.994.204 3.994.392Z"/>
    <path fill="#536969" d="M30.076 70.795c-.562-.681-1.473-.804-2.3-.775-.764.025-.768 1.224 0 1.198.602-.019 1.248-.003 1.557.6.287.552.237 1.27-.043 1.817-.671 1.317-2.203 1.681-3.564 1.496-.318-.044-.596.308-.596.6 0 .36.274.555.596.599 1.467.198 3.08-.207 4.085-1.359.992-1.139 1.276-2.95.265-4.176Z"/>
    <path fill="#54C1BB" d="M26.253 65.347c-.802.81-1.666 1.736-1.691 2.88-.003.13.006.258.012.39.016.273.031.546-.059.784a58.378 58.378 0 0 1-2.306.003 2.716 2.716 0 0 1-.568-.78 3.816 3.816 0 0 1-.334-.848 3.105 3.105 0 0 1-.01-1.55c.34-1.321 1.527-2.4 1.502-3.762-.016-.882-.546-1.667-1.136-2.316-.593-.647-1.276-1.227-1.72-1.987-.758-1.292-.67-3.047.25-4.226.917-1.18 2.63-1.68 4.016-1.133 1.389.549 2.313 2.124 2.07 3.602-.16.964-.75 1.949-.375 2.853.206.492.655.828 1.033 1.208.524.533.93 1.233.945 1.983.025 1.142-.827 2.09-1.629 2.9Z" opacity=".5"/>
    <path fill="#54C1BB" d="M33.842 70.32s-6.731-26.822-3.713-30.064c3.017-3.241 28.106-4.741 30.855-2.23 2.75 2.51 2.528 32.26 2.528 32.26l-29.67.035Z"/>
    <path fill="#8DD1CD" d="M60.987 38.025a1.742 1.742 0 0 0-.315-.22c-8.325-.517-23.204.936-25.485 3.386-2.678 2.881 2.328 24.35 3.482 29.123l24.843-.028s.225-29.75-2.525-32.26Z"/>
    <path fill="#DDBB8F" d="M68.586 47.994s5.177 15.64 6.569 16.029c1.392.389 15.652 3.09 15.652 3.09l-.695 3.5s-17.376.546-21.526-2.41c-4.153-2.956 0-20.209 0-20.209Z"/>
    <path fill="#405050" d="M68.586 47.994s-4.153 17.253 0 20.209c1.592 1.132 5.12 1.75 8.872 2.083l1.005-5.04-.144-.087-.106-.487c-1.545-.31-2.706-.555-3.055-.652-1.395-.386-6.572-16.026-6.572-16.026Z"/>
    <path fill="#536969" d="M79.939 65.018c-.671.712-1.124 1.597-1.376 2.523-.253.925-.316 1.889-.269 2.843.006.103-.1.216-.206.241-.106.025-.218.003-.328-.012-.109-.016-.227-.022-.32.034-.094.057-.148.166-.247.207-.128.05-.266-.022-.394-.069-.277-.103-.586-.081-.883-.103-.296-.02-.62-.098-.792-.33-.125-.166-.144-.383-.16-.587-.071-.947-.134-1.951.313-2.802.284-.54.752-.982.995-1.537.119-.27.178-.562.34-.81.16-.248.462-.449.762-.383.25.057.424.28.667.349.222.06.453-.016.68-.041.481-.054.912.113 1.218.477Z"/>
    <path fill="#F7F4E3" d="M42.776 70.32H69.1c-.737-5.14-1.42-10.828-1.342-13.778.065-2.416.824-8.51.824-8.51-.29-.345-6.79-5.407-12.083-5.25-8.978.27-13.54 6.646-13.54 6.646s.303 4.73.524 7.186c.265 2.925-.224 8.585-.708 13.706Z"/>
    <path fill="#405050" d="M67.756 57.097c0-.207 0-.404.006-.593.062-2.322.765-8.03.82-8.478-.274-.314-4.952-3.964-9.58-4.983l.041 4.465s1.723 10.625 2.484 22.775h7.57c-.689-4.823-1.332-10.123-1.341-13.186Z"/>
    <path fill="#536969" d="m59.608 42.403 4.157 4.973-3.083-.932-1.642 1.064-1.869-4.695 2.437-.41Z"/>
    <path fill="#405050" d="M42.776 70.286h12.058c-1.236-10.87-1.639-21.178-1.639-21.178l-1.354-5.623c-5.892 1.739-8.881 5.909-8.881 5.909s.303 4.729.524 7.186c.265 2.924-.224 8.582-.708 13.706Zm24.771-39.117c2.05-1.437 3.557-3.778 4.106-6.386.175-.825.256-1.688.094-2.52-.159-.831-.587-1.628-1.248-2.07-.662-.443-1.573-.465-2.175.056-.412-.725-1.292-1.051-2.053-.913-.762.138-1.436.605-2.07 1.085-2.493-1.101-5.498-.464-7.442 1.535-1.65.285-3.136 1.566-3.8 3.245-.665 1.678-.675 3.611-.3 5.406.268 1.28.755 2.564 1.66 3.427 1.089 1.035 2.615 1.308 4.047 1.286 3.34-.053 6.379-2.187 9.18-4.151Z"/>
    <path fill="#FDBCA0" d="M54.478 29.107c-.608 5.877-2.125 16.28-2.125 16.28 1.323 2.353 6.313 2.055 6.197 1.267-.065-.445.041-1.22.3-1.917.2-.54.493-1.035.867-1.299.157-.11.434-.144.793-.147.06.003.09 0 .09 0 1.651.012 4.85.646 6.245-1.362 1.735-2.498 1.925-9.452 1.738-12.803-.11-1.917-1.748-4.606-5.046-5.19-4.032-.715-8.447-.744-9.059 5.171Z"/>
    <path fill="#F0A38B" d="M55.052 41.653s1.248 1.81 3.798 3.081c.2-.54.493-1.035.867-1.3.156-.109.434-.143.793-.147-.493-.012-2.946-.163-5.458-1.634Z"/>
    <path fill="#3F4553" d="M64.507 35.684c.225-.003.459.004.646.145a.54.54 0 0 1 .203.474c-.034.414-.406.646-.774.734-.118.028-.175-.154-.056-.182.28-.066.596-.22.64-.54a.352.352 0 0 0-.131-.339c-.147-.106-.344-.1-.518-.1-.125.003-.131-.188-.01-.192ZM62.16 33.4c-.012.352.21.643.497.653.287.01.527-.267.54-.618.012-.352-.21-.644-.496-.653-.288-.01-.528.267-.54.618Zm3.458.336c-.012.351.21.643.497.652.287.01.527-.266.54-.618.012-.351-.21-.643-.497-.653-.284-.009-.527.267-.54.619Zm-4.341-3.311a2.233 2.233 0 0 1 2.075-.163c.094.04.15.148.113.248-.035.094-.15.154-.247.113-.54-.239-1.195-.213-1.7.103-.088.054-.197.06-.269-.028-.06-.075-.06-.216.028-.273Zm6.582.618a2.238 2.238 0 0 0-1.954-.718.193.193 0 0 0-.171.207c.01.1.103.188.206.172a1.85 1.85 0 0 1 1.61.559c.069.075.175.11.265.044.075-.05.112-.185.044-.264Z"/>
    <path fill="#FBAD8B" d="M60.538 34.787c-.022.27.371.524.877.568.509.044.94-.138.961-.408.022-.27-.371-.524-.877-.568-.508-.044-.94.138-.96.408Zm5.602.499c-.022.27.37.524.876.568.509.044.94-.138.961-.408.022-.27-.371-.524-.877-.568-.508-.044-.939.138-.96.408Z"/>
    <path fill="#4E5567" d="M65.46 38.923a1.51 1.51 0 0 1-.497.856c-.047.044-.09.079-.14.113a2.028 2.028 0 0 1-1.118.358c-.58.022-1.173-.179-1.591-.584a1.82 1.82 0 0 1-.39-.546c-.156-.323-.219-.69-.156-1.041.034-.198.13-.408.318-.459.122-.031.24.01.353.076.059.034.115.075.168.113.434.323.902.618 1.426.743.368.088.771.082 1.127-.053.118-.047.296-.204.427-.122.003.003.003.003.007.003.137.106.093.401.065.543Z"/>
    <path fill="#fff" d="M65.384 38.383a.745.745 0 0 1-.131.257c-.131.163-.328.27-.528.336-.673.223-1.438.047-2.022-.358-.187-.132-.365-.292-.449-.508a.63.63 0 0 1-.019-.408c.06.034.116.075.169.113.434.323.902.618 1.426.744.368.087.77.081 1.127-.054.118-.047.296-.204.427-.122Z"/>
    <path fill="#3F4553" d="M64.963 39.783c-.047.044-.09.078-.14.112a2.02 2.02 0 0 1-1.117.358c-.58.022-1.174-.179-1.592-.583a1.818 1.818 0 0 1-.39-.546c.45-.047.908-.054 1.36-.02.54.042 1.09.145 1.552.424.112.076.224.157.327.255Z"/>
    <path fill="#405050" d="M65.328 27.827c-1.417.292-2.98-.333-3.81-1.525-.103.36-.403.659-.765.762-.359.104-.77.006-1.048-.248-.056 1.161-.36 2.332-1.024 3.28-.664.95-1.72 1.656-2.87 1.747-.644.05-1.327-.103-1.807-.54-.447-.407-.668-1.007-.802-1.597-.322-1.421-.225-2.952.358-4.29.58-1.336 1.657-2.466 2.996-3.03 1.28-.543 2.715-.556 4.104-.509 1.429.05 2.87.163 4.228.618 1.102.368 2.147.976 2.918 1.858.15.173.412.414.409.656-.004.235-.169.543-.272.75a3.96 3.96 0 0 1-.995 1.264 3.606 3.606 0 0 1-1.62.804Z"/>
    <path fill="#FDBCA0" d="M55.077 31.919c-.483-.572-1.186-1.005-1.953-.942-.759.063-1.355.58-1.548 1.318-.128.496-.087 1.02.006 1.525.097.53.247 1.054.5 1.528.477.895 1.472 1.71 2.543 1.356 1.426-.474 1.523-2.24 1.167-3.474a3.75 3.75 0 0 0-.715-1.311Z"/>
    <path fill="#F0A38B" d="M53.192 32.254c-.13-.069-.243.129-.115.198a2.366 2.366 0 0 1 1.236 2.513c-.025.145.193.204.218.06a2.596 2.596 0 0 0-1.339-2.77Z"/>
    <path fill="#F0A38B" d="M54.235 33.437a2.085 2.085 0 0 0-1.22-.11c-.06.013-.094.085-.078.142.018.063.078.09.14.078a1.894 1.894 0 0 1 1.102.11c.056.022.124-.025.14-.078.012-.066-.028-.117-.084-.142Z"/>
    <path fill="#536969" d="m52.837 42.403-2.54 1.079-2.263 6.452 3.857-2.087 1.308 1.261-.362-6.705Z"/>
    <path fill="#FDBCA0" d="M42.963 49.395s-10.01 17.72-7.845 20.755c2.166 3.034 21.504 5.99 21.504 5.99l.796-3.935s-14.08-3.866-14.37-4.974l.355-4.44c-.003 0 1.158-11.811-.44-13.396Z"/>
    <path fill="#405050" d="m43.044 67.23.356-4.44s1.161-11.812-.437-13.4c0 0-10.01 17.72-7.845 20.755.7.979 3.196 1.952 6.25 2.82l.946-.329 1.86-4.672c-.665-.298-1.083-.552-1.13-.734Z"/>
    <path fill="#536969" d="M46.436 68.482a8.821 8.821 0 0 0-2.843 5.416c-.408.006-.786-.163-1.123-.396-.396.27-.92.21-1.392.138-.187-.028-.396-.069-.505-.222-.072-.1-.084-.23-.097-.352-.047-.483-.094-.976.022-1.447.112-.458.371-.865.627-1.264.443-.687.886-1.378 1.33-2.065.152-.235.305-.477.527-.646.221-.173.521-.267.783-.173.162.06.293.182.446.264.256.135.556.144.843.135.287-.01.58-.038.858.037a.722.722 0 0 1 .524.575Z"/>
    <path fill="#A1B8B8" d="M43.434 52.325c-.04 3.837-.187 7.675-.443 11.506a191.827 191.827 0 0 1-.246 3.267c-.025.292.43.282.456-.01a204.868 204.868 0 0 0 .69-14.77c.002-.298-.453-.288-.456.007Z"/>
    <path fill="#FDBCA0" d="M56.619 76.135s7.695 3.15 8.044 2.508c.35-.64-3.298-1.858-3.298-1.858s5.115 1.042 5.249.515c.134-.525-4.787-1.836-4.787-1.836s5.876 1.08 5.948.464c.072-.615-5.184-1.77-5.184-1.77s4.937.283 4.971-.166c.06-.806-10.148-1.792-10.148-1.792l-.795 3.935Z"/>
    <path fill="#FDBCA0" d="M58.148 72.279s3.925-1.431 4.322-1.12c.396.31-1.732 1.876-1.732 1.876l-2.59-.756Z"/>
    <path fill="#E7DFC2" d="M46.568 68.07H26.247c-.216 0-.343.177-.284.393l3.535 12.919a.55.55 0 0 0 .496.392h20.321c.216 0 .344-.175.284-.392l-3.535-12.919a.547.547 0 0 0-.496-.392Z"/>
    <path fill="#F7F4E3" d="m49.073 81.617-3.002-10.964a.466.466 0 0 0-.421-.332H28.406c-.184 0-.29.147-.24.332l3.002 10.964a1.95 1.95 0 0 0 .043.154h17.91l-.048-.154Z"/>
    <path fill="#405050" d="M27.723 69.04a.479.479 0 1 1-.955 0 .48.48 0 0 1 .477-.48.48.48 0 0 1 .477.48Z"/>
    <path fill="#576E6E" d="M27.467 69.04c0 .123-.1.223-.222.223a.223.223 0 0 1 0-.445c.122 0 .222.1.222.222Z"/>
    <path fill="#EBB254" d="M45.27 70.472H28.026c-.185 0-.29.147-.24.332l3.001 10.964.094.333h17.905l-.09-.333-3.002-10.964a.47.47 0 0 0-.424-.332Z"/>
    <path fill="#FEDEA6" d="m48.693 81.768-1.932-7.06H28.852l1.932 7.06.094.333h17.905l-.09-.333Z"/>
    <path fill="#EBB254" d="M45.304 83.798H27.407l3.48-1.697h17.896l-3.48 1.697Z"/>
    <path fill="#FEDEA6" d="m68.124 49.595 36.482-6.097a.983.983 0 0 1 1.136.985l-.156 23.277a.986.986 0 0 1-.78.967l-35.59 7.405c-.873.207-1.912-.351-1.912-1.641V50.574a.998.998 0 0 1 .82-.98Z"/>
    <path fill="#FAC978" d="m69.775 49.529 34.831-5.809a.98.98 0 0 1 1.136.976l-.149 23.102a.983.983 0 0 1-.781.957l-34.681 7.164a.978.978 0 0 1-1.174-.964V50.502a.983.983 0 0 1 .818-.973Z"/>
    <path fill="#EBB254" d="m85.518 61.641-2.02 11.51 10.973-2.266-8.953-9.244Zm-.456 21.065-4.815-1.644c-.77-.264-.724-1.375.066-1.572l8.163-2.056a.834.834 0 0 1 .43.01l4.74 1.424c.784.236.775 1.353-.012 1.576l-8.088 2.275a.82.82 0 0 1-.484-.013Z"/>
    <path fill="#FEDEA6" d="M92.265 60.543a.815.815 0 0 0-.943-.634l-5.136.935a.821.821 0 0 0-.671.797L85.3 82.787l11.046-3.11-4.081-19.134ZM90.95 76.986c-1.548.16-2.986-1.526-3.214-3.766-.228-2.237.842-4.183 2.39-4.34 1.548-.16 2.987 1.525 3.214 3.766.228 2.237-.842 4.18-2.39 4.34Z"/>
    <path fill="#F5E2D5" d="M89.375 22.574c-5.227 0-9.48-4.277-9.48-9.533 0-5.256 4.253-9.533 9.48-9.533s9.48 4.277 9.48 9.533c0 5.256-4.253 9.533-9.48 9.533Zm0-16.364c-3.747 0-6.796 3.066-6.796 6.834 0 3.769 3.049 6.835 6.796 6.835 3.748 0 6.797-3.066 6.797-6.835 0-3.768-3.049-6.834-6.797-6.834Z"/>
    <path fill="#F5E2D5" d="m85.824 15.448-.421-.794 3.591-1.917 1.517-5.708.864.232-1.616 6.088-3.935 2.099Z"/>
  </g>
  <defs>
    <clipPath id="a">
      <path fill="#fff" d="M0 0h118v85H0z"/>
    </clipPath>
  </defs>
</svg>
