<svg xmlns="http://www.w3.org/2000/svg" width="140" height="123" fill="none" viewBox="0 0 140 123">
  <path fill="#FEDEA6" fill-rule="evenodd" d="M43.819 30.828c2.034 4.74 6.172 6.4 9.742 5.587 2.805-.639 6.456-6.525 6.327-9.244-.385-8.155-9.351-23.692-14.23-24.724-3.943 3.04-5.06 20.871-1.839 28.38Z" clip-rule="evenodd"/>
  <path fill="#F5C371" d="M51.81 36.819a8.203 8.203 0 0 1-3.793-.932c-1.901-.993-3.42-2.714-4.39-4.978-1.506-3.51-2.19-9.625-1.784-15.962.319-4.994 1.455-10.945 3.685-12.666l.077-.06.095.02C50.69 3.299 59.706 18.9 60.096 27.16c.136 2.859-3.593 8.798-6.489 9.458a8.03 8.03 0 0 1-1.797.202Zm-6.1-34.147c-1.737 1.443-3.054 6.135-3.449 12.302-.4 6.275.27 12.319 1.75 15.771 1.722 4.011 4.935 5.65 7.838 5.65.572 0 1.131-.063 1.666-.184 2.687-.612 6.291-6.367 6.165-9.033-.176-3.738-2.247-9.461-5.403-14.938-3.094-5.37-6.364-9.017-8.567-9.568Z"/>
  <path fill="#F9CF88" d="m45.793 2.378-.408.094L53.29 36.44l.408-.094-7.906-33.968Z"/>
  <path fill="#F9CF88" d="m48.766 15.482-.338-.246c.025-.035 2.556-3.475 4.257-5.745l.336.249c-1.7 2.269-4.23 5.707-4.255 5.742Zm5.055-4.2-4.953 5.785.319.27 4.953-5.785-.319-.27Zm-11.835 8.231-.205.363 8.877 4.953.204-.363-8.876-4.953Zm17.047 3.68-7.065 7.155.3.292 7.064-7.156-.299-.291Zm-16.609 2.041-.147.39 9.406 3.502.147-.39-9.406-3.502Zm5.23-13.173c-.728-.66-2.645-2.41-4.725-4.408l.291-.3a237.72 237.72 0 0 0 4.718 4.4l-.284.308Z"/>
  <path fill="#FEDEA6" fill-rule="evenodd" d="M44.305 26.328a45.612 45.612 0 0 0-2.49-2.318c-8.233-7.138-20.935-13.712-25.611-12.23-2.455 5.89 7.56 26.643 15.963 32.988 5.304 4.005 10.988 3.238 14.453.073.58-.53 1.1-1.13 1.543-1.784 2.205-3.25 2.572-7.886-.398-12.54-.858-1.348-2.044-2.764-3.46-4.189Z" clip-rule="evenodd"/>
  <path fill="#F5C371" d="M39.72 47.708c-2.623 0-5.27-.955-7.68-2.773-3.907-2.952-8.55-9.365-12.115-16.741-2.8-5.795-5.3-13.17-3.915-16.493l.037-.09.093-.029c2.245-.712 6.375.316 11.628 2.894 4.933 2.422 10.103 5.84 14.184 9.378a46.613 46.613 0 0 1 2.501 2.328c1.476 1.485 2.65 2.905 3.49 4.222 2.748 4.309 2.895 9.081.394 12.769-.45.665-.982 1.278-1.575 1.82a10.43 10.43 0 0 1-7.042 2.715ZM16.36 11.95c-1.045 2.721.458 8.854 3.942 16.063 3.537 7.318 8.133 13.675 11.991 16.588 5.4 4.077 11.015 2.98 14.185.085a9.926 9.926 0 0 0 1.512-1.747c2.405-3.545 2.254-8.147-.401-12.313-.824-1.29-1.979-2.688-3.433-4.152a45.759 45.759 0 0 0-2.478-2.306c-7.855-6.811-20.56-13.584-25.317-12.218Z"/>
  <path fill="#F5C371" d="m16.358 11.64-.308.28 30.418 33.062.309-.28L16.358 11.64Z"/>
  <path fill="#F5C371" d="m18.577 24.875-.015-.417c3.656-.138 9.162-.297 9.217-.298l.012.416c-.055.003-5.559.161-9.214.299Zm10.839 1.084-9.77 1.002.043.414 9.77-1.002-.043-.414Zm7.673-5.519-1.19 12.952.416.038 1.19-12.952-.416-.038Zm4.214 18.458-12.766 2.227.073.41 12.766-2.227-.073-.41Zm1.552-13.825-3.118 12.453.406.1 3.118-12.452-.406-.101Zm-18.367-4.034c-.172-1.247-.64-4.54-1.25-8.17l.414-.07a298.49 298.49 0 0 1 1.252 8.184l-.416.056Z"/>
  <path fill="#FEDEA6" fill-rule="evenodd" d="M111.572 93.887c-5.084-1.008-8.797 1.453-10.138 4.84-1.053 2.662 1.773 8.982 4.103 10.412 6.987 4.287 24.947 5.7 28.559 2.277-.299-4.951-14.471-15.934-22.524-17.53Z" clip-rule="evenodd"/>
  <path fill="#F5C371" d="M124.987 113.54c-6.751 0-15.219-1.56-19.56-4.224-2.448-1.503-5.275-7.916-4.187-10.664a8.101 8.101 0 0 1 3.762-4.176c1.897-1 4.183-1.273 6.612-.792 3.764.745 9.226 3.637 14.258 7.547 3.966 3.082 8.265 7.373 8.434 10.176l.007.096-.07.068c-1.431 1.35-5.004 1.969-9.256 1.969Zm-15.643-19.671c-3.961 0-6.678 2.313-7.716 4.935-1.008 2.551 1.734 8.757 4.018 10.158 3.203 1.965 9.123 3.497 15.452 4 6.207.492 11.08-.132 12.781-1.63-.219-2.24-3.369-5.97-8.266-9.775-4.983-3.871-10.38-6.732-14.082-7.466a11.192 11.192 0 0 0-2.187-.222Z"/>
  <path fill="#F5C371" d="m101.571 98.495-.153.388 32.662 12.691.152-.388-32.661-12.691Z"/>
  <path fill="#F5C371" d="M123.884 113.342c-.923-2.677-2.35-6.693-2.364-6.733l.394-.139c.014.041 1.441 4.058 2.366 6.738l-.396.134Zm-3.742-7.55-.404.11 2.007 7.331.404-.109-2.007-7.332Zm1.672-7.392-9.123 4.489.185.373 9.123-4.489-.185-.373Zm-14.444 2.445-.41.08 1.952 9.838.411-.081-1.953-9.837Zm9.396-5.291-8.217 5.743.241.34 8.216-5.743-.24-.34Zm8.317 12.478-.096-.405a232.99 232.99 0 0 1 6.327-1.39l.084.407a239.974 239.974 0 0 0-6.315 1.388Z"/>
  <path fill="#FEDEA6" fill-rule="evenodd" d="M110.68 87.755c-4.375 2.763-5.351 7.093-3.966 10.464 1.089 2.647 7.524 5.276 10.201 4.709 8.031-1.7 21.996-13.016 22.23-17.97-3.656-3.376-21.534-1.581-28.465 2.797Z" clip-rule="evenodd"/>
  <path fill="#F5C371" d="M116.066 103.215c-3.108 0-8.527-2.444-9.544-4.918a8.043 8.043 0 0 1-.183-5.603c.677-2.026 2.138-3.794 4.23-5.115 3.238-2.046 9.198-3.707 15.552-4.337 5.009-.496 11.099-.346 13.168 1.563l.072.066-.005.096c-.24 5.069-14.263 16.443-22.397 18.164a4.323 4.323 0 0 1-.893.084Zm14.852-19.809c-1.461 0-3.06.083-4.756.25-6.293.623-12.182 2.262-15.369 4.275-4.431 2.799-5.143 7.145-3.883 10.21 1.043 2.536 7.338 5.138 9.963 4.583 3.68-.78 9.026-3.739 13.951-7.723 4.829-3.907 7.919-7.706 8.108-9.956-1.246-1.067-4.151-1.639-8.014-1.639Z"/>
  <path fill="#F5C371" d="m139.073 84.69-32.43 13.264.16.385 32.43-13.263-.16-.385Z"/>
  <path fill="#F5C371" d="M133.101 93.364c-2.527-1.301-6.35-3.224-6.388-3.245l.189-.372c.038.02 3.862 1.944 6.391 3.246l-.192.37Zm-7.947-2.883-.216.357 6.544 3.922.216-.356-6.544-3.923Zm-3.94-6.506-3.478 9.511.393.142 3.478-9.51-.393-.143Zm-8.741 11.696-.241.341 8.247 5.772.241-.341-8.247-5.772Zm3.118-10.271-1.951 9.795.411.081 1.951-9.795-.411-.08Zm14.686 3.3-.351-.227c.538-.822 1.966-2.992 3.609-5.351l.345.237a241.137 241.137 0 0 0-3.603 5.341Z"/>
  <path fill="#F5C371" fill-rule="evenodd" d="M59 43C23 30 4.961 38.029.767 64.462-3.428 90.895 21.847 116.323 59 121.5c29.761 4.147 60-14.5 65-58.5s-29-7-65-20Z" clip-rule="evenodd"/>
  <path fill="#fff" fill-rule="evenodd" d="M54.472 42.731c-.33.057-.658.121-.986.187a76.874 76.874 0 0 0-6.005 1.45 55.84 55.84 0 0 0-3.912 1.261c-1.376.504-2.746 1.075-4.044 1.756a.053.053 0 0 1-.073-.023.053.053 0 0 1 .023-.073c1.302-.684 2.676-1.256 4.057-1.761 1.288-.471 2.6-.888 3.918-1.264a75 75 0 0 1 3.496-.906 71.889 71.889 0 0 1 3.507-.732.054.054 0 0 1 .062.043.053.053 0 0 1-.043.062Z" clip-rule="evenodd"/>
  <path fill="#fff" d="M39.5 47.419a.082.082 0 0 1-.079-.106.082.082 0 0 1 .04-.048c1.174-.617 2.502-1.193 4.06-1.763a56.236 56.236 0 0 1 3.921-1.264 77.169 77.169 0 0 1 6.017-1.45c.297-.06.645-.128.988-.188a.081.081 0 0 1 .061.014c.018.013.03.032.034.052a.08.08 0 0 1-.014.061.083.083 0 0 1-.053.033c-.338.059-.685.127-.984.186a72.99 72.99 0 0 0-2.514.545c-1.195.28-2.37.584-3.489.904a57.012 57.012 0 0 0-3.909 1.26c-1.551.568-2.873 1.142-4.04 1.755a.099.099 0 0 1-.039.009Zm14.962-4.767h-.005c-.343.06-.69.127-.986.187a77.588 77.588 0 0 0-6.012 1.45c-1.419.406-2.7.82-3.917 1.264-1.556.57-2.883 1.145-4.055 1.76a.026.026 0 0 0-.012.015.028.028 0 0 0 0 .02.026.026 0 0 0 .037.01c1.17-.613 2.494-1.188 4.048-1.757a56.417 56.417 0 0 1 3.913-1.262 77.048 77.048 0 0 1 6.008-1.45c.298-.059.646-.126.985-.186a.028.028 0 0 0 .017-.01.025.025 0 0 0 .004-.02.028.028 0 0 0-.01-.016.019.019 0 0 0-.015-.005Z"/>
  <path fill="#FDBCA0" fill-rule="evenodd" d="M86.876 30.97c2.823-4.877 4.725-9.99 5.311-11.655.19-1.903-3.011-7.972-3.011-7.972-2.801.147-12.532.585-16.745-.157 0 0-2.627-1.514-4.682.19-2.056 1.703 1.484 4.05 1.484 4.05l-14.77 27.252c8.374 9.69 15.531 4.39 15.531 4.39l2.132-6.359c4.88 2.07 9.288-1.637 12.736-6.564.609-.96 1.309-2.079 2.014-3.174Zm-10.125 80.185-4.016 5.444 18.12.076c-4.034-3.255-14.104-5.52-14.104-5.52Z" clip-rule="evenodd"/>
  <path fill="#FDBCA0" fill-rule="evenodd" d="M86.876 30.97a43.975 43.975 0 0 1-2.013 3.177c-2.06 3.257-2.686 5.465-2.686 6.374 0 .909.461 3.847.461 3.847l5.401-.114s0-2.9.456-4.338c.457-1.438 3.35-13.777 2.436-13.93-.212-.035-.541.211-.948.649.014.009-.33.378-.533.624-.753.946-1.67 2.31-2.574 3.712Z" clip-rule="evenodd"/>
  <path fill="#3F4553" fill-rule="evenodd" d="M68.624 2.065C58.726 7.667 39.5 47.335 39.5 47.335c5.885-3.089 14.962-4.657 14.962-4.657l14.771-27.252s-3.54-2.347-1.485-4.05c2.056-1.704 4.683-.19 4.683-.19 4.213.742 13.944.303 16.745.157 0 0 3.2 6.07 3.011 7.972-.587 1.664-2.488 6.78-5.31 11.656 1.685-2.613 3.412-5.091 4.055-4.985.914.151-1.98 12.491-2.436 13.93-.457 1.438-.455 4.338-.455 4.338l1.141-.024s.562 5.186 1.234 12.603c.316 3.468.654 7.424.972 11.564 1.085-1.395 3.464-4.691 3.581-6.907.152-2.876 2.893-26.495 1.675-42.543-1.22-16.05-8.148-14.913-8.148-14.913s-9.974-7.57-19.872-1.969Z" clip-rule="evenodd"/>
  <path fill="#3F4553" fill-rule="evenodd" d="M84.863 34.147c-3.448 4.926-7.855 8.634-12.736 6.563l-2.132 6.36s8.767 3.218 10.742 7.456c.683-6.121 1.288-10.144 1.288-10.144l.614-.012s-.46-2.94-.46-3.848c-.002-.91.622-3.118 2.684-6.375Z" clip-rule="evenodd"/>
  <path fill="#63A6DC" fill-rule="evenodd" d="M35.845 97.099c-1.52-.135-3.078-.244-4.674-.327 1.018-1.095 2.458-3.887 3.987-7.3.203 2.319.518 5.784.687 7.627Zm.954-48.024c-5.178 4.24-28.63 40.575-20.406 58.441 0 0 6.396 6.359 56.342 9.084l4.016-5.444 1.01-1.368s-3.371-2.347-9.848-5.06c0 0 1.65-3.604 3.574-7.925 0 0 6.885 12.683 13.127 16.164-8.293-8.022-5.782-41.38-3.877-58.44-1.974-4.237-10.742-7.456-10.742-7.456s-7.157 5.299-15.531-4.39c0 0-9.077 1.568-14.963 4.658-1.018.531-1.94 1.111-2.702 1.736Z" clip-rule="evenodd"/>
  <path fill="#63A6DC" fill-rule="evenodd" d="M80.736 54.526c-1.905 17.06-4.416 50.418 3.877 58.44 0 0 6.243 5.147 7.766-9.992.752-7.477-.02-21.895-.992-34.575-.318-4.14-.656-8.097-.972-11.565a797.84 797.84 0 0 0-1.234-12.603l-1.141.024-5.402.115-.614.012s-.605 4.023-1.288 10.144Z" clip-rule="evenodd"/>
  <path fill="#A7D1F3" fill-rule="evenodd" d="M72.94 65.109a669.414 669.414 0 0 1 2.421 8.65c.495 1.819.983 3.643 1.434 5.473.163.666.324 1.338.463 2.01.047.232.093.464.13.696.02.142.045.301.045.446 0 .153-.06.367-.1.515a13.76 13.76 0 0 1-.283.867c-.31.877-.659 1.746-1.008 2.608a208.436 208.436 0 0 1-1.437 3.431 449.418 449.418 0 0 1-1.663 3.836 588.413 588.413 0 0 1-1.408 3.183.055.055 0 0 1-.072.028.055.055 0 0 1-.028-.07c.471-1.06.94-2.122 1.407-3.184.56-1.276 1.116-2.554 1.663-3.836.487-1.14.97-2.28 1.435-3.43.35-.86.697-1.728 1.008-2.603.1-.283.199-.571.28-.86.037-.135.096-.343.096-.485a2.86 2.86 0 0 0-.044-.43 13.984 13.984 0 0 0-.13-.69 54.183 54.183 0 0 0-.462-2.007 228.84 228.84 0 0 0-1.432-5.47 638.473 638.473 0 0 0-2.422-8.65.054.054 0 0 1 .037-.065c.032-.008.062.009.07.037Z" clip-rule="evenodd"/>
  <path fill="#A7D1F3" d="M71.485 96.883a.08.08 0 0 1-.033-.008.082.082 0 0 1-.042-.108 588.775 588.775 0 0 0 3.07-7.018c.573-1.341 1.03-2.431 1.435-3.428.32-.786.687-1.7 1.006-2.602.096-.272.197-.564.28-.858.038-.137.096-.342.096-.479 0-.138-.025-.297-.045-.425a14.408 14.408 0 0 0-.128-.689 57.996 57.996 0 0 0-.462-2.005 234.68 234.68 0 0 0-1.432-5.471 590.708 590.708 0 0 0-1.647-5.929c-.243-.858-.504-1.782-.775-2.719a.076.076 0 0 1 .007-.062.083.083 0 0 1 .049-.04.078.078 0 0 1 .063.008c.019.01.033.028.04.048.275.956.546 1.912.774 2.72a614.56 614.56 0 0 1 1.647 5.93c.476 1.75.98 3.624 1.434 5.475.158.642.323 1.332.463 2.01.042.206.09.45.129.698.02.125.046.298.046.449 0 .159-.061.377-.102.522-.085.3-.185.594-.282.868-.32.906-.69 1.823-1.009 2.61a205.71 205.71 0 0 1-1.436 3.43 444.61 444.61 0 0 1-1.665 3.837 611.507 611.507 0 0 1-1.408 3.184.075.075 0 0 1-.073.052Zm1.403-31.786-.007.001c-.007.003-.013.007-.016.013a.025.025 0 0 0-.002.02c.27.937.532 1.86.775 2.72a589.94 589.94 0 0 1 1.646 5.928 234.68 234.68 0 0 1 1.433 5.472c.157.641.323 1.328.462 2.007.042.204.09.445.129.692.02.13.045.289.045.432 0 .145-.06.353-.097.492-.085.298-.186.591-.281.864-.32.904-.688 1.819-1.007 2.605a206.19 206.19 0 0 1-1.435 3.43 472.77 472.77 0 0 1-1.664 3.835c-.447 1.02-.908 2.06-1.407 3.183-.006.013 0 .028.013.035.013.005.028 0 .035-.013.5-1.124.96-2.167 1.406-3.183.62-1.412 1.165-2.667 1.664-3.836.574-1.343 1.03-2.433 1.436-3.431.32-.787.688-1.702 1.009-2.607.097-.273.197-.568.282-.865.04-.142.1-.355.1-.507 0-.147-.028-.318-.047-.44-.038-.247-.087-.49-.129-.695-.14-.68-.305-1.367-.463-2.01-.454-1.85-.957-3.724-1.434-5.473a624.091 624.091 0 0 0-2.422-8.648c0-.007-.006-.012-.012-.016-.003-.004-.008-.005-.012-.005Z"/>
  <path fill="#A7D1F3" fill-rule="evenodd" d="M31.289 96.724c5.718.296 11.418.971 17.035 2.07 5.47 1.07 10.88 2.545 16.104 4.481a86.636 86.636 0 0 1 5.746 2.361 69.358 69.358 0 0 1 4.165 2.058 48.72 48.72 0 0 1 2.55 1.464c.303.188.61.381.903.584.013.009.02.02.022.036a.05.05 0 0 1-.01.04l-5.026 6.814a.053.053 0 0 1-.075.011.053.053 0 0 1-.011-.075l4.993-6.769c-.277-.19-.567-.373-.853-.549a49.518 49.518 0 0 0-2.544-1.463 69.134 69.134 0 0 0-4.159-2.053 85.863 85.863 0 0 0-5.738-2.359c-5.219-1.933-10.624-3.405-16.087-4.475a121.119 121.119 0 0 0-17.125-2.074c-.006.001-.013 0-.02-.001a129.675 129.675 0 0 0-4.868-.157.055.055 0 0 1-.054-.054c0-.03.026-.053.055-.053 1.62.021 3.239.073 4.858.156.223-.244.425-.52.611-.791.253-.37.488-.757.713-1.145a45.802 45.802 0 0 0 1.608-3.103c.613-1.28 1.194-2.576 1.757-3.878a202.32 202.32 0 0 0 1.79-4.28 360.566 360.566 0 0 0 3.839-9.894 345.328 345.328 0 0 0 1.676-4.584.054.054 0 0 1 .069-.033c.028.01.043.04.033.069a328.077 328.077 0 0 1-1.676 4.584 361.99 361.99 0 0 1-3.838 9.898 199.82 199.82 0 0 1-1.792 4.282 116.57 116.57 0 0 1-1.758 3.88 45.979 45.979 0 0 1-1.613 3.111c-.226.391-.46.78-.716 1.153a8.15 8.15 0 0 1-.564.738Z" clip-rule="evenodd"/>
  <path fill="#fff" fill-rule="evenodd" d="M72.42 11.24a5.446 5.446 0 0 0-1.574-.547c-1.111-.2-2.18-.005-3.062.726-.371.308-.63.698-.624 1.193.006.497.28.981.577 1.366.285.369.633.705.993 1.001.169.14.351.282.534.402.024.017.032.05.015.075a.055.055 0 0 1-.075.016 6.307 6.307 0 0 1-.543-.41 6.48 6.48 0 0 1-1.01-1.02c-.7-.905-.916-1.893.064-2.707.906-.752 2.008-.955 3.15-.749a5.58 5.58 0 0 1 1.587.548c.52.092 1.048.154 1.574.203.628.06 1.258.1 1.888.131 1.426.069 2.857.088 4.284.084 2.224-.005 4.452-.065 6.675-.156a197.41 197.41 0 0 0 2.291-.106c.008 0 .014-.002.022 0l.755-.044c.03-.001.055.02.058.05a.055.055 0 0 1-.051.058l-.683.04c.204.389.4.784.595 1.178.448.913.877 1.837 1.27 2.774.308.733.603 1.489.83 2.25.117.395.262.927.288 1.389.028-.081.057-.164.083-.245a.054.054 0 0 1 .068-.034.054.054 0 0 1 .035.067c-.062.186-.127.373-.193.558l-.001.003a.054.054 0 0 1-.055.034.025.025 0 0 1-.014-.004.057.057 0 0 1-.026-.02.053.053 0 0 1-.009-.034 2.874 2.874 0 0 0-.047-.731 8.19 8.19 0 0 0-.233-.951 22.66 22.66 0 0 0-.825-2.24 51.132 51.132 0 0 0-1.268-2.769c-.2-.408-.405-.817-.616-1.22-.755.041-1.514.074-2.27.105a174.9 174.9 0 0 1-6.678.156 84.748 84.748 0 0 1-4.29-.084 40.837 40.837 0 0 1-1.892-.13 20.329 20.329 0 0 1-1.592-.206h-.005Z" clip-rule="evenodd"/>
  <path fill="#F0A38B" d="M92.187 19.396h-.009a.078.078 0 0 1-.06-.037.076.076 0 0 1-.012-.052 2.757 2.757 0 0 0-.048-.723 8.12 8.12 0 0 0-.23-.947c-.195-.65-.449-1.34-.826-2.237a52.255 52.255 0 0 0-1.266-2.767 51.44 51.44 0 0 0-.608-1.203c-.65.034-1.347.066-2.252.104-2.45.1-4.636.151-6.679.156a84.316 84.316 0 0 1-4.29-.083 41.172 41.172 0 0 1-1.895-.131 20.12 20.12 0 0 1-1.595-.206h-.004a.073.073 0 0 1-.023-.009 5.413 5.413 0 0 0-1.551-.538c-1.165-.21-2.216.038-3.038.72-.414.343-.62.736-.614 1.171.005.413.198.866.57 1.35.257.332.59.667.99.997.205.17.374.297.53.401.019.012.031.03.035.053a.084.084 0 0 1-.011.06.084.084 0 0 1-.114.023 6.648 6.648 0 0 1-.545-.411 6.489 6.489 0 0 1-1.015-1.024c-.828-1.073-.805-2.022.068-2.746.86-.713 1.957-.973 3.172-.755a5.56 5.56 0 0 1 1.591.55c.457.08.956.146 1.568.203.568.053 1.186.096 1.887.13 1.262.06 2.623.085 4.281.083a173.61 173.61 0 0 0 6.674-.156 193.172 193.172 0 0 0 2.318-.107l.75-.043a.081.081 0 0 1 .06.02.08.08 0 0 1 .027.056.082.082 0 0 1-.076.086c-.213.013-.427.026-.641.037.17.325.348.68.574 1.143a51.283 51.283 0 0 1 1.27 2.776c.38.903.636 1.599.832 2.253.1.336.233.818.278 1.26l.04-.118a.082.082 0 0 1 .04-.047.082.082 0 0 1 .063-.005.082.082 0 0 1 .052.103c-.062.189-.129.38-.192.558a.085.085 0 0 1-.034.042.097.097 0 0 1-.042.01Zm-3.025-8.026.008.017c.233.442.451.885.617 1.221a51.965 51.965 0 0 1 1.268 2.77c.378.9.632 1.591.827 2.242.11.37.184.673.233.955.052.305.067.538.048.739a.03.03 0 0 0 .004.016c.002.005.007.008.013.01l.007.002a.03.03 0 0 0 .017-.004.026.026 0 0 0 .01-.013c.064-.18.13-.37.193-.56a.034.034 0 0 0-.001-.02.022.022 0 0 0-.016-.013.028.028 0 0 0-.02.002.022.022 0 0 0-.013.015l-.083.246-.046.133-.008-.14c-.026-.47-.177-1.015-.287-1.383a22.386 22.386 0 0 0-.828-2.248 52.152 52.152 0 0 0-1.27-2.772c-.234-.48-.418-.844-.593-1.179l-.02-.038.043-.003c.227-.012.456-.025.683-.039.014-.001.026-.013.024-.028 0-.006-.004-.013-.009-.018a.021.021 0 0 0-.019-.006c-.251.015-.504.03-.756.043h-.015c-.671.037-1.377.069-2.298.107-2.451.1-4.634.15-6.675.156a84.064 84.064 0 0 1-4.286-.084 40.414 40.414 0 0 1-1.89-.13 20.377 20.377 0 0 1-1.576-.204l-.01-.004a5.545 5.545 0 0 0-1.577-.546c-1.198-.216-2.279.041-3.125.743-1.069.886-.622 1.94-.06 2.668.261.34.6.68 1.006 1.016.208.171.38.302.54.407a.025.025 0 0 0 .035-.007c.004-.007.005-.013.004-.02a.025.025 0 0 0-.011-.016 6.353 6.353 0 0 1-.536-.405 6.426 6.426 0 0 1-.999-1.006c-.382-.494-.577-.959-.582-1.383-.006-.452.208-.86.635-1.214.835-.692 1.9-.945 3.084-.731a5.45 5.45 0 0 1 1.577.548c.466.082.97.147 1.59.206.572.053 1.191.096 1.892.13 1.265.061 2.629.088 4.288.084 2.043-.005 4.228-.056 6.677-.156.913-.037 1.613-.07 2.269-.104l.017-.002Z"/>
  <path fill="#F0A38B" fill-rule="evenodd" d="M80.7 54.329c.257-2.295.537-4.587.842-6.876.136-1.027.275-2.055.43-3.08a.052.052 0 0 1 .052-.045l.552-.011a74.257 74.257 0 0 1-.284-1.987 35.366 35.366 0 0 1-.118-1.029 7.972 7.972 0 0 1-.051-.78c0-.305.06-.637.131-.932.111-.472.268-.94.442-1.393.241-.624.523-1.235.828-1.83.395-.768.83-1.517 1.292-2.247a.053.053 0 0 1 .074-.016c.026.015.034.05.017.073a29.03 29.03 0 0 0-1.287 2.238c-.304.593-.585 1.2-.825 1.82-.172.448-.328.912-.438 1.379a4.126 4.126 0 0 0-.129.909c0 .252.026.516.05.767.033.343.076.686.12 1.027.085.667.18 1.334.284 1.998l6.495-.137c.028 0 .053.02.055.048.128 1.18.248 2.36.367 3.54a897.063 897.063 0 0 1 1.84 20.63.053.053 0 0 1-.05.056.053.053 0 0 1-.058-.05 899.97 899.97 0 0 0-2.2-24.118l-7.063.15c-.152 1.01-.289 2.023-.423 3.033a343.174 343.174 0 0 0-.86 7.043.05.05 0 0 1-.005.043l-.094.847a348.83 348.83 0 0 0-1.047 11.176c-.328 4.263-.57 8.535-.69 12.809a169.29 169.29 0 0 0 .01 10.593c.059 1.676.15 3.352.284 5.024.126 1.569.29 3.135.509 4.693.2 1.425.448 2.847.766 4.25a32.114 32.114 0 0 0 1.052 3.698c.665 1.868 1.631 3.887 3.078 5.287.022.02.022.054.001.076a.055.055 0 0 1-.076.001c-1.46-1.411-2.434-3.442-3.105-5.327a32.284 32.284 0 0 1-1.056-3.71 52.981 52.981 0 0 1-.767-4.26 78.36 78.36 0 0 1-.51-4.7c-.134-1.672-.225-3.35-.283-5.027-.124-3.53-.109-7.069-.01-10.6.118-4.275.362-8.548.69-12.813.288-3.732.639-7.46 1.047-11.18l.096-.86c-.77-1.634-2.507-3.033-3.985-4.017-1.417-.944-2.956-1.757-4.505-2.465a39.533 39.533 0 0 0-1.583-.683 22.052 22.052 0 0 0-.628-.245.053.053 0 0 1-.032-.068l2.122-6.329a11.358 11.358 0 0 1-.535-.704 23.33 23.33 0 0 1-3.873-9.291.053.053 0 0 1 .043-.063.054.054 0 0 1 .063.043 23.249 23.249 0 0 0 3.855 9.247c.172.241.356.494.549.72.006.008.01.015.011.024a.069.069 0 0 1 0 .028l-2.116 6.31c.195.072.39.15.582.228a40.6 40.6 0 0 1 1.588.684c1.555.711 3.1 1.526 4.52 2.473 1.451.967 3.136 2.32 3.948 3.908Z" clip-rule="evenodd"/>
  <path fill="#A7D1F3" d="M84.613 113.047a.08.08 0 0 1-.058-.022c-1.242-1.203-2.26-2.948-3.11-5.338a32.075 32.075 0 0 1-1.056-3.713 52.227 52.227 0 0 1-.768-4.262 78.413 78.413 0 0 1-.51-4.701c-.13-1.6-.221-3.246-.284-5.03-.115-3.273-.119-6.74-.01-10.6.112-4.04.338-8.232.69-12.815.279-3.62.631-7.382 1.047-11.18l.095-.853c-.62-1.31-1.956-2.654-3.97-3.998-1.3-.867-2.773-1.672-4.502-2.463a36.74 36.74 0 0 0-2.209-.926.081.081 0 0 1-.048-.105l2.117-6.314a11.46 11.46 0 0 1-.528-.695 21.43 21.43 0 0 1-1.271-2.021 23.21 23.21 0 0 1-2.606-7.281.08.08 0 0 1 .014-.061.081.081 0 0 1 .147.033 23.031 23.031 0 0 0 2.588 7.229c.4.72.825 1.393 1.262 2.006.171.24.357.493.548.719.01.01.016.023.018.037a.076.076 0 0 1-.003.041L70.1 47.02c.176.066.351.136.558.218.516.208 1.05.44 1.588.685 1.736.794 3.217 1.604 4.525 2.476 1.923 1.281 3.24 2.571 3.912 3.835.26-2.315.542-4.597.833-6.784.124-.932.27-2.013.43-3.08a.083.083 0 0 1 .08-.07l.519-.01a76.131 76.131 0 0 1-.279-1.957 32.07 32.07 0 0 1-.118-1.03 8.094 8.094 0 0 1-.051-.782c0-.26.042-.557.131-.94.1-.425.245-.88.443-1.396.225-.582.497-1.183.83-1.832.374-.732.798-1.466 1.293-2.25a.082.082 0 0 1 .051-.035.079.079 0 0 1 .061.01c.02.011.032.03.036.05a.078.078 0 0 1-.01.062 27.876 27.876 0 0 0-1.285 2.236c-.331.646-.6 1.24-.824 1.818-.195.508-.338.957-.437 1.374a4.06 4.06 0 0 0-.127.903c0 .258.027.528.05.765.029.297.066.613.118 1.026.084.659.179 1.322.281 1.974l6.472-.137a.08.08 0 0 1 .082.072c.133 1.231.26 2.472.367 3.54.296 2.937.588 5.987.868 9.065.361 3.984.688 7.875.972 11.566a.084.084 0 0 1-.02.06.08.08 0 0 1-.056.028.085.085 0 0 1-.06-.02.08.08 0 0 1-.028-.055c-.283-3.693-.61-7.583-.971-11.564a903.908 903.908 0 0 0-1.227-12.526l-7.013.148a172.088 172.088 0 0 0-.419 3.01 342.783 342.783 0 0 0-.86 7.037.078.078 0 0 1-.007.053l-.093.842a348.463 348.463 0 0 0-1.047 11.175c-.352 4.58-.577 8.769-.689 12.807-.107 3.856-.103 7.32.01 10.59.063 1.781.155 3.425.284 5.023.135 1.683.301 3.218.51 4.692.217 1.546.468 2.935.764 4.248.31 1.372.655 2.58 1.05 3.694.832 2.333 1.864 4.107 3.072 5.275a.08.08 0 0 1 .024.057.084.084 0 0 1-.023.058.078.078 0 0 1-.057.024c.001 0 .001 0 0 0ZM67.71 30.692h-.005a.028.028 0 0 0-.017.01.026.026 0 0 0-.003.019 23.143 23.143 0 0 0 2.6 7.263c.402.722.83 1.401 1.27 2.017.165.233.345.48.533.703l.01.011-.005.016-2.122 6.328a.026.026 0 0 0 .015.033c.219.08.44.17.629.245.514.208 1.048.438 1.584.683 1.732.79 3.207 1.598 4.51 2.466 2.028 1.352 3.37 2.707 3.993 4.028l.004.007v.008l-.097.86a348.323 348.323 0 0 0-1.046 11.18 260.582 260.582 0 0 0-.691 12.812c-.107 3.858-.104 7.325.01 10.597.063 1.783.156 3.427.283 5.028.136 1.684.302 3.221.51 4.697a51.59 51.59 0 0 0 .767 4.257c.312 1.376.656 2.59 1.055 3.707.847 2.381 1.861 4.12 3.097 5.316.005.005.01.01.019.007.006 0 .014-.002.018-.007a.027.027 0 0 0 .007-.019.023.023 0 0 0-.007-.018c-1.23-1.191-2.24-2.923-3.085-5.297a32.295 32.295 0 0 1-1.053-3.7 52.054 52.054 0 0 1-.766-4.253 78.219 78.219 0 0 1-.51-4.695c-.127-1.6-.22-3.244-.283-5.026-.114-3.27-.118-6.737-.01-10.594.112-4.038.338-8.228.69-12.81.28-3.619.632-7.379 1.048-11.178l.093-.846.004-.012a.023.023 0 0 0 .002-.02l-.001-.005.001-.006c.27-2.408.56-4.778.86-7.044.123-.917.266-1.985.423-3.033l.004-.023h.023l7.088-.15.003.026a903.986 903.986 0 0 1 1.23 12.555c.36 3.98.687 7.871.97 11.564 0 .006.004.012.01.017a.025.025 0 0 0 .019.007c.006 0 .012-.004.017-.01.006-.004.007-.01.007-.018-.284-3.69-.61-7.582-.972-11.565-.28-3.078-.572-6.127-.868-9.064a489.726 489.726 0 0 0-.366-3.54c-.001-.014-.013-.021-.027-.023l-6.521.139-.004-.024c-.103-.66-.2-1.332-.285-2a32.51 32.51 0 0 1-.118-1.026c-.023-.24-.05-.512-.05-.772 0-.25.04-.54.129-.915.098-.42.242-.872.439-1.383a18.89 18.89 0 0 1 .826-1.822c.373-.728.794-1.461 1.288-2.24.004-.007.005-.013.004-.02a.024.024 0 0 0-.012-.016.026.026 0 0 0-.019-.004.025.025 0 0 0-.016.012 28.832 28.832 0 0 0-1.291 2.244 18.56 18.56 0 0 0-.827 1.827c-.198.512-.342.966-.442 1.389-.09.378-.13.673-.13.927 0 .262.028.547.05.776.03.3.067.617.12 1.03.085.664.18 1.331.282 1.986l.005.032-.584.013a.026.026 0 0 0-.025.021 177.753 177.753 0 0 0-.43 3.08 343.667 343.667 0 0 0-.843 6.874l-.01.093-.042-.083c-.657-1.28-1.98-2.592-3.938-3.895-1.304-.871-2.782-1.678-4.516-2.47a39.496 39.496 0 0 0-1.587-.684c-.216-.088-.397-.16-.581-.228l-.026-.009.01-.025 2.114-6.312v-.013a.043.043 0 0 0-.004-.011 10.71 10.71 0 0 1-.55-.723 21.383 21.383 0 0 1-1.266-2.011 23.112 23.112 0 0 1-2.594-7.247.03.03 0 0 0-.028-.021Z"/>
  <path fill="#3F4553" fill-rule="evenodd" d="M87.215 18.663c.075.198.166.397.255.589.194.413.415.826.67 1.207.152.227.32.449.51.646a.055.055 0 0 1-.002.076.055.055 0 0 1-.076-.001 4.736 4.736 0 0 1-.521-.662 9.354 9.354 0 0 1-.678-1.22 9.961 9.961 0 0 1-.26-.597.055.055 0 0 1 .032-.07.055.055 0 0 1 .07.032Z" clip-rule="evenodd"/>
  <path fill="#3F4553" d="M88.61 21.299h-.004a.16.16 0 0 1-.11-.048 4.82 4.82 0 0 1-.533-.676 9.288 9.288 0 0 1-.686-1.235 8.547 8.547 0 0 1-.261-.604.153.153 0 0 1 .003-.12.16.16 0 0 1 .088-.083.16.16 0 0 1 .204.091c.065.167.143.347.254.583.214.458.431.848.662 1.193.17.253.332.46.498.632a.158.158 0 0 1-.115.267Z"/>
  <path fill="#3F4553" fill-rule="evenodd" d="M80.474 16.434c.192.04.384.075.577.109a24.9 24.9 0 0 0 1.259.195c.274.035.551.064.828.08.217.013.452.02.668-.006a.054.054 0 0 1 .06.047.054.054 0 0 1-.047.06 4.009 4.009 0 0 1-.687.006c-.28-.015-.56-.046-.836-.08-.423-.053-.845-.12-1.265-.195-.193-.035-.387-.07-.58-.11a.054.054 0 0 1-.042-.063c.008-.03.037-.05.065-.043Z" clip-rule="evenodd"/>
  <path fill="#3F4553" d="M83.478 17.04c-.121 0-.241-.005-.35-.01-.25-.015-.518-.042-.844-.082-.389-.05-.804-.113-1.27-.197-.16-.03-.371-.067-.582-.11a.16.16 0 0 1-.124-.187.157.157 0 0 1 .07-.1.164.164 0 0 1 .118-.023c.199.04.402.077.574.11.46.082.87.145 1.254.193.32.041.58.066.822.079.202.011.437.02.65-.005a.159.159 0 0 1 .177.138.158.158 0 0 1-.139.175 3.072 3.072 0 0 1-.356.02Z"/>
  <path fill="#3F4553" fill-rule="evenodd" d="M86.456 24.093c.004.152.02.312.04.462.04.322.11.65.22.957.098.265.238.543.446.738a.054.054 0 1 1-.074.08c-.222-.21-.37-.498-.473-.781a4.59 4.59 0 0 1-.226-.98 4.469 4.469 0 0 1-.041-.474.053.053 0 0 1 .052-.054.054.054 0 0 1 .056.052Z" clip-rule="evenodd"/>
  <path fill="#3F4553" d="M87.125 26.447a.155.155 0 0 1-.108-.043c-.203-.19-.372-.467-.5-.82a4.727 4.727 0 0 1-.233-1.001 4.555 4.555 0 0 1-.04-.484.156.156 0 0 1 .154-.161.16.16 0 0 1 .163.154c.003.126.015.27.038.451.045.352.118.665.216.934.111.308.253.542.419.698a.158.158 0 0 1-.109.272Z"/>
  <path fill="#3F4553" fill-rule="evenodd" d="M77.68 20.418c.104.079.223.154.335.222.289.175.594.33.905.46.937.397 1.966.595 2.985.48a.054.054 0 0 1 .06.048.054.054 0 0 1-.047.06c-1.037.116-2.084-.084-3.039-.488a7.085 7.085 0 0 1-.919-.468 4.147 4.147 0 0 1-.344-.229.053.053 0 0 1-.01-.075c.016-.024.049-.028.073-.01Z" clip-rule="evenodd"/>
  <path fill="#3F4553" d="M81.33 21.823a6.425 6.425 0 0 1-2.493-.528 7.21 7.21 0 0 1-.932-.476 4.59 4.59 0 0 1-.353-.233.157.157 0 0 1 .074-.282.155.155 0 0 1 .117.03c.104.079.224.154.327.216.278.169.578.322.891.454.98.414 1.993.578 2.931.473a.157.157 0 1 1 .036.313 5.206 5.206 0 0 1-.599.033Z"/>
  <path fill="#3F4553" fill-rule="evenodd" d="M76.3 32.638c.223.104.483.35.64.531.494.57.774 1.313.912 2.044a.054.054 0 0 1-.106.019c-.136-.712-.406-1.438-.887-1.993a2.475 2.475 0 0 0-.424-.392 1.245 1.245 0 0 0-.18-.112.053.053 0 0 1-.026-.07c.01-.029.044-.04.07-.027Z" clip-rule="evenodd"/>
  <path fill="#3F4553" d="M77.8 35.38a.158.158 0 0 1-.156-.129c-.151-.793-.45-1.466-.865-1.945a2.418 2.418 0 0 0-.406-.377 1.074 1.074 0 0 0-.163-.101.158.158 0 0 1-.077-.21.16.16 0 0 1 .21-.076c.239.11.505.36.676.558.457.527.773 1.23.936 2.091a.16.16 0 0 1-.024.118.16.16 0 0 1-.102.066c-.01.004-.02.004-.03.004Zm-1.503-2.74s.001 0 0 0c.001 0 0 0 0 0Z"/>
  <path fill="#3F4553" fill-rule="evenodd" d="M84.093 26.229a82.62 82.62 0 0 1-.804 2.445 29.45 29.45 0 0 1-.603 1.62c-.075.18-.155.369-.25.54-.038.07-.125.228-.216.239-.257.027-.522-.075-.737-.207-.417-.254-.78-.677-1.063-1.065a.054.054 0 0 1 .012-.075.055.055 0 0 1 .075.011c.273.376.63.79 1.032 1.036.195.118.436.217.669.192.038-.013.126-.17.145-.206.092-.17.17-.354.244-.533.216-.52.406-1.059.591-1.59.281-.81.548-1.625.803-2.441a.055.055 0 0 1 .068-.036.057.057 0 0 1 .034.07Z" clip-rule="evenodd"/>
  <path fill="#3F4553" d="M82.135 31.183c-.22 0-.462-.078-.707-.226-.36-.218-.716-.576-1.093-1.093a.16.16 0 0 1-.028-.117.16.16 0 0 1 .286-.067c.346.475.683.814 1 1.008.147.089.363.19.571.179.023-.03.064-.093.096-.154.092-.17.171-.359.24-.523.222-.538.42-1.1.589-1.584a79.5 79.5 0 0 0 .801-2.438.152.152 0 0 1 .078-.093.155.155 0 0 1 .121-.011.16.16 0 0 1 .105.198c-.259.832-.53 1.656-.805 2.447a28.685 28.685 0 0 1-.605 1.626c-.076.18-.158.372-.256.55-.08.146-.17.279-.295.293-.033.002-.065.005-.098.005Z"/>
</svg>
