<svg xmlns="http://www.w3.org/2000/svg" width="97.571" height="36.779" viewBox="0 0 97.571 36.779">
  <g id="Group_35" data-name="Group 35" transform="translate(-96.7 -106.11)">
    <g id="Group_34" data-name="Group 34" transform="translate(96.7 106.11)">
      <g id="Group_33" data-name="Group 33">
        <path id="Path_839" data-name="Path 839" d="M145.488,142.89c-26.6,0-48.487-18.031-48.7-18.212a.245.245,0,0,1-.083-.181.236.236,0,0,1,.083-.176c.218-.181,22.109-18.212,48.7-18.212s48.483,18.054,48.7,18.212a.222.222,0,0,1,.083.176.231.231,0,0,1-.083.181C193.971,124.859,172.079,142.89,145.488,142.89ZM97.3,124.5c2.352,1.879,23.183,17.929,48.186,17.929s45.83-16.05,48.186-17.929c-2.352-1.879-23.188-17.925-48.186-17.925S99.653,122.618,97.3,124.5Z" transform="translate(-96.7 -106.11)" fill="#231f20"/>
        <g id="Group_32" data-name="Group 32" transform="translate(0.231 0.231)">
          <path id="Path_838" data-name="Path 838" d="M194.322,124.766s-21.758,18.161-48.552,18.161S97.2,124.766,97.2,124.766s21.758-18.156,48.557-18.156S194.322,124.766,194.322,124.766Z" transform="translate(-97.2 -106.61)" fill="#fff"/>
          <circle id="Ellipse_73" data-name="Ellipse 73" cx="16.091" cy="16.091" r="16.091" transform="translate(32.465 2.065)" fill="#68e1fd"/>
          <circle id="Ellipse_74" data-name="Ellipse 74" cx="10.115" cy="10.115" r="10.115" transform="translate(38.442 8.041)" fill="#231f20"/>
        </g>
      </g>
      <path id="Path_840" data-name="Path 840" d="M190.086,144.173a10.346,10.346,0,1,1,10.346-10.346A10.346,10.346,0,0,1,190.086,144.173Zm0-20.23a9.888,9.888,0,1,0,9.884,9.885,9.888,9.888,0,0,0-9.884-9.885Z" transform="translate(-141.298 -115.439)" fill="#231f20"/>
    </g>
    <circle id="Ellipse_75" data-name="Ellipse 75" cx="3.37" cy="3.37" r="3.37" transform="translate(145.483 117.678)" fill="#fff"/>
  </g>
</svg>
