<?xml version="1.0" encoding="UTF-8"?>
<svg width="24px" height="24px" viewBox="0 0 24 24" version="1.1" xmlns="http://www.w3.org/2000/svg" xmlns:xlink="http://www.w3.org/1999/xlink">
    <title>Iconly/Light-Outline/3 User</title>
    <g id="Iconly/Light-Outline/3-User" stroke="none" stroke-width="1" fill="none" fill-rule="evenodd">
        <g id="3-User" transform="translate(1.000000, 4.000000)" fill="#000000">
            <path d="M10.8867,10.414 L10.9996152,10.4140329 L10.9996152,10.4140329 L11.2522022,10.4148874 C13.1827903,10.4276063 17.5947,10.6226304 17.5947,13.613 C17.5947,16.5837391 13.3365823,16.777483 11.282292,16.7901185 L10.5211856,16.7901137 C8.59048355,16.7774107 4.1777,16.5826304 4.1777,13.596 C4.1777,10.6215217 8.59048355,10.427534 10.5211856,10.4148827 L10.7737834,10.4140327 C10.812967,10.414 10.8506348,10.414 10.8867,10.414 Z M10.8867,11.914 C8.5107,11.914 5.6777,12.206 5.6777,13.596 C5.6777,14.9545455 8.3416045,15.2721653 10.6695326,15.2901675 L10.8867,15.291 C13.2627,15.291 16.0947,15 16.0947,13.613 C16.0947,12.209 13.2627,11.914 10.8867,11.914 Z M18.8403,10.0082 C21.2633,10.3712 21.7723,11.5092 21.7723,12.4002 C21.7723,12.9442 21.5583,13.9372 20.1283,14.4822 C20.0403,14.5152 19.9503,14.5312 19.8613,14.5312 C19.5593,14.5312 19.2743,14.3472 19.1603,14.0482 C19.0123,13.6612 19.2073,13.2272 19.5943,13.0802 C20.2723,12.8222 20.2723,12.5372 20.2723,12.4002 C20.2723,11.9622 19.7153,11.6562 18.6173,11.4922 C18.2083,11.4302 17.9253,11.0492 17.9863,10.6382 C18.0473,10.2282 18.4273,9.9552 18.8403,10.0082 Z M3.7861,10.6382 C3.8471,11.0492 3.5641,11.4302 3.1551,11.4922 C2.0571,11.6562 1.5001,11.9622 1.5001,12.4002 C1.5001,12.5372 1.5001,12.8212 2.1791,13.0802 C2.5661,13.2272 2.7611,13.6612 2.6131,14.0482 C2.4991,14.3472 2.2141,14.5312 1.9121,14.5312 C1.8231,14.5312 1.7331,14.5152 1.6451,14.4822 C0.2141,13.9362 0.0001,12.9432 0.0001,12.4002 C0.0001,11.5102 0.5091,10.3712 2.9331,10.0082 C3.3461,9.9562 3.7241,10.2282 3.7861,10.6382 Z M10.8867,-8.08242362e-14 C13.4067,-8.08242362e-14 15.4557,2.05 15.4557,4.569 C15.4557,7.088 13.4067,9.138 10.8867,9.138 L10.8597,9.138 C9.6397,9.134 8.4967,8.656 7.6407,7.792 C6.7827,6.929 6.3137,5.783 6.31866043,4.566 C6.31866043,2.05 8.3677,-8.08242362e-14 10.8867,-8.08242362e-14 Z M10.8867,1.5 C9.1947,1.5 7.8186787,2.877 7.8186787,4.569 C7.8157,5.389 8.1297,6.156 8.7047,6.735 C9.2797,7.314 10.0457,7.635 10.8617,7.638 L10.8867,8.388 L10.8867,7.638 C12.5787,7.638 13.9557,6.262 13.9557,4.569 C13.9557,2.877 12.5787,1.5 10.8867,1.5 Z M17.0757,0.9795 C18.8337,1.2685 20.1107,2.7725 20.1107,4.5555 C20.1067,6.3505 18.7657,7.8905 16.9907,8.1395 C16.9557,8.1445 16.9207,8.1465 16.8867,8.1465 C16.5187,8.1465 16.1977,7.8755 16.1447,7.5005 C16.0877,7.0895 16.3727,6.7105 16.7837,6.6535 C17.8237,6.5075 18.6087,5.6055 18.6107,4.5535 C18.6107,3.5105 17.8627,2.6285 16.8317,2.4595 C16.4237,2.3925 16.1467,2.0065 16.2137,1.5975 C16.2817,1.1885 16.6647,0.9145 17.0757,0.9795 Z M5.5597,1.5975 C5.6267,2.0065 5.3497,2.3925 4.9417,2.4595 C3.9107,2.6285 3.1627,3.5105 3.1627,4.5555 C3.1647,5.6055 3.9497,6.5085 4.9887,6.6535 C5.3997,6.7105 5.6847,7.0895 5.6277,7.5005 C5.5747,7.8755 5.2537,8.1465 4.8857,8.1465 C4.8517,8.1465 4.8167,8.1445 4.7817,8.1395 C3.0067,7.8905 1.6667,6.3505 1.6627,4.5575 C1.6627,2.7725 2.9397,1.2685 4.6977,0.9795 C5.1187,0.9135 5.4917,1.1905 5.5597,1.5975 Z" id="Combined-Shape"></path>
        </g>
    </g>
</svg>