<?xml version="1.0" encoding="UTF-8"?>
<svg width="24px" height="24px" viewBox="0 0 24 24" version="1.1" xmlns="http://www.w3.org/2000/svg" xmlns:xlink="http://www.w3.org/1999/xlink">
    <title>Iconly/Light-Outline/Add User</title>
    <g id="Iconly/Light-Outline/Add-User" stroke="none" stroke-width="1" fill="none" fill-rule="evenodd">
        <g id="Add-User" transform="translate(2.000000, 2.000000)" fill="#000000">
            <path d="M7.877,12.456 L7.99610522,12.4560277 L7.99610522,12.4560277 L8.26007287,12.4567492 C10.5020138,12.468737 15.754,12.6725294 15.754,16.137 C15.754,19.3490816 11.4405973,19.7783228 8.08540423,19.794505 L7.49392713,19.794251 C5.25198616,19.7822664 -9.50350909e-14,19.5785294 -9.50350909e-14,16.115 C-9.50350909e-14,12.835 4.495,12.456 7.877,12.456 Z M7.877,13.956 C3.646,13.956 1.5,14.683 1.5,16.115 C1.5,17.561 3.646,18.295 7.877,18.295 C12.108,18.295 14.254,17.568 14.254,16.137 C14.254,14.689 12.108,13.956 7.877,13.956 Z M17.2041,5.9187 C17.6181,5.9187 17.9541,6.2547 17.9541,6.6687 L17.954,7.923 L19.25,7.9238 C19.664,7.9238 20,8.2598 20,8.6738 C20,9.0878 19.664,9.4238 19.25,9.4238 L17.954,9.423 L17.9541,10.6797 C17.9541,11.0937 17.6181,11.4297 17.2041,11.4297 C16.7901,11.4297 16.4541,11.0937 16.4541,10.6797 L16.454,9.423 L15.16,9.4238 C14.746,9.4238 14.41,9.0878 14.41,8.6738 C14.41,8.2598 14.746,7.9238 15.16,7.9238 L16.454,7.923 L16.4541,6.6687 C16.4541,6.2547 16.7901,5.9187 17.2041,5.9187 Z M7.877,-3.19744231e-14 C10.81,-3.19744231e-14 13.195,2.386 13.195,5.318 C13.195,8.25 10.81,10.636 7.877,10.636 L7.846,10.636 C6.427,10.631 5.097,10.074 4.1,9.07 C3.102,8.065 2.555,6.731 2.55996602,5.315 C2.55996602,2.386 4.945,-3.19744231e-14 7.877,-3.19744231e-14 Z M7.877,1.5 C5.773,1.5 4.05996969,3.213 4.05996969,5.318 C4.056,6.337 4.448,7.292 5.163,8.013 C5.879,8.733 6.833,9.132 7.849,9.136 L7.877,9.877 L7.877,9.136 C9.982,9.136 11.695,7.423 11.695,5.318 C11.695,3.213 9.982,1.5 7.877,1.5 Z" id="Combined-Shape"></path>
        </g>
    </g>
</svg>