<?xml version="1.0" encoding="UTF-8"?>
<svg width="24px" height="24px" viewBox="0 0 24 24" version="1.1" xmlns="http://www.w3.org/2000/svg" xmlns:xlink="http://www.w3.org/1999/xlink">
    <title>Iconly/Light-Outline/Bag 2</title>
    <g id="Iconly/Light-Outline/Bag-2" stroke="none" stroke-width="1" fill="none" fill-rule="evenodd">
        <g id="Bag-2" transform="translate(2.000000, 2.000000)" fill="#000000">
            <path d="M9.7539,-0.0003 C12.2281931,-0.0003 14.245676,2.00256127 14.2726268,4.473582 L14.4918,4.4746 C17.2538,4.4746 19.4998,6.7196 19.4998,9.4796 L19.4998,14.9956 C19.4998,17.7546 17.2538,19.9996 14.4918,19.9996 L5.0078,19.9996 C2.2468,19.9996 -0.0002,17.7546 -0.0002,14.9956 L-0.0002,9.4796 C-0.0002,6.7196 2.2468,4.4746 5.0078,4.4746 L5.2118,4.4737 L5.21814119,4.27922267 C5.28094,3.14476222 5.74816667,2.10403333 6.5499,1.3107 C7.4079,0.4597 8.5599,0.0347 9.7539,-0.0003 Z M14.4918,5.9746 L14.2728,5.9737 L14.2729,7.5557 C14.2729,7.9697 13.9369,8.3057 13.5229,8.3057 C13.1089,8.3057 12.7729,7.9697 12.7729,7.5557 L12.7728,5.9737 L6.7108,5.9737 L6.7109,7.5557 C6.7109,7.9697 6.3749,8.3057 5.9609,8.3057 C5.5469,8.3057 5.2109,7.9697 5.2109,7.5557 L5.2108,5.9737 L5.0078,5.9746 C3.0738,5.9746 1.4998,7.5466 1.4998,9.4796 L1.4998,14.9956 C1.4998,16.9276 3.0738,18.4996 5.0078,18.4996 L14.4918,18.4996 C16.4258,18.4996 17.9998,16.9276 17.9998,14.9956 L17.9998,9.4796 C17.9998,7.5466 16.4258,5.9746 14.4918,5.9746 Z M9.7509,1.4997 C8.9399,1.5277 8.1799,1.8077 7.6059,2.3757 C7.04022919,2.93644337 6.72318276,3.67977027 6.7112294,4.47360141 L12.7708,4.4737 L12.7677626,4.34632678 C12.6757163,2.7615023 11.3583643,1.4997 9.7509,1.4997 Z" id="Combined-Shape"></path>
        </g>
    </g>
</svg>