<?xml version="1.0" encoding="UTF-8"?>
<svg width="24px" height="24px" viewBox="0 0 24 24" version="1.1" xmlns="http://www.w3.org/2000/svg" xmlns:xlink="http://www.w3.org/1999/xlink">
    <title>Iconly/Light-Outline/Bag</title>
    <g id="Iconly/Light-Outline/Bag" stroke="none" stroke-width="1" fill="none" fill-rule="evenodd">
        <g id="Bag" transform="translate(2.000000, 2.000000)" fill="#000000">
            <path d="M9.7808,0.0003 C12.3946651,0.0003 14.5539696,1.99195878 14.8202003,4.53922219 L14.8945,4.5401 C16.3445,4.5401 18.1075,5.5031 18.7025,8.2041 L19.4915,14.3111 C19.7745,16.2821 19.4205,17.8631 18.4375,18.9971 C17.4595,20.1251 15.9115,20.7221 13.9605,20.7221 L5.6125,20.7221 C3.4695,20.7221 1.9765,20.1971 1.0475,19.1181 C0.1145,18.0361 -0.1975,16.4131 0.1205,14.2951 L0.8965,8.2691 C1.4065,5.5061 3.2715,4.5401 4.7155,4.5401 C4.84016159,3.39057578 5.35849636,2.29700142 6.1808,1.4773 C7.1258,0.5383 8.4288,0.0003 9.7598,0.0003 L9.7808,0.0003 Z M14.8945,6.0401 L4.7155,6.0401 C4.2745,6.0401 2.8005,6.2181 2.3775,8.5021 L1.6055,14.5021 C1.3545,16.1851 1.5485,17.4031 2.1835,18.1401 C2.8105,18.8681 3.9325,19.2221 5.6125,19.2221 L13.9605,19.2221 C15.0085,19.2221 16.4395,19.0131 17.3035,18.0151 C17.9895,17.2241 18.2255,16.0461 18.0055,14.5131 L17.2265,8.4611 C16.8945,6.9701 16.0185,6.0401 14.8945,6.0401 Z M12.6973,8.8242 C13.1113,8.8242 13.4703,9.1602 13.4703,9.5742 C13.4703,9.9882 13.1573,10.3242 12.7433,10.3242 L12.6973,10.3242 C12.2833,10.3242 11.9473,9.9882 11.9473,9.5742 C11.9473,9.1602 12.2833,8.8242 12.6973,8.8242 Z M6.8672,8.8242 C7.2812,8.8242 7.6402,9.1602 7.6402,9.5742 C7.6402,9.9882 7.3262,10.3242 6.9122,10.3242 L6.8672,10.3242 C6.4532,10.3242 6.1172,9.9882 6.1172,9.5742 C6.1172,9.1602 6.4532,8.8242 6.8672,8.8242 Z M9.7778,1.5003 L9.7628,1.5003 C8.8218,1.5003 7.9048,1.8793 7.2398,2.5403 C6.6981005,3.07956671 6.34381793,3.78849506 6.22921258,4.53963388 L13.3084973,4.53991346 C13.0515216,2.82167813 11.565699,1.5003 9.7778,1.5003 Z" id="Combined-Shape"></path>
        </g>
    </g>
</svg>