<?xml version="1.0" encoding="UTF-8"?>
<svg width="24px" height="24px" viewBox="0 0 24 24" version="1.1" xmlns="http://www.w3.org/2000/svg" xmlns:xlink="http://www.w3.org/1999/xlink">
    <title>Iconly/Light-Outline/Bookmark</title>
    <g id="Iconly/Light-Outline/Bookmark" stroke="none" stroke-width="1" fill="none" fill-rule="evenodd">
        <g id="Bookmark" transform="translate(3.000000, 2.000000)" fill="#000000">
            <path d="M11.7008,-2.13162821e-14 C15.0928,-2.13162821e-14 17.0388,1.679 17.0388,4.604 L17.0388,19.14 C17.0388,19.75 16.7248,20.299 16.1968,20.606 C15.6708,20.914 15.0368,20.92 14.5048,20.62 L8.5448,17.253 L2.5298,20.627 C2.2698,20.773 1.9848,20.847 1.6988,20.847 C1.4038,20.847 1.1088,20.768 0.8408,20.61 C0.3138,20.303 -0.0002,19.754 -0.0002,19.145 L-0.0002,4.421 C-0.0002,1.611 1.9468,-2.13162821e-14 5.3418,-2.13162821e-14 L11.7008,-2.13162821e-14 Z M11.7008,1.5 L5.3418,1.5 C2.7928,1.5 1.4998,2.482 1.4998,4.421 L1.4998,19.145 C1.4998,19.239 1.5538,19.29 1.5988,19.316 C1.6438,19.344 1.7148,19.364 1.7968,19.318 L8.1788,15.738 C8.4068,15.611 8.6858,15.61 8.9148,15.739 L15.2418,19.313 C15.3248,19.361 15.3958,19.339 15.4408,19.312 C15.4858,19.285 15.5388,19.234 15.5388,19.14 L15.5384396,4.49004461 C15.5308702,3.62937397 15.3643455,1.5 11.7008,1.5 Z M12.1396,6.7285 C12.5536,6.7285 12.8896,7.0645 12.8896,7.4785 C12.8896,7.8925 12.5536,8.2285 12.1396,8.2285 L4.8216,8.2285 C4.4076,8.2285 4.0716,7.8925 4.0716,7.4785 C4.0716,7.0645 4.4076,6.7285 4.8216,6.7285 L12.1396,6.7285 Z" id="Combined-Shape"></path>
        </g>
    </g>
</svg>