<?xml version="1.0" encoding="UTF-8"?>
<svg width="24px" height="24px" viewBox="0 0 24 24" version="1.1" xmlns="http://www.w3.org/2000/svg" xmlns:xlink="http://www.w3.org/1999/xlink">
    <title>Iconly/Light-Outline/Call Silent</title>
    <g id="Iconly/Light-Outline/Call-Silent" stroke="none" stroke-width="1" fill="none" fill-rule="evenodd">
        <g id="Call-Silent" transform="translate(2.000000, 2.000000)" fill="#000000">
            <path d="M18.1524,3.1024 C18.4544,3.3854 18.4694,3.8604 18.1864,4.1624 L11.5252874,11.2686953 C12.6513228,12.0359755 13.3130511,11.7969913 14.1324,11.5036 C15.0264,11.1816 16.2514,10.7436 17.6934,12.2076 C17.9834,12.5036 18.2574,12.7696 18.5094,13.0156 C19.5524,14.0286 20.3754,14.8286 20.3894,15.9446 C20.4024,16.8966 19.8334,17.8696 18.4314,19.3016 L17.8054,18.8686 L18.3534,19.3796 C18.0504,19.7036 17.2464,20.5636 15.6514,20.5986 C15.6174,20.5996 15.5844,20.5996 15.5524,20.5996 C13.3546486,20.5996 10.561494,18.9992812 7.24091145,15.8383693 L3.1864,20.1624 C3.0384,20.3204 2.8394,20.3994 2.6394,20.3994 C2.4554,20.3994 2.2714,20.3324 2.1264,20.1964 C1.8244,19.9134 1.8094,19.4384 2.0924,19.1364 L17.0924,3.1364 C17.3744,2.8334 17.8504,2.8184 18.1524,3.1024 Z M10.4914327,12.3728795 L8.2671679,14.7448544 C12.0813407,18.3831483 14.3397422,19.1546546 15.6174,19.0986 C16.5824,19.0786 17.0384,18.5896 17.2574,18.3556 C17.3184,18.2906 17.3664,18.2426 17.4024,18.2106 C18.3954,17.1946 18.8964,16.4466 18.8904,15.9626 C18.8834,15.4696 18.2884,14.8916 17.4644,14.0906 C17.2034,13.8376 16.9214,13.5636 16.6224,13.2596 C15.8554,12.4776 15.4754,12.6136 14.6404,12.9156 C13.669636,13.2649995 12.3582251,13.7392434 10.4914327,12.3728795 Z M4.5893,0.0005 C5.7003,0.0145 6.4853,0.8535 7.4793,1.9165 C7.7233,2.1775 7.9893,2.4605 8.2833,2.7595 C9.7133,4.2185 9.3073,5.4065 8.9803,6.3605 C8.7443,7.0515 8.5383,7.6495 8.9123,8.5005 C9.0793,8.8805 8.9073,9.3235 8.5283,9.4895 C8.1463,9.6555 7.7053,9.4835 7.5393,9.1045 C6.9303,7.7155 7.2943,6.6515 7.5613,5.8745 C7.8503,5.0315 7.9953,4.6085 7.2133,3.8115 C6.9103,3.5035 6.6363,3.2105 6.3833,2.9415 C5.6043,2.1075 5.0403,1.5055 4.5703,1.5005 L4.5623,1.5005 C4.1244875,1.5005 3.45464375,1.94874219 2.51898579,2.87076978 L2.33094531,3.0585 L2.330175,3.05925 L2.3283,3.0615 C2.3333,3.0585 2.2863,3.1075 2.2253,3.1675 C0.0833,5.2835 3.2243,9.5205 5.2873,11.8585 C5.5613,12.1685 5.5323,12.6425 5.2213,12.9175 C5.0793,13.0425 4.9023,13.1045 4.7253,13.1045 C4.5183,13.1045 4.3113,13.0185 4.1633,12.8505 C-1.1787,6.7985 -0.4127,3.6645 1.1713,2.1005 C1.1873,2.0805 1.2423,2.0265 1.2593,2.0085 C2.6633,0.5835 3.6233,0.0005 4.5603,0.0005 L4.5893,0.0005 Z" id="Combined-Shape"></path>
        </g>
    </g>
</svg>