<?xml version="1.0" encoding="UTF-8"?>
<svg width="24px" height="24px" viewBox="0 0 24 24" version="1.1" xmlns="http://www.w3.org/2000/svg" xmlns:xlink="http://www.w3.org/1999/xlink">
    <title>Iconly/Light-Outline/Chat</title>
    <g id="Iconly/Light-Outline/Chat" stroke="none" stroke-width="1" fill="none" fill-rule="evenodd">
        <g id="Chat" transform="translate(1.000000, 1.000000)" fill="#000000">
            <path d="M10.7484,0.0003 C13.6214,0.0003 16.3214,1.1173 18.3494,3.1463 C22.5414,7.3383 22.5414,14.1583 18.3494,18.3503 C16.2944,20.4063 13.5274,21.4943 10.7244,21.4943 C9.1964,21.4943 7.6584,21.1713 6.2194,20.5053 C5.7954,20.3353 5.3984,20.1753 5.1134,20.1753 C4.7854,20.1773 4.3444,20.3293 3.9184,20.4763 C3.0444,20.7763 1.9564,21.1503 1.1514,20.3483 C0.3494,19.5453 0.7194,18.4603 1.0174,17.5873 C1.1644,17.1573 1.3154,16.7133 1.3154,16.3773 C1.3154,16.1013 1.1824,15.7493 0.9784,15.2423 C-0.8946,11.1973 -0.0286,6.3223 3.1484,3.1473 C5.1764,1.1183 7.8754,0.0003 10.7484,0.0003 Z M10.7494,1.5003 C8.2764,1.5003 5.9534,2.4623 4.2084,4.2083 C1.4744,6.9403 0.7304,11.1353 2.3554,14.6483 C2.5894,15.2273 2.8154,15.7913 2.8154,16.3773 C2.8154,16.9623 2.6144,17.5513 2.4374,18.0713 C2.2914,18.4993 2.0704,19.1453 2.2124,19.2873 C2.3514,19.4313 3.0014,19.2043 3.4304,19.0573 C3.9454,18.8813 4.5294,18.6793 5.1084,18.6753 C5.6884,18.6753 6.2354,18.8953 6.8144,19.1283 C10.3614,20.7683 14.5564,20.0223 17.2894,17.2903 C20.8954,13.6823 20.8954,7.8133 17.2894,4.2073 C15.5434,2.4613 13.2214,1.5003 10.7494,1.5003 Z M14.6963,10.163 C15.2483,10.163 15.6963,10.61 15.6963,11.163 C15.6963,11.716 15.2483,12.163 14.6963,12.163 C14.1443,12.163 13.6923,11.716 13.6923,11.163 C13.6923,10.61 14.1353,10.163 14.6873,10.163 L14.6963,10.163 Z M10.6875,10.163 C11.2395,10.163 11.6875,10.61 11.6875,11.163 C11.6875,11.716 11.2395,12.163 10.6875,12.163 C10.1355,12.163 9.6835,11.716 9.6835,11.163 C9.6835,10.61 10.1255,10.163 10.6785,10.163 L10.6875,10.163 Z M6.6783,10.163 C7.2303,10.163 7.6783,10.61 7.6783,11.163 C7.6783,11.716 7.2303,12.163 6.6783,12.163 C6.1263,12.163 5.6743,11.716 5.6743,11.163 C5.6743,10.61 6.1173,10.163 6.6693,10.163 L6.6783,10.163 Z" id="Combined-Shape"></path>
        </g>
    </g>
</svg>