<?xml version="1.0" encoding="UTF-8"?>
<svg width="24px" height="24px" viewBox="0 0 24 24" version="1.1" xmlns="http://www.w3.org/2000/svg" xmlns:xlink="http://www.w3.org/1999/xlink">
    <title>Iconly/Light-Outline/Discount</title>
    <g id="Iconly/Light-Outline/Discount" stroke="none" stroke-width="1" fill="none" fill-rule="evenodd">
        <g id="Discount" transform="translate(2.000000, 2.000000)" fill="#000000">
            <path d="M12.1239,0.8755 L12.8549,1.6065 C13.1379,1.8875 13.5159,2.0435 13.9179,2.0435 L14.9459,2.0435 C16.6069,2.0435 17.9579,3.3945 17.9579,5.0555 L17.9579,6.0825 C17.9579,6.4835 18.1139,6.8625 18.3969,7.1475 L19.1149,7.8665 C19.6839,8.4315 19.9999,9.1865 20.0029215,9.9915 C20.0059,10.7965 19.6949,11.5535 19.1279,12.1245 L18.3949,12.8555 C18.1139,13.1385 17.9579,13.5155 17.9579,13.9175 L17.9579,14.9465 C17.9579,16.6065 16.6069,17.9575 14.9469,17.9575 L13.9159,17.9575 C13.5199,17.9575 13.1329,18.1175 12.8519,18.3965 L12.1339,19.1145 C11.5469,19.7055 10.7729,20.0015 9.9989,20.0015 C9.2319,20.0015 8.4649,19.7115 7.8779,19.1295 C7.8699,19.1215 7.8619,19.1135 7.8539,19.1045 L7.1439,18.3955 C6.8609,18.1145 6.4829,17.9585 6.0809,17.9575 L5.0549,17.9575 C3.3939,17.9575 2.0439,16.6065 2.0439,14.9465 L2.0439,13.9155 C2.0439,13.5135 1.8869,13.1365 1.6049,12.8525 L0.8859,12.1345 C-0.2821,10.9725 -0.2961,9.0805 0.8509,7.9005 L0.8779,7.8735 L0.8779,7.8735 L1.6059,7.1435 C1.8869,6.8605 2.0439,6.4815 2.0439,6.0805 L2.0439,5.0555 C2.0439,3.3955 3.3939,2.0445 5.0539,2.0435 L6.0839,2.0435 C6.4849,2.0435 6.8629,1.8865 7.1499,1.6035 L7.8649,0.8865 C9.0339,-0.2905 10.9449,-0.2965 12.1239,0.8755 Z M8.9279,1.9455 L8.2089,2.6665 C7.6349,3.2335 6.8819,3.5435 6.0839,3.5435 L5.0549,3.5435 C4.2219,3.5445 3.5439,4.2225 3.5439,5.0555 L3.5439,6.0805 C3.5439,6.8815 3.2329,7.6345 2.6689,8.2025 L1.9589,8.9135 C1.9519,8.9215 1.9449,8.9275 1.9379,8.9345 C1.3509,9.5255 1.3539,10.4845 1.9449,11.0715 L2.6669,11.7935 C3.2329,12.3615 3.5439,13.1145 3.5439,13.9155 L3.5439,14.9465 C3.5439,15.7795 4.2209,16.4575 5.0549,16.4575 L6.0819,16.4575 C6.8839,16.4585 7.6369,16.7695 8.2039,17.3345 L8.9249,18.0535 L8.9449,18.0755 L8.9449,18.0755 C9.5349,18.6515 10.4849,18.6445 11.0709,18.0555 L11.7929,17.3355 C12.3529,16.7765 13.1269,16.4575 13.9159,16.4575 L14.9459,16.4575 C15.7799,16.4575 16.4579,15.7795 16.4579,14.9465 L16.4579,13.9175 C16.4579,13.1165 16.7679,12.3635 17.3339,11.7965 L18.0539,11.0755 C18.3469,10.7815 18.5039,10.4005 18.5029047,9.9965 C18.5019,9.5935 18.3429,9.2145 18.0559,8.9285 L17.3349,8.2065 C16.7679,7.6355 16.4579,6.8835 16.4579,6.0825 L16.4579,5.0555 C16.4579,4.2215 15.7799,3.5435 14.9459,3.5435 L13.9179,3.5435 C13.1169,3.5435 12.3639,3.2325 11.7969,2.6695 L11.0749,1.9465 C10.4739,1.3515 9.5149,1.3545 8.9279,1.9455 Z M12.5035,11.4992 C13.0565,11.4992 13.5035,11.9462 13.5035,12.4992 C13.5035,13.0522 13.0565,13.4992 12.5035,13.4992 C11.9505,13.4992 11.4985,13.0522 11.4985,12.4992 C11.4985,11.9462 11.9415,11.4992 12.4945,11.4992 L12.5035,11.4992 Z M13.1013,6.9005 C13.3943,7.1935 13.3943,7.6685 13.1013,7.9615 L7.9603,13.1015 C7.8143,13.2485 7.6223,13.3215 7.4303,13.3215 C7.2383,13.3215 7.0463,13.2485 6.9003,13.1015 C6.6073,12.8085 6.6073,12.3345 6.9003,12.0415 L12.0403,6.9005 C12.3333,6.6075 12.8083,6.6075 13.1013,6.9005 Z M7.5035,6.4992 C8.0565,6.4992 8.5035,6.9462 8.5035,7.4992 C8.5035,8.0522 8.0565,8.4992 7.5035,8.4992 C6.9505,8.4992 6.4985,8.0522 6.4985,7.4992 C6.4985,6.9462 6.9415,6.4992 7.4945,6.4992 L7.5035,6.4992 Z" id="Combined-Shape"></path>
        </g>
    </g>
</svg>