<?xml version="1.0" encoding="UTF-8"?>
<svg width="24px" height="24px" viewBox="0 0 24 24" version="1.1" xmlns="http://www.w3.org/2000/svg" xmlns:xlink="http://www.w3.org/1999/xlink">
    <title>Iconly/Light-Outline/Document</title>
    <g id="Iconly/Light-Outline/Document" stroke="none" stroke-width="1" fill="none" fill-rule="evenodd">
        <g id="Document" transform="translate(3.000000, 2.000000)" fill="#000000">
            <path d="M12.9087,8.17124146e-14 C16.0527,8.17124146e-14 18.1647,2.153 18.1647,5.357 L18.1647,14.553 C18.1647,17.785 16.1177,19.887 12.9497,19.907 L5.2567,19.91 C2.1127,19.91 -0.0003,17.757 -0.0003,14.553 L-0.0003,5.357 C-0.0003,2.124 2.0467,0.023 5.2147,0.004 L12.9077,8.17124146e-14 L12.9087,8.17124146e-14 Z M12.9087,1.5 L5.2197,1.504 C2.8917,1.518 1.4997,2.958 1.4997,5.357 L1.4997,14.553 C1.4997,16.968 2.9047,18.41 5.2557,18.41 L12.9447,18.407 C15.2727,18.393 16.6647,16.951 16.6647,14.553 L16.6647,5.357 C16.6647,2.942 15.2607,1.5 12.9087,1.5 Z M12.7158,13.4737 C13.1298,13.4737 13.4658,13.8097 13.4658,14.2237 C13.4658,14.6377 13.1298,14.9737 12.7158,14.9737 L5.4958,14.9737 C5.0818,14.9737 4.7458,14.6377 4.7458,14.2237 C4.7458,13.8097 5.0818,13.4737 5.4958,13.4737 L12.7158,13.4737 Z M12.7158,9.2872 C13.1298,9.2872 13.4658,9.6232 13.4658,10.0372 C13.4658,10.4512 13.1298,10.7872 12.7158,10.7872 L5.4958,10.7872 C5.0818,10.7872 4.7458,10.4512 4.7458,10.0372 C4.7458,9.6232 5.0818,9.2872 5.4958,9.2872 L12.7158,9.2872 Z M8.2505,5.1104 C8.6645,5.1104 9.0005,5.4464 9.0005,5.8604 C9.0005,6.2744 8.6645,6.6104 8.2505,6.6104 L5.4955,6.6104 C5.0815,6.6104 4.7455,6.2744 4.7455,5.8604 C4.7455,5.4464 5.0815,5.1104 5.4955,5.1104 L8.2505,5.1104 Z" id="Combined-Shape"></path>
        </g>
    </g>
</svg>