<?xml version="1.0" encoding="UTF-8"?>
<svg width="24px" height="24px" viewBox="0 0 24 24" version="1.1" xmlns="http://www.w3.org/2000/svg" xmlns:xlink="http://www.w3.org/1999/xlink">
    <title>Iconly/Light-Outline/Graph</title>
    <g id="Iconly/Light-Outline/Graph" stroke="none" stroke-width="1" fill="none" fill-rule="evenodd">
        <g id="Graph" transform="translate(2.000000, 1.000000)" fill="#000000">
            <path d="M8.1474,4.2035 C8.5804,4.5435 8.8294,5.0505 8.8294,5.5945 C8.8294,9.9795 8.9774,11.1595 9.5824,11.6085 C9.9794,11.9015 10.5234,11.8985 12.3564,11.8475 C13.2084,11.8225 14.2994,11.7905 15.7284,11.7905 C16.2984,11.7905 16.8354,12.0345 17.1994,12.4595 C17.5374,12.8545 17.6854,13.3705 17.6074,13.8785 C16.9394,18.2035 13.2594,21.3445 8.8574,21.3445 C3.9734,21.3445 0.0004,17.3715 0.0004,12.4885 C0.0004,8.6165 2.9284,4.7445 6.5274,3.8585 C7.0894,3.7215 7.6934,3.8495 8.1474,4.2035 Z M6.9824,5.3035 C6.9504,5.3035 6.9184,5.3075 6.8864,5.3155 C3.9164,6.0465 1.5004,9.2645 1.5004,12.4885 C1.5004,16.5445 4.8004,19.8445 8.8574,19.8445 C12.5144,19.8445 15.5704,17.2395 16.1244,13.6495 C16.1284,13.6195 16.1424,13.5325 16.0604,13.4355 C15.9824,13.3445 15.8584,13.2905 15.7284,13.2905 C14.3174,13.2905 13.2404,13.3225 12.3994,13.3465 C10.3634,13.4075 9.5214,13.4305 8.6894,12.8135 C7.49970769,11.932141 7.34329086,10.4504382 7.33037682,6.29253989 L7.3294,5.5945 L7.3294,5.5945 C7.3294,5.5105 7.2934,5.4405 7.2214,5.3845 C7.1544,5.3315 7.0694,5.3035 6.9824,5.3035 Z M18.0508,2.7338 C19.8088,4.4908 20.9248,6.7998 20.8928,8.6168 C20.8808,9.3258 20.3658,9.9178 19.6698,10.0228 C18.3118,10.2278 16.7218,10.2898 15.3148,10.2898 C14.0048,10.2898 12.8518,10.2368 12.1888,10.1988 C11.3548,10.1498 10.6908,9.4848 10.6428,8.6508 C10.5648,7.3288 10.3958,3.9698 10.5158,1.3718 C10.5488,0.6168 11.1588,0.0158 11.9048,0.0028 C14.0418,-0.0592 16.2468,0.9328 18.0508,2.7338 Z M12.0328,1.5018 L12.0108,1.5018 C11.9008,4.0208 12.0638,7.2748 12.1398,8.5638 C12.1438,8.6408 12.1998,8.6968 12.2758,8.7008 C13.3038,8.7598 16.8458,8.9238 19.3928279,8.5488 C19.3988,7.1448 18.4378,5.2408 16.9908,3.7948 C15.5068,2.3128 13.7508,1.5018 12.0328,1.5018 Z" id="Combined-Shape"></path>
        </g>
    </g>
</svg>