<?xml version="1.0" encoding="UTF-8"?>
<svg width="24px" height="24px" viewBox="0 0 24 24" version="1.1" xmlns="http://www.w3.org/2000/svg" xmlns:xlink="http://www.w3.org/1999/xlink">
    <title>Iconly/Light-Outline/Hide</title>
    <g id="Iconly/Light-Outline/Hide" stroke="none" stroke-width="1" fill="none" fill-rule="evenodd">
        <g id="Hide" transform="translate(2.000000, 3.000000)" fill="#000000">
            <path d="M18.4174,0.21975 C18.7104,0.51275 18.7104,0.98775 18.4174,1.28075 L2.6434,17.05375 C2.4974,17.20075 2.3054,17.27375 2.1134,17.27375 C1.9214,17.27375 1.7294,17.20075 1.5834,17.05375 C1.2904,16.76075 1.2904,16.28675 1.5834,15.99375 L3.55534696,14.0230028 C2.14153178,12.7298365 0.942216653,10.9866302 0.0615,8.93395 C-0.0205,8.74395 -0.0205,8.52995 0.0615,8.34095 C1.0825,5.97695 2.5205,4.01995 4.2205,2.68295 C7.51332757,0.0769990431 11.8423054,-0.0613257214 15.2686834,2.30827702 L17.3574,0.21975 C17.6504,-0.07325 18.1244,-0.07325 18.4174,0.21975 Z M18.0472,5.04075 C18.7712,6.00175 19.4072,7.11275 19.9382,8.33875 C20.0212,8.52875 20.0212,8.74475 19.9382,8.93375 C17.8422,13.79075 14.1272,16.68975 10.0002,16.68975 C9.0632,16.68975 8.1312,16.53775 7.2312,16.23875 C6.8382,16.10775 6.6252,15.68275 6.7562,15.28975 C6.8872,14.89575 7.3102,14.68675 7.7052,14.81475 C8.4522,15.06375 9.2242,15.18975 10.0002,15.18975 C13.4282,15.18975 16.5612,12.74775 18.4302,8.63675 C17.9742,7.63775 17.4432,6.73275 16.8492,5.94275 C16.6002,5.61175 16.6662,5.14075 16.9972,4.89175 C17.3272,4.64275 17.7982,4.71075 18.0472,5.04075 Z M5.1495,3.86095 C3.7135,4.99095 2.4805,6.63695 1.5705,8.63895 C2.3639438,10.3913952 3.40632366,11.8693129 4.6170542,12.9607029 L6.75485503,10.8231134 C6.31993117,10.1831911 6.0859,9.42869604 6.0859,8.63855 C6.0859,6.47855 7.8419,4.72155 9.9999,4.72155 C10.7828812,4.72155 11.5487925,4.95995861 12.1864706,5.39085121 L14.1880037,3.38945022 C11.3351603,1.54522332 7.86298928,1.71346462 5.1495,3.86095 Z M13.2375,8.46155 C13.6455,8.53455 13.9165,8.92455 13.8435,9.33255 C13.5565,10.92555 12.2945,12.18955 10.7025,12.47955 C10.6575,12.48755 10.6115,12.49155 10.5675,12.49155 C10.2125,12.49155 9.8965,12.23755 9.8305,11.87555 C9.7565,11.46855 10.0265,11.07755 10.4345,11.00355 C11.4145,10.82555 12.1905,10.04755 12.3665,9.06655 C12.4405,8.65955 12.8305,8.39155 13.2375,8.46155 Z M9.9999,6.22155 C8.6689,6.22155 7.5859,7.30555 7.5859,8.63855 C7.5859,9.02393171 7.67662769,9.39593921 7.84765172,9.73001539 L11.093292,6.48399 C10.75914,6.31371 10.3833,6.22155 9.9999,6.22155 Z" id="Combined-Shape"></path>
        </g>
    </g>
</svg>