<?xml version="1.0" encoding="UTF-8"?>
<svg width="24px" height="24px" viewBox="0 0 24 24" version="1.1" xmlns="http://www.w3.org/2000/svg" xmlns:xlink="http://www.w3.org/1999/xlink">
    <title>Iconly/Light-Outline/Image</title>
    <g id="Iconly/Light-Outline/Image" stroke="none" stroke-width="1" fill="none" fill-rule="evenodd">
        <g id="Image" transform="translate(2.000000, 2.000000)" fill="#000000">
            <path d="M14.3004,4.61852778e-14 C17.6854,4.61852778e-14 19.9604,2.371 19.9604,5.899 L19.9604,14.051 C19.9604,17.579 17.6854,19.95 14.3004,19.95 L5.6504,19.95 C2.2704,19.95 0.0004,17.579 0.0004,14.051 L0.0004,5.899 C0.0004,2.371 2.2704,4.61852778e-14 5.6504,4.61852778e-14 L14.3004,4.61852778e-14 Z M14.3004,1.5 L5.6504,1.5 C3.1294,1.5 1.5004,3.227 1.5004,5.899 L1.5004,14.051 C1.5004,16.724 3.1294,18.45 5.6504,18.45 L14.3004,18.45 C16.8274,18.45 18.4604,16.724 18.4604,14.051 L18.4604,5.899 C18.4604,3.227 16.8274,1.5 14.3004,1.5 Z M14.9394,10.0994 C14.9457235,10.1045471 14.9519606,10.1096725 14.9649838,10.121843 L14.9843089,10.1402815 C14.9882193,10.144069 14.992511,10.1482513 14.9972392,10.152885 L15.0530599,10.2083029 C15.2334112,10.3888749 15.7318706,10.8979588 17.2174,12.4234 C17.5064,12.7194 17.5014,13.1944 17.2044,13.4834 C16.9084,13.7744 16.4324,13.7654 16.1434,13.4694 C16.1434,13.4694 14.0944,11.3664 13.9484,11.2244 C13.7934,11.0974 13.5444,11.0234 13.2994,11.0474 C13.0504,11.0724 12.8264,11.1914 12.6674,11.3844 C10.3434,14.2034 10.3154,14.2304 10.2774,14.2674 C9.4194,15.1094 8.0344,15.0954 7.1914,14.2354 C7.1914,14.2354 6.2614,13.2914 6.2454,13.2724 C6.0144,13.0584 5.6024,13.0724 5.3554,13.3334 L3.8254,14.9464 C3.6774,15.1024 3.4794,15.1804 3.2814,15.1804 C3.0954,15.1804 2.9104,15.1124 2.7654,14.9744 C2.4644,14.6904 2.4524,14.2144 2.7374,13.9154 L4.2654,12.3024 C5.0744,11.4434 6.4394,11.4014 7.3024,12.2114 L8.2604,13.1834 C8.5274,13.4534 8.9614,13.4584 9.2294,13.1944 C9.3304,13.0754 11.5084,10.4304 11.5084,10.4304 C11.9224,9.9284 12.5064,9.6184 13.1554,9.5544 C13.8054,9.4974 14.4364,9.6864 14.9394,10.0994 Z M6.5586,4.6289 C7.9406,4.6299 9.0636,5.7539 9.0636,7.1329 C9.0636,8.5139 7.9396,9.6379 6.5586,9.6379 C5.1776,9.6379 4.0546,8.5139 4.0546,7.1329 C4.0546,5.7519 5.1776,4.6289 6.5586,4.6289 Z M6.5576,6.1289 C6.0046,6.1289 5.5546,6.5789 5.5546,7.1329 C5.5546,7.6869 6.0046,8.1379 6.5586,8.1379 C7.1126,8.1379 7.5636,7.6869 7.5636,7.1329 C7.5636,6.5799 7.1126,6.1299 6.5576,6.1289 Z" id="Combined-Shape"></path>
        </g>
    </g>
</svg>