<?xml version="1.0" encoding="UTF-8"?>
<svg width="24px" height="24px" viewBox="0 0 24 24" version="1.1" xmlns="http://www.w3.org/2000/svg" xmlns:xlink="http://www.w3.org/1999/xlink">
    <title>Iconly/Light-Outline/Shield Done</title>
    <g id="Iconly/Light-Outline/Shield-Done" stroke="none" stroke-width="1" fill="none" fill-rule="evenodd">
        <g id="Shield-Done" transform="translate(4.000000, 2.000000)" fill="#000000">
            <path d="M8.4836,0 C9.6166,0 15.5616,2.041 16.3486,2.828 C17.0046,3.484 16.9946,4.014 16.9486,6.554 C16.9306,7.572 16.9056,8.959 16.9056,10.879 C16.9056,17.761 9.0356,20.223 8.7006,20.324 C8.6296,20.346 8.5566,20.356 8.4836,20.356 C8.4106,20.356 8.3376,20.346 8.2666,20.324 C7.9316,20.223 0.0616,17.761 0.0616,10.879 C0.0616,8.962 0.0366,7.575 0.0186,6.557 C0.0103857143,6.10289286 0.00331938776,5.71297577 0.000994087099,5.37506874 L0.000709375,4.99376562 C0.0092875,3.741125 0.12685,3.32 0.6196,2.828 C1.4046,2.041 7.3496,0 8.4836,0 Z M8.4836,1.5 C7.6356,1.5 2.2856,3.384 1.6686,3.899 C1.4866,4.082 1.4796,4.4 1.5186,6.529 C1.5366,7.555 1.5616,8.949 1.5616,10.879 C1.5616,16.08 7.2836,18.389 8.4826,18.814 C9.6806,18.387 15.4056,16.065 15.4056,10.879 C15.4056,8.947 15.4306,7.552 15.4496,6.526 C15.4876,4.399 15.4806,4.081 15.2876,3.889 C14.6826,3.384 9.3316,1.5 8.4836,1.5 Z M12.2051,7.3395 C12.4981,7.6325 12.4981,8.1075 12.2051,8.4005 L8.3071,12.2995 C8.1951,12.4123 8.05046,12.48542 7.895196,12.510156 L7.7771,12.5195 C7.5781,12.5195 7.3871,12.4405 7.2461,12.2995 L5.3541,10.4055 C5.0621,10.1125 5.0621,9.6365 5.3551,9.3445 C5.6471,9.0515 6.1231,9.0515 6.4161,9.3445 L7.7771,10.7075 L11.1451,7.3395 C11.4381,7.0465 11.9121,7.0465 12.2051,7.3395 Z" id="Combined-Shape"></path>
        </g>
    </g>
</svg>