<?xml version="1.0" encoding="UTF-8"?>
<svg width="24px" height="24px" viewBox="0 0 24 24" version="1.1" xmlns="http://www.w3.org/2000/svg" xmlns:xlink="http://www.w3.org/1999/xlink">
    <title>Iconly/Light-Outline/Ticket</title>
    <g id="Iconly/Light-Outline/Ticket" stroke="none" stroke-width="1" fill="none" fill-rule="evenodd">
        <g id="Group-10" transform="translate(1.000000, 3.000000)" fill="#000000">
            <path d="M17.451,0.9997 C19.683,0.9997 21.499,2.7977 21.499,5.0067 L21.5,7.6007 C21.5,7.7987 21.421,7.9907 21.28,8.1307 C21.14,8.2717 20.949,8.3507 20.75,8.3507 C19.963,8.3507 19.323,8.9787 19.323,9.7507 C19.323,10.5227 19.963,11.1507 20.75,11.1507 C21.164,11.1507 21.5,11.4867 21.5,11.9007 L21.5,14.4927 C21.5,16.7017 19.684,18.4997 17.452,18.4997 L4.048,18.4997 C1.816,18.4997 0,16.7017 0,14.4927 L0,11.9007 C0,11.4867 0.336,11.1507 0.75,11.1507 C1.537,11.1507 2.177,10.5227 2.177,9.7507 C2.177,9.0007 1.563,8.4347 0.75,8.4347 C0.551,8.4347 0.36,8.3557 0.22,8.2147 C0.079,8.0747 0,7.8827 0,7.6847 L0.001,5.0067 C0.001,2.7977 1.817,0.9997 4.049,0.9997 L17.451,0.9997 Z M17.451,2.4997 L13.349,2.4997 L13.3496,4.4209 C13.3496,4.8349 13.0136,5.1709 12.5996,5.1709 C12.1856,5.1709 11.8496,4.8349 11.8496,4.4209 L11.849,2.4997 L4.049,2.4997 C2.644,2.4997 1.501,3.6247 1.501,5.0067 L1.5,7.0247 C2.767,7.3357 3.677,8.4217 3.677,9.7507 C3.677,11.0927 2.751,12.2247 1.5,12.5537 L1.5,14.4927 C1.5,15.8747 2.643,16.9997 4.048,16.9997 L11.849,16.9997 L11.8496,15.5112 C11.8496,15.0962 12.1856,14.7612 12.5996,14.7612 C13.0136,14.7612 13.3496,15.0962 13.3496,15.5112 L13.349,16.9997 L17.452,16.9997 C18.857,16.9997 20,15.8747 20,14.4927 L20,12.5537 C18.749,12.2247 17.823,11.0927 17.823,9.7507 C17.823,8.4077 18.748,7.2767 20,6.9477 L19.999,5.0067 C19.999,3.6247 18.856,2.4997 17.451,2.4997 Z M12.5996,6.5042 C13.0136,6.5042 13.3496,6.8402 13.3496,7.2542 L13.3496,12.0752 C13.3496,12.4892 13.0136,12.8252 12.5996,12.8252 C12.1856,12.8252 11.8496,12.4892 11.8496,12.0752 L11.8496,7.2542 C11.8496,6.8402 12.1856,6.5042 12.5996,6.5042 Z" id="Combined-Shape"></path>
        </g>
    </g>
</svg>