<?xml version="1.0" encoding="UTF-8"?>
<svg width="24px" height="24px" viewBox="0 0 24 24" version="1.1" xmlns="http://www.w3.org/2000/svg" xmlns:xlink="http://www.w3.org/1999/xlink">
    <title>Iconly/Light-Outline/Unlock</title>
    <g id="Iconly/Light-Outline/Unlock" stroke="none" stroke-width="1" fill="none" fill-rule="evenodd">
        <g id="Unlock" transform="translate(4.000000, 2.000000)" fill="#000000">
            <path d="M8.3747,0.000299999999 C10.6307,0.000299999999 12.6447,1.4333 13.3837,3.5673 C13.5197,3.9583 13.3117,4.3853 12.9197,4.5213 C12.5287,4.6583 12.1017,4.4493 11.9657,4.0573 C11.4367,2.5283 9.9917,1.5003 8.3717,1.5003 L8.3577,1.5003 C6.2657,1.5003 4.5617,3.1943 4.5527,5.2843 L4.552,6.6263 L12.184,6.627 C14.688,6.627 16.726,8.665 16.726,11.17 L16.726,15.458 C16.726,17.963 14.688,20.001 12.184,20.001 L4.542,20.001 C2.037,20.001 1.13686838e-13,17.963 1.13686838e-13,15.458 L1.13686838e-13,11.17 C1.13686838e-13,9.18660957 1.27700322,7.49598326 3.05221246,6.87791102 L3.0527,5.3013 C3.0657,2.3633 5.4417,0.000299999999 8.3547,0.000299999999 L8.3747,0.000299999999 Z M12.184,8.127 L4.542,8.127 C2.864,8.127 1.5,9.492 1.5,11.17 L1.5,15.458 C1.5,17.136 2.864,18.501 4.542,18.501 L12.184,18.501 C13.861,18.501 15.226,17.136 15.226,15.458 L15.226,11.17 C15.226,9.492 13.861,8.127 12.184,8.127 Z M8.3633,11.4528 C8.7773,11.4528 9.1133,11.7888 9.1133,12.2028 L9.1133,14.4248 C9.1133,14.8388 8.7773,15.1748 8.3633,15.1748 C7.9493,15.1748 7.6133,14.8388 7.6133,14.4248 L7.6133,12.2028 C7.6133,11.7888 7.9493,11.4528 8.3633,11.4528 Z" id="Combined-Shape"></path>
        </g>
    </g>
</svg>