<?xml version="1.0" encoding="UTF-8"?>
<svg width="24px" height="24px" viewBox="0 0 24 24" version="1.1" xmlns="http://www.w3.org/2000/svg" xmlns:xlink="http://www.w3.org/1999/xlink">
    <title>Iconly/Light-Outline/Wallet</title>
    <g id="Iconly/Light-Outline/Wallet" stroke="none" stroke-width="1" fill="none" fill-rule="evenodd">
        <g id="Wallet" transform="translate(2.000000, 3.000000)" fill="#000000">
            <path d="M14.6416,3.55271368e-15 C17.9486,3.55271368e-15 20.6386,2.69 20.6386,5.998 L20.6386,13.175 C20.6386,16.482 17.9486,19.173 14.6416,19.173 L5.9976,19.173 C2.6906,19.173 -0.0004,16.482 -0.0004,13.175 L-0.0004,5.998 C-0.0004,2.69 2.6906,3.55271368e-15 5.9976,3.55271368e-15 L14.6416,3.55271368e-15 Z M14.6416,1.5 L5.9976,1.5 C3.5176,1.5 1.4996,3.518 1.4996,5.998 L1.4996,13.175 C1.4996,15.655 3.5176,17.673 5.9976,17.673 L14.6416,17.673 C17.1216,17.673 19.1386,15.655 19.1386,13.175 L19.1386,12.895 L15.8407,12.8956 C13.9437,12.8956 12.3997,11.3526 12.3987,9.4566 C12.3987,7.5586 13.9427,6.0146 15.8407,6.0136 L19.1386,6.013 L19.1386,5.998 C19.1386,3.518 17.1216,1.5 14.6416,1.5 Z M19.1386,7.513 L15.8407,7.5136 C14.7697,7.5146 13.8987,8.3856 13.8987,9.4556 C13.8987,10.5246 14.7707,11.3956 15.8407,11.3956 L19.1386,11.395 L19.1386,7.513 Z M16.2983,8.6436 C16.7123,8.6436 17.0483,8.9796 17.0483,9.3936 C17.0483,9.8076 16.7123,10.1436 16.2983,10.1436 L15.9863,10.1436 C15.5723,10.1436 15.2363,9.8076 15.2363,9.3936 C15.2363,8.9796 15.5723,8.6436 15.9863,8.6436 L16.2983,8.6436 Z M10.6846,4.5381 C11.0986,4.5381 11.4346,4.8741 11.4346,5.2881 C11.4346,5.7021 11.0986,6.0381 10.6846,6.0381 L5.2856,6.0381 C4.8716,6.0381 4.5356,5.7021 4.5356,5.2881 C4.5356,4.8741 4.8716,4.5381 5.2856,4.5381 L10.6846,4.5381 Z" id="Combined-Shape"></path>
        </g>
    </g>
</svg>